<?xml version="1.0" encoding="UTF-8"?>
<svg id="Isolation_Mode" data-name="Isolation Mode" xmlns="http://www.w3.org/2000/svg" viewBox="0 0 360 120">
  <defs>
    <style>
      .cls-1 {
        fill: none;
      }

      .cls-2 {
        fill: #fff;
      }

      .cls-3 {
        fill: #e80a14;
      }

      .cls-4 {
        fill: #82171b;
      }

      .cls-5 {
        fill: #91191e;
      }

      .cls-6 {
        fill: #ab1c22;
      }

      .cls-7 {
        fill: #1d6132;
      }
    </style>
  </defs>
  <g id="Group_4" data-name="Group 4">
    <g id="Group_2" data-name="Group 2">
      <path id="Path_63" data-name="Path 63" class="cls-2" d="m103.24,75.91c-5.24,0-8.76-4.38-8.76-15.93s3.52-15.93,8.76-15.93,8.76,4.38,8.76,15.93-3.52,15.93-8.76,15.93Zm0-29.03c-3,0-5.41,2.58-5.41,13.1s2.41,13.1,5.41,13.1,5.41-2.57,5.41-13.1-2.4-13.1-5.41-13.1h0Z"/>
      <path id="Path_64" data-name="Path 64" class="cls-2" d="m121.32,44.48l7.99,22.84h.08v-22.84h3.35v31h-3.61l-9.62-26.97h-.09v26.98h-3.35v-31h5.24Z"/>
      <path id="Path_65" data-name="Path 65" class="cls-2" d="m151.78,44.48v2.83h-10.82v10.56h7.99v2.83h-7.99v11.94h11.33v2.84h-14.68v-31h14.17Z"/>
      <path id="Path_66" data-name="Path 66" class="cls-2" d="m159.7,49.12h-5.15v-4.64h15.63v4.64h-5.15v26.37h-5.33v-26.37Z"/>
      <path id="Path_67" data-name="Path 67" class="cls-2" d="m178.59,75.49h-5.32v-31h7.47c5.97,0,9.02,2.53,9.02,9.15,0,4.98-1.93,7-3.74,7.82l4.51,14.04h-5.41l-3.78-12.84c-.91.09-1.83.14-2.75.13v12.71Zm0-17.09h1.89c2.88,0,3.95-1.07,3.95-4.77s-1.07-4.77-3.95-4.77h-1.89v9.53Z"/>
      <path id="Path_68" data-name="Path 68" class="cls-2" d="m194.13,75.49v-31h14.26v4.64h-8.93v7.99h6.87v4.64h-6.87v9.11h9.53v4.63h-14.86Z"/>
      <path id="Path_69" data-name="Path 69" class="cls-2" d="m212.59,75.49v-31h14.26v4.64h-8.93v7.99h6.87v4.64h-6.87v9.11h9.53v4.63h-14.86Z"/>
      <path id="Path_70" data-name="Path 70" class="cls-2" d="m230.96,44.48h7.3c4.98,0,8.24,3.35,8.24,8.5s-3.26,8.5-8.24,8.5h-3.95v14h-3.35v-31Zm3.35,14.17h3.52c3.35,0,5.33-1.8,5.33-5.67s-1.98-5.67-5.33-5.67h-3.52v11.34Z"/>
      <path id="Path_71" data-name="Path 71" class="cls-2" d="m253.27,44.48v28.17h10.05v2.84h-13.4v-31h3.35Z"/>
      <path id="Path_72" data-name="Path 72" class="cls-2" d="m276.74,44.48l6.83,31h-3.35l-1.85-9.19h-7.9l-1.85,9.2h-3.35l6.83-31h4.64Zm-5.8,18.97h6.96l-3.43-16.66h-.09l-3.44,16.66Z"/>
      <path id="Path_73" data-name="Path 73" class="cls-2" d="m291.69,44.48l7.99,22.84h.08v-22.84h3.35v31h-3.61l-9.61-26.96h-.09v26.97h-3.35v-31h5.23Z"/>
      <path id="Path_74" data-name="Path 74" class="cls-2" d="m322.03,44.48v2.83h-6.36v28.17h-3.35v-28.17h-6.36v-2.83h16.06Z"/>
      <path id="Path_75" data-name="Path 75" class="cls-2" d="m339.25,44.48v2.83h-10.82v10.56h7.99v2.83h-7.99v11.94h11.34v2.84h-14.69v-31h14.17Z"/>
      <path id="Path_76" data-name="Path 76" class="cls-2" d="m343.39,44.48h5.76c6.52,0,10.48,3.61,10.48,15.5s-3.95,15.5-10.48,15.5h-5.76v-31Zm3.35,28.17h1.8c4.9,0,7.73-2.06,7.73-12.67s-2.83-12.67-7.73-12.67h-1.8v25.34Z"/>
    </g>
  </g>
  <g>
    <path class="cls-7" d="m41.96,17.28C18.99,17.28.38,35.9.38,58.87s18.62,41.59,41.59,41.59,41.58-18.62,41.58-41.59-18.62-41.58-41.58-41.58"/>
    <path class="cls-5" d="m41.84,16.12s-20.45.38-25.45-10.86c-.02-3.77-2.87,6.93-2.87,6.93,0,0,7,11.26,26.94,8.45,1.03-.15,1.37-4.52,1.37-4.52"/>
    <path class="cls-3" d="m40.62,20.54S21.66,2.16,13.53,12.19c-.77-2.72,1.44-7.71,1.44-7.71,0,0,11.33-13.55,26.87,11.55.66,1.06-1.22,4.51-1.22,4.51"/>
    <path class="cls-5" d="m42.5,16.12s20.45.38,25.45-10.86c.02-3.77,2.87,6.93,2.87,6.93,0,0-6.99,11.26-26.94,8.45-1.03-.15-1.37-4.52-1.37-4.52"/>
    <path class="cls-3" d="m43.72,20.54s18.96-18.38,27.09-8.35c.78-2.72-1.44-7.71-1.44-7.71,0,0-11.32-13.55-26.87,11.55-.66,1.06,1.22,4.51,1.22,4.51"/>
    <path class="cls-6" d="m42.29,21.09c-1.18,0-2.15-.97-2.15-2.15v-2.42c0-1.18.97-2.15,2.15-2.15s2.15.97,2.15,2.15v2.42c0,1.18-.97,2.15-2.15,2.15"/>
    <path class="cls-4" d="m42.29,21.09h-.01c-1.13,0-2.06-.9-2.14-2.02.4.47.99.78,1.65.78,1.18,0,2.15-.97,2.15-2.16v-2.54c.31.38.5.86.5,1.39v2.39c0,1.19-.96,2.16-2.15,2.16h0"/>
    <g id="Group_4-2" data-name="Group 4">
      <g id="Group_3" data-name="Group 3">
        <path id="Path_77" data-name="Path 77" class="cls-2" d="m42.07,22.07c-20.27.02-36.69,16.45-36.72,36.72.02,20.27,16.45,36.7,36.72,36.72,20.27-.02,36.7-16.45,36.72-36.72-.02-20.27-16.45-36.7-36.72-36.72Zm17.07,64c-.18-.07-.35-.15-.35-.21.03-.32-.2-.6-.52-.64-.29,0-1.49-.48-1.8-.48-.15,0-.29.06-.4.16-.11-.1-.61-.45-.61-.62.04-.43-.27-.81-.69-.86-.38,0-1.26-.4-1.64-.4s-3.8-1.73-4.18-1.73c-.18,0-.35.09-.47.23-.1-.25-.33-.41-.59-.43-.15-.03-.26-.17-.26-.33.04-.42-.26-.8-.69-.86-.25,0-.89-.53-1.27-.53-.04,0-1.2-.96-1.58-.96-.32-.09-.63-.23-.91-.4-.22-4.96-.79-8.73-1-10.68-.11-.99-.18-1.53-.18-1.53-.15-.94-.25-2.12-.33-3.47-.47-7.87,0-21.55.28-27.48.04-.91.08-1.64.11-2.14,0-.09,0-.16.01-.23,0-.09,0-.18.01-.23,0-.11,0-.17,0-.17-.42.76-.67,1.61-.73,2.47-.87,5.14-1.42,10.32-1.64,15.53-.09,1.73-.14,3.38-.16,4.91-.1,3.41,0,6.82.29,10.22.3,4.08.56,8.04.97,13-.12.04-.25.09-.38.15-.59.25-1.24.61-1.31.88-.06.2-.25.42-.41.42-.3,0-1.01,1.09-1.09,1.09-.65.24-1.18.71-1.51,1.32-.21.31-.53.54-.9.62-.38,0-1.1.86-1.48.86-.26,0-1.3.28-1.68.28-.28.02-.53.21-.62.48-.28-.23-.63-.35-.99-.34-.67,0-1.54.64-1.71.64-.12,0-.24.04-.34.12-.1-.07-.22-.11-.35-.12-.03,0-.07,0-.1.01-.03,0-.06-.01-.1-.01-.38,0-1.4,1.21-1.64,1.21-.29.06-.57.17-.83.31h-.29c-9.45-5.87-15.2-16.21-15.21-27.34.02-17.77,14.42-32.18,32.2-32.2,17.78.02,32.18,14.42,32.2,32.2h0c0,11.09-5.72,21.4-15.13,27.28Z"/>
        <path id="Path_78" data-name="Path 78" class="cls-2" d="m37.56,59.32c-1.46-2.28-3.71-3.93-6.32-4.65-.32-.1-.66-.2-1.01-.28,0,0-4.78-1.12-6.74-.95,0,0,.03.02.1.04.26.12.83.5,1.98,1.09,2.63,1.34,5.13,2.93,7.47,4.73,2.67,2.11,5.18,3.34,6.04,6.13-.02-1.34-.19-2.68-.51-3.98-.25-.74-.59-1.45-1-2.12Z"/>
        <path id="Path_79" data-name="Path 79" class="cls-2" d="m46.46,42.72c1.58-.99,3.25-1.83,4.98-2.52.76-.3,1.3-.49,1.47-.55.04-.01.06-.02.06-.02-1.49-.08-2.98-.03-4.46.18-.23.03-.44.07-.65.12-1.68.29-3.2,1.2-4.25,2.54-.92,1.17-1.28,3.95-1.32,4.58.94-1.81,2.39-3.32,4.17-4.32Z"/>
        <path id="Path_80" data-name="Path 80" class="cls-2" d="m43.97,65.41c.32-.43.63-.9.99-1.35.38-.44.74-.91,1.17-1.34l.64-.66.68-.62c.32-.31.68-.58,1.03-.85.12-.1.24-.19.37-.29l.02-.02s0,0,.02-.01c.16-.12.32-.25.49-.37.46-.32.93-.63,1.4-.89.09-.05.18-.1.27-.15,0,0,0,0,.01,0l.04-.02c.16-.09.32-.17.48-.25l.2-.1c.39-.2.77-.36,1.13-.51-1.88.16-3.7.66-5.4,1.49-.44.26-.86.55-1.26.85-1.29.91-2.31,2.14-2.97,3.57-.12.29-.23.58-.31.88-.07.24-.12.49-.15.73.04.61.1,1.15.17,1.6.07-.14.13-.27.2-.41.24-.41.5-.84.78-1.29Z"/>
        <path id="Path_81" data-name="Path 81" class="cls-2" d="m54.81,57.58c-.12.02-.25.04-.39.07-.13.03-.26.07-.4.1-.31.1-.64.23-1,.38-.41.19-.85.4-1.3.66-.22.13-.45.27-.69.41-.23.14-.46.31-.69.46-.48.3-.92.69-1.39,1.04-.44.4-.91.77-1.32,1.2l-.63.63c-.2.22-.39.45-.59.67-.4.43-.72.92-1.07,1.35-.33.45-.6.92-.88,1.34-.24.45-.47.87-.68,1.26l-.48,1.11c-.03.06-.05.11-.07.17-.04.12-.06.2-.08.24,1.08-.28,2.12-.69,3.1-1.22,1.42-.75,2.72-1.71,3.86-2.84,1.53-1.53,2.77-3.33,3.65-5.31.51-.88,1.35-1.52,2.33-1.78h-.08c-.4-.02-.81,0-1.21.05Z"/>
        <path id="Path_82" data-name="Path 82" class="cls-2" d="m37.33,39.5c-.27-.2-.55-.39-.84-.57-1.13-.55-2.36-.89-3.61-.99.24.1.49.21.75.34l.13.07c.11.05.21.11.32.17,0,0,.02.01.03.02h0s.18.1.18.1c.32.18.63.38.94.59.11.08.22.16.33.25h.01s.01.02.01.02c.09.06.17.13.25.2.24.18.47.37.69.57l.46.41c.14.15.28.29.42.44.29.28.53.6.79.89.24.3.45.61.66.9.12.2.35.65.51.92l.14-1.32c-.06-.22-.14-.51-.19-.61-.44-.96-1.12-1.78-1.98-2.39Z"/>
        <path id="Path_83" data-name="Path 83" class="cls-2" d="m39.19,44.76c-.1-.22-.2-.47-.32-.74l-.45-.85c-.19-.28-.37-.59-.59-.9-.23-.29-.45-.62-.72-.91l-.39-.45-.42-.42c-.28-.29-.6-.54-.89-.81-.32-.24-.61-.49-.93-.7-.16-.11-.31-.22-.46-.31s-.31-.18-.46-.27c-.3-.17-.6-.32-.87-.44-.24-.1-.46-.19-.67-.25-.09-.02-.18-.05-.26-.07s-.18-.03-.26-.05c-.27-.04-.54-.05-.8-.04h-.05c.66.18,1.22.61,1.56,1.2.59,1.32,1.42,2.53,2.44,3.55.76.76,1.63,1.4,2.58,1.9.65.36,1.35.63,2.07.81,0-.02-.03-.08-.05-.16-.01-.03-.03-.07-.04-.11Z"/>
      </g>
    </g>
    <path class="cls-3" d="m37.52,19.59c-7.83,6.24-13.5,14.21-17.54,23.05l4.2-2.41,2.14,3.72c3.07-9.17,8.3-17.49,15.79-24.05-1.98-1.34-4.59-.31-4.59-.31Z"/>
    <path class="cls-3" d="m60.27,39.97l5.03,3.48c-4.05-9.17-9.84-17.43-17.91-23.87,0,0-2.62-1.03-4.59.31,7.2,6.32,12.33,14.26,15.44,23.01l2.03-2.93Z"/>
  </g>
  <rect class="cls-1" width="360" height="120"/>
</svg>