<svg id="Layer_1" data-name="Layer 1" xmlns="http://www.w3.org/2000/svg" viewBox="0 0 125 125"><defs><style>.cls-1{fill:#03a196;}.cls-2{fill:none;}.cls-3,.cls-4{fill:#fff;}.cls-3,.cls-6{opacity:0.75;}.cls-5{opacity:0.5;}</style></defs><circle class="cls-1" cx="62.5" cy="62.5" r="62.5"/><rect class="cls-2" x="22.5" y="22.5" width="80" height="80"/><ellipse class="cls-3" cx="62.5" cy="62.5" rx="37.5" ry="37.09"/><path class="cls-4" d="M603.14,628a36,36,0,0,1-13.07,20.86,38,38,0,0,1-50.16-2.63,36.87,36.87,0,0,1-3.44-48.52v5.1a7.41,7.41,0,0,0,1.41,4.33q2.65,4,5.48,8a17.08,17.08,0,0,0,2.81,3.25l.16.15a19.06,19.06,0,0,0,5,3.4l7.67,4a4.43,4.43,0,0,1,2.5,4.33v4.94a4.6,4.6,0,0,0,1.41,3.4q4.22,4.17,3.6,8v2a3.22,3.22,0,0,0,.94,2.25,3.08,3.08,0,0,0,2.34,1h.32a2.23,2.23,0,0,1,.94-.15,3.16,3.16,0,0,0,2.66-2.48l2.19-6.49.39-1.23c.15-.52.28-.93.39-1.24a3.82,3.82,0,0,1,.94-1.7l1.72-1.7a6.93,6.93,0,0,0,2.19-5.1,4.6,4.6,0,0,0-1.41-3.4l-2.19-2.16A4.71,4.71,0,0,0,574.5,625H564a17.62,17.62,0,0,1-2.27-2.63c-1.2-1.55-2.11-2.32-2.73-2.32a9.88,9.88,0,0,1-4.7-1.08l-1.72-.93c-1.15-.62-1.46-1.44-.94-2.47a1.89,1.89,0,0,1,1.1-.93l4.85-1.54a2.35,2.35,0,0,1,2.5.46l1.41,1.24a2.62,2.62,0,0,0,.78.31h.94a1.1,1.1,0,0,0,1.25-1.24,1.45,1.45,0,0,0-.15-.62L562,608.41a1,1,0,0,1,.16-1.39l1.56-1.54a2.37,2.37,0,0,1,.94-.31h1.41a1.06,1.06,0,0,0,.78-.31l1.25-1.24c.84-.62.84-1.24,0-1.85l-.62-.62a1.15,1.15,0,0,1,0-1.86l1.56-1.54.78-.77a2.11,2.11,0,0,0,0-3.4l-3.91-3.87a1.52,1.52,0,0,0-1.41-.46h-1.25a1.86,1.86,0,0,0-1.72,2,2.59,2.59,0,0,1-1.88,2.47,1.79,1.79,0,0,1-1.72-.31,5.07,5.07,0,0,1-2.5-1.7l-5.32-4.94a35.3,35.3,0,0,1,16.43-3.87,37,37,0,0,1,21,6.26,36,36,0,0,1,13.61,16.46l-4.38.31a15.44,15.44,0,0,0-4.23,1.24,6.65,6.65,0,0,0-1.56,1.23l-3,4.64a3,3,0,0,0,0,4l2.81,4.17a4.26,4.26,0,0,0,1.57,1.39l3.28,1.54Z" transform="translate(-503.96 -557.5)"/><g class="cls-5"><path class="cls-6" d="M566.46,660.09c.83,0,1.64,0,2.46-.09H564C564.81,660.05,565.63,660.09,566.46,660.09Z" transform="translate(-503.96 -557.5)"/><path class="cls-2" d="M606.46,580h-80v80H564a37.25,37.25,0,0,1-35-37c0-.5,0-1,0-1.5s0-1,0-1.5a37.5,37.5,0,0,1,75,0c0,.5,0,1,0,1.5s0,1,0,1.5a37.25,37.25,0,0,1-35,37h37.54Z" transform="translate(-503.96 -557.5)"/><path class="cls-6" d="M604,623c0-.5,0-1,0-1.5a37.51,37.51,0,0,1-74.92,0c0,.5,0,1,0,1.5a37.25,37.25,0,0,0,35,37h4.92A37.25,37.25,0,0,0,604,623Z" transform="translate(-503.96 -557.5)"/></g></svg>