<svg id="Layer_1" data-name="Layer 1" xmlns="http://www.w3.org/2000/svg" viewBox="0 0 125 125"><defs><style>.cls-1{fill:#ff5a5f;}.cls-2,.cls-3{fill:#fff;}.cls-3,.cls-6{opacity:0.75;}.cls-4{fill:none;}.cls-5{opacity:0.5;}</style></defs><circle class="cls-1" cx="62.5" cy="62.5" r="62.5"/><path class="cls-2" d="M306.36,614.79,326.15,631a4.34,4.34,0,0,1,.66,6l-1.33,1.46a4.35,4.35,0,0,1-6,.67l-.66-.54-4.26,5.05a5.07,5.07,0,0,1-3.32,1.86,4.46,4.46,0,0,1-3.58-1.06l-2.4-2.13a8.4,8.4,0,0,1-5.78,3.19,7.79,7.79,0,0,1-6.17-1.86l-12.07-10.88H266.12a4.3,4.3,0,0,1-4.25-4.25V607.23a4.09,4.09,0,0,1,4.25-4.25h12.75a28,28,0,0,1,20.58-8.5h.8l-10.89,9.95a9,9,0,0,0-3.05,6.58,9.47,9.47,0,0,0,5.71,9.22,9.89,9.89,0,0,0,4.92.73,9,9,0,0,0,5.44-2.45Z" transform="translate(-241.87 -557.5)"/><path class="cls-3" d="M342.63,603a4.09,4.09,0,0,1,4.24,4.25v21.25a4.3,4.3,0,0,1-4.24,4.25h-10.9a7.82,7.82,0,0,0-2.92-5L309.55,612l3.46-3.19c1.06-1.07,1.11-2.08.13-3.06a2,2,0,0,0-3.05-.13l-10.63,9.7a6.43,6.43,0,0,1-4.32,1.33,5,5,0,0,1-3.12-1.6,5.41,5.41,0,0,1-1.46-3.78,4.62,4.62,0,0,1,1.73-3.66v-.13l13-12a4.59,4.59,0,0,1,2.93-1.07h1.19a27.89,27.89,0,0,1,20.45,8.5Z" transform="translate(-241.87 -557.5)"/><rect class="cls-4" x="22.5" y="22.5" width="80" height="80"/><g class="cls-5"><path class="cls-6" d="M327.44,635.84a3.83,3.83,0,0,1-.63,1.13l-1.33,1.46a4.35,4.35,0,0,1-6,.67l-.66-.54-4.26,5.05a5.07,5.07,0,0,1-3.32,1.86,4.46,4.46,0,0,1-3.58-1.06l-2.4-2.13a8.4,8.4,0,0,1-5.78,3.19,7.79,7.79,0,0,1-6.17-1.86l-12.07-10.88H266.12a4.11,4.11,0,0,1-1.75-.39,4.25,4.25,0,0,1-1.23-.87,4.06,4.06,0,0,1-1.27-3v3a4.06,4.06,0,0,0,1.27,3,4.25,4.25,0,0,0,1.23.87,4.11,4.11,0,0,0,1.75.39h15.15l12.07,10.88a7.79,7.79,0,0,0,6.17,1.86,8.4,8.4,0,0,0,5.78-3.19l2.4,2.13a4.46,4.46,0,0,0,3.58,1.06,5.07,5.07,0,0,0,3.32-1.86l4.26-5.05.66.54a4.35,4.35,0,0,0,6-.67l1.33-1.46a4.07,4.07,0,0,0,.87-3.12A4.66,4.66,0,0,0,327.44,635.84Z" transform="translate(-241.87 -557.5)"/><path class="cls-6" d="M289.36,607.43l10.89-9.95h-.8c-.88,0-1.75,0-2.6.11l-7.49,6.84a9,9,0,0,0-3.05,6.58,10.5,10.5,0,0,0,.11,1.87A8.9,8.9,0,0,1,289.36,607.43Z" transform="translate(-241.87 -557.5)"/><path class="cls-6" d="M295.14,616.66a5,5,0,0,1-3.12-1.6,5.43,5.43,0,0,1-1.22-2.21,4.76,4.76,0,0,0-.24,1.43,5.41,5.41,0,0,0,1.46,3.78,5,5,0,0,0,3.12,1.6,6.43,6.43,0,0,0,4.32-1.33l10.63-9.7a2,2,0,0,1,3,.09,1.88,1.88,0,0,0,.05-3,2,2,0,0,0-3.05-.13l-10.63,9.7A6.43,6.43,0,0,1,295.14,616.66Z" transform="translate(-241.87 -557.5)"/><path class="cls-4" d="M343.53,632.62h0Z" transform="translate(-241.87 -557.5)"/><path class="cls-6" d="M343.55,632.61h0a4.43,4.43,0,0,1-.9.1h-10.9a7.82,7.82,0,0,0-2.92-5l-17.53-14.27-1.73,1.6,19.26,15.67a7.82,7.82,0,0,1,2.92,5h10.9a4,4,0,0,0,1.74-.39,4.3,4.3,0,0,0,1.24-.87,4.09,4.09,0,0,0,1.26-3v-3a4.31,4.31,0,0,1-3.32,4.14Z" transform="translate(-241.87 -557.5)"/><path class="cls-6" d="M342.63,632.72a4.43,4.43,0,0,0,.9-.1A3.82,3.82,0,0,1,342.63,632.72Z" transform="translate(-241.87 -557.5)"/><path class="cls-3" d="M342.63,632.72a4.43,4.43,0,0,0,.9-.1A3.82,3.82,0,0,1,342.63,632.72Z" transform="translate(-241.87 -557.5)"/></g></svg>