<?xml version="1.0" encoding="utf-8"?>
<!-- Generator: Adobe Illustrator 25.3.1, SVG Export Plug-In . SVG Version: 6.00 Build 0)  -->
<svg version="1.1" id="Layer_1" xmlns="http://www.w3.org/2000/svg" xmlns:xlink="http://www.w3.org/1999/xlink" x="0px" y="0px"
	 viewBox="0 0 225 225" style="enable-background:new 0 0 225 225;" xml:space="preserve">
<style type="text/css">
	.st0{fill:none;}
	.st1{fill:#333333;}
	.st2{fill:#00A196;}
</style>
<path class="st0" d="M0,0h225v225H0V0z"/>
<g>
	<path class="st1" d="M81.7,114c-0.4,0-0.8-0.1-1.1,0c-1.3,0.3-2.2-0.6-3.3-1c-0.6-0.2-0.4-1.5,0.2-1.7c0.5-0.2,1.1-0.3,1.6-0.3
		c4-0.5,7.9-1,11.9-1.4c0.2-0.4,0-0.7-0.3-0.9c-4.2-3.7-8.8-6.6-14.1-8.4c-1.2-0.4-2-0.2-3,0.6c-2.6,2.2-5.6,3.8-8.9,4.4
		c-7,1.2-13.2-0.6-18.2-5.8c-1.8-1.8-2.7-4.1-2.9-6.6c-0.3-3.2,0.1-6.3,1.2-9.3c0.8-2.1,1.9-3.9,3.6-5.3c3-2.6,6.4-4.5,10.5-5
		c5.2-0.6,10.2-0.1,14.9,2.3c3.7,1.9,6,4.9,7,9c0.4,1.5,0.2,3.1,0.1,4.6c0,0.4-0.1,0.8-0.2,1.2c-0.2,0.6,0.1,0.9,0.6,1.1
		c1.4,0.6,2.8,1.2,4.2,1.9c5.6,2.8,10.6,6.5,14.7,11.4c1.1-0.4,1.9-1.3,3-1.9c1-0.6,1.9-1.2,2.5-2.2c0.3-0.5,0.7-0.5,1.2,0
		c0.8,0.8,0.8,0.8,0.3,1.8c-0.2,0.4-0.4,0.7-0.4,1.2c0,1.2,0,2.4,0.1,3.6c0,0.7,0.2,0.8,0.9,0.8c0.5,0,1-0.1,1.5-0.1
		c1.8-0.1,3.6-0.2,5.5-0.3c0.7,0,1.4-0.1,2-0.1c0.3-0.6-0.1-0.8-0.3-1c-1.8-1.7-3.9-3-5.8-4.6c-0.4-0.3-0.8-0.6-1.1-0.9
		c-0.5-0.4-0.3-1.1,0.3-1.4c0.3-0.1,0.7-0.2,1-0.3c0.3,0,0.7,0,1,0c2.9-0.1,3-0.2,3-2.9c0-1.7,0.1-3.5-0.1-5.2
		c-1-0.3-1.9-0.5-2.9-0.8c-2.8-0.8-5.2-2.3-7.3-4.4c-0.8-0.8-1.6-1.6-2.4-2.3c-3.6-3.3-5.4-7.4-5.4-12.3c0-2,0.1-4.1,0.6-6
		c1.1-4,3.5-7.1,7-9.4c2.4-1.6,5.1-2.5,7.9-3.2c4.5-1.2,9.1-1.5,13.7-0.7c8.5,1.5,14,7.2,16,15.3c0.6,2.5,0.4,5-0.1,7.5
		c-1.5,7.1-5.7,12-12.5,14.7c-1.9,0.7-3.8,1.3-5.8,1.7c-0.5,0.1-0.7,0.3-0.7,0.8c0,2,0,4.1,0,6.1c0,0.5,0.3,0.8,0.8,0.7
		c0.4,0,0.8,0,1.3-0.1c1.8-0.2,3.6-0.1,5.4,0.4c-0.3,1.1-1.4,2.8-2.4,3.7c-0.4,0.4-0.9,0.9-1.3,1.4c-0.7,0.9-1.4,1.7-2.1,2.6
		c0.3,0.6,0.8,0.4,1.2,0.4c0.9,0,1.8,0,2.7,0c1.6,0,1.6,0,0.9-1.3c-0.3-0.7-0.1-1.3,0.6-1.5c0.4-0.1,0.8-0.1,1.2-0.2
		c0.3,0,0.6,0.1,0.6,0.4c0.2,1.1,1,1.8,1.9,2.5c1.8-4.1,5-6.7,8.6-9c2.7-1.7,5.5-3.3,8.3-4.9c0.8-0.4,1.3-0.8,1.5-1.8
		c0.4-1.6,1.1-3,1.7-4.5c0.4-1,1.1-1.8,1.9-2.5c2.5-2.3,5.4-3.7,8.9-3.9c3.4-0.2,6.7,0.3,9.8,1.9c2.5,1.3,4.5,3.1,5.9,5.5
		c2.4,4.2,2.3,8.6,0.2,12.9c-1.6,3.2-4.5,4.9-7.9,5.8c-1.4,0.4-2.7,0.6-4.2,0.4c-1.8-0.2-3.7-0.2-5.4-0.6c-4.2-0.8-7.7-3-9.9-6.8
		c-0.1-0.2-0.3-0.5-0.4-0.7c0-0.1-0.1-0.1-0.2-0.2c-0.5-0.1-0.8,0.4-1.2,0.7c-2.8,2.3-5.1,5-7.2,7.9c-0.3,0.5-0.2,0.8,0.4,0.9
		c2.4,0.3,4.7,0.6,7.1,1c0.5,0.1,1,0.2,1.4,0.3c1.8,0.5,2.9,2.6,2.2,4.3c-0.1,0.3-0.3,0.7-0.7,0.8c-0.8,0.1-1.5,0.8-2.4,0.8
		c-1.2,0.1-1.2,0.1-1.4,1.1c-0.3,2-0.7,4-0.9,6c-0.7,5.8-1.4,11.7-2,17.5c-0.4,3.6-0.7,7.1-0.9,10.7c-0.2,3.2-0.7,6.3-1,9.4
		c-0.3,2.6-0.7,5.1-0.8,7.7c0,0.3,0,0.7-0.1,1c-0.2,0.9-0.6,1.2-1.5,0.9c-0.5-0.2-0.9-0.1-1.3,0.2c-0.5,0.4-1.1,0.5-1.7,0.7
		c-4.5,0.9-9,1.9-13.7,2.3c-3.9,0.3-7.8,0.7-11.7,0.5c-6-0.2-12-0.3-18.1-0.7c-2.3-0.2-4.6-0.5-6.5-2.1c-0.1-0.1-0.2-0.2-0.3-0.2
		c-1.4,0-1.6-1.1-2-2.1c-0.6-1.5-0.8-3.1-1.1-4.7c-0.7-3.6-1.2-7.2-1.6-10.8c-0.2-1.9-0.3-3.9-0.5-5.9c-0.6-7.1-1.2-14.2-1.7-21.4
		c-0.2-3.3-0.4-6.6-0.9-9.8C82.1,115.2,82,114.6,81.7,114z M46.6,97.9c-0.2-0.1-0.3-0.6-0.7-0.4c0-0.1,0-0.3,0-0.4
		c0-0.1-0.1-0.3-0.1-0.3c-0.1,0-0.1,0.1-0.1,0.3c0.1,0.1,0.2,0.2,0.2,0.3c0.2,0.2,0.3,0.4,0.5,0.6c0.1,0.1,0.2,0.2,0.2,0.2
		C46.9,98.1,46.8,98,46.6,97.9z M47.3,99.1c-0.1-0.1,0-0.5-0.3-0.2C47.1,99,47.2,99,47.3,99.1c0,0.1,0,0.5,0.3,0.2
		C47.5,99.2,47.4,99.1,47.3,99.1z M99.4,166.4c0,0.4,0.1,0.9,0.1,1.5C99.9,167.2,99.9,166.8,99.4,166.4c-0.1-0.7,0-1.4-0.1-2.1
		c-0.4-2.4-0.7-4.8-0.8-7.2c-0.1-2.5-0.2-5-0.4-7.5c-0.1-1-0.3-2.1-0.3-3.1c0-0.1,0-0.3-0.1-0.4c-0.1-0.2-0.3-0.3-0.5-0.3
		c-0.2,0-0.5,0.2-0.5,0.3c-0.1,0.4-0.1,0.8-0.1,1.2c0.4,2.9,0.8,5.8,1.1,8.7c0.2,1.3,0.3,2.6,0.5,3.9c0.2,1.4,0.2,2.9,0.6,4.3
		C98.9,165,98.8,165.8,99.4,166.4z M130.1,121.6c-0.2,0.3-0.1,0.7,0.1,0.9c0.3,0.3,0.4-0.1,0.7-0.2c0.2,0,0.4,0,0.6-0.1
		c2.1-0.9,4.3-1.6,6.5-2.2c1.7-0.5,3.3-1,5-1.5c-0.1-0.9-0.8-1.4-1.3-2c-0.5-0.7-1-1-1.9-0.5c-0.6,0.3-1.2,0-1.3-0.6
		c-0.1-1-0.7-1-1.4-1.1c-0.9,0-1.8,0-2.7-0.2c-1-0.2-2-0.2-2.9-0.2c-1,0-1.2,0.2-1.3,1.2C130.1,117.2,130,119.4,130.1,121.6z
		 M144.3,119.5c-0.4-0.3-0.8-0.1-1.2,0c-3.2,1.1-6.5,2.2-9.7,3.3c-1.1,0.4-2.2,0.7-2.8,2c-0.2,0.5-1,0.5-1.4,0.1
		c-0.6-0.6-1.1-1.2-1.1-2.2c0.1-2.7-0.1-5.3,0.4-8c0.1-0.3,0-0.7,0-1c-0.4-0.4-0.8-0.3-1.2-0.3c-1.5-0.1-3.1-0.1-4.6-0.2
		c-4.8-0.4-9.7-0.2-14.5-0.4c-0.1,0-0.2,0-0.2,0c-0.2,0.1-0.4,0.2-0.5,0.3c-0.1,0.2,0,0.4,0.2,0.5c0.6,0.3,0.7,0.8,0.7,1.4
		c0,0.4,0,0.8-0.1,1.3c-0.2,2.2-0.4,2.3-2.6,2.2c-0.2,0-0.4,0-0.6-0.1c-1.9-0.7-3.8-0.8-5.8-1.2c-3.4-0.6-6.8-0.8-10.2-0.4
		c-0.5,0.1-1,0-1.4-0.1c-0.8-0.2-1.1-1.1-0.7-1.8c0.3-0.5,1.1-0.7,1.2-1.5c-1.4-0.3-2.7,0.1-4.2,0.3c0.3,1.6,0.5,3,0.8,4.4
		c1.5,7.9,3.5,15.7,4.6,23.7c0.4,3.1,1,6.2,1,9.4c0,4.3,0.1,8.5,0.4,12.8c0.1,1,0,2,0,2.9c0,0.6-0.1,1.2-0.3,1.8
		c1.7,1.7,3.1,2.2,5.8,2.5c1.8,0.2,3.6,0.2,5.5,0.2c5.5-0.2,10.9-0.2,16.4-0.4c7.3-0.3,14.5-1.2,21.7-2.4c-0.5-0.2-0.9-0.3-1.2-0.5
		c-0.4-0.2-0.3-0.8-0.5-1.2c-0.8,0.5-1.6,0.9-2.4,1c-2.4,0.3-4.9,0.6-7.3,0.8c-4.9,0.4-9.8,0.5-14.7,0.4c-4.4-0.1-8.8-0.2-13.2-0.3
		c-1,0-2-0.1-2.9-0.1c-0.8,0-1.5-0.2-2.3-0.4c-0.3-0.1-0.6-0.3-0.5-0.6c0.2-0.8-0.3-1.5-0.4-2.2c-0.6-4.6-1.4-9.3-2.1-13.9
		c-0.6-3.7-1.2-7.3-1.5-11c-0.3-3.1-0.6-6.3-1-9.4c-0.4-4.5-0.9-8.9-1.3-13.4c0-0.2,0-0.4,0.1-0.6c0-0.1,0.2-0.2,0.3-0.2
		c0.1,0,0.3,0.1,0.4,0.1c0.3,0.3,0.3,0.8,0.4,1.2c0.2,1.5,0.4,3.1,0.6,4.6c0.5,3.1,1,6.2,1.5,9.3c0.5,3,0.9,6.1,1.4,9.2
		c1.3-0.3,2.6-0.1,4-0.2c6.1-0.4,12.2-0.8,18.2-1.3c0.8-0.1,1.7,0.2,2.2-0.8c0.1-0.2,0.5-0.2,0.8-0.2c0.9-0.1,1.8-0.1,2.7-0.2
		c0.4,0,0.8-0.1,1,0.2c0.5,1.1,1.5,0.8,2.4,0.8c4.3,0,8.6-0.1,12.8,0.5c0.9,0.1,1.8,0.3,2.7,0.4c0.1-0.3,0.2-0.4,0.2-0.6
		c1.1-5.7,2.3-11.4,3.5-17.1C143.5,121.8,143.7,120.6,144.3,119.5z M120.8,53.9c-4.8,0-9.3,0.8-13.6,3c-5,2.4-7.9,6.3-8.4,11.9
		c-0.4,3.9,0.2,7.6,2.5,10.8c1.4,1.9,3,3.7,4.8,5.2c1.8,1.5,3.8,2.7,6,3.8c1.3,0.6,2.6,1.2,4,1.2c0.7,0,1.4,0,2.1,0.1
		c5.2,0.3,10-1.1,14.3-3.9c6.1-4.1,8.2-10.1,7.7-17.3c-1.4-6.4-5.9-12.5-13.6-14.2C124.7,54,122.7,54,120.8,53.9z M136.4,146.9
		c0-1,0-2,0-2.9c0-0.4-0.3-0.7-0.7-0.6c-2.2,0.6-4.4,0.4-6.7,0.6c-3.5,0.4-7.1,0.6-10.6,0.9c-3.3,0.3-6.7,0.4-10,0.5
		c-2.4,0.1-4.9,0.5-7.3,0.4c-0.7,0-0.9,0.2-0.9,1.1c0.1,1.7,0.3,3.3,0.5,5c0.3,2.3,0.7,4.7,0.7,7.1c0,2.6,0.2,5.2,0.4,7.7
		c0.1,0.9,0.1,1,1,1c1.7,0,3.4-0.3,5-0.3c5.3,0,10.6-0.5,15.9-0.5c0.6,0,1.3-0.1,1.9,0c2.5,0.1,4.9-0.5,7.3-0.5
		c0.3,0,0.6-0.1,0.8-0.2c0.5-0.2,0.8-0.4,0.9-1c0.1-1.4,0.4-2.8,0.5-4.2c0.1-1.7,0.3-3.3,0.5-5C136.1,153,136.3,149.9,136.4,146.9z
		 M62.5,75.5c-1,0-2-0.1-2.9,0c-3.2,0.3-6.1,1.4-8.7,3.2c-1.6,1.1-2.8,2.6-3.4,4.4c-1.4,3.9-1.6,7.8,0,11.7c1.7,4.1,4.6,7,9.1,7.9
		c1.9,0.4,3.9,0.5,5.9,0.3c3.2-0.2,6.2-1.2,8.9-2.9c0.3-0.2,0.6-0.4,0.7-0.9c0.1-1.2,0.2-1.3,1.3-1.4c0.6-0.1,1.2,0,1.7-0.5
		c1-1.1,1.9-2.2,2.5-3.6c3.3-8-1.6-15.6-8.3-17.5C66.9,75.7,64.7,75.5,62.5,75.5z M167.1,105.5c3.5,0.1,5.2-0.2,7.8-1.8
		c1.8-1,3.1-2.5,3.8-4.4c2.4-6.2-0.1-12-5.7-14.9c-2.2-1.1-4.6-1.6-7.1-1.6c-6.8,0-12,5-12.6,11.8c-0.1,0.9-0.2,1.8,0.6,2.5
		c0.2,0.2,0.3,0.5,0.2,0.8c-0.1,0.6,0.3,1.1,0.6,1.5c2.8,3.7,6.2,6.2,11.1,6.1C166.3,105.4,166.7,105.5,167.1,105.5z M105.3,105.2
		c0-0.4,0-0.8-0.1-1.1c-0.1-0.3-0.4-0.5-0.6-0.3c-1.3,0.9-3.1,1.2-3.7,3.2c-0.3,1.1-1.5,1.2-2.4,0.4c-0.3-0.3-0.6-0.7-0.6-1.1
		c-0.1-1-0.7-1.6-1.4-2.3c-1.3-1.4-2.7-2.6-4.1-3.9c-3-2.7-6.4-4.7-9.9-6.7c-0.6-0.3-1.3-0.5-2-0.6c-0.4-0.1-0.7,0-0.9,0.4
		c-0.8,1.6-1.8,3-2.8,4.4c-0.3,0.4-0.2,0.9,0.3,1c3.4,0.8,6.6,2.3,9.6,4.1c2.8,1.6,5.5,3.3,7.4,6c0.2,0.3,0.5,0.5,0.9,0.4
		c2.7-0.4,5.4-0.7,8.1-0.8c1.5-0.1,1.6-0.3,1.9-1.9C105.1,106,105.2,105.6,105.3,105.2z M144.8,119.2c0,0.6-0.1,1.2-0.2,1.8
		c-0.4,1.9-0.7,3.9-1,5.8c-0.7,4.1-1.3,8.3-2,12.4c-0.1,0.7-0.3,1.4-0.1,2.1c0.2,0.8,0.1,1.5,0.1,2.3c-0.4,5.6-0.9,11.2-1.2,16.7
		c-0.2,2.7,0.4,5.4-0.1,8.2c0.6-0.7,1.7-0.1,2-0.8c0.3-0.6,0.1-1.5,0.1-2.3c0-0.3,0-0.7-0.1-1c-0.7-7.3-0.1-14.5,1.1-21.7
		c1.1-6.9,2.6-13.7,4.3-20.5c0.5-2,0.9-4.1,1.3-6.1c0.1-0.7-0.1-0.9-0.8-0.9c-1.2-0.1-2.4-0.2-3.6-0.3c-0.6,0-1.2-0.1-1.7-0.1
		c0,0.5,0.2,0.7,0.4,0.8c0.9,0.8,1.9,1.7,2.8,2.5c0.2,0.1,0.3,0.3,0.3,0.5c0,0.3-0.2,0.3-0.4,0.4
		C145.6,119.1,145.2,118.9,144.8,119.2z M114.6,109.5c-4.3,0.1-8.7,0.1-13.1,0.3c-2.7,0.1-5.4,0.5-8.2,0.6
		c-3.9,0.1-7.7,0.7-11.5,1.1c-0.7,0.1-1.4,0.2-2,0.4c-0.2,0-0.4,0.3-0.4,0.5c-0.1,0.4,0.6,1.1,1,1.1c0.5,0,0.9-0.1,1.3-0.6
		c0.7-0.8,0.8-0.8,1.5-0.2c0.4,0.3,0.7,0.4,1.1,0.4c0.6-0.1,1.3-0.1,1.9-0.2c1.7-0.2,3.5-0.4,5.2-0.6c1.3-0.1,2.5,0,3.8-0.1
		c4.2-0.4,8.4-0.5,12.6-0.7c5.9-0.2,11.9-0.2,17.9-0.2c5.6,0,11.2,0.1,16.8,0.9c2.3,0.3,4.6,0.8,6.8,1.1c1.2,0.2,2.4,0.2,3.6,0.3
		c0.3,0,0.5-0.2,0.6-0.5c0-0.3,0-0.7-0.2-0.7c-1.3-0.1-2.3-1.1-3.8-1.1c-3.1,0-6.1-0.3-9.2-0.6c-3.8-0.3-7.7-0.7-11.5-0.9
		C124,109.6,119.4,109.6,114.6,109.5z M113.3,101.2c0.3,0.4,0.4,0.6,0.5,0.7c1.8,1.3,3.5,2.7,5.2,4.2c1.7,1.6,3.3,1.4,4.6-0.4
		c1.1-1.6,2.5-3,3.8-4.5c0.2-0.2,0.6-0.4,0.3-1c-1.7,0-3.5,0-5.3,0c-1,0-1.3-0.2-1.3-1.1c0-1.1-0.1-2.2,0.2-3.3
		c0.3-1.2,0.2-2.4,0.2-3.5c0-0.5-0.3-0.7-0.8-0.8c-1.1-0.1-2.2,0.1-3.3-0.2c-0.6-0.2-0.9,0.1-0.9,0.8c0.1,2.1-0.2,4.2,0.3,6.3
		c0.1,0.5,0.1,1,0,1.5c0,1.1-0.3,1.4-1.3,1.4C114.7,101.2,114.1,101.2,113.3,101.2z M136.6,107.4c1.3,0.2,2.4,0.3,3.6,0.5
		c0.7,0.1,1.1-0.2,1.6-0.7c2.7-3.4,5.6-6.6,9.3-9c0.4-0.2,0.6-0.6,0.5-1.1c0-0.3,0-0.6,0-0.8c-0.1-0.5,0.3-1.3-0.1-1.6
		c-0.7-0.5-1.1,0.4-1.6,0.7c-3.9,2.3-7.5,5.1-10.6,8.4C138.2,104.9,137.2,105.9,136.6,107.4z M135.9,141.7c-0.7,0-1.1-0.1-1.6-0.1
		c-9.5-0.1-18.9-0.1-28.4,0.1c-2,0-3.9,0.3-5.9,0.4c-0.1,0-0.1,0-0.2,0c-0.1,0.1-0.3,0.1-0.3,0.2c0,0.2,0,0.4,0.1,0.6
		c0.4,0.6,1,0.4,1.5,0.4c4.3-0.2,8.5,0,12.8-0.3c5.3-0.3,10.6-0.2,15.9-0.5C131.9,142.3,133.9,142.5,135.9,141.7z M98.7,112.9
		c0,0,0,0.1,0,0.1c-2,0-3.9,0-5.9,0c-1.1,0-1.6,0.6-2.1,1.5c-0.2,0.3,0,0.6,0.3,0.6c0.9,0,1.8,0,2.7,0c3.2-0.1,6.4,0,9.6,0.7
		c2.4,0.5,2.6,0.3,2-2.1c-0.1-0.6-0.4-0.8-1-0.8C102.5,112.9,100.6,112.9,98.7,112.9z M93.7,145.4c0.4,3,0.8,5.7,1.2,8.5
		c0.4,2.4,0.8,4.8,0.8,7.3c0,1.2,0.3,2.4,0.4,3.5c0.1,0.5,0.2,1,0.4,1.4c0.1,0.3,0.4,0.3,0.7,0.3c0.4,0,0.5-0.3,0.5-0.6
		c0-0.3,0-0.6-0.1-0.8c-1-3.9-1.2-8-1.5-12c-0.2-2.2-0.5-4.4-0.5-6.7c0-0.6-0.4-0.9-0.9-0.9C94.4,145.4,94.1,145.4,93.7,145.4z
		 M136.5,163.3c0,0.8,0,1.2,0,1.6c0,0.5,0.3,0.7,0.9,0.6c0.5-0.1,0.8-0.3,0.6-0.8c-0.2-0.8-0.2-1.5-0.2-2.3c0-2.1,0.1-4.2,0.3-6.3
		c0.4-3.5,0.5-7.1,0.9-10.6c0.1-0.7,0.2-1.4,0.3-2.1c0-0.2-0.1-0.4-0.3-0.5c-0.6-0.3-1.6,0.2-1.6,0.8c0,0.6,0,1.1,0,1.7
		c0,3.4-0.1,6.9-0.1,10.3c0,0.6,0,1.1-0.1,1.7C136.7,159.5,136.9,161.6,136.5,163.3z M97.6,143.3c0.2,0,0.8,0.1,0.8-0.4
		c0.1-0.7-0.5-0.4-0.9-0.5c-0.3,0-0.6,0-0.8,0c-0.2,0-0.4,0.1-0.4,0.4c0,0.4,0.3,0.4,0.5,0.5C97,143.3,97.2,143.3,97.6,143.3z
		 M44.7,94.2c0-0.1-0.1-0.2-0.1-0.4c0,0.1-0.1,0.1-0.1,0.2c0,0.1,0.1,0.2,0.1,0.4C44.6,94.3,44.6,94.2,44.7,94.2z M45,95
		c-0.1,0.1-0.2,0.1-0.2,0.2c0,0.1,0.1,0.2,0.1,0.3c0.1-0.1,0.2-0.1,0.2-0.2C45.1,95.3,45.1,95.2,45,95z"/>
	<path class="st2" d="M136.4,146.9c-0.1,3.1-0.4,6.1-0.7,9.2c-0.2,1.7-0.3,3.3-0.5,5c-0.1,1.4-0.4,2.8-0.5,4.2c0,0.6-0.4,0.9-0.9,1
		c-0.3,0.1-0.5,0.2-0.8,0.2c-2.5-0.1-4.9,0.6-7.3,0.5c-0.6,0-1.3,0-1.9,0c-5.3,0-10.6,0.5-15.9,0.5c-1.7,0-3.3,0.3-5,0.3
		c-0.8,0-0.9-0.1-1-1c-0.2-2.6-0.5-5.1-0.4-7.7c0-2.4-0.3-4.7-0.7-7.1c-0.2-1.7-0.4-3.3-0.5-5c-0.1-0.9,0.1-1.1,0.9-1.1
		c2.5,0.1,4.9-0.4,7.3-0.4c3.4-0.1,6.7-0.2,10-0.5c3.5-0.3,7.1-0.5,10.6-0.9c2.2-0.2,4.5,0,6.7-0.6c0.4-0.1,0.7,0.2,0.7,0.6
		C136.5,144.9,136.4,145.9,136.4,146.9z M124,163c1.1,0,2,0,2.8,0c0.7,0,1.1-0.5,1.2-1.2c0.2-1.3-0.9-2.3-2.1-1.6
		c-1.7,0.9-3.4,0.7-5.1,0.7c-2.1,0-4.2,0-6.3,0.1c-0.5,0-0.8,0.2-0.8,0.7c0,0.5,0.4,0.7,0.8,0.9c0.2,0.1,0.4,0.1,0.6,0.1
		C118.2,162.6,121.3,162.7,124,163z M119.1,145.8C119.1,145.8,119.1,145.8,119.1,145.8c-1.4,0-2.8,0-4.2,0c-0.3,0-0.6,0.1-0.6,0.4
		c-0.1,0.4,0.1,0.7,0.4,0.9c0.5,0.4,1.1,0.3,1.6,0.3c1.5,0,3.1,0.1,4.6,0.3c1.6,0.2,3.2,0.1,4.8,0.1c0.9,0,1.5-0.5,1.5-1.2
		c0.1-0.9-0.6-1.3-1.5-1.5c-0.3-0.1-0.7,0.1-1,0.2c-0.9,0.4-1.9,0.5-2.9,0.4C120.9,145.8,120,145.8,119.1,145.8z M119.8,153.7
		c-0.5,0-1.2,0.1-1.8,0.1c-0.1,0-0.2,0.2-0.3,0.3c0,0.1,0.1,0.3,0.1,0.3c1.2,0.4,2.5,0.6,3.8,0.5c0.1,0,0.3-0.3,0.4-0.4
		c0.1-0.3-0.1-0.6-0.4-0.6C121.1,153.8,120.5,153.8,119.8,153.7z"/>
	<path class="st2" d="M105.3,105.2c-0.1,0.3-0.1,0.7-0.2,1.2c-0.3,1.6-0.4,1.8-1.9,1.9c-2.7,0.1-5.4,0.4-8.1,0.8
		c-0.4,0.1-0.7-0.1-0.9-0.4c-1.9-2.7-4.6-4.4-7.4-6c-3-1.8-6.2-3.2-9.6-4.1c-0.5-0.1-0.6-0.6-0.3-1c1-1.4,2-2.9,2.8-4.4
		c0.2-0.4,0.5-0.5,0.9-0.4c0.7,0.2,1.4,0.3,2,0.6c3.5,2,6.9,4,9.9,6.7c1.4,1.3,2.8,2.5,4.1,3.9c0.6,0.7,1.3,1.3,1.4,2.3
		c0,0.4,0.3,0.8,0.6,1.1c0.9,0.8,2.1,0.7,2.4-0.4c0.6-1.9,2.4-2.2,3.7-3.2c0.2-0.2,0.6,0,0.6,0.3
		C105.2,104.5,105.2,104.8,105.3,105.2z"/>
	<path class="st2" d="M113.3,101.2c0.9,0,1.4,0,2,0c1-0.1,1.3-0.4,1.3-1.4c0-0.5,0.1-1,0-1.5c-0.5-2.1-0.2-4.2-0.3-6.3
		c0-0.7,0.3-0.9,0.9-0.8c1.1,0.3,2.2,0.2,3.3,0.2c0.5,0,0.8,0.3,0.8,0.8c0,1.2,0.1,2.4-0.2,3.5c-0.3,1.1-0.2,2.2-0.2,3.3
		c0,0.9,0.4,1.2,1.3,1.1c1.8,0,3.6,0,5.3,0c0.3,0.6-0.1,0.8-0.3,1c-1.3,1.5-2.6,2.9-3.8,4.5c-1.3,1.8-2.9,2-4.6,0.4
		c-1.6-1.5-3.4-2.9-5.2-4.2C113.7,101.8,113.6,101.6,113.3,101.2z"/>
	<path class="st2" d="M130.1,121.6c-0.2-2.2-0.1-4.3,0.1-6.5c0.1-1,0.3-1.2,1.3-1.2c1,0,1.9,0,2.9,0.2c0.9,0.2,1.8,0.2,2.7,0.2
		c0.8,0,1.3,0,1.4,1.1c0.1,0.6,0.7,1,1.3,0.6c0.9-0.5,1.4-0.2,1.9,0.5c0.5,0.6,1.1,1.1,1.3,2c-1.6,0.5-3.3,1-5,1.5
		c-2.2,0.7-4.4,1.3-6.5,2.2c-0.2,0.1-0.4,0.1-0.6,0.1C130.7,121.9,130.5,121.7,130.1,121.6z"/>
	<path class="st2" d="M136.6,107.4c0.6-1.5,1.6-2.6,2.6-3.6c3.1-3.4,6.7-6.1,10.6-8.4c0.5-0.3,0.9-1.2,1.6-0.7
		c0.5,0.3,0.1,1.1,0.1,1.6c0,0.3,0,0.6,0,0.8c0.1,0.5-0.2,0.8-0.5,1.1c-3.7,2.4-6.6,5.6-9.3,9c-0.5,0.6-0.9,0.8-1.6,0.7
		C139,107.8,137.8,107.6,136.6,107.4z"/>
	<path class="st2" d="M135.9,141.7c-2.1,0.8-4,0.6-5.9,0.8c-5.3,0.4-10.6,0.2-15.9,0.5c-4.3,0.3-8.5,0.1-12.8,0.3
		c-0.5,0-1.2,0.2-1.5-0.4c-0.1-0.2-0.1-0.4-0.1-0.6c0-0.1,0.2-0.2,0.3-0.2c0.1,0,0.1,0,0.2,0c1.9-0.1,3.9-0.4,5.9-0.4
		c9.5-0.2,18.9-0.2,28.4-0.1C134.8,141.6,135.3,141.7,135.9,141.7z"/>
	<path class="st2" d="M98.7,112.9c1.9,0,3.8,0,5.7,0c0.6,0,0.9,0.2,1,0.8c0.6,2.3,0.4,2.6-2,2.1c-3.2-0.7-6.4-0.8-9.6-0.7
		c-0.9,0-1.8,0-2.7,0c-0.3,0-0.5-0.3-0.3-0.6c0.4-0.8,1-1.5,2.1-1.5c2,0,3.9,0,5.9,0C98.7,113,98.7,113,98.7,112.9z"/>
	<path class="st2" d="M93.7,145.4c0.5,0,0.8,0,1,0c0.6,0,0.9,0.2,0.9,0.9c0,2.2,0.3,4.5,0.5,6.7c0.3,4,0.5,8.1,1.5,12
		c0.1,0.3,0.1,0.6,0.1,0.8c0,0.3-0.1,0.5-0.5,0.6c-0.3,0-0.6,0-0.7-0.3c-0.2-0.4-0.3-0.9-0.4-1.4c-0.2-1.2-0.4-2.3-0.4-3.5
		c-0.1-2.5-0.5-4.9-0.8-7.3C94.5,151.1,94.1,148.4,93.7,145.4z"/>
	<path class="st2" d="M136.5,163.3c0.5-1.7,0.3-3.8,0.7-5.8c0.1-0.5,0.1-1.1,0.1-1.7c0-3.4,0.1-6.9,0.1-10.3c0-0.6,0-1.1,0-1.7
		c0.1-0.7,1-1.1,1.6-0.8c0.1,0.1,0.3,0.3,0.3,0.5c-0.1,0.7-0.2,1.4-0.3,2.1c-0.4,3.5-0.6,7.1-0.9,10.6c-0.2,2.1-0.3,4.2-0.3,6.3
		c0,0.8,0,1.5,0.2,2.3c0.1,0.5-0.1,0.8-0.6,0.8c-0.5,0.1-0.8-0.1-0.9-0.6C136.5,164.5,136.5,164.1,136.5,163.3z"/>
	<path class="st2" d="M99.4,166.4c-0.6-0.6-0.5-1.4-0.7-2.1c-0.3-1.4-0.4-2.9-0.6-4.3c-0.2-1.3-0.3-2.6-0.5-3.9
		c-0.4-2.9-0.8-5.8-1.1-8.7c-0.1-0.4,0-0.8,0.1-1.2c0-0.1,0.3-0.3,0.5-0.3c0.2,0,0.4,0,0.5,0.3c0,0.1,0.1,0.3,0.1,0.4
		c0,1.1,0.2,2.1,0.3,3.1c0.2,2.5,0.3,5,0.4,7.5c0.1,2.4,0.4,4.8,0.8,7.2C99.4,165,99.4,165.7,99.4,166.4L99.4,166.4z"/>
	<path class="st2" d="M97.6,143.3c-0.4,0-0.6,0-0.8,0c-0.3,0-0.6-0.1-0.5-0.5c0-0.2,0.2-0.3,0.4-0.4c0.3,0,0.6-0.1,0.8,0
		c0.4,0,1-0.2,0.9,0.5C98.4,143.4,97.8,143.3,97.6,143.3z"/>
	<path class="st2" d="M99.4,166.4c0.5,0.4,0.5,0.8,0.1,1.5C99.5,167.3,99.5,166.8,99.4,166.4L99.4,166.4z"/>
	<path class="st2" d="M44.7,94.2c0,0.1-0.1,0.1-0.1,0.2c0-0.1-0.1-0.2-0.1-0.4c0,0,0.1-0.1,0.1-0.2C44.6,93.9,44.6,94.1,44.7,94.2z"
		/>
	<path class="st2" d="M45,95c0,0.1,0.1,0.2,0.1,0.4c0,0.1-0.1,0.1-0.2,0.2c0-0.1-0.1-0.2-0.1-0.3C44.8,95.2,44.9,95.1,45,95z"/>
	<path class="st2" d="M47.3,99.1c0.1,0.1,0.2,0.1,0.3,0.2C47.3,99.5,47.4,99.2,47.3,99.1L47.3,99.1z"/>
	<path class="st2" d="M47.3,99.1C47.2,99,47.1,99,47,98.9C47.3,98.6,47.2,99,47.3,99.1L47.3,99.1z"/>
	<path class="st2" d="M46.6,97.9c0.2,0.1,0.3,0.2,0.1,0.4c0,0-0.2-0.1-0.2-0.2l0-0.2L46.6,97.9z"/>
	<path class="st1" d="M119.4,134.8c-1.6,0-3.2,0-4.8,0c-0.6,0-1.3-0.1-1.8-0.5c-0.1-0.1-0.3-0.4-0.3-0.5c0-0.2,0.2-0.4,0.4-0.5
		c0.5-0.1,0.9-0.2,1.4-0.2c2.7-0.1,5.4-0.2,8.1-0.4c0.6,0,1.2-0.1,1.8-0.3c0.9-0.2,1.6,0.4,1.6,1.1c0,0.7-0.5,1.2-1.3,1.3
		c-0.2,0-0.4,0-0.6,0c-1,0-2.1,0-3.1,0C120.4,134.8,119.9,134.8,119.4,134.8C119.4,134.8,119.4,134.8,119.4,134.8z"/>
	<path class="st1" d="M114.7,120.5c-0.8,0-1.5,0.1-2.2-0.3c-0.3-0.2-0.5-0.4-0.4-0.8c0.1-0.3,0.3-0.5,0.6-0.5c0.5-0.1,1-0.2,1.4-0.2
		c2.2-0.1,4.4-0.5,6.6-0.8c0.5-0.1,1.1-0.1,1.7,0c0.6,0.1,1.1,0.8,1,1.4c-0.1,0.5-0.5,1-1.2,1c-1.1,0.1-2.2,0-3.3,0.1
		C117.5,120.3,116.1,120.4,114.7,120.5z"/>
	<path class="st1" d="M118.8,127.2c-0.8-0.1-1.8-0.2-2.7-0.3c-0.3-0.1-0.7-0.3-0.6-0.7c0-0.3,0.3-0.4,0.6-0.4c1.5-0.1,3,0,4.5-0.3
		c0.1,0,0.3,0,0.4,0c0.4,0.1,0.8,0.4,0.8,0.8c0,0.4-0.2,0.6-0.6,0.8C120.5,127.3,119.8,127.1,118.8,127.2z"/>
	<path class="st1" d="M116.6,77.6c0.4-0.6,0.1-1.3,0.1-1.9c0-1.7,0-3.5,0-5.3c0-0.7-0.2-1-0.9-1.2c-1-0.4-2-0.8-2.9-1.2
		c-1-0.5-2.1-1.1-2-2.4c0.1-1.2,1.1-1.9,2.1-2.4c1.2-0.6,2.5-0.9,3.8-1.3c0.3-0.7,0.1-1.3,0.1-1.9c0-0.4-0.1-0.8,0.1-1.2
		c0.1-0.2,0.3-0.5,0.6-0.5c0.2,0,0.4,0.2,0.5,0.3c0.2,0.4,0.4,0.9,0.5,1.4c0.1,0.4,0,0.8,0.1,1.3c0,0.5,0.3,0.7,0.8,0.7
		c1.2,0.1,2.3,0.4,3.4,1c0.5,0.3,1,0.5,1.3,1c0.1,0.2,0.2,0.5,0.1,0.8c-0.2,0.3-0.4,0.4-0.7,0.3c-0.6-0.2-1.2-0.4-1.8-0.6
		c-3.5-0.9-3-0.7-2.8,2.2c0,0.7,0.3,1.1,1,1.4c1.6,0.6,3.2,1.4,4.6,2.5c0.7,0.6,1.4,1.2,1.8,2c0.8,1.5,0.6,2.9-0.6,4.3
		c-1,1.2-2.4,1.9-3.8,2.5c-0.5,0.2-1.1,0.4-1.6,0.5c-0.4,0.1-0.5,0.4-0.5,0.8c0,0.3,0.1,0.7,0,1c-0.1,0.7-0.4,1.1-1,1.2
		c-0.7,0.1-1.3-0.2-1.5-0.9c-0.1-0.5-0.2-1-0.2-1.4c-0.4-0.4-0.9-0.2-1.4-0.3c-2.3-0.5-4-1.7-4.9-3.8c-0.8-1.8-0.2-3,1.6-3.5
		c0.5-0.1,1.1-0.3,1.7-0.2c0.8,0.1,1.2,0.9,0.8,1.6c-0.1,0.2-0.4,0.4-0.6,0.6c-0.1,0.1-0.3,0.3-0.4,0.5
		C114.4,76.8,115.3,77.5,116.6,77.6z M119.3,77.5c1.7-0.2,3.1-0.8,4.3-1.8c0.8-0.7,0.9-1.4,0.2-2.2c-1.2-1.4-2.8-2.2-4.7-2.8
		C118.9,73,119.1,75.2,119.3,77.5z M116.7,64.5c-1,0.1-1.9,0.5-2.8,1.2c0.5,0.3,0.9,0.5,1.4,0.7c0.4,0.2,0.8,0.5,1.3,0.3
		c0.3-0.4,0.2-0.9,0.3-1.4C116.9,65.1,117,64.8,116.7,64.5z"/>
	<path class="st1" d="M124,163c-2.7-0.4-5.8-0.5-8.9-0.4c-0.2,0-0.4,0-0.6-0.1c-0.4-0.1-0.8-0.4-0.8-0.9c0-0.5,0.4-0.7,0.8-0.7
		c2.1,0,4.2,0,6.3-0.1c1.7,0,3.4,0.2,5.1-0.7c1.2-0.6,2.3,0.3,2.1,1.6c-0.1,0.7-0.5,1.1-1.2,1.2C126,163.1,125.2,163,124,163z"/>
	<path class="st1" d="M119.1,145.8c0.9,0,1.8,0,2.7,0c1,0,1.9-0.1,2.9-0.4c0.3-0.1,0.7-0.3,1-0.2c0.8,0.2,1.5,0.6,1.5,1.5
		c0,0.6-0.6,1.1-1.5,1.2c-1.6,0-3.2,0.1-4.8-0.1c-1.5-0.2-3.1-0.2-4.6-0.3c-0.6,0-1.1,0.1-1.6-0.3c-0.3-0.2-0.5-0.5-0.4-0.9
		c0.1-0.3,0.4-0.4,0.6-0.4C116.3,145.8,117.7,145.8,119.1,145.8C119.1,145.8,119.1,145.8,119.1,145.8z"/>
	<path class="st1" d="M119.8,153.7c0.7,0,1.3,0,1.9,0.1c0.3,0,0.5,0.3,0.4,0.6c-0.1,0.2-0.2,0.4-0.4,0.4c-1.3,0.2-2.6,0-3.8-0.5
		c-0.1,0-0.1-0.2-0.1-0.3c0-0.1,0.2-0.3,0.3-0.3C118.6,153.8,119.2,153.8,119.8,153.7z"/>
	<path class="st1" d="M61,92.9c0-0.3,0.1-0.5,0.1-0.8c0-0.9,0.3-1.9-0.1-2.7c-0.4-0.8-1.5-0.7-2.2-1.1c-0.7-0.4-1.4-0.6-2.1-1
		c-2.2-1.4-2.3-3.3-0.3-4.9c1.1-0.9,2.4-1.5,3.8-1.8c0.6-0.2,1-0.4,1-1.1c0-0.2,0.1-0.4,0.2-0.6c0.2-0.3,0.4-0.6,0.8-0.5
		c0.3,0,0.5,0.2,0.6,0.5c0.1,0.2,0.1,0.4,0.1,0.6c0,0.5,0.3,0.7,0.8,0.8c0.6,0.1,1.1,0.2,1.6,0.3c1.1,0.3,2.1,0.9,2.8,1.7
		c0.3,0.4,0.5,0.8,0.5,1.3c0,0.7-0.7,1.2-1.3,0.8c-0.4-0.2-0.8-0.6-1.2-0.9c-0.8-0.6-1.6-0.8-2.5-0.9c-0.3,0-0.5,0.2-0.5,0.5
		c0,1.3,0,2.5,0,3.8c0,0.4,0.2,0.6,0.6,0.8c0.7,0.4,1.4,0.9,2.1,1.4c0.3,0.2,0.6,0.4,0.8,0.7c2.2,2.1,1.7,4.3-1.1,5.3
		c-0.1,0-0.1,0.1-0.2,0.1c-1.4,0.1-2.4,0.6-2.1,2.3c0.1,0.5-0.5,1-0.9,1c-0.6,0-0.9-0.4-1-0.9c-0.1-0.5-0.1-1.1-0.2-1.7
		c-1.6-0.1-3.2-0.2-4.8-0.6c-0.6-0.1-1.2-0.3-1.8-0.5c-1-0.5-1.1-1.4-0.5-2.3c0.4-0.4,0.8-0.8,1.3-1c0.4-0.2,0.9-0.2,1.2,0.2
		c0.7,1.2,1.8,1.1,2.9,1.3C60,93,60.5,92.9,61,92.9z M61.1,83c-1.4,0.4-2.5,0.8-3.3,2c1.1,0.6,2,1.3,3.3,1.5
		C61.1,85.4,61.1,84.3,61.1,83z M63.3,92.8c1.5-0.1,2.1-0.3,2.1-0.6c-0.1-0.8-0.8-1.1-1.4-1.5c-0.2-0.1-0.4-0.4-0.8-0.1
		C63.2,91.3,63.1,92.1,63.3,92.8z"/>
	<path class="st1" d="M167.2,88.5c0.8,0,1.4,0.1,2.1,0.1c0.4,0,0.8,0.2,1.1,0.5c0.2,0.2,0.3,0.5,0.2,0.8c-0.1,0.3-0.4,0.5-0.6,0.4
		c-0.6-0.1-1.2-0.3-1.9-0.2c-0.4,0-0.9,0-0.9,0.6c-0.1,0.5,0.2,0.8,0.6,1c0.7,0.4,1.5,0.8,2.2,1.3c0.4,0.3,0.9,0.7,1.2,1.2
		c0.7,1,0.5,2.1-0.6,2.7c-0.5,0.3-1,0.6-1.5,0.6c-0.9,0.1-1.3,0.5-1.4,1.4c0,0.6-0.5,0.8-1.1,0.8c-0.5,0-1-0.3-1.1-0.8
		c0-1-0.5-1.3-1.4-1.4c-0.7-0.1-1.4-0.3-2-0.6c-0.7-0.3-1.1-1-1-1.7c0.2-0.7,0.8-1.1,1.6-1.1c0.7,0,1.3,0.3,2,0.5
		c0.4,0.1,0.6-0.1,0.7-0.6c0.1-0.9,0-1.1-0.8-1.5c-0.7-0.3-1.4-0.6-2.1-1c-0.4-0.2-0.8-0.6-0.7-1.2c0.1-0.5,0.5-0.8,1-1
		c0.6-0.2,1.2-0.3,1.8-0.4c0.5-0.1,0.9-0.3,1-0.9c0-0.4,0.2-0.8,0.4-1.2c0.1-0.1,0.4-0.3,0.5-0.3c0.2,0,0.4,0.2,0.4,0.4
		C167.1,87.5,167.1,87.9,167.2,88.5z M168.7,94.8c-0.5-0.6-0.9-0.8-1.5-1C167.2,95,167.2,95,168.7,94.8z"/>
</g>
</svg>
