<?xml version="1.0" encoding="utf-8"?>
<!-- Generator: Adobe Illustrator 25.3.1, SVG Export Plug-In . SVG Version: 6.00 Build 0)  -->
<svg version="1.1" id="Layer_1" xmlns="http://www.w3.org/2000/svg" xmlns:xlink="http://www.w3.org/1999/xlink" x="0px" y="0px"
	 viewBox="0 0 225 225" style="enable-background:new 0 0 225 225;" xml:space="preserve">
<style type="text/css">
	.st0{fill:none;}
	.st1{fill:#333333;}
	.st2{fill:#00A196;}
</style>
<path class="st0" d="M0,0h225v225H0V0z"/>
<g>
	<path class="st1" d="M114.1,72.4c0.5,1,1.6,1.5,1.9,2.7c0.1,0.5,0.6,0.4,0.9,0.6c1.6,0.6,3.2,1.2,4.6,2.2c0.9,0.6,1.7,1.3,2.2,2.2
		c0.8,1.4,0.3,2.4-1.2,2.5c-1.3,0.1-2.5,0.1-3.8-0.1c-0.5-0.1-1-0.2-1.5-0.2c-1.1-0.1-1.9,0.1-2.6,1.2c-2.2,3.1-5.2,5.3-8.9,6.6
		c0.1,1.2,0.5,2.3,0.2,3.5c-0.3,1,0.4,2.1,0.8,3.2c0.1,0.3,0.4,0.3,0.7,0.4c2.6,0.8,3.1,1.8,2.4,4.5c0,0.1-0.1,0.3-0.1,0.4
		c-0.1,0.5,0.2,0.7,0.6,0.8c0.6,0.2,1.2,0.1,1.7-0.1c1.1-0.3,2.1-0.7,3.1-1.1c1.5-0.6,2.9-1.3,4.4-1.5c0.3,0,0.6-0.2,0.8-0.3
		c1.2-1,2.6-1.9,3.4-3.2c1.2-1.8,2.6-2.2,4.7-1.4c0.3-1.7,0.6-3.3,0.6-5c0-0.9,0-1.8,0-2.7c0-1.6,0.7-2.1,2.2-1.5
		c0.3,0.1,0.6,0.5,1,0.4c0.5-0.4,0.6-1.1,0.9-1.7c0.6-1.3,1.1-2.8,2.5-3.6c0.3-0.2,0.5-0.7,0.8-1.1c0.2-0.3,0.4-0.6,0.7-0.9
		c0.5-0.5,1.2-0.2,1.3,0.5c0.1,1,0,1.9-0.3,2.9c-0.4,1.2-0.7,2.4-1,3.6c0.8,0,1.2-0.4,1.7-0.7c0.8-0.5,1.7-0.7,2.5-0.7
		c0.4,0,0.9-0.1,1.2,0.4c0.3,0.4,0.1,0.9-0.1,1.2c-0.7,1-1.2,2.1-2.1,2.9c-0.7,0.6-1.1,1.7-1.8,2.2c-0.7,0.5-1.7,0.8-2.5,1.3
		c-0.6,0.4-1.1,0.7-1.7,1.1c-0.6,0.4-1.1,0.8-1.3,1.5c0.1,0.1,0.1,0.3,0.2,0.3c1.9,1.3,2,1.8,0.5,3.4c-0.2,0.2-0.4,0.4-0.6,0.6
		c-0.5,0.4-0.7,0.9-0.4,1.6c0.6,1.4,0,2.4-1.1,3.3c-0.3,0.2-0.6,0.4-0.9,0.6c-0.6,0.6-1.2,1.2-0.9,2.3c0.3,1.2,0.4,2.5,0.2,3.8
		c-0.2,1.8-1.6,2.3-3.1,1.8c-0.6-0.2-1.2-0.7-1.7-1.1c-0.5-0.4-0.7-0.9-0.5-1.6c0.2-0.6,0.3-1.3,0.4-2c0.1-0.1,0.3-0.3,0.1-0.5
		c-0.1-0.1-0.3,0-0.5,0c-0.6,0-1.2,0.1-1.8,0.1c-0.7,0-1.3,0.1-1.6,0.9c-0.2,0.4-0.6,0.6-1.1,0.7c-1.4,0.3-2.8,0.4-4.2,0.2
		c-0.8-0.1-1.5-0.1-2.2,0.2c-2.2,0.9-4.5,1.1-6.8,1c-1.2-0.1-2.4-0.1-3.6-0.1c-0.6,0-0.8,0.3-0.8,0.8c0.1,1.9-0.1,3.8,0.7,5.5
		c0.4,0.8-0.2,1.4-0.4,2.1c1.8,0.7,3.6,1,5.4,1.5c2.4,0.7,4.9,1.4,7.1,2.6c0.3,0.2,0.7,0.3,1,0.5c1.1,0.7,1.3,1.5,0.6,2.6
		c-0.3,0.4-0.9,0.7-0.7,1.3c0.2,0.5,0.2,1.2,0.7,1.6c0.7,0.6,0.7,1.4,0.8,2.2c0.2,2.8-0.2,5.5-0.7,8.2c-0.3,1.5-0.6,3.1-0.9,4.6
		c-0.2,1.1,0.3,1.4,1.4,1.3c1.6-0.2,3.2-0.4,4.9-0.6c1.8-0.2,3.2,0.2,4.3,1.8c0.1,0.2,0.3,0.3,0.5,0.4c0.7,0.1,1.1-0.4,1.6-0.7
		c1.2-0.8,2.4-0.6,3.7-0.4c0.4,0,0.7,0.3,0.8,0.7c0.2,0.5,0,0.9-0.3,1.2c-0.3,0.4-0.7,0.6-1.2,0.5c-1.1-0.1-1.8,0.5-2.7,1
		c-0.6,0.4-1.1,0.9-1.8,0.9c-0.9-0.1-1.5,0.3-2.2,0.8c-1.6,1.2-3.3,2.3-4.9,3.5c-1.6,1.1-3.2,2.1-5,2.9c-1.9,0.9-3.7,1.9-5.5,2.9
		c-1,0.5-2,1-3.1,0c-0.4-0.3-0.8-0.1-1,0.1c-1.1,0.8-2.4,1.1-3.6,1.8c-0.4,0.2-0.8,0.4-1.3,0.4c-0.3,0-0.6-0.1-0.8-0.4
		c-0.2-0.4,0.1-0.7,0.4-0.9c0.3-0.2,0.7-0.3,1-0.5c1.4-0.8,1.9-1.4,1.3-2.8c-0.6-1.7-0.2-3.4,0-5c0.1-0.2,0.2-0.4,0.1-0.5
		c-0.2-0.2-0.4,0-0.5,0.1c-0.5,0-1,0.3-1.5,0c-0.7-0.3-1-0.8-0.7-1.6c0.2-0.5,0.5-0.9,0.3-1.5c-0.5-1.6-0.2-3.2,0.2-4.8
		c0.4-1.7,0.9-3.3,1.3-5c0.1-0.3,0.1-0.6-0.1-0.8c-0.3-0.2-0.6-0.1-0.8,0c-1,0.6-2,1.2-3.1,1.8c-0.5,0.3-1.1,0.5-1.7,0.2
		c-0.2-0.1-0.3-0.3-0.3-0.5c0-0.1,0.1-0.2,0.2-0.4c0-0.1,0.1-0.1,0.2-0.1c1.8-0.5,3.2-1.6,4.7-2.5c-0.1-0.5-0.7-0.7-0.8-1.2
		c0-0.5,0.2-0.8,0.6-1.1c0.4-0.3,0.9-0.4,1.3-1.1c-0.7,0-1.3-0.1-1.9-0.1c-0.6,0-1.2-0.1-1.8-0.1c-0.7,0-1.3,0-2,0
		c-0.4,0-0.5,0.3-0.5,0.6c-0.2,1.9-0.8,3.6-1.2,5.4c-0.1,0.2-0.1,0.4-0.1,0.7c-0.4,1.2,0.4,2.6-0.8,3.8c-0.9,0.8-1.3,2.2-1.9,3.2
		c-0.9,1.4-2,2.8-2.9,4.2c-0.5,0.7-1,1.5-0.9,2.4c0.1,0.1,0.3,0.2,0.4,0.2c1.6-0.2,3.1,0,4.5,0.7c0.8,0.3,1.7,0.5,2.6,0.6
		c0.9,0.1,1.3,0.6,1.4,1.5c0.2,1.2,0,1.6-0.8,2.1c-2,1.1-4,2-5.9,3.1c-2.5,1.4-5,2-7.8,2.3c-1.7,0.2-3.3,1-4.8,1.8
		c-1,0.5-2,1.5-3.3,0.6c-0.2-0.2-0.6,0.1-0.8,0.3c-0.4,0.4-0.8,0.8-1.3,1.2c-0.8,0.7-0.9,0.7-2.1-0.3c-0.8,0.7-1.5,1.4-2.3,2.1
		c-0.4,0.3-0.9,0.5-1.2,0.1c-0.4-0.6-0.8-0.5-1.3-0.2c-0.8,0.5-1.5,0.9-2.3,1.4c-0.5,0.3-0.9,0.5-1.5,0.5c-0.2,0-0.4-0.2-0.5-0.3
		c-0.2-0.3,0-0.6,0.3-0.7c1.5-0.4,2.6-1.4,3.9-2.1c1.2-0.7,2.3-1.6,3.7-1.9c0.5-0.1,0.7-0.5,1-0.8c0.6-0.6,1.1-1.2,1.8-1.7
		c0.3-0.2,0.7-0.6,0.9-0.5c1.6,0.5,2.3-1.1,3.8-1.2c-0.5-1-1.3-1.5-2-2c-0.6-0.4-1.2-0.8-1.7-1.5c-0.4-0.7-0.3-1.5,0.4-1.7
		c1.1-0.2,1.4-1,1.8-1.7c1.4-2.6,3-5.1,4.1-7.9c0-0.2,0.2-0.5,0.1-0.6c-0.2-0.3-0.5-0.1-0.7,0.1c-0.8,0.5-1.6,1-2.5,1.5
		c-0.7,0.4-1.5,0.7-2.3,0.9c-1.6,0.4-3.1,0.9-4.5,1.8c-0.6,0.4-1.3,0.7-2.1,0.6c-1.1-0.2-2,0.3-2.9,0.9c-1.2,0.8-2.5,1.7-3.7,2.5
		c-1.4,1-2.8,1.5-4.3,0.4c-0.6-0.4-1,0-1.4,0.3c-0.6,0.6-1.2,1.3-2.2,1.2c-0.2,0-0.5,0.3-0.8,0.4c-2.6,1.9-5.1,3.9-7.2,6.3
		c-0.6,0.7-1.1,1.6-1.7,2.3c-0.1,0.2-0.4,0.3-0.6,0.2c-0.2-0.1-0.2-0.4-0.1-0.6c0.4-0.9,1-1.6,1.6-2.4c2-2.4,4.4-4.4,6.9-6.4
		c0.4-0.3,0.8-0.6,1.3-0.9c0.3-0.2,0.4-0.6,0.4-1c-0.2-2.3-0.9-4.3-2.9-5.7c-0.9-0.6-1.6-1.4-2.1-2.3c-0.4-0.8-0.5-1.5,0.2-2.2
		c1.4,0,1.7,1.4,2.7,2.1c0.1-1,0.2-1.9,0.3-2.8c0.6-0.1,1-0.6,1.7-0.3c0.8,0.4,1,1.1,1.2,1.8c0.8,2.5,1.5,5.1,2.3,7.7
		c1.7-0.4,3.2-1.1,4.6-2c1.7-1,3.3-2.2,5.4-2.4c-0.4-1.2-0.7-2.3-1.1-3.3c-0.1-0.3-0.3-0.5-0.6-0.6c-0.9-0.4-1.7-1.2-2.7-1.5
		c-0.8-0.3-1.4-0.8-2-1.4c-0.7-0.7-0.5-1.2,0.5-1.6c0.1-0.1,0.3,0,0.4,0c1.6,0.1,2.5,1.4,3.7,2.4c0.4-1,0.2-1.9-0.3-2.3
		c-0.7-0.5-0.6-1.3-1.1-1.8c-1-1.6-2-3.2-3-4.8c-0.3-0.4-0.3-0.8,0.2-1.1c0.8,0.4,1.3,1.1,1.8,1.9c0.2,0.4,0.4,0.8,0.9,0.9
		c0.1,0.2,0.1,0.4,0.2,0.6c0.1-0.1,0.2-0.1,0.2-0.2c0-0.2-0.1-0.4-0.3-0.4c0.1-1.4,0-2.7-0.5-4c0-0.8-0.1-1.6-0.1-2.5
		c0-0.4,0-1,0.5-1.1c0.7-0.1,0.9,0.4,1,0.9c0.1,0.5,0.3,1,0.4,1.5c0.2,1.2,0.3,2.4,0.5,3.5c0.1,0.4,0.1,0.7,0.2,1.1
		c0.5,1.8,0.7,1.9,2.4,1.2c0.6-0.2,0.9-0.1,1.2,0.5c0.2,0.6,0.2,1.2,0.2,1.8c0,1.7,0,3.4,0,5.1c0,0.7,0,1.4,0.2,2
		c0.4,1,0.1,1.7-0.4,2.5c-0.1,0.2-0.2,0.4-0.3,0.6c0,0.1,0.1,0.3,0.1,0.4c0.1,0.2,0.2,0.2,0.4,0.1c0.8-0.5,1.8-0.8,2.5-1.4
		c1.4-1.1,3-1.7,4.7-2c1.5-0.3,2.8-1.1,4.1-1.6c0.7-0.3,1.3-0.7,0.6-1.7c-0.2-0.3,0-0.6,0.2-0.8c0.3-0.4,0.6-0.6,0.6-1.1
		c0.2-2.4,0.4-4.9,0.7-7.3c-0.7-0.4-1.3-0.1-2-0.2c-0.6,0-1.2,0-1.8,0c-2.2,0.2-2.9-0.3-2.8-2.4c0-0.6-0.1-1.2-0.4-1.7
		c-0.3-0.7-0.6-1.4-1-2c-2.6-4.6-4-9.6-5-14.7c-0.1-0.7-0.3-1.5-0.4-2.2c-0.1-0.5-0.1-1-0.6-1.4c-0.5-0.4-0.3-0.8,0.1-1.2
		c0.5-0.5,1.1-1,1.7-1.4c0.8-0.5,1.6-1,2.4-1.5c0.1-0.7-0.5-0.7-0.8-1c-0.6-0.4-1.2-0.7-1.6-1.2c-1.2-1.2-2.7-1.8-4.3-2.3
		c-1.2-0.4-2.3-0.5-3.5-0.2c-0.5,0.1-1,0.3-1.5,0.1c-0.3-0.1-0.5-0.4-0.6-0.6c-0.1-0.3,0.1-0.6,0.4-0.8c0.2-0.1,0.4-0.2,0.6-0.3
		c0.4-0.1,0.7-0.1,1.1-0.1c0.4-0.1,1.5-1.1,1.5-1.5c-0.1-0.6-0.6-0.8-1-1.1c-0.5-0.3-1.1-0.5-1.6-0.8c-0.9-0.5-0.9-1.3,0.1-1.8
		c0.9-0.4,1.8-0.7,2.7-1.1c0.1-0.6-0.3-0.9-0.6-1.3c-0.7-0.9-1.5-1.8-2.3-2.8c-0.2-0.3-0.4-0.6-0.6-1c-0.1-0.3-0.1-0.6,0.2-0.8
		c0.2-0.2,0.5-0.3,0.8-0.2c0.7,0.2,1.1,0.8,1.6,1.2c0.4,0.7,0.8,1.4,1.8,1.5c0,0.2-0.1,0.7,0.2,0.6c0.3-0.1,0-0.4-0.3-0.6
		c0-0.8-0.6-1.2-1-1.8c0-0.1,0-0.2,0-0.2c0-0.2,0-0.5,0.1-0.6c0.3-0.3,0.6,0,0.7,0.2c1,1.8,2.5,3.4,3,5.4c0.3,1.1,1,2,1.6,2.9
		c1.1,1.6,2.2,3.2,3.3,4.8c0.2,0.3,0.4,0.6,0.7,0.8c1.6,1.2,1.6,1.2,2.1,2.6c0.5,0.2,0.8-0.2,1.2-0.4c0.3-0.1,0.6-0.4,1-0.5
		c0.1-0.6-0.5-0.9-0.8-1.3c-1.6-2-3.2-3.9-4.9-5.8c-0.6-0.7-1.2-1.4-1.9-1.8c-0.8-0.4-1-1.1-0.9-1.9c0.1-0.8,0.7-1.1,1.4-1.3
		c0.3-0.1,0.8,0.1,1-0.4c0-1-0.7-1.8-1.1-2.6c-0.6-1.3-1.2-2.6-1.6-3.9c-0.2-0.8-0.2-1.7,0.5-2c1-0.4,0.8-1,0.7-1.8
		c-0.1-0.8,0-1.6,0-2.5c0-0.5,0.1-0.9,0.3-1.3c0.5-0.8,1.4-0.9,2-0.2c0.4,0.5,0.6,1.2,0.8,1.8c0.5,1.8,0.9,3.6,1.4,5.4
		c0.2,0.6,0.2,1.3,0.7,1.8c0.6,0,0.7-0.7,1.2-0.9c0.6-0.2,1.3,0,1.5,0.6c0.1,0.3,0.2,0.7,0.2,1.1c0.2,1.9,0.5,3.8,0.4,5.8
		c-0.1,1.3,0,2.7,0.8,3.9c0.4,0.6,0.6,1.4,0.5,2.1c-0.1,1.1,0.5,2,1.2,2.8c0.2,0.2,0.4,0.2,0.6,0.1c0.2-0.1,0.2-0.3,0.2-0.6
		c-0.4-2.1-0.8-4.2-1.3-6.3c-0.2-1-0.2-2.1-0.2-3.1c0-0.2,0-0.5,0.1-0.7c0.2-0.6,0.4-1.2,1.1-1.3c0.7-0.1,1.1,0.5,1.3,1
		c0.7,1.4,0.9,3,1,4.6c0.1,1.2,0.1,2.4,0.2,3.6c0,0.4,0.1,0.9,0.2,1.3c0,0.2,0.2,0.4,0.5,0.3c0.2-0.1,0.5-0.1,0.4-0.4
		c-0.7-1.7-0.1-3.4,0.4-5c0.2-0.8,0.5-1.5,0.2-2.4c-0.3-0.9,0.1-1.8,0.7-2.5c1.8-2.3,3.7-4.4,6-6.3c0.4-0.3,0.9-0.6,1.4-0.5
		c0.6,0.1,1.1-0.2,1.6-0.3c0.2-0.3,0-0.5-0.2-0.5c-0.9-0.3-1.1-1-0.8-1.8c0.3-1.1,0.8-2.3,1.1-3.4c0.1-0.2,0.2-0.4,0-0.5
		c-0.2-0.1-0.4,0-0.6,0.1c-0.7,0.1-1.5,0.2-2.2,0.5c-1.6,0.6-3.4,0.1-5,0.5c-0.5,0.1-1-0.7-0.8-1.3c0.2-0.8,0.8-1.3,1.5-1.6
		c1.2-0.6,2.4-1.1,3.6-1.7c0.5-0.2,1-0.4,1.4-0.6c1.4-0.5,1.4-0.5,1.1-2.1c-0.3-1.2-0.3-2.4-0.3-3.5c0.1-3.4,1.7-5.6,4.9-6.7
		c2.1-0.7,4.3-1,6.6-0.5c2.8,0.7,4.8,2.3,6,4.9c0.4,0.7,0.5,1.6,1.1,2.2c0.3,0.4,0.1,0.8,0.1,1.3c-0.1,1,0.1,1.2,1,1.3
		c1.8,0.2,3.7,0.4,5.5,0.8c1.4,0.3,2.7,0.7,4,1.2c0.5,0.2,1,0.4,1.4,0.7c0.5,0.3,0.9,0.6,0.7,1.2c-0.1,0.6-0.6,0.8-1.2,0.7
		c-0.8-0.1-1.3,0.9-2.2,0.7c-0.7-0.2-1.5-0.1-2.2-0.1c-0.8,0-1.6,0-2.5,0c-0.6,0-1.2-0.1-1.5-0.8c0.2-0.3,0.5-0.5,0.9-0.4
		c1.3,0.4,2.6,0.2,4,0.2c0.2,0,0.4-0.2,0.4-0.4c0-0.1-0.2-0.2-0.3-0.3c-2.7-0.5-5.3-1.2-8.1-0.9c-1.3,0-2.7-0.1-4-0.1
		c-1,0-1.2,0.1-1.2,1.1c-0.2,1.9-0.9,3.6-1.8,5.2c-0.2,0.3-0.4,0.4-0.7,0.3c-0.3,0-0.5-0.2-0.6-0.6c-0.1-0.3-0.1-0.6-0.1-0.9
		c-0.1-0.7-0.3-1.4-1-2c-1.8,1.2-2.8,2.8-3.4,4.8c-0.2,0.7,0.2,1.1,0.9,1.2c0.7,0.1,1.3-0.2,2-0.3c0.2,0,0.5,0.1,0.6,0.3
		c0.1,0.2,0.1,0.5,0,0.6c-0.4,0.8-1.2,1.2-2.1,1c-1.4-0.4-2,0.5-2.7,1.4c-0.1,0.2-0.2,0.4-0.3,0.6c1.2,1.4,2.6,2.4,4,3.6
		c1.5,1.3,1.5,1.3,3.3,0.8c1-0.2,2-0.7,2.9-1.2c1.8-1.1,3.5-2.4,4.6-4.1c1.3-2,3-2.5,5.2-1.8c0.4,0.1,0.7,0.2,1.1,0.2
		c0.8,0.1,1.6,0.1,2.4,0.2c0.2,0,0.5-0.1,0.5-0.3c0.1-0.2,0-0.5-0.1-0.6c-0.7-0.8-1.5-1.4-2.4-1.9c-1.6-0.8-3.2-1.6-5-1.9
		c-0.5-0.1-1.1-0.3-0.9-0.8c0.3-1.2-0.5-1.8-1-2.6c-0.4-0.7-0.7-1.3,0-2C113.5,71.2,113.7,72,114.1,72.4z M91.4,90.3
		c0.4,0.1,0.7,0,1-0.4c1.1-0.3,2-0.9,3-1.4c1-0.5,2.1-0.8,3.1-1.7c-2.6-0.1-4.9,0.9-6.2,2.9C91.8,89.9,91.5,90,91.4,90.3
		c-0.1,0.1-0.4,0-0.1,0.3C91.3,90.6,91.3,90.4,91.4,90.3z M79.8,162.8c-0.1,0.1-0.1,0.3,0,0.3c0.1,0,0.2-0.1,0.3-0.1
		C80,162.9,79.9,162.9,79.8,162.8c-0.1-0.1-0.2-0.3-0.2-0.5c-0.1,0.1-0.2,0.1-0.4,0.2c-0.2,0.1-0.2,0.2-0.1,0.3
		C79.3,162.9,79.5,163,79.8,162.8z M130.3,94.4c0.4,0,0.7-0.1,0.8-0.6c0-0.1,0-0.3-0.1-0.4c0,0-0.2,0-0.3,0
		C130.4,93.6,130.2,93.9,130.3,94.4c-0.1,0-0.2,0-0.2,0c0,0,0,0.1,0,0.2C130.1,94.5,130.2,94.5,130.3,94.4z M82.2,94.1
		c-0.5-1.1,0.1-2.3-0.5-3.3c-0.4,1.1-0.1,2.2,0,3.2c-0.2,0.5,0.1,0.8,0.3,1.2c0.1,0.3-0.1,0.8,0.5,1C82.3,95.5,82.7,94.8,82.2,94.1z
		 M98.6,106.9c0-0.3-0.2-0.4-0.4-0.4c0-1.2,0.2-2.4-1.1-3.2c-0.5-0.3-0.3-1.1-0.3-1.7c0.1-1.7-0.1-3.3-0.8-4.8
		c-0.2-0.4-0.3-0.8-0.4-1.3c-0.2-0.7-0.3-1.3-0.1-2c0-0.2,0.2-0.4,0.5-0.4c0.3,0,0.4,0.2,0.4,0.4c0.1,0.4,0,0.9,0.1,1.3
		c0.2,0.7,1.2,0.1,1.5,0.7c0.3,0.5-0.1,1.3,0.8,1.4c1,0.2,1.2,0.8,1,1.6c-0.1,0.4-0.3,0.8,0.1,1c1.1,0.6,1.1,1.5,1,2.5
		c-0.1,1,0.6,1.6,1.1,2.3c1.3,0.1,1.9,1.7,3.3,1.5c1,0.6,2,0.3,3,0.4c0.9,0.1,1.2,0.8,0.8,1.6c-0.2,0.4-0.9,0.5-1,1.2
		c2.5-0.3,4.8-0.6,6.7-2.3c0.9-0.8,1.5-0.7,2.3,0.1c0.3,0.3,0.4,0.7,0.8,0.6c0.2,0,0.5-0.2,0.5-0.2c-0.4-1,0.3-1.9,0.2-2.8
		c-0.1-0.7-0.5-1.1-1.2-1c-0.4,0.1-0.9,0.2-1.3,0.4c-1.3,0.4-2.5,0.8-3.8,1.3c-1.2,0.4-2.4,0.4-3.5,0.1c-0.6-0.2-1.3-0.3-1.9-0.4
		c-1.7-0.2-2.2-1.4-1.2-2.9c0.3-0.4,0.8-0.7,0.8-1.3c-0.4-0.5-1-0.2-1.4-0.4c-0.7-0.3-1.4-1.1-1.1-1.7c0.5-1,0-1.9-0.1-2.8
		c-0.2-1.3-0.6-2.6-0.8-3.9c-0.2-0.8,0.2-1.9-1.2-2c-0.1,0-0.2-0.4-0.3-0.6c-0.1-0.5-0.4-0.6-0.8-0.6c-0.9,0-1.8,0-2.6,0.4
		c-2.9,1.5-5.9,2.9-7.9,5.6c-0.4,0.5-0.4,0.7-0.3,1.3c0.1,0.6-0.1,1.2,0.7,1.4c1,0.2,1.3,0.9,1.2,1.9c-0.1,0.7-0.1,1.3-0.1,2
		c0,0.7,0,1.5,0.2,2.2c1.5,5.2,2.7,10.5,3,15.9c0.1,1,0.2,2,0.8,3.1c1.1-1.1,2-1.9,2.8-2.8c0.8-1,1.4-2.2,1.3-3.7
		c-0.2-1.2-0.2-2.6,0-3.8c0.3-1.7-0.4-2.7-1.8-3.6c-2.5-1.6-3.6-4-3.6-7c0-0.4,0-1,0.5-1.1c0.5-0.1,0.7,0.4,1,0.8
		c0.3,0.4,0.2,0.8,0.2,1.3c0,1.5,0.6,2.7,1.8,3.6C98.1,106.7,98.3,106.9,98.6,106.9c0.3,0.9,1.1,1.1,1.9,1.4
		c0.2,0.1,0.5,0.1,0.6-0.1c0.1-0.2,0-0.4-0.2-0.5C100.1,107.2,99.4,106.8,98.6,106.9z M73.9,94.9c0.2,0.7,0.6,1.2,1.3,1.5
		c0.2-1-0.4-1.4-1.1-1.7c-0.3-1.5-1.5-2.3-2.8-2.9c-0.2-0.1-0.5,0-0.6,0.1c-0.2,0.2,0,0.4,0.1,0.5C71.8,93.2,72.9,94.1,73.9,94.9z
		 M99.5,72.2c-0.2,0-0.4-0.1-0.6-0.1c-0.1,0-0.1,0.1-0.2,0.1C99,72.5,99.3,72.4,99.5,72.2c1.1,0.3,0.5,1.4,1,2.1
		c0.9-0.7,1.6-1.5,2.8-1.7c0.1,0,0.3-0.2,0.3-0.3c0.1-0.3,0.2-0.6,0.1-0.8c-0.1-0.3-0.4-0.3-0.7-0.2c-0.9,0.1-1.7,0.3-2.6,0.4
		C100,71.7,99.8,72,99.5,72.2z M141,86.3c-2.4,0.2-4.1,1.5-5.5,3.3c-0.1,0.2-0.2,0.4-0.3,0.6c0,0.1,0,0.3,0.1,0.4
		c0.1,0.1,0.3,0.1,0.4,0.1C137.7,89.4,139.7,88.3,141,86.3c0-0.1,0.1-0.1,0.1-0.1c0,0,0-0.1,0-0.1C141.2,86.2,141.1,86.3,141,86.3z
		 M80.6,159.1c0.1-0.4,0.2-0.7,0.5-1c0.2-0.2,0.3-0.4,0.1-0.7c-0.8-1.1-1.1-2.3-0.6-3.7c0.2-0.7-0.1-1.5,0.6-2
		c0.9-0.6,0.6-1.4,0.3-2.2c-0.1-0.2-0.2-0.4-0.4-0.5c-0.4-0.1-0.5,0.3-0.6,0.5c-1.1,2.2-2.2,4.4-3.3,6.6c-1.2,2.4-1,2.6,1.6,3.6
		c0.6,0.5,0.6,1.4,1.4,1.9c1.1,0.7,2.2,0.5,3.3,0.4c0.6-0.1,1.1-0.4,1.7-0.5c2.8-0.3,5.2-1.7,7.6-2.9c0.1,0,0.1-0.1,0.1-0.2
		c0.1-0.2,0.1-0.4-0.2-0.5c-0.4-0.1-0.8-0.2-1.2,0.2c-1.5,1.2-3.3,1.9-5.1,2C84.6,160.1,82.5,159.9,80.6,159.1z M96.9,124
		c0.6,0,1.5-0.6,1.5,0.7c0.8,0,1.5,0.8,2.3,0.3c0.7-0.4,1.3-0.3,1.8,0.3c0.3,0.3,0.6,0.3,1,0.3c0.5,0,1,0,1.4,0.6
		c0.2,0.3,0.4,0.4,0.7,0.4c1.4-0.1,2.2,1.1,3.5,1.2c0.2,0,0.5,0.4,0.6,0.6c0.2,0.6,0.6,0.8,1.2,0.8c0.7,0,1.5,0,2.4,0
		c-0.5-1.1-0.5-2,0-3c0.4-0.8,0.1-1.4-0.7-1.8c-1.1-0.5-2.2-1-3.3-1.3c-2.7-0.9-5.6-1.4-8.4-1.9c-0.5-0.1-1-0.1-1.5,0.3
		c-0.8,0.8-1.9,1.4-2.6,2.4c-0.2,0.1-0.4,0.2-0.2,0.4C96.7,124.4,96.8,124.2,96.9,124z M107,137.3c-1.3,0-2.4,0.6-2.5,2
		c-0.2,2-0.9,3.9-1.3,5.8c-0.2,0.9-0.2,1.8-0.2,2.7c0.1,1,0.8,1.4,1.7,1c0.9-0.4,1.8-0.8,2.6-1.2c1.5-0.7,3.1-0.9,4.7-1.1
		c0.6-0.1,1-0.3,1.2-1.1c0.8-3.5,1.6-7.1,2.2-10.7c0.2-1.1,0-2.2,0-3.3c0-0.2-0.2-0.4-0.3-0.6c-0.4-0.3-0.4,0.2-0.6,0.4
		c-0.2,0.3-0.5,0.3-0.8,0.1c-0.3-0.3-0.6-0.6-1.1-0.7c-0.7-0.1-1.2,0.2-1.2,0.9c0,0.7,0,1.3,0.3,2c0.3,0.6,0.2,1.4-0.2,1.9
		c-1.1,1.3-1.2,3-1.5,4.6c-0.3,1.3-0.3,2.6-0.6,4c-0.4,1.7-1.6,2.4-3.1,2.8c-1.3,0.3-2-0.3-2-1.6c0-1.8,0.7-3.5,1-5.2
		c0.1-0.4,0.5-0.7,0.8-1C106.6,138.4,107.1,138,107,137.3c0.2,0,0.5,0,0.2-0.3C107.1,137.1,107.1,137.2,107,137.3z M87.8,113.5
		c0.7-0.5,0.4-1.1,0.2-2.1c-0.3,0.9-0.4,1.4-0.6,2c-0.4,1.9-1.2,3.7-2.1,5.4c-0.3,0.5-0.6,1-1,1.5c-0.2,0.2-0.5,0.4-0.8,0.2
		c-0.3-0.2-0.4-0.5-0.3-0.8c0.2-0.6,0.4-1.1,0.7-1.6c0.8-1.3,1.5-2.8,1.9-4.3c0.6-2.1,1.2-4.3,1.8-6.4c0.6-2.1,0.8-4.2,1.2-6.4
		c0.1-0.6-0.2-0.9-0.7-0.7c-1,0.2-2,0.4-3,0.8c-4.8,1.7-9.4,3.8-13.7,6.4c-0.3,0.2-0.7,0.3-0.7,0.7c0.1,0.5,0.4,0.7,0.6,0.9
		c0.1,0.2,0.1,0.4-0.1,0.5c-0.8,0.1-0.6,0.7-0.5,1.2c0.5,2.8,1.2,5.5,2.1,8.2c1.2,3.7,3.3,7,4.9,10.5c0.2,0.5,0.6,0.6,1.1,0.7
		c2.1,0.2,4.1-0.1,6.1-1.1c2.6-1.3,4.8-3.2,7.2-4.9c0.8-0.6,1.1-1.2,0.8-2.2c-0.2-0.7-0.7-1.4-0.4-2.1c0.7-1.6,0.2-3.2-0.1-4.8
		c0-0.5,0.1-1-0.4-1.5c-0.2,0.7-0.2,1.2-0.1,1.8c-0.1,2.1-0.6,4.2-1.3,6.3c-0.2,0.6-0.4,1.3-0.9,1.8c-0.3,0.3-0.7,0.7-1.1,0.5
		c-0.4-0.1-0.7-0.5-0.8-1c-0.2-1.1-0.2-2.2-0.2-3.3C87.7,117.5,87.7,115.5,87.8,113.5z M105.1,157.4c1.1-0.3,2.2-0.4,3.2-1.1
		c1-0.7,2.4,0,3.4-0.8c0.2-0.1,0.4-0.2,0.6-0.3c1.3-0.6,2.5-1.3,3.8-1.9c0.5-0.2,0.9-0.5,1.4-0.7c2.3-0.7,4.3-2,6.3-3.2
		c0.4-0.2,0.5-0.5,0.4-0.9c-0.2-1.2-0.3-1.4-1.5-1.4c-0.6,0-1,0.2-1.5,0.7c-0.9,0.9-1.2,0.9-2.2,0c-0.4-0.4-0.9-0.5-1.4-0.4
		c-0.4,0.1-0.7,0.3-0.4,0.8c0.3,0.4,0.5,0.9,0.7,1.4c0.2,0.5-0.1,1-0.6,1.3c-0.4,0.2-0.7,0.2-1.1,0c-0.6-0.4-0.4-0.9-0.3-1.5
		c-0.8,0.3-1.1,1.2-2,1.1c-0.9-0.1-0.9,0.2-0.8,1c0.1,0.7-0.5,1.1-1.2,1c-0.6-0.1-0.9-0.6-0.7-1.3c0.1-0.2,0.2-0.4,0.3-0.6
		c0.2-0.7-0.1-1.1-0.9-1.1c-1.4,0.1-2.6,0.6-3.8,1.2c-0.9,0.4-2.3,0.6-1.7,2.3c0,0.1-0.3,0.3-0.4,0.5c-0.4,0.9-0.7,1.9,0.1,2.7
		C105.3,156.4,104.6,156.9,105.1,157.4z M109.7,65.2c-0.4-1.4-0.9-2.5-2.1-3.4c-2.8-2-5.7-1.8-8.7-0.6c-3,1.2-2.9,3.4-2.7,5.9
		c0,0.2,0.2,0.4,0.5,0.4c0.2,0,0.4,0,0.7-0.1c2.6-0.9,5.3-1.3,8-1.7C106.8,65.5,108.3,65.5,109.7,65.2z M129.7,102.2
		c-0.7-1.3-0.4-2.2,0.6-3.1c0.5-0.5,1.2-0.8,1.4-1.6c-0.6-0.3-1,0.2-1.6,0.1c-0.7-0.2-1.1,0.1-1.3,0.8c-0.3,0.9-1,1.6-1.9,2.1
		c-0.5,0.2-0.9,0.2-1.2-0.2c-0.4-0.4-0.4-1,0-1.4c0.3-0.3,0.7-0.6,1-0.9c0.1-0.1,0.2-0.5,0.1-0.6c-0.2-0.3-0.5-0.2-0.8-0.1
		c-0.3,0.1-0.5,0.3-0.8,0.4c-1.2,1-2.4,2-3.6,3c-0.3,0.2-0.5,0.5-0.6,0.9c-0.1,1-0.2,1.9,0.1,2.9c0.2,0.6,0.5,0.9,1.1,0.9
		c1.5,0.1,3-0.1,4.4-0.6c0.3-0.1,0.5-0.2,0.6-0.6C127.5,102.9,128.5,102.7,129.7,102.2z M89.6,130.2c0.2,0.2,0.3,0.3,0.5,0.4
		c3,1.7,6.3,1.7,9.7,1.6c0.5,0,1-0.2,1.5-0.2c1.7,0.2,3.3-0.5,5-0.7c0.2,0,0.4-0.3,0.4-0.4c0-0.4-0.4-0.3-0.7-0.3
		c-0.8,0.1-1.6,0.6-2.4,0.3c-1-0.5-2-0.2-3,0.1c-1,0.4-2,0.7-2.9-0.2c-0.4-0.3-0.8-0.3-1.3-0.3c-0.4,0-0.8-0.2-0.9-0.5
		c-0.3-0.7-0.7-0.8-1.4-0.4c-0.4,0.2-0.8,0.1-1.1-0.4c-0.5-0.9-0.9-1.1-1.6-0.7C90.8,128.9,90,129.3,89.6,130.2z M89.8,103.5
		c-0.2,3.3-0.4,6.3-0.7,9.3c-0.2,3-0.6,6.1-0.2,9.2c1.8-4.7,2-9.7,1.7-14.6C90.6,106.2,90.8,104.9,89.8,103.5z M98.5,69.5
		c0.6,0.2,1.2-0.1,1.7-0.2c2.1-0.5,4.2-0.8,6.4-1c1.1-0.1,2.2-0.1,3.3-0.2c0.2,0,0.5-0.2,0.5-0.3c0-0.3-0.1-0.6-0.3-0.8
		c-0.2-0.2-0.5-0.2-0.8-0.2c-3.5,0-6.9,0.6-10.3,1.3c-0.3,0.1-0.6,0.2-0.7,0.4c-0.3,0.7-0.9,0.6-1.5,0.8c-0.2,0.1-0.3,0.3-0.2,0.5
		c0.1,0.2,0.3,0.3,0.6,0.2C97.6,69.9,97.7,68.9,98.5,69.5z M96.6,85.7c-1.1-1-2.5-1.1-3.7-2c-1.8,1.7-3.3,3.5-4.6,5.4
		c-0.2,0.2-0.3,0.6,0,0.8c0.4,0.2,0.7,0.6,1.2,0.3c0.2-0.1,0.3-0.3,0.5-0.5C91.9,87.9,94,86.5,96.6,85.7z M77,86
		c-0.4,0.3-0.6,0.4-0.6,0.5c-0.4,1.7-0.7,3.3-1,5c-0.1,0.5-0.2,1,0.1,1.5c0.1,0.1,0.2,0.2,0.3,0.2c0.1,0,0.3-0.1,0.3-0.2
		C76.6,90.8,77,88.6,77,86z M78.1,95.7c-0.8,0.6-1,1.5-1.4,2.2c-0.1,0.2-0.1,0.5,0,0.6c0.3,0.6,0.7,1.1,1.1,1.6
		c0.1,0.2,0.5,0.3,0.5,0C78.5,98.8,79.2,97.3,78.1,95.7z M90.8,75c1.9-0.1,3.6-0.5,5.3-1.2c0.1,0,0.2,0,0.2-0.1
		c0.1-0.2,0.2-0.4,0.3-0.6c-0.2-0.1-0.4-0.3-0.6-0.2C94.2,73.3,92.4,74,90.8,75z M62.9,94.8c1.4,0.8,2.8,1.6,4.2,2.4
		c0.2,0.1,0.4,0.3,0.5,0c0.1-0.2,0-0.5-0.2-0.6c-1.1-0.8-2.3-1.6-3.6-2.1C63.6,94.4,63.3,94.4,62.9,94.8z M95.5,80
		c1.2-1.7,1.5-3.4,2.1-4.9c0,0-0.1-0.2-0.1-0.2c-0.1,0-0.3,0-0.3,0.1C96.3,76.4,95.6,77.9,95.5,80z M90.8,157.2
		c-0.4-0.4-0.8-0.8-1.3-1c-0.2-0.2-0.6-0.2-0.8,0.1c-0.1,0.2-0.1,0.5,0,0.8C89.1,157.8,89.3,157.8,90.8,157.2z M127.4,107.6
		c-0.2,0.8-0.2,1.3-0.4,1.8c-0.1,0.3,0,0.6,0.2,0.8c0.1,0,0.1,0.1,0.2,0.1c0.4-0.1,0.3-0.4,0.3-0.7
		C127.7,109,127.6,108.4,127.4,107.6z M66.6,140.6c-0.7,1-0.7,1-0.1,1.9C66.8,141.8,66.9,141.2,66.6,140.6z M83.7,134
		c0.3,0,0.5-0.2,0.7-0.5c0.1-0.1,0.1-0.4,0.1-0.4c-0.1-0.1-0.4-0.3-0.5-0.2c-0.4,0-0.7,0.3-0.6,0.7C83.4,133.8,83.5,134,83.7,134z
		 M98.5,79.3c-0.1-0.1-0.1-0.2-0.2-0.3c-0.1,0.2-0.2,0.3-0.3,0.5c-0.1,0.2-0.1,0.4,0.2,0.4c0.1,0,0.2-0.1,0.3-0.2
		C98.5,79.6,98.5,79.4,98.5,79.3z M67.1,139.8c0-0.3,0.1-0.5,0.1-0.7c0-0.1-0.1-0.1-0.1-0.2c-0.1,0.2-0.2,0.3-0.2,0.5
		C66.9,139.6,67,139.7,67.1,139.8z M107.8,136c0-0.1,0-0.1,0-0.2c0,0-0.1,0-0.1,0.1c0,0.1,0,0.1,0,0.2
		C107.7,136.1,107.8,136.1,107.8,136z"/>
	<path class="st1" d="M168.6,56.2c0,0.9,0.1,1.8,0.1,2.7c0,12.6,0,25.2,0,37.8c0,0.4,0,0.7,0,1.3c0.9-0.1,1.7-0.3,2.5-0.4
		c0.8-0.1,1.7,0.2,2.4,0c1.2-0.2,2.3-0.6,3.4-1c0.3-0.1,0.4-0.4,0.5-0.7c0.1-0.7,0.1-1.3,0.1-2c0.1-3.9,0.2-7.9,0.3-11.8
		c0-0.6-0.2-1.2,0.3-1.8c0.5,0.2,0.5,0.6,0.5,1c0,2.8-0.1,5.5-0.1,8.3c0,2.1,0,4.2,0,6.4c1.1,0.2,1.9-0.4,2.9-0.8
		c0.4-0.2,0.7-0.1,1,0.3c0.2,0.4,0,0.7-0.3,1c-0.8,0.7-1.8,1-2.8,1.4c-0.8,0.3-1.1,0.7-1.2,1.6c-0.1,3.3-0.4,6.5-0.6,9.8
		c-0.1,1.2-0.3,2.4-0.7,3.5c-0.1,0.2-0.2,0.6-0.6,0.4c-0.1-0.1-0.1-0.4-0.1-0.6c0.8-4.4,0.9-8.9,1-13.3c0-0.1-0.1-0.1-0.1-0.2
		c-0.4-0.2-0.7-0.1-1,0.1c-1.3,0.8-2.6,1-4.1,1c-0.9,0-1.8,0.2-2.6,0.6c-0.5,0.2-0.8,0.6-0.8,1.2c0,0.4,0,0.9,0,1.3
		c0,4.8,0,9.5-0.1,14.3c0,1.6,0.3,3.1,0.8,4.6c0.6,1.8,0.8,3.6,0.6,5.5c-0.1,1-0.3,1.9-1,2.7c-0.4,0.4-1,0.4-1.4,0
		c-0.3-0.4-0.5-0.8-0.6-1.2c-0.5-2.6-1.1-5.3,0.1-7.9c0.1-0.3,0.2-0.7,0.2-1.1c0-2.7,0-5.3,0-8c-0.7-0.2-1.1,0.3-1.6,0.6
		c-1.6,0.9-3.3,1.8-5.1,2.2c-1.1,0.2-1.8,0-2.3-0.8c-0.5-0.8-0.1-1.7,0.8-1.8c0.5-0.1,1-0.2,1.4-0.5c1.8-1.5,3.9-2.8,6-3.8
		c0.8-0.4,0.9-0.8,0.9-1.5c0-1.4,0-2.8,0-4.2c-0.4,0-0.6,0-0.8,0.1c-2.3,1.3-4.7,2.6-6.6,4.5c-0.3,0.3-0.6,0.8-1.1,0.7
		c-1.3,0-1.3,0.8-1.4,1.8c-0.2,1.8-0.3,3.7-0.8,5.5c-0.1,0.2-0.2,0.5-0.4,0.5c-0.5,0-0.3-0.4-0.3-0.7c0.2-1.4,0.5-2.8,0.6-4.2
		c0.1-0.9,0.2-1.8-0.1-2.7c-1.2-0.3-2.4,0.2-3.5,0.5c-1.3,0.4-2.5,0.9-3.9,0.4c-0.6-0.2-1.2,0.1-1.6,0.5c-0.9,0.9-1.8,1.8-2.7,2.7
		c-0.7,0.8-1.4,1.5-2.1,2.4c-2.1,2.7-4.7,4.8-6.9,7.3c-0.7,0.8-1.5,1.7-2.2,2.5c-1,1.1-1.9,1.3-3.1,0.4c-0.6-0.4-1-0.5-1.6-0.2
		c-2.2,1.1-4.4,2.2-6.4,3.6c-1.2,0.8-2.2,1.8-2.9,3.1c-0.2,0.3-0.5,0.5-0.7,0.3c-0.4-0.2-0.4-0.6-0.2-1c0.7-1.2,1.6-2.2,2.6-3
		c1.2-1,2.4-1.8,3.7-2.5c1.8-1,3.8-1.8,5.5-3c1.7-1.2,3-2.9,4.5-4.3c1.1-1,2.2-2.1,3.8-2.2c0.5,0,0.9-0.5,1.3-0.9
		c1.2-1.1,2.3-2.3,3.5-3.4c0.8-0.8,1.6-1.5,2.4-2.3c1-1,2.2-1.7,3.8-1.7c0.9,0,1.7-0.4,2.6-0.7c1.1-0.4,2.2-0.9,3.4-1
		c1.1-0.1,1.1-0.2,1.2-1.4c0.2-5.4,0.2-10.9,0.2-16.3c0-0.7,0.1-1.3,0.1-2c0-0.1,0.2-0.2,0.3-0.2c0.2-0.1,0.3,0,0.3,0.2
		c0,0.4,0.1,0.7,0.1,1.1c0,4.4,0,8.8,0,13.2c0,1.2-0.2,2.4-0.2,3.6c0,0.2,0.1,0.5,0.2,0.6c0.1,0.1,0.5,0,0.6-0.1
		c2.5-2,5.2-3.4,8.1-4.7c0.6-0.3,0.8-0.6,0.7-1.2c0-2.5,0-4.9,0-7.4c0.1-6.7,0.2-13.4,0.3-20.1c0.1-4.3,0.1-8.6,0.1-13
		c0-0.4,0.1-0.7,0.1-1.1C168.2,56.2,168.4,56.2,168.6,56.2z M167,109.9c-0.3-0.6-0.6-1-1.3-0.7c-1.7,0.9-3.4,1.9-4.9,3.1
		c-0.1,0.1,0,0.2,0,0.5C163.2,112.4,165.1,111.2,167,109.9z M168.4,128.5c0.4-1.2,0.4-2.3,0.3-3.5c0-0.4-0.2-0.7-0.3-1
		c0-0.1-0.3-0.3-0.3-0.2c-0.2,0.1-0.4,0.2-0.5,0.4C167.5,125.7,167.7,127.1,168.4,128.5z"/>
	<path class="st1" d="M143.3,138c-0.8-0.9-1.3-1.8-0.9-3c0.1-0.3,0-0.6-0.2-0.9c-0.9-1.7-1.8-3.4-3.7-4.3c-0.5-0.2-0.9-0.5-1.3-0.9
		c-0.3-0.3-0.3-0.7-0.2-1c0.2-0.4,0.5-0.6,0.9-0.6c0.4,0,0.9,0.1,1.3,0.3c0.5,0.2,1,0.6,1.6,0.8c0.5,0.2,0.9-0.1,0.8-0.6
		c-0.2-0.7-0.4-1.4-0.6-2.1c-0.4-1.1-0.6-2.3-0.5-3.5c0-0.8,0.2-1.5,1.1-1.7c0.5-0.1,0.7-0.5,0.7-1c0-0.8,0.2-1.5,0.7-2
		c0.5-0.4,1.2-0.4,1.6,0.1c0.4,0.5,0.5,1.1,0.5,1.7c-0.1,1.6,0.4,3,1.5,4.3c0.6-0.6,1.3-1.2,2-1.7c0.5-0.4,1.1-0.9,1.8-0.4
		c0.7,0.5,0.5,1.3,0.3,2c-0.6,2.2-1.7,4.1-2.6,6.2c-0.3,0.7-0.5,1.3,0.3,1.9c0.6,0.4,0.5,1,0,1.6c-0.5,0.6-1.1,1.2-1.6,1.9
		c-0.2,0.3-0.5,0.6-0.7,0.9c-0.1,0.2-0.1,0.4,0.1,0.6c0.1,0.1,0.3,0,0.4,0c0.6-0.4,1.3-0.8,1.8-1.4c1.1-1.1,2.6-1,3.8-1.5
		c0.5-0.2,1.1,0.2,1.5,0.8c0.3,0.5,0.2,1-0.1,1.5c-0.8,1.4-1.9,2-3.5,1.5c-1.2-0.3-2-0.1-2.7,0.8c-0.2,0.2-0.5,0.4-0.6,0.6
		c-1,1.7-2.9,2.1-4.4,3.3c-0.1,0-0.1,0.1-0.2,0.1c-0.4,0.1-0.7,0.1-1-0.2c-0.3-0.3-0.3-0.8,0-1C142,140.1,142.4,139,143.3,138z
		 M145.9,133.7c0.5-0.1,0.8-0.6,1.2-0.9c0.1,0,0-0.3,0-0.3c-0.1-0.1-0.3-0.1-0.4-0.1C145.9,132.6,145.9,133.1,145.9,133.7
		c0,0-0.1,0-0.2,0.1c0,0,0,0.1,0,0.2C145.8,133.9,145.9,133.8,145.9,133.7z M145.4,131.2c1.2-2.2,2.5-4.3,3.7-6.5
		c0.3-0.5,0.5-1.1,0.5-1.7c0-0.1-0.1-0.3-0.2-0.3c-0.1,0-0.3,0-0.4,0c-0.7,0.4-1,1.1-1.5,1.6C146,126.3,145.2,128.6,145.4,131.2z
		 M144,134c0.5-1-0.3-1.6-0.6-2.4c0,0-0.2-0.1-0.2,0c-0.1,0.1-0.3,0.2-0.2,0.3C143.2,132.6,143.2,133.5,144,134z"/>
	<path class="st1" d="M150.3,160c-1.1,0.8-2.3,1.4-3.5,1.9c-0.6,0.3-1.2,0.6-1.7,1c-2,1.8-4.3,3.1-6.9,4c-1.1,0.4-2.2,1-3.1,1.8
		c-1.1,1-2.5,1.6-3.9,2c-0.9,0.2-1.3,0.1-1.8-0.8c-0.4-0.7-0.6-0.8-1,0c-0.2,0.5-0.3,1.1-1,0.9c-0.5-0.1-0.5-0.9,0-1.5
		c1.3-1.4,2.5-3,4.7-3c0.4,0,0.5-0.3,0.5-0.8c-0.2-0.8-0.2-1.6-0.3-2.4c-0.2-2.2-0.9-4.2-2.8-5.5c-0.7-0.5-1.4-1.1-1.8-1.9
		c-0.2-0.4-0.1-0.9,0.3-1.2c0.4-0.4,0.8-0.4,1.2-0.1c0.4,0.3,0.8,0.7,1.1,1.1c0.3,0.4,0.7,0.8,1.1,1.3c0.3-1.1,0.1-2,0-2.8
		c-0.2-1-0.3-2.1-0.2-3.1c0-0.4,0.1-0.7,0.3-1.1c0.3-0.6,1-0.6,1.5-0.2c0.5,0.5,0.3,1.3,1,1.7c0.3-0.6,0.6-1.3,0.9-1.9
		c0.2-0.4,0.6-0.7,1.1-0.7c0.5,0.1,0.7,0.6,0.7,1c0.2,1.4-0.1,2.8-0.3,4.2c-0.1,0.4-0.2,0.9-0.3,1.3c-0.1,0.3,0,0.6,0.4,0.6
		c0.3,0,0.6,0.1,0.8,0.4c0.2,0.3,0.2,0.7,0.1,1.1c-0.2,0.7-0.5,1.4-0.8,2.1c-0.7,1.4-1.2,2.9-1.2,4.4c1.4,0.6,2.8,0.4,4.2-0.2
		c1.4-0.5,2.7-1.2,4-1.9c0.7-0.4,1.4-0.9,2.3-0.3c0.4,0.2,0.7,0,1-0.2c0.8-0.3,1.6-0.7,2.3-1.3C149.6,159.6,149.9,159.6,150.3,160z
		 M134.8,159.7c-1.4,1.3-1.4,1.3-1.1,2.9C134.2,161.6,134.9,160.8,134.8,159.7c0.1-0.1,0.4,0,0.2-0.3
		C134.9,159.5,134.8,159.6,134.8,159.7z"/>
	<path class="st1" d="M96.1,178.1c-0.8-3-2.2-5.5-4.1-7.9c-0.4-0.5-0.8-1.1-1.1-1.7c-0.2-0.4-0.1-0.7,0.2-1c0.2-0.2,0.5-0.2,0.8-0.1
		c0.5,0.2,0.8,0.9,1.6,0.5c0.8-0.5,0.5-1.2,0.5-1.8c0-0.8,0-1.6,0.1-2.5c0.1-0.8,0.8-1.3,1.6-1.1c1,0.2,1.8,0.7,2.2,1.7
		c0.1,0.1,0.1,0.3,0.1,0.4c0.6,3.3,1.1,6.6,1,9.9c0,0.5-0.3,1-0.4,1.5c0.5,0.4,1.2-0.1,1.7,0.3c0.3,0.3,0.7,0.1,1,0
		c0.7-0.3,1.4-0.6,2-0.9c0.6-0.3,1.2-0.5,1.7-0.2c0.5,0.3,1,0.2,1.5,0c0.2-0.1,0.5,0,0.5,0.2c0.1,0.2,0,0.5-0.1,0.6
		c-0.8,0.7-1.6,1.3-2.4,2c-0.3,0.2-0.6,0.2-0.8,0c-0.6-0.5-1.1-0.3-1.6,0c-1.3,0.7-2.6,1.4-3.6,2.6c-0.2,0.2-0.4,0.4-0.6,0.6
		c-0.8,0.7-1.1,0.6-1.7-0.3c-0.5-0.7-0.6-0.8-1.1-0.3c-1.1,1-2.5,1.7-3.2,3.1c-0.3,0.6-0.9,0.9-1.5,0.9c-1-0.1-1.5,0.5-1.9,1.1
		c-0.3,0.4-0.6,0.8-1,1.2c-0.1,0.2-0.4,0.3-0.6,0.1c-0.2-0.2-0.2-0.4-0.1-0.6c1.4-2.5,3.3-4.6,5.9-5.9
		C94,179.9,95.2,179.2,96.1,178.1z M96,180.1c0,0,0.1,0.1,0.1,0.1c0,0,0.1-0.1,0.1-0.1c-0.1,0-0.1-0.1-0.2-0.1
		C96,180,96,180.1,96,180.1z"/>
	<path class="st1" d="M148,49.6c0.5,0.9,0.4,1.8,0.4,2.8c0,2.8,0,5.5,0,8.3c0.2,13,0.2,26.1,0,39.1c0,1.1,0,2.2,0,3.4
		c0,0.3,0.1,0.6,0,0.9c-0.1,0.5-0.4,0.8-1,0.7c-0.4,0-0.7-0.3-0.7-0.7c0-0.1,0-0.3,0-0.4c0.2-10.1,0.3-20.3,0.5-30.4
		c0.1-6.7,0.2-13.4,0.4-20.1C147.7,51.9,147.7,50.7,148,49.6z"/>
	<path class="st1" d="M55.2,49.3c0.1,1.6,0.3,3.1,0.3,4.7c0.1,5.1,0.1,10.3,0.1,15.4c0.1,4.5,0.1,9.1,0.2,13.6c0,0.3,0.1,0.7,0,0.9
		c-1,1.1-0.3,2.2,0,3.3c0.4,1.8,0.3,3.5-0.1,5.3c-0.1,0.4-0.3,0.7-0.6,0.9c-0.3,0.3-1,0.1-1.1-0.3c-0.1-0.5-0.2-1-0.2-1.5
		c0-1.6,0.1-3.3,0.1-4.9c0.1-5.1,0.3-10.2,0.4-15.3c0.1-5.1,0-10.3,0.1-15.4c0-1.9,0.2-3.9,0.3-5.8C54.6,49.8,54.7,49.5,55.2,49.3z
		 M54.8,91.3c0,0,0.1,0,0.1,0c0-1.1,0-2.1,0-3.2c0,0-0.1,0-0.1,0C54.8,89.1,54.8,90.2,54.8,91.3z"/>
	<path class="st1" d="M71.3,55.5c0.3-4,0.5-7.2,0.4-10.3c0-0.7,0-1.3,0.4-1.9c0.5-0.6,0.3-1.4,0.4-2.2c0.1-0.6,0-1.2,0.3-1.7
		c0.1-0.2,0.3-0.4,0.5-0.3c0.2,0,0.4,0.3,0.4,0.4c0.1,0.3,0.2,0.6,0.1,0.9c-1.2,4-0.8,7.9-0.2,11.9c0.5,3.4,1.1,6.8,1,10.2
		c0,1.3-0.2,2.5-0.3,3.8c-0.1,0.8-0.4,1.6-1.3,1.8c-0.7,0.1-1.2-0.4-1.4-1.7c-0.2-0.7-0.3-1.5-0.3-2.2C71.3,61,71.3,57.8,71.3,55.5z
		 M73,55.8c0-0.2,0.1-0.4,0-0.6c0-0.1-0.1-0.2-0.2-0.4c-0.1,0.1-0.2,0.2-0.2,0.3c0,0.2,0,0.4,0,0.6c-0.1,3.4-0.2,6.7,0.1,10.4
		c0.7-0.9,0.6-1.5,0.6-2.2C73.5,61.3,73.3,58.5,73,55.8z"/>
	<path class="st1" d="M83.8,54.3c0-5.1,0-10.3,0-15.4c0-0.4-0.2-1.1,0.3-1.1c0.8-0.1,0.5,0.7,0.5,1.2c0.2,4.6,0.3,9.2,0.4,13.8
		c0.1,5.4,0.1,10.8,0.4,16.3c0,0.7,0,1.3-0.1,2c0,0.3-0.3,0.5-0.6,0.6c-0.4,0.1-0.7-0.2-0.8-0.6c-0.1-0.4-0.1-0.9-0.1-1.3
		C83.9,64.5,83.9,59.4,83.8,54.3C83.9,54.3,83.8,54.3,83.8,54.3z"/>
	<path class="st1" d="M160.7,73.4c0,1.4,0,2.8,0,4.2c0,1-0.2,1.9-0.7,2.8c-0.5,0.8-1.3,0.8-1.8,0c-0.4-0.7-0.6-1.5-0.6-2.3
		c-0.1-3.1,0.2-6.2,0.3-9.4c0.2-3.1,0.7-6.2,0.5-9.3c0-0.6,0.1-1.2,0.5-1.7c0.1-0.2,0.3-0.3,0.5-0.3c0.3-0.1,0.4,0.3,0.3,0.4
		c-0.2,3.6,0.4,7.1,0.7,10.7c0.2,1.6,0.2,3.3,0.3,4.9C160.8,73.4,160.7,73.4,160.7,73.4z M159.1,68.1c-0.3,3.1-0.6,6.1-0.5,9.3
		c0,0.7-0.1,1.3,0.6,1.8C159.7,75.5,159.6,71.8,159.1,68.1z"/>
	<path class="st1" d="M126.9,68.2c-0.2-1.3-0.3-2.9-0.4-4.4c-0.4-5.5-0.3-11-0.4-16.5c0-1.7-0.1-3.4-0.1-5.1c0-0.4,0.1-0.9,0.2-1.3
		c0-0.1,0.2-0.1,0.3-0.1c0,0,0.2,0.1,0.2,0.1c0.1,0.2,0.1,0.4,0.1,0.6c0.1,5.1,0.2,10.3,0.5,15.4c0.2,3.6,0,7.1,0.7,10.7
		c0.1,0.4,0,0.9-0.1,1.3c-0.1,0.5-0.6,0.9-0.9,0.8c-0.4-0.2-0.3-0.6-0.3-1C126.8,68.6,126.9,68.5,126.9,68.2z"/>
	<path class="st1" d="M48.4,119.6c0,4.1,0,8.2,0,12.3c0,1.1-0.1,2.2-0.6,3.2c0,0.1-0.3,0.2-0.4,0.1c-0.1,0-0.3-0.2-0.2-0.3
		c0.1-1,0.2-2.1,0.3-3.1c0.2-8.3,0.3-16.6,0.4-25c0-0.4,0-0.7,0.1-1.1c0-0.1,0.2-0.1,0.3-0.1c0,0,0.2,0.1,0.2,0.1
		c0.1,0.4,0.1,0.7,0.1,1.1c0,4.2,0,8.5,0,12.7C48.6,119.6,48.5,119.6,48.4,119.6z"/>
	<path class="st1" d="M133.8,129.7c-0.2,3.8-0.3,7.2-0.5,10.6c0,0.7-0.2,1.3-0.3,2c-0.1,0.3-0.1,0.7-0.4,0.7c-0.6,0-0.4-0.5-0.4-0.8
		c0-0.3-0.1-0.6-0.5-0.6c-0.4,0-0.8-0.1-0.7-0.5c0.1-0.8-0.5-1.2-1.1-1.5c-1.4-0.7-2.5-1.8-3.3-3.2c-0.4-0.6-0.6-1.2-0.5-1.9
		c0.1-0.5,0.6-0.8,1-0.6c0.6,0.2,1.2,0.5,1.7,1c1.6,1.4,2.8,3.1,2.8,5.3c0,0.4-0.1,0.7,0.3,1c0.1,0.1,0.3,0.1,0.4,0
		c0.3-0.4,0.2-0.8,0.2-1.3c0.2-3.9,0.6-7.9,0.5-11.8c0-0.3,0.1-0.6,0.2-0.8c0-0.1,0.2-0.2,0.3-0.2c0.1,0,0.2,0.2,0.2,0.3
		c0,0.2,0,0.4,0,0.7C133.8,128.7,133.8,129.4,133.8,129.7z M129.6,138c0.2,0.1,0.4,0.4,0.6,0c0-0.1-0.2-0.3-0.3-0.5
		c-0.4-1.1-1.3-1.7-2.2-2.4c-0.2-0.1-0.4-0.3-0.5-0.1c-0.1,0.2,0,0.4,0.2,0.4C127.9,136.7,128.7,137.4,129.6,138z"/>
	<path class="st1" d="M61.2,53c0.1-2.1,0.1-4.2,0.6-6.2c0.1-0.4,0.2-0.7,0.5-1c0.2-0.2,0.5-0.1,0.6,0.1c0.3,0.4,0.6,0.9,0.6,1.4
		c0.4,2.9,1.3,5.8,0.9,8.8c-0.1,1-0.3,2.1-0.6,3.1c-0.1,0.5-0.5,0.9-1.1,0.9c-0.5-0.1-0.8-0.4-0.9-0.8c-0.2-0.6-0.4-1.1-0.4-1.7
		C61.4,56,61.3,54.5,61.2,53z M63.1,58c0.1-2.8,0.5-5.4-0.6-8.1C62.2,55,62.3,56.5,63.1,58z"/>
	<path class="st1" d="M140.5,103.4c0.1,1.6-0.1,3-0.4,4.4c-0.2,0.7-0.5,1.3-1,1.7c-0.6,0.5-1.5,0.2-1.6-0.5
		c-0.1-0.4-0.1-0.9-0.1-1.3c-0.1-2.2,0.2-4.3,0.7-6.4c0.3-1.2,0.5-2.5,0.6-3.7c0-0.7,0.3-1.3,0.9-1.7c0.3-0.2,0.5-0.4,0.8-0.2
		c0.3,0.2,0.3,0.5,0.1,0.8c-0.6,0.6-0.5,1.3-0.4,2.1C140.2,100.2,140.8,101.9,140.5,103.4z M139.2,101.6c-0.8,3-1,4.3-0.5,6.5
		C139.6,105.9,139.3,103.9,139.2,101.6z"/>
	<path class="st1" d="M136.2,50.3c0.9,0.4,1.3,0.9,1.4,1.6c0.5,2.9,0.7,5.7,0.3,8.6c-0.1,0.8-0.3,1.6-0.9,2.2
		c-0.4,0.4-0.8,0.7-1.4,0.5c-0.5-0.2-1-0.5-1.1-1c-0.1-0.4-0.1-0.9-0.1-1.3c0.1-1.3,0.2-2.5,0.4-3.8C135.4,55,135.8,52.7,136.2,50.3
		z M136.3,54.9c-0.2,1-0.4,2-0.5,3c-0.2,1.3-0.2,2.5-0.1,3.8c0,0.2,0.1,0.4,0.4,0.3c0.1,0,0.3-0.1,0.3-0.3c0.7-2.2,0.7-4.4,0.2-6.6
		C136.6,55.1,136.4,55,136.3,54.9z"/>
	<path class="st1" d="M174.1,129.6c0.5,0,0.7,0,0.9,0.1c0.2,0.1,0.5,0.1,0.3,0.4c-0.2,0.5-0.7,0.8-1.2,0.9c-0.4,0.1-0.7-0.1-0.8-0.5
		c-0.2-0.7-0.2-1.5,0-2.2c0.9-3,2.1-5.8,4.3-8.2c0.4-0.4,0.7-0.7,1.2-1c0.8-0.5,1.5-0.1,1.6,0.8c0,0.5,0,1-0.2,1.5
		c-0.3,0.8-0.6,1.5-1.2,2.1c-1.3,1.2-2.2,2.7-3.9,3.6c-0.3,0.2-0.4,0.4-0.5,0.7C174.4,128.3,174.3,128.9,174.1,129.6z M176.5,124.5
		c0.8-1,1.9-1.7,2.4-2.9c0.2-0.4,0.5-0.8,0-1.2c-1,0.9-1.8,2-2.4,3.1C176.2,123.9,176.2,124.2,176.5,124.5c-0.1-0.1-0.2-0.3-0.4,0
		C176.2,124.5,176.3,124.5,176.5,124.5z"/>
	<path class="st1" d="M55.8,164.3c-0.1,0.2-0.1,0.7-0.3,1.1c-0.8,1.4-1.9,2.4-3.4,3.1c-0.3,0.2-0.7,0.2-1.1,0.2
		c-1,0-1.8-1.1-1.2-1.8c0.5-0.7,0.7-1.6,1.2-2.4c0.5-0.9,1.2-1.7,2.2-2.2C54.6,161.6,55.8,162.4,55.8,164.3z M52.7,166.2
		c1.3-1.2,1.3-1.2,0.5-2.3C51.9,165,51.9,165,52.7,166.2z"/>
	<path class="st1" d="M59.2,107.5c0.1,5,0.3,9.9,0.4,14.9c0,0.9,0.1,1.8,0,2.7c0,0.4-0.3,0.7-0.7,0.7c-0.4,0-0.7-0.2-0.8-0.6
		c0-0.2-0.1-0.4,0-0.7c0.3-4.4,0.1-8.9,0.2-13.3c0-0.6,0.1-1.2,0.1-1.8c0.1-0.6,0.2-1.3,0.2-1.9C58.9,107.5,59,107.5,59.2,107.5z"/>
	<path class="st1" d="M157.9,145.2c0.1-0.2,0.2-0.6,0.4-1c1.1-2.2,2.5-4.2,4.3-5.8c0.2-0.2,0.5-0.4,0.7-0.5c0.3-0.1,0.6-0.2,0.8,0
		c0.2,0.2,0.3,0.5,0.2,0.8c-0.1,0.4-0.2,0.9-0.4,1.3c-0.9,2-2.1,3.9-3.7,5.4c-0.4,0.4-0.9,0.8-1.5,0.9
		C158.1,146.4,157.8,146.1,157.9,145.2z M159.4,144.4c0.4,0,0.5-0.3,0.7-0.5c1.3-1,2.1-2.3,2.8-3.7c0.1-0.2,0.3-0.5,0-0.7
		c-0.1,0-0.3,0.2-0.4,0.3c-1.1,1-2,2.2-2.7,3.6C159.4,143.7,159,144,159.4,144.4c-0.1-0.1-0.2-0.1-0.3,0.1c0,0.1,0.1,0.2,0.1,0.3
		C159.2,144.7,159.3,144.6,159.4,144.4z"/>
	<path class="st1" d="M120,117.8c0-1.2,0-2.4,0-3.6c0-0.6,0.2-1.2,0.8-1.5c0.3-0.1,0.7-0.1,0.7,0.3c0,2.7,0.9,5.3,0.7,7.9
		c-0.1,0.7-0.1,1.5-0.5,2.1c-0.3,0.5-1,0.4-1.3,0c-0.3-0.5-0.4-1-0.4-1.5C120,120.3,120,119,120,117.8
		C120,117.8,120,117.8,120,117.8z"/>
	<path class="st2" d="M114.1,72.4c-0.4-0.5-0.6-1.2-1.3-1.4c0-0.1,0-0.2,0-0.4c2.8-0.3,5.4,0.4,8.1,0.9c0.1,0,0.3,0.2,0.3,0.3
		c0.1,0.3-0.2,0.4-0.4,0.4c-1.3,0-2.7,0.2-4-0.2c-0.4-0.1-0.7,0.1-0.9,0.4C115.3,72.5,114.7,72.5,114.1,72.4z"/>
	<path class="st1" d="M117.1,43.4c0.5,0.7,0.3,1.3,0.3,1.8c0,4.2,0,8.5,0,12.7c0,0.7,0,1.5,0.1,2.2c0,0.3,0.1,0.6-0.3,0.6
		c-0.4,0-0.4-0.4-0.4-0.7c-0.1-0.6-0.1-1.2-0.1-1.8c0-4.4,0-8.9,0-13.3C116.8,44.5,116.7,44,117.1,43.4z"/>
	<path class="st1" d="M116.8,95.9c-0.5-0.2-0.6-0.5-0.7-0.9c-0.2-1-0.1-6.3,0.1-7.6c0.6,1.1,0.6,1.1,0.5,4.2
		C116.8,92.9,116.8,94.3,116.8,95.9z"/>
	<path class="st2" d="M62.3,131.9c0.5,1.3,0.5,2.7,0.5,4l0,0c-0.5-0.1-0.7-0.5-0.9-0.9c-0.5-0.7-1-1.5-1.8-1.9
		C60.4,132.1,61.3,131.9,62.3,131.9z"/>
	<path class="st2" d="M62.9,139c0.6,0.5,0.5,1.3,1.1,1.8c0.6,0.4,0.8,1.4,0.3,2.3c-1.2-1-2.1-2.3-3.7-2.4
		C61.4,140.2,62.5,140.1,62.9,139z"/>
	<path class="st2" d="M50.8,144.6c-0.1,0.9-0.2,1.8-0.3,2.8c-1-0.7-1.4-2.1-2.7-2.1C48.7,143.8,49.1,143.8,50.8,144.6z"/>
	<path class="st1" d="M113.1,173.1c-0.2,0.5-0.4,0.8-0.8,0.9c-1,0.4-1.9,0.8-2.9,1.2c-0.1,0-0.3,0-0.4-0.1c-0.1-0.1-0.1-0.3,0-0.4
		c0.2-0.2,0.4-0.4,0.7-0.6C110.7,173.6,111.9,173.5,113.1,173.1z"/>
	<path class="st2" d="M168.6,56.2c-0.2,0-0.4,0-0.7,0c-0.1-0.9-0.1-1.8,0.1-2.6c0-0.1,0.2-0.2,0.3-0.2c0.1,0,0.3,0.1,0.3,0.2
		C168.8,54.5,168.7,55.4,168.6,56.2z"/>
	<path class="st2" d="M64.6,89c-1,0-1.4-0.8-1.8-1.5c0.3-0.1,0.6-0.2,0.8-0.3C64,87.8,64.6,88.2,64.6,89L64.6,89z"/>
	<path class="st1" d="M115.9,172.8c-0.2,0.3-0.5,0.2-0.8,0.2c-0.1,0-0.2-0.1-0.3-0.2c0,0,0-0.2,0-0.2c0.3-0.2,0.7-0.3,1-0.1
		C115.9,172.6,115.8,172.7,115.9,172.8z"/>
	<path class="st2" d="M98.1,106.5c-1.2-0.9-1.8-2.1-1.8-3.6c0-0.4,0.1-0.9-0.2-1.3c-0.3-0.3-0.5-0.8-1-0.8c-0.6,0.1-0.5,0.6-0.5,1.1
		c0,3,1.2,5.4,3.6,7c1.4,0.9,2.1,1.8,1.8,3.6c-0.2,1.2-0.2,2.5,0,3.8c0.2,1.5-0.5,2.6-1.3,3.7c-0.8,1-1.7,1.8-2.8,2.8
		c-0.6-1.1-0.8-2.1-0.8-3.1c-0.3-5.4-1.5-10.7-3-15.9c-0.2-0.7-0.2-1.5-0.2-2.2c0-0.7,0-1.3,0.1-2c0.1-0.9-0.2-1.6-1.2-1.9
		c-0.8-0.2-0.6-0.8-0.7-1.4c-0.1-0.5,0-0.8,0.3-1.3c2-2.8,5-4.1,7.9-5.6c0.8-0.4,1.7-0.5,2.6-0.4c0.4,0,0.7,0.1,0.8,0.6
		c0,0.2,0.2,0.6,0.3,0.6c1.4,0.1,1,1.2,1.2,2c0.3,1.3,0.6,2.6,0.8,3.9c0.2,0.9,0.6,1.8,0.1,2.8c-0.3,0.6,0.3,1.4,1.1,1.7
		c0.5,0.2,1.1-0.1,1.4,0.4c0,0.6-0.5,0.9-0.8,1.3c-1,1.5-0.6,2.6,1.2,2.9c0.7,0.1,1.3,0.2,1.9,0.4c1.2,0.3,2.4,0.3,3.5-0.1
		c1.3-0.4,2.5-0.8,3.8-1.3c0.4-0.1,0.8-0.3,1.3-0.4c0.7-0.1,1.1,0.2,1.2,1c0.1,1-0.6,1.9-0.2,2.8c0,0-0.3,0.2-0.5,0.2
		c-0.4,0-0.6-0.4-0.8-0.6c-0.8-0.8-1.5-0.9-2.3-0.1c-1.9,1.7-4.2,2-6.7,2.3c0.1-0.7,0.8-0.8,1-1.2c0.4-0.8,0.1-1.5-0.8-1.6
		c-1-0.1-2.1,0.2-3-0.4c-1.4,0.2-2-1.4-3.3-1.5c-0.5-0.7-1.2-1.3-1.1-2.3c0.1-1,0-1.9-1-2.5c-0.4-0.2-0.2-0.6-0.1-1
		c0.2-0.9,0-1.5-1-1.6c-0.8-0.1-0.5-1-0.8-1.4c-0.4-0.6-1.3,0-1.5-0.7c-0.1-0.4-0.1-0.9-0.1-1.3c0-0.2-0.2-0.4-0.4-0.4
		c-0.3,0-0.4,0.2-0.5,0.4c-0.1,0.7-0.1,1.3,0.1,2c0.1,0.4,0.2,0.9,0.4,1.3c0.7,1.5,0.9,3.1,0.8,4.8c0,0.6-0.2,1.3,0.3,1.7
		C98.4,104.1,98.1,105.3,98.1,106.5L98.1,106.5z"/>
	<path class="st2" d="M107.1,137.3c0,0.7-0.4,1.1-0.9,1.5c-0.3,0.3-0.8,0.6-0.8,1c-0.3,1.7-1,3.4-1,5.2c0,1.3,0.7,1.9,2,1.6
		c1.5-0.4,2.7-1.1,3.1-2.8c0.3-1.3,0.3-2.6,0.6-4c0.4-1.6,0.5-3.2,1.5-4.6c0.4-0.6,0.5-1.3,0.2-1.9c-0.3-0.6-0.3-1.3-0.3-2
		c0-0.7,0.4-1,1.2-0.9c0.5,0.1,0.8,0.4,1.1,0.7c0.3,0.2,0.5,0.2,0.8-0.1c0.2-0.2,0.2-0.6,0.6-0.4c0.2,0.1,0.3,0.4,0.3,0.6
		c0,1.1,0.2,2.3,0,3.3c-0.6,3.6-1.3,7.1-2.2,10.7c-0.2,0.7-0.6,1-1.2,1.1c-1.6,0.2-3.2,0.5-4.7,1.1c-0.9,0.4-1.8,0.8-2.6,1.2
		c-0.9,0.4-1.7-0.1-1.7-1c-0.1-0.9,0-1.8,0.2-2.7c0.5-1.9,1.1-3.8,1.3-5.8C104.6,137.8,105.7,137.3,107.1,137.3L107.1,137.3z"/>
	<path class="st2" d="M96.7,123.8c0.7-1,1.8-1.5,2.6-2.4c0.4-0.4,0.9-0.4,1.5-0.3c2.8,0.4,5.7,1,8.4,1.9c1.1,0.4,2.2,0.8,3.3,1.3
		c0.9,0.4,1.2,0.9,0.7,1.8c-0.5,1-0.5,1.9,0,3c-0.9,0-1.7,0-2.4,0c-0.6,0-1-0.1-1.2-0.8c-0.1-0.2-0.4-0.6-0.6-0.6
		c-1.2-0.2-2.1-1.4-3.5-1.2c-0.3,0-0.6-0.1-0.7-0.4c-0.3-0.5-0.8-0.6-1.4-0.6c-0.4,0-0.7,0-1-0.3c-0.5-0.6-1.1-0.7-1.8-0.3
		c-0.9,0.5-1.5-0.4-2.3-0.3c0-1.3-0.9-0.7-1.5-0.7L96.7,123.8z"/>
	<path class="st2" d="M109.7,65.2c-1.5,0.3-2.9,0.3-4.3,0.5c-2.7,0.4-5.4,0.9-8,1.7c-0.2,0.1-0.4,0.1-0.7,0.1
		c-0.3,0-0.5-0.2-0.5-0.4c-0.2-2.5-0.3-4.7,2.7-5.9c3-1.2,5.9-1.4,8.7,0.6C108.8,62.6,109.4,63.8,109.7,65.2z"/>
	<path class="st2" d="M89.6,130.2c0.4-0.9,1.2-1.3,1.9-1.7c0.7-0.4,1.1-0.2,1.6,0.7c0.3,0.5,0.7,0.6,1.1,0.4
		c0.7-0.3,1.1-0.3,1.4,0.4c0.2,0.4,0.5,0.5,0.9,0.5c0.4,0,0.9,0,1.3,0.3c0.9,0.8,1.9,0.6,2.9,0.2c1-0.4,1.9-0.7,3-0.1
		c0.8,0.4,1.6-0.2,2.4-0.3c0.3,0,0.6-0.1,0.7,0.3c0,0.1-0.3,0.4-0.4,0.4c-1.7,0.2-3.3,0.8-5,0.7c-0.5,0-1,0.2-1.5,0.2
		c-3.3,0.1-6.7,0.1-9.7-1.6C90,130.5,89.9,130.4,89.6,130.2z"/>
	<path class="st2" d="M78.9,159.7c-2.7-0.9-2.8-1.2-1.6-3.6c1.1-2.2,2.2-4.4,3.3-6.6c0.1-0.2,0.2-0.6,0.6-0.5
		c0.2,0.1,0.3,0.3,0.4,0.5c0.3,0.8,0.6,1.5-0.3,2.2c-0.7,0.5-0.4,1.4-0.6,2c-0.5,1.4-0.1,2.6,0.6,3.7c0.2,0.4,0.1,0.5-0.1,0.7
		c-0.3,0.3-0.4,0.6-0.5,1C79.9,159,79.4,159.4,78.9,159.7z"/>
	<path class="st2" d="M141,86.3c-1.3,2-3.4,3-5.2,4.4c-0.1,0.1-0.3,0-0.4-0.1c-0.1-0.1-0.1-0.3-0.1-0.4c0.1-0.2,0.1-0.4,0.3-0.6
		C137,87.8,138.7,86.5,141,86.3L141,86.3z"/>
	<path class="st2" d="M77,86c0,2.5-0.4,4.8-0.9,7c0,0.1-0.2,0.2-0.3,0.2c-0.1,0-0.3-0.1-0.3-0.2c-0.3-0.5-0.2-1-0.1-1.5
		c0.3-1.7,0.7-3.3,1-5C76.4,86.4,76.6,86.3,77,86z"/>
	<path class="st2" d="M92.2,89.8c1.4-2,3.6-3,6.2-2.9c-1,0.9-2.1,1.2-3.1,1.7c-1,0.5-1.9,1.2-3,1.4C92.3,89.9,92.2,89.8,92.2,89.8z"
		/>
	<path class="st2" d="M78.1,95.7c1.1,1.5,0.4,3,0.2,4.5c0,0.2-0.4,0.1-0.5,0c-0.4-0.5-0.8-1.1-1.1-1.6c-0.1-0.2-0.1-0.5,0-0.6
		C77.1,97.2,77.3,96.3,78.1,95.7z"/>
	<path class="st2" d="M90.8,75c1.6-1,3.4-1.7,5.2-2.1c0.2,0,0.4,0.2,0.6,0.2c-0.1,0.2-0.2,0.4-0.3,0.6c0,0.1-0.1,0.1-0.2,0.1
		C94.4,74.5,92.7,74.9,90.8,75z"/>
	<path class="st2" d="M62.9,94.8c0.4-0.4,0.7-0.3,0.9-0.2c1.3,0.5,2.5,1.3,3.6,2.1c0.1,0.1,0.2,0.4,0.2,0.6c-0.1,0.3-0.4,0.1-0.5,0
		C65.7,96.4,64.3,95.6,62.9,94.8z"/>
	<path class="st2" d="M73.9,94.9c-1-0.9-2-1.7-3-2.6c-0.2-0.1-0.3-0.3-0.1-0.5c0.1-0.1,0.4-0.2,0.6-0.1c1.3,0.6,2.5,1.4,2.8,2.9
		C74,94.7,74,94.8,73.9,94.9z"/>
	<path class="st2" d="M98.6,106.9c0.9-0.1,1.5,0.4,2.3,0.7c0.2,0.1,0.3,0.3,0.2,0.5c-0.1,0.2-0.4,0.2-0.6,0.1
		C99.7,108,98.9,107.7,98.6,106.9L98.6,106.9z"/>
	<path class="st2" d="M66.6,140.6c0.3,0.7,0.2,1.2-0.1,1.9C66,141.5,66,141.5,66.6,140.6z"/>
	<path class="st2" d="M81.7,94c0.2-0.1,0.4-0.1,0.5,0.1c0.5,0.7,0.1,1.4,0.2,2.2c-0.6-0.3-0.4-0.7-0.5-1
		C81.9,94.8,81.5,94.5,81.7,94z"/>
	<path class="st2" d="M74.1,94.6c0.7,0.3,1.3,0.8,1.1,1.7c-0.8-0.3-1.1-0.8-1.3-1.5C74,94.8,74,94.7,74.1,94.6z"/>
	<path class="st2" d="M83.7,134c-0.3,0-0.4-0.2-0.4-0.4c0-0.4,0.2-0.7,0.6-0.7c0.2,0,0.4,0.1,0.5,0.2c0,0,0,0.3-0.1,0.4
		C84.3,133.8,84.1,134,83.7,134z"/>
	<path class="st2" d="M87.8,113.5l-0.2,0l-0.2,0c0.2-0.6,0.4-1.2,0.6-2C88.2,112.4,88.5,113,87.8,113.5z"/>
	<path class="st2" d="M92.4,114.9c-0.2,0.1-0.3,0.2-0.5,0.2c-0.1-0.6-0.1-1.1,0.1-1.8C92.4,113.9,92.3,114.4,92.4,114.9z"/>
	<path class="st2" d="M130.3,94.4c-0.1-0.4,0.1-0.7,0.4-0.9c0.1-0.1,0.3-0.1,0.3,0c0.1,0.1,0.1,0.3,0.1,0.4
		C131,94.3,130.7,94.4,130.3,94.4L130.3,94.4z"/>
	<path class="st2" d="M98.5,79.3c0,0.1,0,0.3,0,0.4c-0.1,0.1-0.2,0.2-0.3,0.2c-0.3,0-0.3-0.2-0.2-0.4c0.1-0.2,0.2-0.3,0.3-0.5
		C98.4,79.1,98.4,79.2,98.5,79.3z"/>
	<path class="st2" d="M67.1,139.8c-0.1-0.2-0.2-0.3-0.2-0.3c0-0.2,0.1-0.3,0.2-0.5c0,0.1,0.1,0.1,0.1,0.2
		C67.2,139.4,67.1,139.6,67.1,139.8z"/>
	<path class="st2" d="M62.8,136c0.2,0,0.4,0.2,0.3,0.4c0,0.1-0.1,0.1-0.2,0.2C62.9,136.4,62.8,136.2,62.8,136L62.8,136z"/>
	<path class="st2" d="M92.3,90c-0.2,0.4-0.6,0.5-1,0.4l0,0c0.1-0.4,0.4-0.5,0.8-0.6C92.2,89.8,92.3,89.9,92.3,90z"/>
	<path class="st2" d="M99.5,72.2L99.5,72.2c-0.3,0.2-0.5,0.3-0.8,0c0.1,0,0.1-0.1,0.2-0.1C99.1,72.1,99.3,72.2,99.5,72.2z"/>
	<path class="st2" d="M107.8,136c0,0-0.1,0-0.1,0.1c0-0.1,0-0.1,0-0.2c0,0,0.1,0,0.1-0.1C107.8,135.9,107.8,136,107.8,136z"/>
	<path class="st2" d="M64.6,89c0.3,0.1,0.6,0.4,0.3,0.6C64.5,89.7,64.6,89.2,64.6,89L64.6,89z"/>
	<path class="st2" d="M141,86.3c0.1-0.1,0.1-0.2,0.2-0.2c0,0,0,0.1,0,0.1C141.1,86.3,141.1,86.3,141,86.3
		C141,86.3,141,86.3,141,86.3z"/>
	<path class="st2" d="M91.4,90.3c0,0.1-0.1,0.2-0.1,0.3C90.9,90.4,91.3,90.5,91.4,90.3L91.4,90.3z"/>
	<path class="st2" d="M107,137.3c0.1-0.1,0.1-0.2,0.2-0.3C107.5,137.2,107.2,137.3,107,137.3L107,137.3z"/>
	<path class="st2" d="M96.9,124c-0.1,0.2-0.2,0.4-0.4,0.2c-0.2-0.2,0-0.3,0.2-0.4L96.9,124z"/>
	<path class="st2" d="M130.3,94.4c-0.1,0.1-0.2,0.1-0.2,0.2c0-0.1,0-0.1,0-0.2C130.1,94.4,130.2,94.4,130.3,94.4L130.3,94.4z"/>
	<path class="st2" d="M98.1,106.4c0.3,0,0.4,0.2,0.4,0.4l-0.1,0.1C98.3,106.9,98.1,106.7,98.1,106.4L98.1,106.4z"/>
	<path class="st2" d="M145.4,131.2c-0.1-2.6,0.7-4.8,2.1-6.8c0.4-0.6,0.8-1.3,1.5-1.6c0.1-0.1,0.3-0.1,0.4,0c0.1,0,0.2,0.2,0.2,0.3
		c0,0.6-0.2,1.2-0.5,1.7C147.9,126.8,146.6,129,145.4,131.2z"/>
	<path class="st2" d="M144,134c-0.8-0.5-0.8-1.4-1.1-2.1c0-0.1,0.1-0.2,0.2-0.3c0,0,0.2,0,0.2,0C143.7,132.4,144.5,133,144,134z"/>
	<path class="st2" d="M146,133.7c-0.1-0.6-0.1-1.2,0.7-1.3c0.1,0,0.3,0,0.4,0.1c0.1,0,0.1,0.3,0,0.3
		C146.7,133.1,146.5,133.6,146,133.7L146,133.7z"/>
	<path class="st2" d="M145.9,133.7c-0.1,0.1-0.1,0.2-0.2,0.2c0-0.1,0-0.1,0-0.2C145.8,133.8,145.9,133.8,145.9,133.7L145.9,133.7z"
		/>
	<path class="st2" d="M134.8,159.7c0.1,1.1-0.6,1.9-1.1,2.9C133.4,160.9,133.4,160.9,134.8,159.7L134.8,159.7z"/>
	<path class="st2" d="M134.8,159.7c0.1-0.1,0.1-0.2,0.2-0.3C135.2,159.6,134.9,159.6,134.8,159.7L134.8,159.7z"/>
	<path class="st2" d="M73,55.8l-0.2,0l-0.1-0.1c0-0.2-0.1-0.4,0-0.6c0-0.1,0.1-0.2,0.2-0.3c0.1,0.1,0.2,0.2,0.2,0.4
		C73,55.4,73,55.6,73,55.8z"/>
	<path class="st2" d="M52.7,166.2c-0.8-1.2-0.8-1.2,0.5-2.3C54,165,54,165,52.7,166.2z"/>
	<path class="st1" d="M109.6,75.2c-0.4,0-0.9-0.4-0.8-0.8c0.1-0.8,0.8-1.6,1.6-1.5c0.5,0,0.8,0.4,0.8,0.9
		C111.3,74.6,110.6,75.2,109.6,75.2z"/>
</g>
</svg>
