<?xml version="1.0" encoding="utf-8"?>
<!-- Generator: Adobe Illustrator 25.3.1, SVG Export Plug-In . SVG Version: 6.00 Build 0)  -->
<svg version="1.1" id="Layer_1" xmlns="http://www.w3.org/2000/svg" xmlns:xlink="http://www.w3.org/1999/xlink" x="0px" y="0px"
	 viewBox="0 0 225 225" style="enable-background:new 0 0 225 225;" xml:space="preserve">
<style type="text/css">
	.st0{fill:none;}
	.st1{fill:#333333;}
	.st2{fill:#00A196;}
</style>
<path class="st0" d="M0,0h225v225H0V0z"/>
<g>
	<path class="st1" d="M105.1,85c0.7-1.6,1.7-3,2.5-4.4c0.6-1,1.6-1.4,2.5-2.1c0.3-0.2,0.7,0.1,0.9,0.5c0.3,0.5,0,1.1,0.2,1.5
		c0.4,0.2,0.6-0.2,0.9-0.4c1.5-1.4,3-2.7,4.5-4.1c0.4-0.3,0.7-0.7,1.2-0.9c0.6-0.2,1.2,0.1,1.2,0.8c0,0.4-0.1,0.8-0.1,1.2
		c-0.2,0.1-0.3,0.3-0.1,0.4c0.1,0.2,0.3,0,0.4-0.1c0.8-0.3,1.5-0.8,2.3-1c1.5-0.3,2.1,0.3,1.6,1.9c0,0.2-0.1,0.3-0.2,0.5
		c-0.1,0.1-0.3,0.3-0.1,0.4c0.1,0.1,0.3,0.1,0.5,0c1.1-0.1,2.2-0.3,3.4-0.4c0.7-0.1,1.4,0,2,0.2c0.5,0.2,0.9,0.6,0.9,1.2
		c0.1,0.6-0.2,1.1-0.6,1.4c-0.4,0.3-0.9,0.5-1.4,0.7c-0.9,0.3-1.9,0.5-2.8,0.7c-1.1,0.3-2.2,0.5-3.2,1.1c-0.5,0.3-1.1,0.4-1.6,0.5
		c-0.5,0.1-1,0.2-1.5,0.3c-0.4,0.1-0.5,0.6-0.2,0.8c0.5,0.4,1,0.8,1.4,1.3c0.5,0.5,0.3,1.2-0.3,1.5c-0.4,0.2-0.9,0.2-1.3,0.1
		c-0.7-0.2-1.4-0.4-2.1-0.6c-0.3-0.1-0.6-0.1-0.8,0.2c-0.2,0.2,0,0.4,0.1,0.6c0.1,0.2,0.3,0.4,0.4,0.6c0.2,0.3,0.2,0.7-0.1,1
		c-0.3,0.3-0.7,0.5-1.1,0.3c-0.5-0.2-1.1-0.4-1.6-0.7c-0.8-0.4-1.7-0.7-2.6-0.8c-0.4-0.1-0.5,0.1-0.5,0.6c0,0.9-0.2,1-1,1
		c-1.1,0-2.3,0-3.4,0c-0.6,0-1.2,0.1-1.8,0.3c-0.6,0.2-1,0.5-1.2,1.2c-0.2,0.7-0.5,1.1-1.1,1.5c-0.8,0.7-1.5,1.4-1.5,2.8
		c0,1.6-0.3,3.2-0.4,4.8c0,0.3-0.2,0.8,0.2,0.9c0.4,0.2,0.6-0.3,0.8-0.5c0.6-0.4,1.2-1,1.8-1.3c3.1-1.7,4.1-1.5,6.7,1.6
		c0.6,0.7,0.9,1.7,1.1,2.6c0.5,1.7,1.1,3.4,1.9,5c0.8,1.6,0.6,2.8-0.7,4c-0.8,0.8-1.7,1.6-2.5,2.4c0.6,1.2,1.1,1.6,2.1,1.2
		c0.9-0.3,1.6-0.2,2.2,0.3c0.5,0.4,1.1,0.5,1.7,0.5c1.4-0.1,2.7,0,4,0.5c0.1,0,0.2,0.1,0.3,0.1c0.9-0.2,1.5,0.2,2.1,0.9
		c0.4-0.5,0.6-0.9,0.1-1.3c-0.1-0.1-0.2-0.1-0.3-0.2c-2.8-2.1-3.8-5.1-3.7-8.6c0-0.4,0-0.8,0.3-1.2c0.3-0.4,0.5-0.3,0.8,0
		c0.1,0.8,0.2,1.7,0.2,2.5c0,0.9,0.2,1.6,0.9,2.3c0.2,0.2,0.3,0.4,0.4,0.6c0.9,1.7,2.2,2.8,3.9,3.6c1.2,0.6,2.5,0.5,3.8,0.7
		c0.6,0.1,1-0.1,1.3-0.5c1.1-1.2,1.7-2.5,1.5-4.2c-0.1-0.7,0-1.3,0.7-1.6c0.4-0.2,0.4-0.4,0.5-0.8c0.1-0.9,0.4-1,1.2-0.9
		c1,0.1,1.1,0.1,1.4-0.7c0.6-1.5,0.8-3.1,0.7-4.7c-0.1-1.5-0.4-1.7-1.7-1.1c-0.4,0.2-0.2,0.6-0.3,0.9c-0.3,1-0.9,1.4-1.7,0.8
		c-0.5-0.4-1-0.4-1.6-0.4c-1.2,0.1-2.4-0.1-3.6-0.3c-0.7-0.1-1.4-0.1-1.9-0.8c0.7-0.3,1.3,0.1,2,0.1c0.2,0,0.3,0.1,0.5,0.1
		c1.3,0.1,2.6,0.2,3.8-0.3c0.1-0.9,0.1-1.7,0-2.5c-0.1-0.5-0.3-0.8-0.8-1c-1-0.3-2-0.3-3-0.3c-1.4,0-1.4,0-1.5,1.5
		c0,0.2,0,0.4,0,0.5c-0.1,1.1-0.7,1.6-1.8,1.6c-0.5,0-1,0-1.5,0c-1.3,0.1-2.5,0.6-3.5,1.7c-0.3,0.3-0.2,0.6,0.2,0.8
		c0.9,0.4,1.8,0.4,2.7,0.4c0.3,0,0.7-0.1,1,0.1c0.4,0.2,0.7,0.7,0.6,1.2c-0.1,0.5-0.6,0.9-1,0.7c-1-0.4-2-0.2-3-0.5
		c-0.6-0.3-1.3-0.5-1.8-1c-0.8-0.7-0.9-1.2-0.4-2.2c0.1-0.2,0.3-0.4,0.2-0.7c-0.5-0.3-1.1-0.1-1.7,0c-0.4,0.1-0.7-0.2-0.7-0.6
		c-0.1-1.1-0.1-2.1-0.1-3.2c0-0.4,0.3-0.6,0.6-0.8c0.3-0.3,0.9-0.2,1.2-0.8c-0.4-0.8-1.2-1.2-1.8-1.8c-0.5-0.5-1-0.9-1.3-1.6
		c-0.1-0.3-0.1-0.6,0.1-0.8c0.3-0.3,0.5-0.1,0.7,0c0.1,0.1,0.3,0,0.5,0c-0.1,0.6,0.4,1,0.8,1.3c0.7,0.5,1.3,1.1,2.2,1.4
		c0.4,0.1,0.8,0.3,1,0.6c0.4,0.7,0.8,0.6,1.4,0.5c0.8-0.2,1.7-0.4,2.3,0c0.9,0.7,1.8,0.5,2.7,0.2c0.5-0.1,1.1-0.1,1.7-0.1
		c0.3,0,0.6,0.1,0.7-0.2c0.1-0.3-0.1-0.5-0.2-0.7c-0.6-0.8-1.4-1.6-1.9-2.5c-0.5-0.8-1.2-1.1-2-1.2c-1.8-0.1-3.6-0.2-5.4,0.1
		c-1.1,0.2-2.2,0.3-3.3,0.5c-0.2-0.3-0.4-0.7,0.1-0.9c0.4-0.2,0.9-0.3,1.3-0.4c3.1-0.5,6.2-0.8,9.3-0.2c0.4,0.1,0.7,0.1,1.1-0.3
		c0.6-0.6,1.5-0.8,2.1-1.5c0.3-0.4,0.8-0.4,1.3-0.4c1-0.1,1.9,0.3,2.7,0.8c1.2,0.7,2.5,1.4,3.8,2c1.5,0.6,2,2,2.3,3.5
		c0.4,2.2,0.1,4.4-0.5,6.5c-0.3,1-0.5,2-0.6,3.1c-0.1,1.5-0.5,3.1-1.2,4.4c-0.6,1.2-0.9,1.3-2.2,1c-0.2-0.1-0.4-0.1-0.7-0.1
		c-0.2,0-0.4,0.1-0.5,0.3c-0.2,0.7-0.5,1.3-0.6,2c-0.3,1.3-0.9,2.5-1.8,3.4c-0.9,0.8-1.6,1.9-3,1.9c-0.1,0-0.2,0.2-0.2,0.2
		c0,0.2,0.1,0.4,0.3,0.4c1.8,0.1,3.5,0.8,5.3,1.2c0.6,0.2,1.2,0.5,1.7,0.7c0.4,0.2,0.8,0.6,0.6,1.1c-0.2,0.6,0.2,1,0.5,1.4
		c0.4,0.6,0.8,1.2,1.1,1.8c0.3,0.6,0.5,1.2,1.2,1.5c0.5,0.2,0.7,0.8,0.7,1.3c-0.1,3.9,0.3,7.8,0,11.6c-0.2,3-0.9,5.9-1.8,8.7
		c-0.3,1-0.8,1.9-1.4,2.6c-0.3,0.3-0.6,0.6-1,0.3c-0.4-0.2-0.5-0.6-0.4-1.1c0.1-0.3,0.1-0.6,0.2-0.9c0.7-0.4,0.7-1.2,0.9-1.9
		c0.6-2.1,0.9-4.3,1.2-6.5c0.3-2.3,0.3-4.6,0.1-6.9c-0.1-1.4-0.2-2.7-0.2-4.1c0-0.7,0-1.3,0-2c-0.1-1.1-0.5-2.1-1.4-3.3
		c0.1,0.9,0,1.4,0.1,1.9c0.2,1.1,0.1,2.1,0.1,3.2c0,0.6-0.2,1.2-0.2,1.8c-0.2,2.6-0.7,5-1.6,7.4c-0.3,0.7-0.6,1.4-1,2.1
		c-0.3,0.5-0.7,0.9-1.4,0.8c-0.1-0.3-0.2-0.6,0-0.9c0.2-0.4,0.3-0.9,0.5-1.3c1.9-4.3,2.2-9,2-13.6c-0.1-1.2-0.3-2.4-0.5-3.5
		c-0.1-0.7-0.3-1-1-1.2c-1.3-0.4-2.6-0.8-4-1.3c-0.1,0.8-0.1,1.5-0.4,2.2c-0.2,0.7,0.3,1.3,0.3,1.9c-0.1,0.6-0.8,0.8-1,1.6
		c-0.5,2-1.1,3.9-1.6,5.8c-0.3,1-0.6,2.1-0.7,3.1c-0.2,1.7-1,3.1-1.4,4.8c0,0.2-0.2,0.3-0.3,0.4c-0.3,0.3-0.9,0.2-1-0.2
		c-0.1-0.3-0.1-0.7-0.1-1.1c0.3-3.8-0.1-7.5-0.3-11.3c-0.1-2-0.4-4-0.8-6c-0.1-0.6-0.2-1.3-1.1-1.4c-0.2,0-0.4-0.3-0.4-0.5
		c-0.1-0.9-0.7-1-1.3-1.1c-0.7-0.2-1.5-0.1-2.2-0.1c-0.3,0.4-0.1,0.7,0,1c0.7,2.6,0.6,5.2-0.6,7.7c-0.9,1.9-1.9,3.8-2.8,5.7
		c-0.4,0.7-0.4,1.4-0.2,2.2c1.6,5.6,1.7,11.3,0.8,17c-0.2,1-0.4,2-1,2.8c-0.6,0.9-1.3,1.5-2.3,1.6c-0.6,0-1.2,0.3-1.8,0.5
		c-2.4,0.8-4.8,0.7-7.2,0c-1.9-0.6-3-2-3.4-4c-0.3-1.3-0.6-2.7-1-4c-1.1-3.7-1.9-7.5-2.7-11.3c-0.1-0.5-0.1-1.1-0.5-1.5
		c-1.1,0.4-2.1,0.9-3.2,1.1c-0.6,0.1-1.2,0.2-1.9,0.2c-2.8-0.2-4.5-1.9-4.6-4.9c0-0.9,0-1.9,0-2.8c-0.3-0.4-0.6-0.1-0.9-0.1
		c-1.3,0.2-2.3-0.3-3.1-1.4c-0.6-0.8-1.2-1.7-1.6-2.7c-0.7-1.9-0.8-3.7,0.8-5.3c0.2-0.2,0.3-0.4,0.5-0.6c-1.1-1.6-1.6-3.5-3.1-4.9
		c-0.7-0.7-0.6-2.2,0-3.2c0.3-0.5,0.8-0.9,1.2-1.2c0.4-0.3,0.8-0.6,1.2-0.9c-0.3-0.9-0.7-1.6-1.3-2.1c-0.6-0.6-1-1.3-0.7-2.2
		c0-0.2,0.1-0.4,0-0.5c-0.3-1.4,0.5-2.2,1.6-2.8c1.4-0.8,2.9-1.4,4.4-1.8c2.6-0.8,5.3-1.2,8-1.8c1.4-0.3,2.8-0.6,4.1-1.2
		c1.2-0.6,2.3-0.5,3.2,0.5c0.1,0.1,0.2,0.1,0.3,0.1c0.1-1.1,0.2-2.3,0.3-3.4c0.1-0.9-0.2-1.4-0.9-1.9c-1.3-0.9-2.6-1.7-4-2.3
		c-1-0.5-2.1-0.5-3.2-0.3c-0.3,0.1-0.6,0.2-0.8,0.2c-0.4,0-0.6-0.3-0.7-0.7c-0.1-0.4,0-0.7,0.3-0.9c0.4-0.3,0.9-0.4,1.4-0.5
		c0.4-0.1,0.8,0.1,1.1-0.5c-1.8-1.1-3.7-1.9-5.8-2.4c-0.5-0.1-1-0.2-1.5-0.3c-1.1-0.3-1.5-1.7-0.6-2.5c0.3-0.3,0.7-0.5,1.1-0.7
		c0-0.5-0.4-0.4-0.6-0.5c-0.2-0.1-0.4-0.2-0.6-0.2c-0.8-0.3-1.5-0.7-2.2-1.3c-0.9-0.8-1.1-1.9-1.2-3.1c0-0.5,0.3-0.8,0.7-1.3
		c-0.2-0.6-0.8-0.8-1.2-1.2c-0.6-0.6-1.1-1.2-1.3-2.1c-0.4-1.4,0.4-2.4,1.7-2.2c0.7,0.1,1.4,0.3,2.1,0.5c0.3,0.1,0.6,0.3,0.8,0.6
		c1.2,2,2.9,3.5,4.1,5.5c0,0.2,0.1,0.3,0.3,0.3c0.1,0.1,0.1,0.2,0.2,0.3c0.2-0.2,0.1-0.3-0.1-0.4c0-0.3,0.1-0.6-0.2-0.9
		c-0.6-1.5-1-3.2-1.1-4.8c0-0.5-0.1-1.1,0.4-1.4c0.5-0.3,1.1-0.1,1.6,0.6c0.4,0.5,0.7,1.1,1.1,1.6c1,1.9,1.8,3.8,2.4,5.9
		c0.1,0.3,0.1,0.7,0.3,1c0.1,0,0.1,0.1,0.2,0.1c1.8-0.5,2.2-0.3,2.7,1.5c0.4,1.3,0.6,2.7,1,4c0.1,0.4,0.2,0.8,0.3,1.3
		c0.6,0,1.1-0.5,1.6-0.3c0.5,0.1,0.8,0.7,1.3,0.9c0.6-0.8,0.5-1.8,0.7-2.7c0.3-1.3,0.5-2.6,1.1-3.7c0.4-0.8,0.3-1.6-0.1-2.4
		c-0.3-0.6-0.7-1.1-1.1-1.6c-1.5-1.7-2.9-3.3-4.4-5c-1-1.1-2.1-2-3.3-2.9c-0.4-0.3-0.8-0.6-1.2-1c-1-1-0.9-1.7,0.3-2.7
		c0.7,0,1.4,0,2.4,0C92.1,64,91.8,63.2,91,63c-0.4-0.8-1-1.4-1.6-2.1c-0.7-0.8-1.4-1.6-2.1-2.4c-0.4-0.4-0.6-0.8-0.8-1.4
		c-0.2-0.7,0.2-1.2,0.8-1.2c0.3,0,0.6,0.1,0.8,0.2c0.2,0.1,0.4,0.3,0.7,0.1c0-0.5-0.3-0.8-0.6-1.1c-0.9-1.4-1.9-2.8-2.8-4.3
		c-0.5-0.8-0.9-1.7-0.8-2.7c0-0.3,0-0.6,0.1-0.9c0.2-0.9,1.2-1.4,2-1c0.5,0.2,1,0.6,1.3,1.1c0.3,0.3,0.5,0.6,0.8,0.9
		c0.2,0.3,0.5,0.6,0.9,1.2c0-1,0-1.7,0-2.4c0-0.4,0-0.7,0.1-1.1c0.2-0.8,1.2-1.1,1.8-0.5c0.4,0.5,0.7,1.1,0.9,1.7
		c0.4,1.3,0.7,2.5,1.1,3.8c0.5,0,0.6-0.5,0.9-0.7c0.4-0.3,0.7-0.7,1.1-0.9c0.8-0.4,1.6-0.2,2.1,0.6c0.4,0.6,0.6,1.2,0.7,1.8
		c0.2,1.1,0.4,2.2,0.4,3.4c0,0.6,0,1.2,0,1.8c0.6-0.3,1-0.5,1.5-0.7c0.6-0.2,1.1,0.2,1.2,0.9c0.1,0.5,0,1.1-0.2,1.6
		c-0.2,0.7-0.4,1.4-0.6,2.1c-0.4,1-0.3,2.1-0.3,3.2c0,0.8,0.1,0.8,1,0.8c0.6,0,1,0.2,1.1,0.8c0.1,0.5,0.1,0.9,0,1.4
		c-0.1,0.9-0.3,1.9-0.4,2.8c-0.1,0.7-0.1,1.5,0.2,2.1c0.5,0.9,0.6,1.9,0.5,3.4c0.6-1.5,1.1-2.6,1.6-3.7c0.3-0.7,0.6-1.3,0.8-2
		c0.3-0.7-0.1-1.3-0.1-1.9c0.1-1.9,0-3.8,0.1-5.7c0-2,0.2-3.9,0.6-5.9c0.1-0.3,0.2-0.7,0.3-1c0.3-0.9,0.4-0.9,1.7-0.7
		c0.1-0.9,0.3-1.7,0.4-2.6c0.2-1.3,0.5-2.6,1.1-3.7c0.2-0.5,0.5-0.9,0.8-1.3c0.4-0.5,0.9-0.6,1.5-0.4c0.2,0.1,0.4,0.5,0.7,0.3
		c0.2-0.1,0.3-0.4,0.4-0.6c0.4-0.8,0.8-1.7,1.3-2.5c0.2-0.4,0.4-0.7,0.7-1c0.5-0.6,0.9-0.6,1.6,0.1c0.1,0.1,0.2,0.3,0.3,0.4
		c0.4-0.5,0.5-1.2,0.7-1.8c0.1-0.6,0.4-1.1,0.9-1.4c0.5-0.2,0.7-0.7,1.1-1.1c0.3-0.4,0.7-0.8,1.1-1.1c0.6-0.5,1.4-0.1,1.5,0.7
		c0.1,0.5,0,1-0.2,1.4c-0.4,1.2-0.9,2.5-1.3,3.7c-0.6,1.5-1.1,3-1.7,4.5c-0.1,0.2-0.2,0.4,0,0.7c0.4,0.1,0.7-0.2,1-0.4
		c1-0.7,2.1-1.1,3.3-1.5c0.2-0.1,0.4-0.2,0.7-0.2c0.6-0.1,1,0.5,0.7,1c-0.2,0.4-0.4,0.7-0.7,1c-0.7,0.8-1.5,1.5-2.2,2.2
		c-1,1-2,1.9-3,2.9c0.4,0.5,0.8,0.2,1.1,0.4c0.5,0.3,0.6,0.8,0.4,1.4c-0.2,0.6-0.6,1.1-1.1,1.6c-0.8,0.9-1.6,1.7-2.3,2.6
		c-0.4,0.4-0.5,0.8-0.1,1.2c0.3,0.4,0.2,0.9-0.1,1.3c-0.5,0.5-1,1-1.5,1.4c-1.4,1.2-2.9,2.3-4.3,3.5c-0.4,0.4-0.9,0.8-1.3,1.1
		c-0.7,0.6-1.1,1.3-1.3,2.2c-0.2,1.1-0.5,2.1-0.8,3.1c0,0.1,0,0.4,0.1,0.5c0.1,0.1,0.3,0,0.4-0.1c0.3-0.3,0.6-0.7,0.9-1.1
		c0.3-0.3,0.5-0.7,0.8-0.9c1.3-1,2.8-1.6,4.3-2.1c0.2-0.1,0.5,0,0.7,0c0.5,0.1,0.9,0.7,0.6,1.2c-0.2,0.6-0.6,1-1.1,1.4
		c-1.1,1-2.3,2-3.4,3c-1.1,0.9-2.1,1.8-3.2,2.7c-0.1,0.1-0.2,0.2-0.3,0.2c-1.2,0.2-1.3,1.3-1.5,2.2c-0.3,1.5-0.7,3-1,4.5
		c-0.1,0.4-0.5,0.8-0.2,1.5C104.6,86,104.9,85.5,105.1,85z M82.4,74.8c0-0.2-0.2-0.3-0.3-0.4c-1.3-1.6-1.5-1.7-2.9-2.3
		c0.8,1.1,1.5,2.1,2.7,2.4c0.1,0.1,0.3,0.2,0.4,0.3c0.1,0.2,0.2,0.3,0.4,0.3c0,0.1,0,0.4,0.2,0.2c-0.1-0.1-0.2-0.1-0.2-0.2
		C82.7,75,82.6,74.9,82.4,74.8z M120.2,79.5c0,0-0.1,0-0.1,0.1c0,0,0,0.1,0,0.1C120,79.6,120.1,79.5,120.2,79.5c0,0,0.1-0.1,0.1-0.1
		c0,0,0-0.1,0-0.1C120.2,79.4,120.2,79.4,120.2,79.5z M119.1,80.2c-0.2,0-0.3,0.1-0.3,0.4c-0.2,0-0.3,0.1-0.3,0.4
		c-0.2,0-0.3,0.1-0.3,0.4c-0.1,0.1-0.4,0-0.1,0.2c0-0.1,0.1-0.2,0.1-0.3c0.2,0,0.3-0.1,0.3-0.4c0.2,0,0.3-0.1,0.3-0.4
		C119,80.5,119.1,80.4,119.1,80.2c0,0,0.1,0,0.1-0.1c0,0,0-0.1,0-0.1C119.3,80.1,119.2,80.2,119.1,80.2z M112.7,71.6
		c0.1,0,0.3-0.1,0.4-0.1c0-0.1-0.1-0.2-0.1-0.2C112.8,71.3,112.7,71.4,112.7,71.6c-0.2,0-0.3,0.1-0.3,0.4c-0.3,0-0.6,0-0.7,0.3
		c-0.4,0-0.7,0.2-0.7,0.6c-0.3,0-0.5,0.1-0.6,0.4c-0.6,0.1-1,0.4-1,1.1c-0.1,0-0.1,0-0.2,0c0,0,0,0.1,0,0.1c0.1,0,0.2,0,0.2-0.2
		c0.6-0.1,1-0.4,1.1-1c0.3,0,0.5-0.1,0.7-0.4c0.4-0.1,0.7-0.2,0.7-0.7c0.3,0,0.6,0,0.7-0.4C112.5,71.9,112.6,71.8,112.7,71.6z
		 M116.1,83.4c0.9-0.1,0.9-0.1,0.9-0.9C116.5,82.7,116.3,83,116.1,83.4c0,0-0.1,0.1-0.1,0.1c0,0,0,0.1,0,0.1
		C116,83.5,116,83.5,116.1,83.4z M97.3,88.4L97.3,88.4c0-0.2,0-0.3,0-0.5c0-0.2-0.1-0.4-0.3-0.3c-0.2,0-0.3,0.2-0.3,0.4
		c0,0.1,0,0.2,0,0.3c-0.1,1-0.1,2-1.4,2.5c0.9,0.4,1.3,1.2,2.2,1.1c0.3-0.7,0.1-1.5,0.1-2.3c0-0.3-0.1-0.7-0.2-1
		C97.4,88.5,97.4,88.5,97.3,88.4z M99.7,114.3L99.7,114.3c-0.1,0.5,0.5,0.9,0.2,1.5c-0.2,0.2,0,0.5,0.1,0.7c0.5,0.6,0.4,1.3,0.4,2
		c0.1,0.6-0.2,1.2,0.1,1.8c0.4,0,0.8,0.1,1.2,0.1c0.2,0.1,0.4,0.1,0.4-0.2c0-0.2,0-0.3-0.1-0.5c0.1-1.1-0.2-2.2-1-3
		c-0.6-0.6-0.8-1.4-0.7-2.3c0.1-0.2,0.2-0.4,0.4-0.6c-0.6-0.1-1.1-0.5-1.7-0.3C99,114.2,99,114.2,99.7,114.3z M113.7,56.2
		c0.6-0.5,1.1-0.9,1.7-1.4c0.2-0.1,0.4-0.4,0.2-0.6c-0.1-0.1-0.5-0.2-0.6-0.1C114.3,54.6,113.6,55.1,113.7,56.2
		c-0.2,0-0.4,0-0.2,0.2C113.6,56.4,113.6,56.3,113.7,56.2z M101.1,133.1c-0.3,1.6-0.8,3.1-1.3,4.6c-0.2,0.7,0,1.1,0.5,1.5
		c0.7-2,0.9-4.1,1.3-6.1c0.1-0.5,0.3-0.9-0.2-1.4C101.4,132.3,101.3,132.7,101.1,133.1z M116.5,53.4c0.5,0,0.8-0.4,1.2-0.7
		c1.2-1,2.3-2.1,3.4-3.2c0.2-0.2,0.4-0.4,0.4-0.7c-0.1,0-0.2-0.1-0.3-0.1c-2,1-3.7,2.4-4.8,4.5c-0.1,0.1-0.2,0.2-0.2,0.2
		C116.3,53.8,116.4,53.5,116.5,53.4z M99,59.7c-0.4,0.3-0.5,0.7-0.6,1.2c-0.7,2-0.4,4.2-1,6.3c-0.1,0.4,0.3,1.1,0.5,1
		c0.4-0.2,0.4-0.5,0.4-0.9c0.1-1.1,0.1-2.1,0.3-3.2c0.2-1.5,0.7-2.9,0.8-4.4c0.1-0.2,0.2-0.4,0.3-0.6c0-0.1,0-0.2-0.1-0.3
		c-0.1,0-0.2,0.1-0.2,0.1C99.2,59.2,99.1,59.5,99,59.7z M117.4,56.2c-1.1,0.3-1.9,1-2.7,1.7c-0.4,0.3-0.8,0.9-1.3,0.7
		c-0.8-0.3-0.8,0.3-0.9,0.8c-0.1,0.4-0.2,0.9,0.1,1.4c1.7-1,3.2-2.2,4.5-3.6C117.2,56.9,117.5,56.6,117.4,56.2
		c0.2,0,0.5,0.1,0.2-0.2C117.6,55.9,117.5,56.1,117.4,56.2z M109.3,80.9c-1.1,0.7-1.8,1.9-2.5,3.1c-0.9,1.5-1.7,3.1-2.5,4.7
		c-0.1,0.2,0,0.3,0.1,0.4c0.1,0,0.2-0.1,0.3-0.1c0.5-0.2,0.9-0.4,1.4-0.6c0.7-0.3,0.2-1.1,0.5-1.6c0.1-0.1,0.2-0.3,0.3-0.5
		c0.4-0.6,0.7-1.2,1-1.8C108.5,83.4,109.2,82.3,109.3,80.9c0,0,0.1,0,0.1-0.1c0,0,0-0.1,0-0.1C109.4,80.8,109.3,80.9,109.3,80.9z
		 M113.7,120.1c0,0,0-0.1,0-0.1C113.6,120,113.7,120,113.7,120.1c0,0.3,0,0.7,0,1c0,1.2,0.1,2.4-0.1,3.6c-0.4,2.3-1.3,4.3-3.1,5.8
		c-0.5,0.4-0.7,0.8-0.3,1.4c0.2,0.4,0.2,0.9,0.6,1.3c0.8-1.5,1.6-2.9,2.4-4.4c0.4-0.7,0.7-1.5,1-2.3c0.7-2,0.6-4.1-0.1-6.1
		C114,120.1,113.8,120,113.7,120.1z M115,80.2c-2,1.3-3.5,3.1-5.1,4.9c-0.5,0.5-0.8,1.2-1.1,1.8c-0.1,0.2-0.3,0.5,0,0.8
		c0.5,0,1.1,0,1.6,0c0.2,0,0.5,0,0.5-0.3c0.3-1.4,1.3-1.5,2.3-1.5c0.7,0,1.5,0,2.3,0c-0.1-0.5-0.2-1-0.3-1.6c-0.4,0.3-0.6,0.6-1,0.9
		c-0.4,0.2-0.8,0.3-1.1-0.1c-0.3-0.3-0.2-0.7-0.1-1c0.1-0.3,0.3-0.5,0.5-0.7c0.4-0.6,0.8-1.3,1.2-1.9C115,81,115.2,80.7,115,80.2
		c0.2,0,0.4,0,0.2-0.2C115.2,80,115.1,80.1,115,80.2z M104.1,138c0.4-0.2,0.5-0.2,0.6-0.3c0.1-0.1,0.2-0.3,0.3-0.4
		c0.7-0.7,1.3-0.6,1.8,0.2c0.2,0.3,0.3,0.6,0.4,1c0.6,1.5,1.1,3.1,1.5,4.8c0.2,0.8,0.1,1.7,0.7,2.3c0.3,0.3,0.2,0.8,0.1,1.2
		c-0.4,1.4-0.8,2.9-1.3,4.3c-0.7,2-2.8,3.1-4.8,2.7c-0.4-0.1-0.8-0.2-1.2-0.1c-0.7,0.1-1.1-0.2-1.3-0.8c-0.1-0.4-0.2-0.7-0.8-0.8
		c-0.7-0.1-1-0.7-1.1-1.4c0-0.4-0.1-0.9,0-1.2c0.2-0.7,0-1.4-0.2-2.1c-0.8-2.2-1.3-4.6-1.6-6.9c0-0.4,0-0.9-0.2-1.2
		c-0.5-0.7-0.4-1.5-0.4-2.2c0-0.8,0-1.7-0.1-2.5c-0.4-1.7-0.9-3.4-1.3-5.1c-0.4,0.3-0.8,0.5-1.1,0.9c-0.3,0.4,0.1,0.8,0.1,1.2
		c0,0.4,0,0.7,0,1.1c-0.1,1.3,0.1,2.5,0.4,3.7c0.9,4,1.5,8.1,2.7,12c0.6,2,1.3,4.1,1.6,6.2c0.1,0.4,0.3,0.6,0.6,0.8
		c1,0.6,2,0.8,3.1,0.9c1.5,0.1,3.1,0,4.4-0.9c0.3-0.2,0.7-0.4,1.1-0.4c0.7,0,1-0.5,1.1-1.1c0.1-0.4,0.2-0.8,0.3-1.2
		c0.4-2.1,0.5-4.3,0.5-6.4c0.1-2-0.2-4-0.7-6c-0.3-1.1-0.6-2.3-0.9-3.4c-0.8-2.6-1.4-5.2-2.7-7.5c-1.2-2.1-1.7-4.5-2.4-6.8
		c-0.2-0.8-0.6-1.2-1.3-1.6c-0.3,2.4-1.7,4.3-2.1,6.6c0.6,0.1,0.8-0.3,1.2-0.4c0.6-0.1,1,0.2,1,0.8c0,0.7-0.2,1.4-0.2,2.1
		c0.1,0.7,0.6,1.3,0.5,2c0,0.5,0,1,0,1.4c-0.1,0.9-0.3,1.9-0.4,2.8c0,0.3-0.2,0.6,0,1c0.3-0.4,0.6-0.8,0.9-1.1
		c0.2-0.2,0.4-0.2,0.6-0.1c0.2,0.1,0.4,0.3,0.4,0.5C104.2,136.8,104.1,137.3,104.1,138z M92.1,128.2c1.7-0.8,2.1-2.4,2.1-4.1
		c0-0.6,0-1.2-0.1-1.8c-0.3-1.9-1.3-2.9-3.2-3c-3.9-0.3-7.3,1-10.5,3.3c-0.2,0.1-0.4,0.3-0.5,0.4c-0.7,0.6-1,1.4-0.6,2.4
		c0.3,1,0.9,1.9,1.5,2.8c0.2,0.2,0.4,0.5,0.7,0.5c1.1-0.1,2.1,0.4,3.2,0.3c1.2-0.1,2.5-0.2,3.7-0.3c0.7,0,1.3-0.1,1.5-1
		c0.2-0.6,0.7-0.6,1.1-0.2C91.3,127.8,91.6,128.1,92.1,128.2z M79.2,120.1c0.6-0.4,1.1-0.7,1.6-0.9c2.7-1.6,5.6-2.6,8.7-2.5
		c1.3,0,2.2-0.4,2.8-1.5c0.2-0.3,0.5-0.7,0.7-1c0.9-1.2,1.1-2.6,0.8-4.1c-0.1-0.6-0.4-0.8-0.9-0.9c-1.1-0.3-2.3-0.2-3.4,0
		c-3.5,0.5-6.8,1.6-10,3.2c-0.7,0.3-1.3,0.8-1.9,1.2c-0.8,0.6-0.8,0.9-0.5,1.8C77.7,116.9,78.3,118.5,79.2,120.1z M104.4,118.2
		c1.6-1.3,3.3-2.6,4.7-4.1c0.2-0.2,0.4-0.4,0.6-0.6c0.7-0.7,0.8-1.6,0.3-2.4c-1-1.8-1.6-3.8-2.2-5.8c-0.3-1.1-1-2-1.9-2.7
		c-0.6-0.4-1.1-0.6-1.7-0.3c-2.5,1.2-4.2,3.2-5.1,5.9c-0.1,0.4-0.1,0.8-0.2,1.2c0,0.9,0.1,1.2,0.9,1.5c0.8,0.2,1.7,0.4,2.5,0.5
		c0.4,0.1,0.9,0.1,1.3,0.3c1,0.6,1.2,1.8,0.3,2.6c-0.4,0.4-0.9,0.4-1.5,0.4C103.6,115.7,103.3,117.2,104.4,118.2z M95.7,102.1
		c0-0.5,0.1-1.1-0.1-1.6c-0.1-0.3-0.3-0.5-0.6-0.4c-1,0.3-1.9,0.6-2.9,0.8c-2.4,0.5-4.8,1-7.2,1.5c-2.1,0.5-4.2,1-6.1,2
		c-0.6,0.3-0.9,0.7-1.1,1.4c-0.3,1-0.4,1.8,0.3,2.6c0.2,0.3,0.3,0.6,0.4,1c0.3,0.6,0.4,0.6,0.9,0.4c0.9-0.4,1.9-0.9,2.8-1.2
		c3-1,5.9-2,9.1-1.9c1.3,0,2.2-0.3,3.1-1.2C95.2,104.6,95.8,103.5,95.7,102.1z M132.8,102.3c0.9-0.6,1.8-1,2.8-1
		c0.4,0,0.6-0.3,0.7-0.6c0.3-1.3,0.2-2.6-0.4-3.8c-0.3-0.8-0.8-1.4-1.6-1.7c-0.9-0.4-1.9-0.9-2.7-1.5c-1.2-0.8-2.5-0.7-3.8-0.6
		c-0.3,0-0.5,0.2-0.8,0.4c-0.5,0.4-0.6,0.7-0.2,1.2c0.9,1.1,1.8,2.1,2.5,3.4c0.1,0.3,0.4,0.4,0.7,0.4c0.2,0,0.5,0,0.7,0
		c0.8-0.1,1.3,0.4,1.5,1.1C132.6,100.5,132.7,101.3,132.8,102.3z M107.2,117.8c-0.5,0.1-0.8,0.5-1.1,0.6c-1.2,0.6-1.4,1.6-1.2,2.8
		c0.1,1,0.4,1.9,1.1,2.5c0.5,0.4,1.1,0.8,1.4,1.5c0.2,0.7,1,1,1,1.8c0,0.5,0.5,0.6,0.9,0.3c0.8-0.6,1.5-1.3,2-2.1
		c0.3-0.4,0.5-0.9,0.5-1.5c0-0.5,0-1,0-1.4c0-1.8,0-1.8-1.5-2.6c-0.2-0.1-0.3-0.2-0.5-0.2C108.7,119.2,107.8,118.6,107.2,117.8z
		 M88.9,129.7c-1-0.3-1.8,0.8-2.8,1.1c-1.1,0.4-1.5,1-1.3,2.2c0.1,0.3,0,0.7,0.1,1.1c0.4,1.5,0.8,2.3,2.7,2.4
		c1.3,0.1,2.4-0.4,3.6-0.9c0.7-0.3,1-0.8,0.9-1.5c-0.1-0.8-0.2-1.7-0.3-2.5c-0.1-0.4,0.2-1-0.4-1.3c-0.4-0.2-0.8-0.5-1.2-0.6
		C89.8,129.6,89.4,129.7,88.9,129.7z M97.4,56.4c0-0.5,0-0.8,0-1.2c0-1.2-0.1-2.4-0.5-3.5c-0.1-0.3-0.1-0.8-0.6-0.8
		c-0.4,0-0.5,0.4-0.7,0.7c-0.9,1.5-1.1,3.1-0.8,4.8c0.2,0.9,0.3,1.8,0.6,2.6c0.6,1.2,0,2.3-0.2,3.4c-0.1,0.6-0.8,0.8-1.2,0.4
		c-0.4-0.3-0.7-0.8-1.1-1.1c-1.1-1-2.1-1.9-3.2-2.9c-0.1,0-0.2,0-0.3,0c-0.1,0.1,0,0.2,0,0.3c0,0.1,0.1,0.1,0.1,0.1
		c1.9,2,3.7,4,5.6,6c0,0,0.1,0.1,0.1,0.1c0.4,0.3,0.8,0.1,0.8-0.4c0.1-1.3,0.3-2.5,0.7-3.6C97.3,59.7,97.5,58,97.4,56.4z
		 M115.8,103.2c0.8,0.2,1.6,0.5,2.3,0c1-0.6,2.2-0.9,3.3-1.3c0-0.7-0.1-1.3-0.3-1.9c-0.6,0-1.2,0-1.8,0c-0.6,0.1-1.2,0.1-1.8,0.3
		c-2,0.6-1.6,0.4-1.7,2.2C115.8,102.8,115.8,102.9,115.8,103.2z M99.8,87.3c0,0.3,0,0.5,0,0.7c0,0.6,0.2,0.8,0.6,0.8
		c0.6,0.1,0.6-0.3,0.7-0.8c0.3-1.9,0.6-3.8,1-5.8c0.1-0.4,0-0.8,0-1.2c0-0.1-0.1-0.3-0.2-0.3c-0.2,0-0.4,0-0.5,0.1
		c-0.2,0.3-0.5,0.7-0.6,1.1C100.2,83.7,100,85.6,99.8,87.3z M86.9,72c0,0.4-0.1,0.5-0.1,0.6c0.5,2.6,1.3,5.1,2.3,7.6
		c0.2,0.5,0.5,1.1,0.3,1.7c-0.2,0.4,0.1,0.7,0.4,0.9c0.1,0.1,0.3,0.2,0.4,0.1c0.1,0,0.2-0.3,0.2-0.4c-0.4-2.8-1-5.5-2.2-8
		C87.9,73.7,87.6,72.9,86.9,72z M105.9,72.4c-0.3,0.2-0.4,0.2-0.4,0.2c-1.2,1.9-1.6,4.2-2.2,6.3c0,0.1,0,0.2,0,0.3
		c0.5,1.6-0.1,3.1-0.4,4.7c-0.1,0.4-0.2,0.7,0.1,1.2C104,80.9,104.9,76.7,105.9,72.4z M110.9,49.1c-0.5,0.4-0.6,0.8-0.7,1.2
		c-0.7,2.2-0.7,4.4-0.9,6.7c-0.1,1.8-0.1,3.6-0.1,5.4c0,0.3-0.1,0.6,0.2,0.8c0.9-0.6,0.9-0.6,0.7-1.4c-0.3-1.3-0.7-2.6-0.5-3.9
		c0.3-2.1,0.4-4.1,1.1-6.1C111,50.9,111,50.1,110.9,49.1z M107.2,57.1c-0.6,0.5-0.6,1.1-0.6,1.6c0,0.8,0,1.6-0.2,2.3
		c-0.3,1.5-0.1,3.1-0.2,4.6c0,0.3,0.2,0.5,0.5,0.5c0.4,0,0.7,0,0.7-0.5c0-0.9,0.2-1.8,0-2.7c-0.3-1.6-0.2-3.2-0.3-4.8
		C107.2,57.9,107.2,57.5,107.2,57.1z M90.4,55.2c0.1-1.6,0.1-1.6-0.3-2.4c-0.8-1.3-1.6-2.5-2.5-3.8c-0.3-0.4-0.6-0.7-1-1
		c-0.1-0.1-0.2-0.1-0.3,0c-0.1,0-0.2,0.2-0.1,0.3c0.1,0.4,0.2,0.8,0.4,1.2C87.6,51.5,88.9,53.2,90.4,55.2z M91.7,66.4
		c0.9,1.1,2,1.9,3,2.8c1,1,2,2,3,3.1c0.2-0.5,0.3-1,0-1.3c-0.6-0.5-0.8-1.2-1.2-1.7C95.3,67.6,93.7,66.7,91.7,66.4z M89.5,85.4
		c1.4,0.7,2.6,1.3,3.8,1.9c0.2,0.1,0.5,0,0.5-0.3c-0.2-1.6-0.5-3.3-0.7-4.9c0-0.2,0-0.6-0.5-0.5c0,0.8,0,1.6,0,2.3
		c0,1-0.5,1.4-1.4,1C90.5,84.7,90.1,84.9,89.5,85.4z M123,127.1c-0.2,1,0,1.9,0,2.9c0,0.9,0,1.9,0,2.7c0.7-1,1.7-4.2,1.8-5.6
		c-0.3-0.2-0.5,0-0.8,0C123.7,127.1,123.3,127.1,123,127.1z M124.9,120.4c0-0.2,0-0.7,0.2-1.2c0-0.1-0.1-0.2-0.2-0.3
		c-0.1,0-0.3,0-0.3,0c-0.4,0.6-0.8,1-1.6,0.8c-0.1,0-0.3,0.1-0.4,0.3c-0.4,0.7-0.3,1.9,0.2,2.5c0.3,0.4,1.1,0.6,1.6,0.4
		c0.5-0.2,0.4-0.7,0.4-1.1C125,121.4,124.9,121.1,124.9,120.4z M100.9,128.9c-1.2,1.5-2.1,3.1-2.4,5c0,0.2,0,0.4,0,0.5
		c0,0.1,0.1,0.2,0.2,0.3c0.2,0.1,0.4,0,0.4-0.1c0.5-1.5,1.4-2.8,1.8-4.4C101,129.8,101.2,129.4,100.9,128.9z M97.2,105.8
		c-0.5,0.1-0.5,0.6-0.8,0.8c-0.7,0.6-1.3,1.3-0.5,2.3c0.1,0.2,0,0.5,0.1,0.7c0.1,0.5,0.2,0.9,0.3,1.4c0,0.1,0.2,0.2,0.2,0.2
		c0.1,0,0.2-0.1,0.2-0.2c0.1-0.2,0.1-0.3,0.1-0.5c-0.1-1.2,0-2.4,0.4-3.5C97.4,106.6,97.5,106.2,97.2,105.8z M116.5,48.7
		c0.8-0.9,1.1-2.1,1.5-3.1c0.4-1,1-2,0.9-3.2C117.8,44.4,116.8,46.4,116.5,48.7z M96.2,112.9c-0.6,1.1-1,2.1-1.6,3
		c-0.3,0.5-1,0.8-0.7,1.5c0.6-0.1,0.8-0.7,1.2-1.1c0.5-0.4,0.7-1,1.3-1.4c0.3-0.2,0.3-0.6,0.2-1C96.6,113.7,96.4,113.4,96.2,112.9z
		 M112.8,52.2c0.9-1.5,1.4-3.1,2-4.6c0.1-0.3,0.2-0.6,0.2-0.8c0-0.2,0-0.5,0-0.8C113.7,47.9,112.8,50.5,112.8,52.2z M100.3,70.3
		c-0.7,1.8-0.7,1.8-1.9,2.7c0.3,0.8,0.9,1.2,1.7,1.7C99.9,73.2,100.4,71.9,100.3,70.3z M125.5,125.2c-0.8-1-1.9-0.7-3-1.2
		c0.1,0.4,0.3,0.7,0.3,1c-0.1,0.5,0.1,0.6,0.5,0.6C124.1,125.6,124.8,125.6,125.5,125.2z M124.2,101c-0.1-0.3-0.2-0.7-0.3-1.2
		c0-0.2-0.2-0.3-0.4-0.2c-0.2,0-0.5,0.1-0.5,0.3c-0.1,0.5-0.1,1.1,0.2,1.5c0.1,0.2,0.4,0.2,0.6,0.2
		C124.1,101.7,124.2,101.5,124.2,101z M101.4,143c0.6-1,0.8-2.1,1.1-3.5C101.8,140.8,101.3,141.8,101.4,143z M93.1,57.4
		c-0.9,0.4-0.9,0.5-0.5,1c0.3,0.4,0.4,0.9,1.2,1.2C93.3,58.8,93.3,58.1,93.1,57.4z M106.3,148.8c-0.2,0.5-0.5,1-0.7,1.5
		c-0.1,0.2-0.2,0.5,0.1,0.5c0.2,0,0.4-0.2,0.4-0.4C106.2,149.8,106.3,149.3,106.3,148.8z M104.1,140.3c0-0.1,0-0.2-0.1-0.2
		c0-0.1-0.1-0.2-0.2-0.2c-0.2,0-0.3,0.2-0.3,0.4c0,0.2,0,0.3,0.1,0.5c0,0,0.2,0,0.3,0C104,140.6,104.1,140.4,104.1,140.3z
		 M104,138.3c-0.1,0.4-0.2,0.5-0.2,0.7c0,0.2-0.1,0.5,0.1,0.7c0.1-0.2,0.1-0.3,0.1-0.4C104.1,139,104.1,138.8,104,138.3z
		 M102.6,138.8c0,0.1-0.1,0.2-0.1,0.3c0,0,0.1,0.1,0.1,0.1c0,0,0.1-0.1,0.1-0.1C102.7,139,102.7,138.9,102.6,138.8z M122,48.4
		L122,48.4L122,48.4L122,48.4z M100,127.7c0,0-0.1-0.1-0.1-0.1c0,0-0.1,0.1-0.1,0.1c0,0,0,0.1,0.1,0.1
		C99.9,127.7,99.9,127.7,100,127.7z"/>
	<path class="st1" d="M81.7,171.8c1.3,3,2,6.2,3.4,9.1c0.5,0.9,0.8,1.8,0.6,2.9c-0.1,0.8,0.2,1.2,1.1,1.3c0.8,0.1,1.6,0.2,2.4,0.2
		c5.6,0,11.1-0.1,16.7-0.2c3.3-0.1,6.6-0.3,9.9-0.4c1.2-0.1,2.4-0.1,3.6-0.1c5.6-0.1,11.1-0.2,16.7-0.4c0.8-4.6,2-9,3.1-13.5
		c0.2-0.7,0.2-1.3-0.1-1.9c-0.4-0.9-0.6-1.8-1-2.8c-0.5,0.3-1.1,0.6-1.7,0.4c-0.5-0.1-1.1-0.1-1.7-0.2c-0.6-0.1-1.2-0.2-1.8-0.3
		c-0.5-0.1-0.9-0.3-1-0.9c-0.1-0.3,0.4-0.7,1-0.9c0.5-0.1,1,0,1.4-0.4c0.4-0.5,0.1-1,0.1-1.5c0.1-0.9,0.2-1.8,0.5-2.6
		c0.4-1.8,0.8-3.6,1-5.4c0.1-0.5,0.2-0.9,0.3-1.4c0.1-0.2,0.3-0.5,0.5-0.4c0.8,0.1,0.9-0.4,1.2-1c0.7-1.5,1.5-2.8,2.6-4
		c0.4-0.4,0.8-1,1.4-0.8c0.7,0.3,0.5,1.1,0.5,1.7c-0.1,1.1-0.3,2.1-0.7,3.1c-0.2,0.5-0.1,0.8,0.5,1c0.2,0,0.3,0.1,0.5,0.2
		c0.6,0.3,0.7,0.6,0.6,1.3c-0.1,0.7-0.5,1.2-0.8,1.8c-0.5,0.8-1.1,1.7-1.6,2.5c-0.3,0.5-0.7,1-0.6,1.6c0,0.4-0.2,0.7-0.4,0.9
		c-0.7,0.5-0.6,1.1-0.5,1.9c0.2,1.3,0.7,2.5,1.3,3.7c0.2,0.5,0.5,0.9,0.7,1.4c0.3,0.6,0.3,1.1,0.2,1.7c-0.8,3.8-1.7,7.5-2.5,11.3
		c-0.3,1.2-0.5,2.5-0.7,3.7c-0.1,0.3,0.1,0.6,0.2,0.9c0.2,1.1-0.3,1.7-1.3,1.8c-0.4,0-0.8,0-1.2,0c-6,0.1-12,0-18,0.2
		c-9.4,0.2-18.7,0.4-28.1,0.3c-0.3,0-0.6,0-0.9,0c-1.4,0.2-2.3-0.8-3.4-1.3c-0.3-0.2-0.5-0.6-0.6-1c-1.5-3.9-2.7-8-4.1-11.9
		c-0.4-1-0.8-2.1-1.3-3c-0.2-0.4-0.2-0.8,0-1.2c0.3-0.5,0.5-0.9,0.8-1.3c1.6-2.3,3.2-4.5,4.4-7c0.2-0.4,0.3-1,1-0.8
		c0.4,0.1,0.5,0.7,0.2,1.4c-0.3,0.8-0.7,1.5-1.1,2.2c-0.8,1.4-1.7,2.7-2.5,4c-0.3,0.5-0.7,1.1-0.9,1.7c-0.2,0.8,0.2,1.4,1,1.4
		c1,0,2-0.1,3.1-0.1c6.8-0.4,13.6-0.5,20.4-0.6c3.9-0.1,7.7-0.1,11.6-0.2c4.2,0,8.4,0.1,12.6,0.4c2.1,0.1,4.3,0.2,6.5,0.3
		c0.4,0,0.8,0,1.2,0.2c0.4,0.1,0.7,0.5,0.6,0.9c0,0.4-0.3,0.8-0.7,0.9c-0.5,0.1-1,0.1-1.5,0.1c-3.4-0.1-6.8-0.3-10.2-0.4
		c-3.8-0.2-7.6-0.4-11.4-0.4c-7.1-0.2-14.2-0.3-21.3-0.4c-3.6-0.1-7.3,0.2-10.9,0.4C82,171.7,81.9,171.7,81.7,171.8z M136.5,164.1
		c0.2,0,0.3,0,0.5,0c0.2,0,0.4-0.1,0.4-0.4c0-0.2-0.1-0.5-0.3-0.5c-0.3-0.1-0.4,0.1-0.5,0.3C136.5,163.6,136.5,163.9,136.5,164.1
		c-0.1,0-0.3,0-0.1,0.3C136.4,164.3,136.4,164.2,136.5,164.1z M140.9,155.1c-1,0.2-1.4,1.1-2,1.8c-0.3,0.4-0.6,0.9-1,1.2
		c-0.3,0.2-0.7,0-0.8-0.4c-0.1-0.5,0.1-0.8,0.4-1.1c1.1-1.4,1.7-3.1,2.4-4.7c0.4-1,0.9-1.9,1-3c-0.4,0.1-0.5,0.3-0.6,0.5
		c-0.4,0.6-0.7,1.2-1,1.8c-0.8,1.7-1.4,3.5-2.2,5.2c-0.7,1.6-1,3.4-1.5,5.1c0,0.1,0,0.2,0.1,0.3c0.1,0.1,0.3,0.1,0.4,0
		c0.3-0.2,0.7-0.3,0.7-0.7c0-0.8,0.5-1.2,0.9-1.6c0.5-0.6,1.1-1.1,1.5-1.7C139.8,156.9,140.7,156.2,140.9,155.1c0.1,0,0.4,0,0.1-0.3
		C141,155,141,155,140.9,155.1z"/>
	<path class="st1" d="M147,128.1c0.5,0.4,0.8,0.1,1.2,0c0.7,0,1.1,0.2,1.2,0.9c0,0.1,0,0.2,0,0.4c0,0.8,0.1,1.5,1.1,1.7
		c0.2,0,0.4,0.4,0.6,0.6c0.5,0.4,0.9,0.8,1.7,0.7c0.6-0.1,0.8,0.3,0.8,0.9c0,0.5-0.1,0.9-0.3,1.4c-0.2,0.5-0.5,0.9-0.7,1.5
		c0.2,0.5,0.8,0.5,1,0.9c0.2,0.4,0.4,0.8,0.6,1.3c0.2,0.5,0.7,0.8,1,1.2c0.4,0.4,0.5,0.8,0.3,1.3c-0.5,1.1-0.4,2.4-0.9,3.6
		c-0.5,1.1-0.7,2.3-0.8,3.5c-0.1,1-0.8,1.5-1.4,2.2c-0.2,0.2-0.5,0.2-0.8,0.2c-2.2-0.1-4.3-0.2-6.5-0.3c-0.2,0-0.4-0.1-0.5-0.2
		c-0.1-0.1-0.2-0.3-0.2-0.4c0-0.1,0.1-0.2,0.2-0.3c0.3-0.3,0.6-0.2,1-0.3c1.3,0,2.6-0.1,3.9-0.1c0.8,0,1.2-0.2,1.7-1.1
		c0.7-1.3,1.1-2.7,1.7-4.1c0.2-0.4,0-0.7-0.4-0.7c-1.8-0.1-3.5-0.1-5.3-0.2c-2.2-0.1-4.3-0.1-6.5-0.2c-0.5,0-1.1,0-1.3-0.6
		c-0.1-0.4,0.4-0.8,1.3-0.8c2.8,0,5.7,0,8.5,0c1.4,0,2.8,0,4.3-0.2c0.1-0.6-0.3-1.1-0.6-1.4c-0.4-0.3-1-0.1-1.4-0.3
		c-0.2-0.1-0.4,0.3-0.7,0.5c-0.9,0.9-2.1,0.6-2.6-0.6c-0.1-0.2-0.2-0.4-0.2-0.7c-0.3-1-0.3-1.1-1.4-1c-1.6,0-1.6,0.1-1.2,1.7
		c0.2,0.6,0,0.9-0.6,1c-1.9,0.4-2.2,0.2-2.9-1.7c-0.1-0.3-0.2-0.6-0.4-0.8c-1-0.9-0.6-2.2-0.6-3.3c0-0.5,0.3-0.9,0.8-1
		c0.3-0.1,0.6-0.1,0.8-0.3c0.4-0.2,0.6-0.1,0.9,0.1c0.2,0.2,0.4,0.4,0.7,0.5c0.5,0.2,0.7,0.6,0.7,1.1c0,0.4,0,0.8,0,1.3
		c1,0.6,2-0.2,3,0.2c0.2-1,0.4-1.9,0.6-2.7c0-0.2,0-0.5-0.1-0.7c-0.4-0.7-0.5-1.5-0.4-2.2c0.1-0.8-0.1-1-1-1c-2-0.1-4-0.2-5.9-0.5
		c-0.2,0-0.5,0-0.7-0.1c-0.2,0-0.3-0.1-0.3-0.3c0-0.3,0.2-0.4,0.4-0.4c0.4,0,0.8,0,1.2,0c0.4,0,0.6-0.3,0.4-0.7
		c-0.2-0.5-0.5-1-0.7-1.4c-0.4-0.9-0.4-1,0.4-1.3c0.2-0.1,0.3-0.1,0.5-0.2c0.7-0.4,1.4-0.8,1.6-1.7c0-0.1,0.1-0.2,0.2-0.3
		c0.4-0.8,0.9-0.9,1.4-0.2c0.3,0.4,0.6,0.7,1.2,0.7c1,0,1.5,0.7,1.4,1.8c-0.1,0.6-0.2,1.2-0.4,1.7
		C147.4,127.1,147.2,127.6,147,128.1z M142.7,128.2c0.4,0,0.9,0,1.4,0c0.1,0,0.3-0.1,0.4-0.3c0.1-0.2-0.1-0.3-0.2-0.4
		c-0.3-0.1-0.6-0.2-0.7-0.6c-0.1-0.3-0.3-0.5-0.5-0.6c-0.2-0.1-0.5-0.2-0.6-0.1c-0.2,0.1-0.2,0.4-0.1,0.6
		C142.5,127.2,142.6,127.7,142.7,128.2z M150,132.7c-0.1,0.1-0.3,0.1-0.3,0.2c-0.4,0.9-0.4,1.9-0.6,2.9c0,0.1,0.1,0.2,0.2,0.2
		c0.1,0,0.2-0.1,0.3-0.2C150,134.8,150.3,133.8,150,132.7z M144.8,124.4c-0.3,1.2,0,2.1,0.4,3.1
		C145.4,126.3,145.4,126.3,144.8,124.4z"/>
	<path class="st1" d="M74.9,138.9c-0.5-0.8-1-1.4-1.4-2c-0.6-0.9-0.4-1.4,0.6-1.6c0.2,0,0.4-0.1,0.7-0.1c0.5,0,0.8-0.2,0.9-0.8
		c0.2-0.9,0.7-1,1.4-0.6c0.5,0.3,0.8,0.6,1,1.1c0.4,0.7,0.7,1.5,1.1,2.2c0.1,0.2,0.2,0.4,0.5,0.4c0.3-0.5-0.1-1,0-1.5
		c0.1-0.3,0.2-0.6,0.5-0.6c0.3-0.1,0.6,0,0.8,0.2c0.2,0.2,0.4,0.5,0.5,0.7c0.3,0.8,0.6,1.7,0.8,2.5c0.1,0.5-0.1,0.8-0.5,1
		c-0.3,0.2-0.6,0.1-0.9-0.1c-0.2-0.2-0.3-0.5-0.6-0.6c-0.6,0.4-1.2,0.9-1.6,1.9c0.3,0.2,0.7,0.1,1.1,0.1c0.9-0.1,1.8-0.2,2.7-0.2
		c0.8-0.1,1.7-0.1,2.5-0.1c0.6,0,1.1,0.1,1.4,0.8c0.1,0.4,0.1,0.7-0.2,1c-0.5,0.4-1,1-1.6,0.7c-0.8-0.4-1.7-0.3-2.5-0.3
		c-3.3,0-6.7,0-10,0c-0.3,0-0.6,0-0.9,0c0.2,1.2,0.8,2.1,1.5,3c0.7,0.9,1.7,1.6,2,2.8c0.1,0.3,0.3,0.3,0.5,0.3
		c2.5-0.1,5,0.2,7.5-0.2c0.2,0,0.3-0.1,0.5,0c0.1,0.1,0.3,0.2,0.4,0.3c0.1,0.2,0,0.5-0.2,0.6c-0.2,0.1-0.4,0.2-0.6,0.2
		c-0.4,0-0.8,0-1.2,0c-2.2-0.1-4.3-0.2-6.5-0.3c-0.3,0-0.5,0-0.8,0.1c-0.8,0.2-1.1,0-1.2-0.7c-0.1-0.7-0.5-1.2-0.9-1.7
		c-1-1.3-1.9-2.7-2.1-4.4c0-0.3-0.3-0.5-0.4-0.7c-0.3-0.5-0.1-1,0.4-1.1C71.8,140.9,73.2,139.7,74.9,138.9z M72.4,141.4
		c1,0,1.9,0,2.7,0c0.9,0,1.8,0.1,2.7-0.2c-0.5-0.8-0.5-0.8-1.3-0.7c-0.3,0-0.5-0.1-0.6-0.3c-0.2-0.5-0.5-0.6-0.9-0.3
		C74.2,140.3,73.3,140.6,72.4,141.4z"/>
	<path class="st1" d="M126.3,150.9c0-0.5,0-0.9,0.1-1.3c0-0.3,0-0.6,0-0.9c0.1-0.5,0.3-0.9,0.8-1c0.5-0.1,0.8,0.1,1.1,0.6
		c0.2,0.3,0.3,0.7,0.4,1.1c0.5-0.5,0.9-1,1.4-1.4c0.6-0.5,1.2-0.2,1.3,0.6c0,0.3,0,0.6,0,0.9c-0.3,1.9-0.3,3.9-1,5.8
		c-0.1,0.3-0.2,0.7-0.3,1c-0.1,0.4,0,0.6,0.3,0.9c0.7,0.5,0.8,0.9,0.4,1.6c-0.5,0.9-1.1,1.8-1.7,2.7c-0.4,0.6-0.8,1.3-1.3,1.9
		c0.4,0.3,0.8,0.5,1.1,0.9c0.5,0.5,0.2,1.4-0.4,1.6c-0.1,0-0.2,0.1-0.3,0.1c-1.2,0-2.5,0.1-3.7-0.1c-0.3,0-0.5-0.2-0.8-0.3
		c-0.2-0.1-0.3-0.3-0.4-0.6c0-0.3,0.1-0.7,0.4-0.7c1.3-0.2,1.3-1.1,1.4-2.2c0.4-2.1,0.4-4.3,0.4-6.4c0-1.1-0.2-2.1-0.7-3.1
		c-0.2-0.4-0.4-0.7-0.5-1.1c-0.2-0.5,0-1,0.4-1.2c0.4-0.2,0.8-0.1,1,0.3C126,150.6,126.1,150.7,126.3,150.9z M128.3,155.1
		c-0.6,0.3-1.1-0.3-1.6-0.5c0,1.7,0,3.3,0,5.1c0.5-1.2,0.9-2.2,1.4-3.1C128.3,156.2,128.4,155.7,128.3,155.1c0,0,0.1,0,0.1-0.1
		c0,0,0-0.1,0-0.1C128.4,155,128.4,155.1,128.3,155.1z M129.6,151.2c-0.8,1.2-0.9,1.4-0.7,3C129.1,153.3,129.8,152.4,129.6,151.2z
		 M126.4,162.2c0.4-0.1,0.6-0.4,0.8-0.8c0.1-0.2,0-0.3-0.1-0.4c-0.2-0.1-0.4-0.2-0.6,0C126.2,161.4,126.2,161.8,126.4,162.2z
		 M129.8,150.3c0,0.1-0.1,0.2-0.1,0.3c0,0,0.1,0.1,0.1,0.1c0-0.1,0.1-0.1,0.1-0.2C130,150.4,129.9,150.4,129.8,150.3z"/>
	<path class="st1" d="M87.5,152.9c0.2-1-0.3-1.8-0.5-2.7c-0.1-0.5-0.3-0.9-0.2-1.4c0.1-0.4,0.5-0.5,0.8-0.3c0.3,0.3,0.5,0.7,0.7,1
		c0.8,1.5,1.2,3.2,1.6,4.9c0.1,0.5,0.2,0.9,0.4,1.4c0.1,0.3,0.3,0.5,0.6,0.6c0.8,0.1,1,0.7,1.1,1.4c0.1,0.9,0.2,1.9,0.4,2.8
		c0.1,0.6,0.2,1.2,0.4,1.7c0.2,0.6,0.5,1.1,1.3,1.1c0.8,0,1.1,0.8,0.9,1.5c-0.2,0.8-0.8,1.2-1.5,1.3c-1.5,0.3-2.9,0.2-4.4,0
		c-0.2,0-0.4-0.2-0.6-0.3c-0.5-0.3-0.5-1,0-1.3c0.6-0.4,1.2-0.6,1.8-0.9c-0.4-1-1.3-1.7-2-2.4c-1.5-1.5-3.1-2.9-5.2-3.7
		c-0.1,0-0.2-0.1-0.3-0.2c-0.3-0.2-0.4-0.4-0.3-0.7c0.1-0.3,0.3-0.5,0.6-0.5c0.3,0,0.7,0,1,0c0.7,0,1.3,0.3,2,0.6
		c0.3,0.1,0.6,0.3,0.9,0.2c0.3-0.4,0-0.6-0.2-0.8c-0.5-0.8-1-1.6-1.4-2.4c-0.2-0.4-0.4-0.9-0.3-1.4c0.1-0.7,0.8-1,1.3-0.6
		c0.2,0.2,0.4,0.4,0.6,0.6C87,152.6,87.1,152.9,87.5,152.9z M87.9,159.3c1,1,1.9,2.1,3,3c0-0.8,0-1.3,0-1.9c0-0.2-0.1-0.4-0.2-0.5
		C89.8,159.8,89.1,158.7,87.9,159.3z M91.1,164.7c0.4,0.4,0.8,0.2,1.2,0.2c0.3,0,0.8,0.1,0.8-0.3c0-0.6-0.5-0.2-0.7-0.1
		C91.9,164.5,91.4,164.3,91.1,164.7z"/>
	<path class="st1" d="M118,151.4c0.2-0.6,0.4-1.3,0.6-1.9c0.1-0.3,0.4-0.5,0.7-0.5c0.3,0,0.5,0.2,0.6,0.5c0.2,0.4,0.2,0.8,0.2,1.2
		c0,1,0,2-0.1,3c0,0.5-0.1,1,0.2,1.4c0.1,0,0.2,0,0.3,0c1.5-0.2,1.9,0.3,1.3,1.8c-0.7,1.8-1.2,3.7-2.5,5.2c-0.1,0.1-0.2,0.3-0.2,0.5
		c-0.1,0.4-0.1,0.7,0.3,0.9c0.1,0,0.1,0,0.2,0c0.6,0.2,1,0.6,0.9,1.3c0,0.5-0.5,0.9-1.3,0.9c-1.3-0.1-2.6-0.2-3.9-0.3
		c-0.2,0-0.4-0.1-0.6-0.3c-0.4-0.2-0.4-0.8,0-1.1c0.4-0.3,0.8-0.4,1.2-0.5c0.3-0.1,0.5-0.3,0.4-0.7c-0.4-2-0.2-4.2-0.7-6.2
		c0-0.1,0-0.1,0-0.2c0.1-1.6,0.2-3.2,0.3-4.8c0-0.2,0.1-0.5,0.3-0.7c0.4-0.7,0.9-0.8,1.5-0.2C117.7,151.1,117.8,151.4,118,151.4z
		 M119.8,158.4c0.2-0.1,0.3-0.2,0.3-0.4c0-0.1-0.1-0.2-0.2-0.1C119.9,158,119.8,158.2,119.8,158.4c-0.1,0-0.3,0-0.1,0.3
		C119.7,158.6,119.8,158.5,119.8,158.4z M118.1,161.6c0.5-0.7,1.1-1.5,1.3-2.5c-0.8,0-1.4-0.1-1.4-1.1c0-0.4-0.4-0.5-0.9-0.5
		c0,1.2,0,2.5,0.1,3.7c0,0.6-0.1,1.1,0.4,1.6C117.9,162.5,118.1,162.1,118.1,161.6z"/>
	<path class="st2" d="M130.4,143.4c0.7,0.1,1.1-0.2,1.4-0.8c0.4-0.7,0.7-1.3,1-2.1c0.9-2.4,1.5-4.9,1.6-7.4c0-0.6,0.2-1.2,0.2-1.8
		c0-1.1,0.1-2.1-0.1-3.2c-0.1-0.5-0.1-1-0.1-1.9c0.9,1.2,1.3,2.2,1.4,3.3c0,0.7,0,1.3,0,2c0,1.4,0.1,2.7,0.2,4.1
		c0.2,2.3,0.2,4.6-0.1,6.9c-0.3,2.2-0.6,4.4-1.2,6.5c-0.2,0.7-0.2,1.4-0.9,1.9c-1.3-0.4-1.8-0.9-1.8-2.1c0-0.4,0-0.7,0.1-1.1
		c0.1-0.5,0-0.7-0.5-0.9c-1.2-0.4-1.5-0.9-1.3-2.2C130.3,144.2,130.4,143.8,130.4,143.4z"/>
	<path class="st1" d="M115.6,142c0-0.7-0.1-1.3-0.1-2c0-0.6,0.5-1,1.1-0.8c1.1,0.3,2,0.8,2.5,2c0.3,0.8,0.6,1.7,0.9,2.5
		c0.1,0.3,0,0.8,0.4,0.9c0.2,0.1,0.5,0,0.8,0c0.2,0,0.4,0.2,0.4,0.3c-0.3,0.9-0.1,1.9-0.9,2.6c-1.2,1.1-3.3,1-4.1-0.5
		c-0.4-0.6-0.6-1.3-0.7-2C115.7,144,115.6,143,115.6,142C115.6,142,115.6,142,115.6,142z M117.7,144c0.3-0.7,0-1.2-0.6-1.9
		C117.1,143,117,143.6,117.7,144z M118.1,144.8c0-0.1-0.1-0.2-0.1-0.3c-0.1,0.1-0.2,0.1-0.2,0.2c0,0.1,0.1,0.2,0.1,0.3
		C118,144.9,118,144.8,118.1,144.8z"/>
	<path class="st1" d="M125.5,143.1c0.1-0.9,0.2-1.9,0.3-2.8c0.1-0.5,0.2-1,0.5-1.5c0.6-0.8,1.6-0.8,2.1,0.1c0.4,0.6,0.4,1.4,0.4,2.1
		c0,0.8-0.3,1.7,0.2,2.4c0.1,0.1,0,0.5-0.1,0.7c-0.5,1.1-1,2.1-1.9,2.9c-0.6,0.5-1.3,0.3-1.4-0.5
		C125.5,145.3,125.3,144.2,125.5,143.1z M126.8,140.7c-0.1,1-0.3,2.1,0,3.1C127,142.8,127,141.8,126.8,140.7z"/>
	<path class="st1" d="M94,152.6c0,0.5-0.2,0.8-0.5,0.9c-0.3,0.1-0.6,0-0.8-0.2c-0.2-0.2-0.4-0.5-0.5-0.7c-0.3-1.8-1.3-3.3-1.9-4.9
		c-0.4-0.9-0.8-1.9-0.9-2.9c-0.1-1.1,0-1.7,0.4-1.7c0.7-0.1,1.1,0.5,1.4,1c0.3,0.4,0.4,0.8,0.6,1.3c1,2.2,1.3,4.7,2,7
		C94,152.4,94,152.5,94,152.6z M91.5,148.4c0.2-1.3-0.2-2.1-0.8-3.2C90.5,146.5,90.9,147.3,91.5,148.4z M90.4,144.8l-0.1,0.1l0.1,0
		L90.4,144.8z"/>
	<path class="st1" d="M104.9,165.5c-1,0-1.9,0.1-2.7-0.3c-0.3-0.1-0.5-0.2-0.7-0.4c-0.5-0.5-0.5-1.3,0.1-1.6
		c0.3-0.2,0.6-0.3,0.9-0.4c1.3-0.5,2.6-0.6,4-0.5c0.5,0,0.9,0.1,1.3,0.4c0.5,0.4,0.8,0.8,0.7,1.5c-0.1,0.6-0.5,0.9-1,1.1
		C106.6,165.4,105.7,165.6,104.9,165.5z M104.3,163.4c0,0.1,0,0.2,0,0.2c0.1,0.1,0.2,0.1,0.3,0.2c0.2,0.4,0.3,0.5,0.4,0.5
		c0.7-0.1,1.3-0.2,2-0.2c0.2,0,0.3-0.1,0.4-0.3c0-0.3-0.2-0.4-0.4-0.5C106.1,163.1,105.2,163.3,104.3,163.4z"/>
	<path class="st2" d="M91,63c0.8,0.2,1.1,1,1.9,1.8c-1,0-1.7,0-2.4,0C90.4,64.1,90.9,63.6,91,63z"/>
	<path class="st2" d="M105.1,85c-0.2,0.5-0.5,1-0.8,1.5c-0.3-0.6,0.1-1,0.2-1.5C104.7,85,104.9,85,105.1,85z"/>
	<path class="st2" d="M86.7,76.4c0.2,0.3,0.2,0.6,0.2,0.9l-0.1,0.1c-0.2,0-0.3-0.1-0.3-0.3C86.5,76.9,86.6,76.6,86.7,76.4z"/>
	<path class="st2" d="M132.8,102.3c-0.1-1-0.3-1.9-0.6-2.7c-0.3-0.7-0.7-1.2-1.5-1.1c-0.2,0-0.5,0-0.7,0c-0.3,0-0.5-0.1-0.7-0.4
		c-0.6-1.3-1.5-2.3-2.5-3.4c-0.4-0.5-0.4-0.8,0.2-1.2c0.2-0.2,0.5-0.4,0.8-0.4c1.3-0.1,2.6-0.3,3.8,0.6c0.8,0.6,1.8,1.1,2.7,1.5
		c0.8,0.3,1.3,0.9,1.6,1.7c0.5,1.2,0.7,2.5,0.4,3.8c-0.1,0.4-0.3,0.6-0.7,0.6C134.6,101.3,133.7,101.8,132.8,102.3z"/>
	<path class="st2" d="M114.3,94.5c1.1-0.2,2.2-0.3,3.3-0.5c1.8-0.3,3.6-0.2,5.4-0.1c0.7,0,1.5,0.3,2,1.2c0.5,0.9,1.3,1.7,1.9,2.5
		c0.1,0.2,0.3,0.4,0.2,0.7c-0.2,0.3-0.5,0.2-0.7,0.2c-0.6,0-1.1,0-1.7,0.1c-0.9,0.2-1.8,0.4-2.7-0.2c-0.6-0.4-1.5-0.2-2.3,0
		c-0.6,0.1-1.1,0.3-1.4-0.5c-0.2-0.3-0.6-0.5-1-0.6c-0.8-0.3-1.5-0.9-2.2-1.4C114.7,95.5,114.3,95.2,114.3,94.5
		C114.3,94.5,114.3,94.5,114.3,94.5z"/>
	<path class="st2" d="M107.2,117.8c0.6,0.8,1.5,1.5,2.6,1.7c0.2,0,0.3,0.1,0.5,0.2c1.5,0.8,1.5,0.8,1.5,2.6c0,0.5,0,1,0,1.4
		c0,0.6-0.2,1.1-0.5,1.5c-0.6,0.8-1.3,1.5-2,2.1c-0.4,0.3-0.9,0.2-0.9-0.3c0-0.8-0.8-1.1-1-1.8c-0.2-0.7-0.8-1.1-1.4-1.5
		c-0.7-0.6-1-1.5-1.1-2.5c-0.1-1.2,0-2.3,1.2-2.8C106.4,118.2,106.6,117.8,107.2,117.8z"/>
	<path class="st2" d="M97.4,56.4c0.1,1.6-0.1,3.3-0.7,5c-0.4,1.2-0.7,2.4-0.7,3.6c0,0.5-0.4,0.7-0.8,0.4c0,0-0.1-0.1-0.1-0.1
		c-1.9-2-3.7-4-5.6-6c0,0-0.1-0.1-0.1-0.1c0-0.1,0-0.2,0-0.3c0.1-0.1,0.2-0.1,0.3,0c1.1,1,2.1,1.9,3.2,2.9c0.4,0.4,0.7,0.8,1.1,1.1
		c0.5,0.4,1.1,0.2,1.2-0.4c0.2-1.1,0.8-2.2,0.2-3.4c-0.4-0.8-0.5-1.7-0.6-2.6c-0.3-1.7,0-3.3,0.8-4.8c0.2-0.3,0.3-0.7,0.7-0.7
		c0.4,0,0.5,0.5,0.6,0.8c0.4,1.1,0.5,2.3,0.5,3.5C97.4,55.6,97.4,55.9,97.4,56.4z"/>
	<path class="st2" d="M115.1,80.2c0.1,0.4-0.1,0.8-0.3,1.2c-0.4,0.6-0.8,1.3-1.2,1.9c-0.2,0.2-0.3,0.5-0.5,0.7
		c-0.1,0.3-0.2,0.7,0.1,1c0.3,0.3,0.7,0.3,1.1,0.1c0.3-0.2,0.6-0.5,1-0.9c0.1,0.6,0.2,1.1,0.3,1.6c-0.8,0-1.5,0-2.3,0
		c-1.1,0-2.1,0.1-2.3,1.5c-0.1,0.3-0.3,0.3-0.5,0.3c-0.6,0-1.1,0-1.6,0c-0.3-0.3-0.1-0.6,0-0.8c0.4-0.6,0.7-1.3,1.1-1.8
		C111.5,83.3,113.1,81.5,115.1,80.2L115.1,80.2z"/>
	<path class="st2" d="M99.8,87.3c0.3-1.7,0.4-3.6,1.1-5.4c0.1-0.4,0.4-0.7,0.6-1.1c0.1-0.1,0.3-0.1,0.5-0.1c0.1,0,0.2,0.2,0.2,0.3
		c0,0.4,0,0.8,0,1.2c-0.3,1.9-0.6,3.8-1,5.8c-0.1,0.4-0.1,0.8-0.7,0.8c-0.5-0.1-0.6-0.2-0.6-0.8C99.7,87.8,99.8,87.6,99.8,87.3z"/>
	<path class="st2" d="M86.9,72c0.7,0.8,1,1.7,1.4,2.5c1.1,2.5,1.8,5.2,2.2,8c0,0.1-0.1,0.4-0.2,0.4c-0.1,0-0.3,0-0.4-0.1
		c-0.3-0.2-0.5-0.4-0.4-0.9c0.2-0.6-0.1-1.2-0.3-1.7c-1-2.5-1.8-5-2.3-7.6C86.8,72.5,86.9,72.4,86.9,72z"/>
	<path class="st2" d="M109.2,80.9c-0.1,1.3-0.7,2.5-1.3,3.6c-0.3,0.6-0.7,1.2-1,1.8c-0.1,0.2-0.2,0.3-0.3,0.5
		c-0.3,0.5,0.2,1.2-0.5,1.6c-0.5,0.2-0.9,0.4-1.4,0.6c-0.1,0-0.2,0.1-0.3,0.1c-0.2-0.1-0.2-0.3-0.1-0.4c0.8-1.6,1.6-3.1,2.5-4.7
		C107.4,82.9,108.1,81.7,109.2,80.9L109.2,80.9z"/>
	<path class="st2" d="M105.9,72.4c-1,4.3-1.9,8.5-2.8,12.8c-0.3-0.5-0.2-0.9-0.1-1.2c0.2-1.6,0.9-3.1,0.4-4.7c0-0.1,0-0.2,0-0.3
		c0.6-2.2,1-4.4,2.2-6.3C105.5,72.6,105.6,72.5,105.9,72.4z"/>
	<path class="st2" d="M110.9,49.1c0,1,0,1.8-0.2,2.6c-0.6,2-0.8,4.1-1.1,6.1c-0.2,1.3,0.2,2.6,0.5,3.9c0.2,0.9,0.2,0.8-0.7,1.4
		c-0.3-0.2-0.2-0.5-0.2-0.8c0-1.8-0.1-3.6,0.1-5.4c0.2-2.2,0.2-4.5,0.9-6.7C110.4,49.9,110.5,49.5,110.9,49.1z"/>
	<path class="st2" d="M107.2,57.1c0,0.4,0,0.8,0,1.1c0.1,1.6,0,3.2,0.3,4.8c0.2,0.9,0,1.8,0,2.7c0,0.5-0.4,0.5-0.7,0.5
		c-0.3,0-0.5-0.2-0.5-0.5c0-1.5-0.1-3.1,0.2-4.6c0.1-0.7,0.1-1.5,0.2-2.3C106.6,58.2,106.6,57.6,107.2,57.1z"/>
	<path class="st2" d="M90.4,55.2c-1.5-2-2.8-3.7-3.9-5.7c-0.2-0.4-0.3-0.8-0.4-1.2c0-0.1,0.1-0.2,0.1-0.3c0.1,0,0.2,0,0.3,0
		c0.3,0.3,0.7,0.6,1,1c0.9,1.2,1.7,2.5,2.5,3.8C90.6,53.6,90.5,53.6,90.4,55.2z"/>
	<path class="st2" d="M91.7,66.4c2,0.3,3.6,1.3,4.9,2.9c0.4,0.6,0.6,1.3,1.2,1.7c0.3,0.2,0.2,0.8,0,1.3c-1-1.1-2-2.1-3-3.1
		C93.8,68.2,92.6,67.5,91.7,66.4z"/>
	<path class="st2" d="M89.5,85.4c0.6-0.5,1-0.7,1.7-0.4c0.9,0.4,1.4,0,1.4-1c0-0.8,0-1.5,0-2.3c0.4-0.1,0.5,0.3,0.5,0.5
		c0.3,1.6,0.5,3.2,0.7,4.9c0,0.3-0.2,0.4-0.5,0.3C92.1,86.7,90.9,86.1,89.5,85.4z"/>
	<path class="st2" d="M117.5,56.2c0,0.4-0.2,0.6-0.5,0.9c-1.3,1.4-2.8,2.6-4.5,3.6c-0.2-0.5-0.2-1-0.1-1.4c0.1-0.5,0.1-1.1,0.9-0.8
		c0.5,0.2,0.9-0.4,1.3-0.7C115.5,57.1,116.3,56.4,117.5,56.2L117.5,56.2z"/>
	<path class="st2" d="M99.4,59.8c-0.2,1.5-0.6,2.9-0.8,4.4c-0.2,1.1-0.2,2.1-0.3,3.2c0,0.4-0.1,0.7-0.4,0.9c-0.2,0.1-0.6-0.6-0.5-1
		c0.5-2.1,0.2-4.3,1-6.3c0.2-0.4,0.2-0.9,0.6-1.2C99.1,59.7,99.3,59.8,99.4,59.8z"/>
	<path class="st2" d="M101.7,120.3c-0.4,0-0.8-0.1-1.2-0.1c-0.3-0.6,0-1.2-0.1-1.8c-0.1-0.7,0.1-1.4-0.4-2c-0.2-0.2-0.3-0.4-0.1-0.7
		c0.4-0.6-0.2-1-0.2-1.5c0.2,0,0.5,0,0.7,0c-0.1,0.9,0.1,1.7,0.7,2.3c0.8,0.9,1,1.9,1,3C101.8,119.8,101.8,120.1,101.7,120.3z"/>
	<path class="st2" d="M116.4,53.3c1.1-2.1,2.8-3.5,4.8-4.5c0.1,0,0.2,0.1,0.3,0.1c0.1,0.3-0.2,0.5-0.4,0.7c-1.1,1.1-2.3,2.1-3.4,3.2
		c-0.3,0.3-0.7,0.6-1.2,0.7C116.4,53.4,116.4,53.3,116.4,53.3z"/>
	<path class="st2" d="M97.5,88.6c0.1,0.3,0.2,0.7,0.2,1c0,0.8,0.2,1.5-0.1,2.3c-0.9,0.1-1.3-0.7-2.2-1.1c1.3-0.4,1.3-1.5,1.4-2.5
		c0.2,0.1,0.4,0.1,0.6,0.2l0,0C97.4,88.5,97.4,88.5,97.5,88.6z"/>
	<path class="st2" d="M116.5,48.7c0.3-2.3,1.3-4.3,2.4-6.3c0.1,1.2-0.5,2.2-0.9,3.2C117.5,46.7,117.3,47.8,116.5,48.7z"/>
	<path class="st2" d="M96.2,112.9c0.2,0.5,0.4,0.8,0.5,1.1c0.1,0.3,0.1,0.7-0.2,1c-0.5,0.4-0.8,1-1.3,1.4c-0.4,0.4-0.6,1-1.2,1.1
		c-0.3-0.8,0.4-1.1,0.7-1.5C95.2,115.1,95.6,114,96.2,112.9z"/>
	<path class="st2" d="M112.8,52.2c0-1.7,1-4.3,2.2-6.2c0,0.3,0.1,0.5,0,0.8c0,0.3-0.1,0.6-0.2,0.8C114.1,49.1,113.7,50.7,112.8,52.2
		z"/>
	<path class="st2" d="M100.3,70.3c0,1.6-0.5,2.9-0.2,4.4c-0.7-0.4-1.4-0.9-1.7-1.7C99.6,72.1,99.6,72.1,100.3,70.3z"/>
	<path class="st2" d="M81.9,74.6c-1.2-0.3-1.9-1.3-2.7-2.4c1.4,0.5,1.5,0.6,2.9,2.3C82,74.5,82,74.5,81.9,74.6z"/>
	<path class="st2" d="M113.7,56.2c-0.1-1.1,0.6-1.6,1.3-2.1c0.1-0.1,0.5,0,0.6,0.1c0.2,0.2,0,0.4-0.2,0.6
		C114.8,55.3,114.3,55.7,113.7,56.2L113.7,56.2z"/>
	<path class="st2" d="M93.1,57.4c0.2,0.7,0.2,1.4,0.7,2.3c-0.8-0.3-0.9-0.9-1.2-1.2C92.2,57.9,92.2,57.8,93.1,57.4z"/>
	<path class="st2" d="M101.7,133.2c-0.2,0-0.4,0-0.5,0c0.1-0.4,0.2-0.9,0.4-1.4C101.9,132.2,101.7,132.7,101.7,133.2z"/>
	<path class="st2" d="M110.3,73.5c-0.1,0.6-0.5,0.9-1.1,1l0,0C109.2,73.8,109.7,73.5,110.3,73.5L110.3,73.5z"/>
	<path class="st2" d="M116.1,83.4c0.2-0.4,0.4-0.8,0.9-0.9C116.9,83.3,116.9,83.3,116.1,83.4L116.1,83.4z"/>
	<path class="st2" d="M104,138.3c0,0.5,0.1,0.7,0.1,0.9c0,0.1-0.1,0.3-0.1,0.4c-0.2-0.2-0.2-0.5-0.1-0.7
		C103.9,138.8,103.9,138.7,104,138.3z"/>
	<path class="st2" d="M111.6,72.3c0,0.5-0.3,0.7-0.7,0.7l-0.1-0.1C111,72.5,111.2,72.3,111.6,72.3L111.6,72.3z"/>
	<path class="st2" d="M99.1,113.4c0.4,0.2,0.6,0.5,0.6,0.9C99,114.2,99,114.2,99.1,113.4z"/>
	<path class="st2" d="M112.3,72c-0.1,0.3-0.4,0.4-0.7,0.4l0,0C111.8,72,112,71.9,112.3,72L112.3,72z"/>
	<path class="st2" d="M110.3,73.4c0.1-0.3,0.4-0.4,0.6-0.4l0.1,0.1C110.9,73.4,110.6,73.5,110.3,73.4L110.3,73.4z"/>
	<path class="st2" d="M102.6,138.8c0,0.1,0.1,0.2,0.1,0.3c0,0-0.1,0.1-0.1,0.1c0,0-0.1-0.1-0.1-0.1
		C102.5,139,102.6,138.9,102.6,138.8z"/>
	<path class="st2" d="M112.7,71.6c0-0.2,0.1-0.3,0.3-0.3c0,0,0.1,0.1,0.1,0.2C113,71.5,112.8,71.6,112.7,71.6L112.7,71.6z"/>
	<path class="st2" d="M117.4,56.2c0.1-0.1,0.2-0.2,0.2-0.2C117.9,56.2,117.6,56.2,117.4,56.2L117.4,56.2z"/>
	<path class="st2" d="M113.7,56.2c-0.1,0.1-0.1,0.2-0.2,0.2C113.3,56.2,113.5,56.2,113.7,56.2L113.7,56.2z"/>
	<polygon class="st2" points="122,48.4 122.1,48.5 122,48.5 	"/>
	<path class="st2" d="M116.5,53.4c-0.1,0.1-0.2,0.4-0.3,0.1c0,0,0.1-0.2,0.2-0.2C116.4,53.3,116.4,53.4,116.5,53.4z"/>
	<path class="st2" d="M116.1,83.4c0,0.1-0.1,0.1-0.1,0.2c0,0,0-0.1,0-0.1C116,83.5,116,83.5,116.1,83.4L116.1,83.4z"/>
	<path class="st2" d="M118.1,81.3c0,0.1-0.1,0.2-0.1,0.3C117.8,81.3,118,81.4,118.1,81.3L118.1,81.3z"/>
	<path class="st2" d="M118.4,80.9c0,0.2-0.1,0.3-0.3,0.4l0,0C118.1,81.1,118.3,81,118.4,80.9L118.4,80.9z"/>
	<path class="st2" d="M118.8,80.6c0,0.2-0.1,0.3-0.3,0.4l0,0C118.5,80.7,118.6,80.6,118.8,80.6L118.8,80.6z"/>
	<path class="st2" d="M109.3,80.9c0.1-0.1,0.1-0.1,0.2-0.2c0,0,0,0.1,0,0.1C109.3,80.9,109.3,80.9,109.3,80.9
		C109.2,80.9,109.3,80.9,109.3,80.9z"/>
	<path class="st2" d="M119.1,80.2c0,0.2-0.1,0.3-0.3,0.4l0,0C118.8,80.4,118.9,80.3,119.1,80.2L119.1,80.2z"/>
	<path class="st2" d="M119.1,80.2c0.1-0.1,0.1-0.1,0.2-0.2c0,0,0,0.1,0,0.1C119.2,80.2,119.2,80.2,119.1,80.2L119.1,80.2z"/>
	<path class="st2" d="M115,80.2c0.1-0.1,0.1-0.2,0.2-0.2C115.4,80.2,115.2,80.2,115,80.2L115,80.2z"/>
	<path class="st2" d="M120.1,79.5c-0.1,0.1-0.1,0.1-0.2,0.2c0,0,0-0.1,0-0.1C120.1,79.5,120.1,79.5,120.1,79.5
		C120.2,79.5,120.1,79.5,120.1,79.5z"/>
	<path class="st2" d="M120.2,79.5c0-0.1,0.1-0.1,0.1-0.2c0,0,0,0.1,0,0.1C120.2,79.4,120.2,79.5,120.2,79.5
		C120.1,79.5,120.2,79.5,120.2,79.5z"/>
	<path class="st2" d="M86.9,77.3c0.2,0.1,0.3,0.2,0.1,0.4c-0.1-0.1-0.1-0.2-0.2-0.3L86.9,77.3z"/>
	<path class="st2" d="M82.7,75.2c0.1,0.1,0.2,0.1,0.2,0.2C82.7,75.6,82.7,75.3,82.7,75.2L82.7,75.2z"/>
	<path class="st2" d="M82.7,75.2c-0.2,0-0.3-0.1-0.4-0.3l0.1-0.1C82.6,74.9,82.7,75,82.7,75.2C82.7,75.2,82.7,75.2,82.7,75.2z"/>
	<path class="st2" d="M109.2,74.5c0,0.2-0.1,0.2-0.2,0.2c0,0,0-0.1,0-0.1C109.2,74.5,109.2,74.5,109.2,74.5L109.2,74.5z"/>
	<path class="st2" d="M82.3,74.9c-0.1-0.1-0.3-0.2-0.4-0.3c0.1-0.1,0.1-0.1,0.1-0.2c0.2,0.1,0.3,0.2,0.3,0.4L82.3,74.9z"/>
	<path class="st2" d="M112.3,72c0-0.2,0.1-0.3,0.3-0.4l0,0C112.6,71.8,112.5,71.9,112.3,72L112.3,72z"/>
	<path class="st2" d="M140.9,155.1c-0.3,1.1-1.1,1.8-1.7,2.6c-0.5,0.6-1,1.1-1.5,1.7c-0.4,0.5-0.9,0.9-0.9,1.6
		c0,0.4-0.4,0.5-0.7,0.7c-0.2,0.1-0.3,0.1-0.4,0c-0.1-0.1-0.1-0.2-0.1-0.3c0.5-1.7,0.8-3.4,1.5-5.1c0.7-1.7,1.3-3.5,2.2-5.2
		c0.3-0.6,0.7-1.2,1-1.8c0.1-0.2,0.2-0.4,0.6-0.5c-0.2,1.1-0.7,2-1,3c-0.7,1.6-1.2,3.3-2.4,4.7c-0.3,0.3-0.4,0.7-0.4,1.1
		c0.1,0.4,0.5,0.6,0.8,0.4c0.4-0.3,0.7-0.8,1-1.2C139.5,156.2,139.9,155.3,140.9,155.1L140.9,155.1z"/>
	<path class="st2" d="M136.5,164.1c0-0.2,0-0.5,0.1-0.7c0.1-0.2,0.3-0.4,0.5-0.3c0.3,0.1,0.3,0.3,0.3,0.5c0,0.3-0.2,0.4-0.4,0.4
		C136.8,164.1,136.7,164.1,136.5,164.1L136.5,164.1z"/>
	<path class="st2" d="M136.5,164.1c0,0.1-0.1,0.2-0.1,0.3C136.2,164.1,136.3,164.1,136.5,164.1L136.5,164.1z"/>
	<path class="st2" d="M140.9,155.1c0-0.1,0.1-0.2,0.1-0.3C141.3,155.1,141,155.1,140.9,155.1L140.9,155.1z"/>
	<path class="st2" d="M142.7,128.2c-0.1-0.6-0.3-1-0.4-1.4c-0.1-0.2-0.1-0.5,0.1-0.6c0.2-0.1,0.4,0.1,0.6,0.1
		c0.3,0.1,0.5,0.3,0.5,0.6c0.1,0.4,0.4,0.5,0.7,0.6c0.1,0,0.3,0.2,0.2,0.4c-0.1,0.1-0.2,0.2-0.4,0.3
		C143.7,128.3,143.2,128.2,142.7,128.2z"/>
	<path class="st2" d="M150,132.7c0.3,1.1-0.1,2.1-0.4,3c0,0.1-0.2,0.2-0.3,0.2c-0.1,0-0.2-0.1-0.2-0.2c0.1-1,0.2-2,0.6-2.9
		C149.8,132.8,149.9,132.8,150,132.7z"/>
	<path class="st2" d="M144.8,124.4c0.7,1.9,0.7,1.9,0.4,3.1C144.8,126.5,144.5,125.6,144.8,124.4z"/>
	<path class="st2" d="M128.3,155.1c0.1,0.5,0,1-0.2,1.5c-0.4,0.9-0.8,1.9-1.4,3.1c0-1.8,0-3.4,0-5.1
		C127.3,154.9,127.7,155.5,128.3,155.1L128.3,155.1z"/>
	<path class="st2" d="M129.6,151.2c0.3,1.2-0.4,2-0.7,3C128.7,152.7,128.8,152.4,129.6,151.2z"/>
	<path class="st2" d="M126.4,162.2c-0.2-0.4-0.2-0.8,0.1-1.2c0.1-0.2,0.4-0.2,0.6,0c0.2,0.1,0.2,0.3,0.1,0.4
		C127,161.8,126.8,162.1,126.4,162.2z"/>
	<path class="st2" d="M129.8,150.3c0,0.1,0.1,0.1,0.1,0.2c0,0.1-0.1,0.2-0.1,0.2c0,0-0.1-0.1-0.1-0.1
		C129.8,150.5,129.8,150.4,129.8,150.3z"/>
	<path class="st2" d="M128.3,155.1c0.1-0.1,0.1-0.1,0.2-0.2c0,0,0,0.1,0,0.1C128.4,155.1,128.4,155.1,128.3,155.1L128.3,155.1z"/>
	<path class="st2" d="M87.9,159.3c1.3-0.6,1.9,0.5,2.8,0.7c0.1,0,0.2,0.3,0.2,0.5c0,0.6,0,1.2,0,1.9
		C89.7,161.4,88.9,160.3,87.9,159.3z"/>
	<path class="st2" d="M91.1,164.7c0.4-0.4,0.9-0.2,1.3-0.3c0.2-0.1,0.7-0.5,0.7,0.1c0,0.4-0.5,0.4-0.8,0.3
		C91.9,164.8,91.4,165,91.1,164.7z"/>
	<path class="st2" d="M117.2,161.2c-0.2-1.2-0.1-2.5-0.1-3.7c0.5,0,0.9,0.1,0.9,0.5c0,1,0.7,1.1,1.4,1.1c-0.2,1.1-0.8,1.8-1.3,2.5
		C117.8,161.4,117.6,161.1,117.2,161.2z"/>
	<path class="st2" d="M119.8,158.4c0-0.2,0-0.3,0.1-0.5c0-0.1,0.2,0,0.2,0.1C120.1,158.2,120,158.3,119.8,158.4L119.8,158.4z"/>
	<path class="st2" d="M119.8,158.4c0,0.1-0.1,0.2-0.1,0.3C119.5,158.4,119.7,158.4,119.8,158.4L119.8,158.4z"/>
	<path class="st2" d="M117.7,144c-0.6-0.4-0.6-1-0.6-1.9C117.6,142.8,117.9,143.3,117.7,144z"/>
	<path class="st2" d="M118.1,144.8c-0.1,0.1-0.1,0.1-0.2,0.2c0-0.1-0.1-0.2-0.1-0.3c0-0.1,0.1-0.1,0.2-0.2
		C118,144.6,118,144.7,118.1,144.8z"/>
	<path class="st2" d="M126.8,140.7c0.2,1,0.2,2.1,0,3.1C126.5,142.8,126.6,141.8,126.8,140.7z"/>
	<path class="st2" d="M91.5,148.4c-0.5-1.1-1-1.9-0.8-3.2C91.2,146.3,91.7,147.1,91.5,148.4z"/>
	<polygon class="st2" points="90.4,144.8 90.4,145 90.3,145 	"/>
	<path class="st1" d="M123.4,111.7c-0.1,0-0.3,0-0.6,0c-0.3,0-0.7-0.1-0.9-0.4c-0.1-0.2,0.4-0.5,0.9-0.5c0.8,0,1.7,0,2.5-0.3
		c0.4-0.2,0.8-0.3,1.1-0.8c0.4-0.6,0.7-0.6,1.3-0.2c0.6,0.4,0.8,0.9,0.5,1.5c-0.1,0.2-0.3,0.5-0.5,0.4c-1.1-0.4-2.2,0.2-3.3,0.3
		C124.2,111.7,123.9,111.7,123.4,111.7z"/>
</g>
</svg>
