<?xml version="1.0" encoding="utf-8"?>
<!-- Generator: Adobe Illustrator 25.3.1, SVG Export Plug-In . SVG Version: 6.00 Build 0)  -->
<svg version="1.1" id="Layer_1" xmlns="http://www.w3.org/2000/svg" xmlns:xlink="http://www.w3.org/1999/xlink" x="0px" y="0px"
	 viewBox="0 0 225 225" style="enable-background:new 0 0 225 225;" xml:space="preserve">
<style type="text/css">
	.st0{fill:none;}
	.st1{fill:#333333;}
	.st2{fill:#00A196;}
</style>
<path class="st0" d="M0,0h225v225H0V0z"/>
<g>
	<path class="st1" d="M53,141.4c0.1,0,0.3,0,0.4-0.1c0.7-0.2,1.5,0.2,2.1-0.3c-0.2-1-1.1-1-1.7-1.5c-0.4-0.3-0.8-0.3-1.3-0.3
		c-2.2,0-4.5-0.1-6.6,0.8c-0.3,0.1-0.6,0.1-0.9,0.1c-0.2,0-0.4-0.1-0.5-0.3c-0.1-0.3,0.1-0.5,0.3-0.5c0.7-0.2,1.4-0.4,2.2-0.5
		c1.4-0.2,2.8-0.3,4.2-0.4c0.3,0,0.6,0,0.8-0.3c-0.4-1.4-1.3-1.8-2.7-1.8c-1.8,0.1-3.6,0.2-5.3,0.8c-0.5,0.2-1,0.3-1.5,0.3
		c-1.8,0.1-3.6,0.4-5.3,0.8c-0.3,0.1-0.7,0.2-0.7-0.2c-0.1-0.4,0.3-0.4,0.6-0.5c0.3-0.1,0.7-0.1,1-0.6c-0.6-1.2-1.1-2.6-1.4-4.1
		c-0.3-1.3,0-2.7-0.5-4c-0.1-0.2,0.1-0.6,0.2-0.8c0.1-0.3,0.3-0.5,0.4-0.8c0.2-2.3,1.5-3.9,3.1-5.3c0.7-0.6,1-1.2,1-2.1
		c0.1-1.5,1.3-2.5,2.3-3.4c0.9-0.9,2.1-1.5,3.3-1.8c1.4-0.4,2.6-1.2,3.9-1.6c0.6-0.2,0.7-0.6,0.8-1.2c0.4-6.2,2.5-11.8,5.1-17.3
		c0.6-1.4,1.6-2.4,3-3.1c3.1-1.6,6.1-3.4,9.5-4.7c0.5-0.2,0.7-0.5,0.6-1c-0.2-1.5-0.2-3-0.1-4.5c0.2-2.4,0.9-4.7,2.1-6.8
		c1.7-3,3.8-5.7,6.1-8.3c1.9-2.1,4.3-3.4,6.6-5c0.3-0.2,0.5-0.3,0.8-0.4c3.4-2.6,7.1-2.4,10.9-1.5c1.9,0.4,3.7,1.2,5.4,2.2
		c0.7,0.4,1.5,0.7,2.3,0.7c1.3,0,2.5,0.3,3.7,0.8c2.8,1,5.6,2.2,8.1,3.8c4.4,2.8,6,7.6,4.4,12.5c-0.3,0.8-0.7,1.5-0.6,2.5
		c1.1,0.1,2.1,0.2,3.2,0.3c0.4,0,0.9,0.1,1.3,0.2c0.8,0.2,1.1,0.6,1,1.4c-0.5,3.4-1.4,6.6-3.4,9.4c-0.7,1-1.1,2.1-2,3
		c-0.7,0.7-1.3,1.2-2.3,1.1c-0.4,0-0.7,0-1,0.4c-0.6,1.1-1.2,2.3-1.8,3.4c-0.2,0.4-0.3,0.8,0.1,1.2c1.5,1.8,2,3.9,2.4,6.2
		c0.3,2.2,1.3,4.1,2.4,6c0.5,0.9,1.1,1.8,1.6,2.7c0.7,1.1,1.1,2.3,1.4,3.5c0.2,0.8,0,1.5-0.1,2.2c-0.9-0.1-1.5,0.3-2.1,0.9
		c-1,1-1.9,2-2.9,3c-0.3,0.3-0.5,0.6-0.5,1c-0.4,0.1-0.7,0.2-0.8,0.6c-0.1,0.1-0.5,0-0.2,0.3c0-0.1,0.1-0.2,0.1-0.3
		c0.4,0.1,0.7,0,0.9-0.4c0.3-0.2,0.7-0.3,1-0.5c1.3-1.1,2.5-2.2,3.8-3.4c0.3-0.3,0.4-0.7,0.7-1.1c0.5,0.1,1,0.2,1.5,0.3
		c0.9,0.2,1.8,0.2,2.6-0.2c0.6-0.2,1.1-0.5,1-1.3c0-1.1,0.7-2,1.2-2.8c1.4-2.3,2.5-4.6,2.9-7.3c0.2-1.2,0.8-1.7,1.7-2.1
		c0.5-0.2,1-0.3,1.6-0.5c-0.1-2-0.3-3.9-0.4-5.8c-0.3-5.8-0.6-11.7-0.9-17.5c0-0.4,0.1-0.7-0.2-1.1c-0.2-0.3-0.2-0.6,0.1-0.8
		c0.7-0.3,0.4-0.6,0.1-1c-0.4-0.7-0.2-1.1,0.6-1.2c2.4-0.1,4.8-0.2,7.2-0.3c1.1,0,2.2-0.1,3.3-0.7c0.8-0.4,1.2-0.1,1.6,0.7
		c0.3,0.6,0.3,1.2,0.4,1.7c0.5,4.5,0.6,9.1,0.8,13.7c0.1,2,0.1,4,0.2,6.1c0,1.1,0.1,1.1,1.1,1.3c0.2,0,0.4,0.1,0.7,0.1
		c2.4,0.6,3.4,2.3,2.8,4.7c-0.1,0.5-0.3,0.9,0.2,1.4c1.9,1.9,1.9,2.7,0.4,5.1c0.3,0.5,0.9,0.4,1.4,0.6c1.5,0.4,2.6,1.4,3.2,2.9
		c0.5,1.2,0.3,2-0.7,2.8c-0.5,0.4-1.1,0.8-1.7,1.1c-1.7,0.8-3.4,1.5-5.2,1.9c-1,0.2-1,0.3-1,1.4c0.2,4.6,0.4,9.3,0.6,13.9
		c0,0.7,0,1.4-0.1,2c-0.2,1-0.7,1.4-1.7,1.5c-2.2,0.2-4.5,0.3-6.7,0.4c-0.9,0.1-1.8,0.1-2.7,0.1c-1.2,0.1-2.5-1-2.4-2.3
		c0.1-1,0-2.1-0.1-3.1c0-0.5-0.4-0.7-0.8-0.5c-1.5,0.9-3.2,0.6-4.8,0.6c-3.1,0-6.1-0.3-9.2-0.8c-0.2,0-0.4,0-0.7-0.1
		c-2.7-0.2-5-1.2-6.7-3.3c-1.4-1.7-3.4-2.9-4.8-4.7c-0.3-0.4-0.8-0.7-1.5-0.5c-0.8,3-1.7,6-3.1,8.9c0.5,0.4,1.2,0.1,1.7,0.4
		c0.4,0.2,0.3,0.5,0.2,0.7c-0.3,0.6-1.1,0.7-1.5,1c-0.1,0.3-0.1,0.4,0.1,0.4c0.6,0.2,1.5-0.4,1.7,0.5c0.2,0.6-0.8,0.7-1.2,1.1
		c-1,1-2.3,0.9-3.6,0.9c-0.2,0-0.4-0.2-0.5-0.4c-0.3-0.5-0.7-0.4-1.2-0.4c-1.3,0.2-2.5,0.5-3.7,0.7c-1,0.2-2,0.5-3.1,0.2
		c-0.4-0.1-0.4-0.3-0.1-0.6c0.1,0,0.2-0.1,0.2-0.2c0.1,0,0.3-0.1,0.4-0.1c0.1-0.1,0.3-0.2,0.3-0.2c0-0.2-0.3-0.3-0.4-0.2
		c-0.2,0.1-0.3,0.2-0.5,0.3c0,0,0,0,0,0c-1.1,0.3-2.2,0.6-3.2,0.9c-0.5,0.1-1,0.1-1-0.5c0-0.8-0.4-0.9-1-0.7
		c-1.1,0.3-2.2,0.5-3.3,1.1c1.5,0.9,2.9,1.7,4.3,2.5c0.2,0.1,0.5,0.2,0.6,0.2c2-0.5,4,0.4,6,0c1.7-0.3,3.4,0.3,5.1,0.3
		c0.4,0,0.8,0.3,1.2,0.5c2,1.2,4.1,2.2,6,3.5c1.5,1,3.1,1.8,4.7,2.5c0.9,0.4,1.8,0.7,2.7,1.2c1.2,0.6,2.2,1.5,2.8,2.8
		c0.6,1.3,0.2,2.4-1.1,3c-0.8,0.4-1.7,0.5-2.6,0.5c-1.8,0-3.6,0-5.4,0c-0.3,0.5,0,0.8,0.1,1.2c0.2,1.3-0.2,2.2-1.4,2.7
		c-0.7,0.3-1.4,0.5-2.2,0.5c-1.8,0-3.6-0.2-5.3-0.8c-0.3,0.1-0.3,0.5-0.4,0.7c-0.4,1.7-1.7,2.5-3.3,2.5c-2.1,0.1-4-0.4-5.6-1.8
		c-1.7-1.5-3.6-2.7-4.8-4.7c-0.2-0.4-0.6-0.5-1-0.5c-2.1,0-4.1-0.8-6-1.7c-1.1-0.5-2.4-0.8-3.6-1c-1.1-0.3-2.4,0-3.6,0.2
		c-2.3,0.3-4.6,0.4-6.9,1.1c-0.1,0-0.3,0-0.4-0.1c-0.1-0.2,0-0.5,0.2-0.5c1.8-0.6,3.7-0.8,5.5-1c1.2-0.2,2.5-0.1,3.9-0.7
		c-1.8-0.5-3.3-1.1-5-0.9c-1.9,0.2-3.7,0.2-5.6,0.5c-0.6,0.1-1.3,0.2-2,0c0.2-0.6,0.8-0.6,1.2-0.6c1.9-0.2,3.9-0.4,5.8-0.6
		c0-0.3,0-0.5-0.2-0.6c-3.2-1.9-5.6-4.6-7.2-8c-0.2-0.5-0.4-0.8-0.9-0.8c-0.3,0-0.7-0.1-0.8-0.3c-0.6-1.1-1.6-0.9-2.6-0.9
		c-0.6,0-1.2,0-1.8-0.1c-0.5-0.1-0.7-0.6-0.2-1c0.3-0.1,0.6-0.1,0.8-0.3c0.2-0.1,0.6,0,0.5-0.5c-0.2,0-0.5-0.1-0.7-0.1
		c-0.2,0-0.4,0.1-0.6,0.2c-0.6,0.1-1.1,0.1-1.7,0.2C53.1,141.8,53.1,141.6,53,141.4z M79.5,67.2c-0.2,0.2-0.3,0.3-0.5,0.5
		c-0.2,0.2-0.5,0.4-0.2,0.7c-0.5-0.2-0.6,0-0.5,0.4c-0.2-0.1-0.4-0.1-0.5,0.1c-0.3,0.4-0.6,0.8-0.9,1.2c-0.3,0.3-0.5,0.7-0.3,1.1
		c-0.5-0.4-0.5,0-0.5,0.3c-0.3-0.1-0.4,0.1-0.6,0.3c-0.3,0.3-0.5,0.6-0.3,1c-0.2-0.1-0.4-0.1-0.4,0.1c0,0,0,0.2,0.1,0.2
		c0.2,0,0.3-0.2,0.3-0.4c0.5-0.2,0.5-0.6,0.3-1.1c0.5,0.4,0.5,0,0.5-0.3c0.2-0.1,0.4-0.2,0.5-0.4c0.2-0.3,0.6-0.7,0.2-1.1
		c0.2,0.1,0.4,0.2,0.5,0c0.4-0.4,0.9-0.7,0.9-1.3c0.3,0,0.5-0.1,0.5-0.4c0.3,0,0.4-0.1,0.5-0.4c0.3,0,0.4-0.2,0.5-0.4
		c0.3,0,0.4-0.2,0.5-0.4c1.6-1.3,3.2-2.6,4.8-4c0.1-0.1,0.3-0.4,0-0.5c-0.1-0.1-0.3-0.1-0.4,0c-1.9,1.1-3.5,2.5-4.9,4.2
		C79.7,67,79.6,67.1,79.5,67.2z M114.5,68.3c-0.1-0.2-0.2-0.4-0.4-0.1c0,0,0.2,0.2,0.3,0.3c0,0.1,0,0.2,0.1,0.2
		c1.9,2.6,3.4,5.4,3.4,8.8c0.5-3.6,0.3-6.9-3.1-9.1L114.5,68.3z M47.4,116.6c0.4,0,0.7,0,0.9-0.4c0.2-0.1,0.4-0.1,0.6-0.2
		c0.6-0.6,1.7-0.4,2.6-1.4c-1.3,0-2,0.6-2.8,1c-0.3-0.1-0.4,0.1-0.5,0.4c-0.4,0-0.7,0.1-0.9,0.5c-0.2,0.1-0.5,0.1-0.3,0.4
		C47.2,117.1,47.4,116.9,47.4,116.6z M45,117.9c-0.2,0.1-0.4,0.1-0.5,0.2c0,0,0,0.1,0,0.1C44.8,118.4,45,118.2,45,117.9
		c0.2,0,0.3,0,0.4-0.1c-0.1-0.1-0.1-0.1-0.2-0.2C45.2,117.7,45.1,117.8,45,117.9z M48.2,118.8c-0.4,0-0.8,0-0.9,0.4
		c-0.4,0-0.8,0-0.9,0.5c-0.1,0.1-0.1,0.2-0.2,0.2c0.1-0.1,0.2-0.1,0.2-0.2c0.4,0,0.7,0,0.9-0.4C47.8,119.3,48.1,119.2,48.2,118.8
		c0.2,0,0.5,0,0.2-0.3C48.4,118.6,48.3,118.7,48.2,118.8z M94.1,125.5c-0.2,0.1-0.4,0.2-0.3,0.5c0,0.1,0.1,0.1,0.2,0.2
		C94.1,126,94.1,125.8,94.1,125.5c0.3,0.1,0.5-0.1,0.6-0.3c0.5-0.1,1-0.3,1.5,0.2c-0.1,0.3-0.2,0.5-0.3,0.8
		c-0.2,0.5-1.1,0.9-0.6,1.5c0.3,0.4,1,0.1,1.5,0c0.7-0.1,1.3-0.3,2-0.4c1.7-0.3,3.1-1,4.3-2.2c1-1.1,2.3-1.9,3.2-3.1
		c0.2-0.3,0.7-0.5,1.1-0.7c0.2-0.1,0.4-0.1,0.6,0c0.2,0.2,0.2,0.4,0,0.6c-0.4,0.6-0.9,1.2-1.4,1.8c-0.5,0.6-1,1.1-1.5,1.7
		c-0.1,0.2-0.1,0.4,0.1,0.6c0.1,0.1,0.3,0,0.4,0c1.8-1.5,3.2-3.3,4.5-5.3c0.2-0.3-0.4-0.3-0.6-0.2c-0.1-0.1-0.2-0.2-0.3-0.3
		c0.8-1.7,2.4-2.3,3.9-3.2c0.2-0.1,0.5-0.1,0.6,0.1c0.1,0.2,0.2,0.4,0.1,0.6c-0.2,0.4-0.3,0.8-0.6,1.2c-0.8,1-1.6,2-2.4,3
		c-0.8,1-1.3,1.9-1,3.3c0.2,0.8,0.2,1.8,0.4,2.6c0.1,0.8,0.6,1.4,1.1,1.9c0.4,0.3,0.8,0.3,1.1-0.2c0.3-0.4,0.5-0.7,0.8-1.1
		c1.5-1.5,3.1-3.1,4.6-4.6c0.7-0.7,1.7-1.3,1.1-2.6c-0.1-0.1,0.1-0.4,0.2-0.6c0.5-0.6,0.3-1.3,0.1-1.9c-0.9-1.9-1.8-3.7-2.8-5.6
		c-1.3-0.7-1.3-1.8-1.3-3.1c0-1-0.2-2.1-0.4-3.1c-0.3-1.1-0.6-2.1-1.2-3.1c-0.4-0.6-0.7-0.6-1.2,0c-0.2,0.2-0.4,0.5-0.6,0.7
		c-0.5,0.7-1,1.3-0.5,2.2c-0.1,2.2-0.4,4.4-1,6.6c-0.1,0.4-0.3,0.7-0.7,0.8c-1,0.1-2,0.8-3,0c-0.4-0.4-1-0.4-1.5-0.2
		c-0.6,0.2-1.3,0.2-2,0.3c-1.6,0.1-3.1,0.7-4.5,1.3c-1,0.4-1.9,1.1-3.1,1.2c0.7,2.1,0.2,3.9-0.3,5.8c-0.3,0.9-0.7,1.8-0.7,2.8
		C94.3,125.2,94.2,125.4,94.1,125.5z M87,141.1c0.6-0.2,1.3-0.1,2.1-0.7c-0.8,0.1-1.4-0.2-1.9,0.2c-0.7,0.5-1.6,0.1-2.3,0.4
		c-0.2,0.1-0.6,0.2-0.5,0.5c0.1,0.2,0.4,0.2,0.6,0.1C85.6,141.5,86.3,141.3,87,141.1z M60,94.5c-0.9,0.6-1.3,1.4-1.1,2.5
		C59.3,96.2,60.1,95.6,60,94.5c0,0,0.1,0,0.2-0.1c0,0,0-0.1,0.1-0.1C60.1,94.4,60,94.5,60,94.5z M82.3,134.1
		c0.2-0.4,0.9-0.6,0.4-1.2c-0.3-0.4,0.3-0.8,0.1-1.2c-1.4,0.4-1.4,0.4-1,1.4c0.1,0.3,0.2,0.7,0.4,1c0,0.2,0,0.4,0,0.7
		c0,0.2,0.1,0.4,0.4,0.5c0.1,0,0.1,0,0.2,0c0.2-0.2,0.1-0.4,0-0.6C82.5,134.5,82.4,134.3,82.3,134.1z M130.6,129.6
		c0,0.1,0.1,0.1,0.1,0.2c0,0,0.1,0,0.1,0C130.7,129.7,130.6,129.7,130.6,129.6c-0.2-1.7-1.3-3.1-2-4.6c-0.1-0.2-0.4-0.2-0.6-0.1
		c-0.4,0.2-0.6,0.5-0.4,0.9C128.4,127.2,129.2,128.7,130.6,129.6z M111.2,73.8c0,0.2,0.1,0.3,0.3,0.3c0,0,0.1-0.1,0.1-0.2
		C111.5,73.8,111.4,73.7,111.2,73.8c0.3-0.2,0.1-0.5,0-0.7c-1-2.3-2.7-4.1-4.8-5.4c-0.3-0.2-0.6-0.4-1,0c2.1,1.6,3.8,3.6,5.4,5.7
		C110.9,73.6,111.1,73.7,111.2,73.8z M111.5,70.8c0.3,1.2,1.3,2.1,1.3,3.4c0.7,0.4,0.6,1.2,0.7,1.8c0.1,0.9,0.4,1.7,1.1,2.3
		c0.1-0.2,0.2-0.4,0.4-0.5c0.9-0.6,0.9-0.6,0.5-1.5C114.5,74.3,113.3,72.4,111.5,70.8c0-0.2,0-0.4-0.3-0.4c0,0-0.1,0.1-0.1,0.1
		C111.3,70.6,111.4,70.7,111.5,70.8z M115.3,73.9c0.1,0.1,0.1,0.3,0.2,0.3c0.4-0.1,0.3-0.3,0.2-0.6c-0.3-0.6-0.6-1.2-0.9-1.8
		c-0.8-1.5-1.6-3-2.9-4.2c-1.3-1.3-2.8-2.5-4.8-2.4c-0.3-0.7-0.3-0.7-1.4-0.9c0.4,0.4,0.9,0.8,1.5,0.8c0.2,0.6,0.7,0.7,1.1,1
		C111,68.5,113.5,70.9,115.3,73.9z M85.4,148.5c-1.3,0.6-2.5,1.4-3.5,2.4c-1.1,1.1-2.1,2.3-3.1,3.6c-0.3,0.4-0.3,1,0.1,1.2
		c0.7,0.3,0.7,1.3,1.5,1.4c1.5-3.1,3.6-5.6,5.2-8.5L85.4,148.5z M68.6,128c0.2,0.3,0.3,0.6,0.5,0.9c0.1,0.2,0.4,0.2,0.6,0.1
		c0.1-0.1,0.1-0.3,0.1-0.4c-0.1-0.2-0.2-0.4-0.3-0.5c-0.3-0.8-0.4-1.6-0.5-2.4c-0.1-2.5,0.6-4.7,1.5-7c1-2.6,2.3-5,3.7-7.4
		c1-1.8,2-3.5,3-5.2c0.7-1.1,0.7-2.3,0.2-3.4c-0.3-0.8-0.7-1.6-1.5-2.2c-1.1,2.8-2.3,5.5-3.3,8.3c-1.2,3.2-2.4,6.4-3.6,9.6
		c-0.4,1.1-0.8,2.2-1.1,3.4C67.3,123.9,67.2,126.1,68.6,128z M78.6,80.9c3.2-1.6,6.1-3.8,9-5.9c4.6-3.3,8.7-7,12.7-11
		c0.2-0.2,0.7-0.4,0.5-0.9c-0.2-0.4-0.6-0.4-0.9-0.5c-0.6-0.1-1.2-0.1-1.7,0.2c-0.5,0.3-1,0.6-1.5,1c-6.3,4.4-12,9.5-17.1,15.1
		c-0.4,0.5-1,0.9-1.1,1.6c-0.2,0.1-0.4,0.2-0.2,0.5C78.2,81.2,78.4,81,78.6,80.9z M78.6,97.9c0.3,0.3,0.7,0.3,1.1,0.3
		c1.3,0,1.9,0.7,2.2,1.8c0.4,1.6,1.2,3.1,1.9,4.5c1.4,2.9,3.5,5.2,6.2,7c0.9,0.6,1.9,1.3,2.8,1.9c0.3,0.2,0.7,0.3,1,0.4
		c1.5,0.2,2.8,0,4.1-0.9c2-1.4,4.1-2.7,6.2-4.1c1.3-0.9,2.5-1.9,3.5-3.1c1.4-1.8,2.8-3.7,4.2-5.6c0.4-0.6,0.8-1.2,0.9-2
		c0.1-0.6-0.2-0.7-0.8-0.6c-0.7,0.1-1,0.7-1.3,1.1c-0.9,1.2-2,1.8-3.5,1.8c-0.4,0-0.8-0.1-1.1-0.3c-0.4-0.2-0.6-0.6-0.6-1.1
		c0.1-0.5,0.5-0.5,0.9-0.5c0.1,0,0.3,0,0.4,0c0.9-0.1,1.6-0.5,1.9-1.4c0.3-0.9-0.1-1.6-0.7-2.2c-0.5-0.5-1.1-0.8-1.8-0.8
		c-0.7,0-1.3,0.2-2-0.1c-0.7-1.8-1.1-3.6-1-5.5c0.1-1.5-0.4-3-0.7-4.4c0-0.2-0.2-0.4-0.5-0.3c-0.2,0.1-0.4,0.1-0.3,0.4
		c0.7,3,0.1,5.8-1.3,8.4c-0.5,0.9-1.1,1.8-1.7,2.6c-0.7,0.9-1.4,1.7-2.2,2.5c-0.6,0.6-1.3,0.8-2.3,0.7c-1-0.1-1.9-0.2-2.9-0.2
		c-1.5,0-3-0.2-4.4-0.7c-0.9-0.3-1.7-0.5-2.6-0.5c-0.8,0-1.4-0.4-1.8-1.2c-0.8-1.6-1.6-3.2-2.3-4.8c-0.6-1.3-1.1-2.6-1.9-3.8
		c-0.6-0.9-0.5-2.1,0.2-2.9c0.7-0.7,1.4-1.4,2.4-1.5c1.2-0.1,2.1-0.7,3.1-1.3c6.8-4.5,13-9.6,18.2-16c0.2-0.3,0.5-0.6,0.8-0.8
		c0.3-0.2,0.4-0.4,0.1-0.7c-0.3-0.3-0.6-0.5-1-0.2c-0.4,0.3-0.8,0.7-1.1,1.1c-3.6,3.7-7.3,7.3-11.3,10.6c-3.7,3.1-7.5,6-11.9,7.9
		c-0.8,0.3-1.1,0.9-1.6,1.5c-0.5,0.7-0.4,0.7,0.4,1.4c0.6,0.5,0.6,0.9,0,1.4c-0.3,0.3-0.7,0.5-1.1,0.8c-0.8,0.8-1.1,1.8-1.1,2.8
		c0,0.9,0.4,1.8,1.4,2.1c1.8,0.4,2.6,1.4,2.5,3.3c0,0.1,0.2,0.2,0.3,0.3C78.4,97.5,78.5,97.7,78.6,97.9z M144.3,86.7
		c0.2-1-0.1-1.8-0.1-2.6c0-0.4-0.3-0.7-0.8-0.6c-2.5,0.2-5.1,0.4-7.6,0.6c-0.7,0-0.9,0.4-0.9,1c0.1,1.4,0.1,2.8,0.2,4.3
		c0.5,6.4,1,12.8,1.4,19.3c0.1,0.9,0.2,1.8,0.7,2.5c0.6,0.9,1,2,1.2,3.1c0.3,1.5,0.3,3-0.8,4.2c-0.5,0.6-0.6,1.2-0.5,1.9
		c0,0.5,0,1,0.1,1.6c0.5,5.7,0.8,11.4,1.1,17c0,0.6,0.1,1.2,0.2,1.8c0.1,0.6-0.2,1.2,0.2,1.7c2-0.1,3.9-0.2,5.9-0.3
		c0.4,0,0.9-0.1,1.3-0.2c0.4-0.1,0.6-0.3,0.8-0.7c0.4-1.3,0-1.8-1.4-1.8c-0.7,0-1.3,0.1-2,0.1c-0.5,0-1.1,0-1.5-0.3
		c-0.2-0.1-0.3-0.3-0.3-0.5c-0.1-0.3,0.2-0.4,0.4-0.5c0.5-0.1,1-0.2,1.6-0.2c0.7-0.1,1.3-0.1,2-0.3c0.9-0.2,1.2-0.6,1.2-1.6
		c0-0.7-0.2-1.1-1-1.1c-0.4,0-0.7-0.2-0.8-0.6c0-0.3,0.3-0.6,0.6-0.6c0.9-0.1,1-0.7,1-1.4c0-0.3,0-0.6,0-0.9c0-0.2-0.2-0.4-0.4-0.4
		c-0.6-0.2-1.5,0.2-1.8-0.8c0.5-0.5,1.3-0.2,1.9-0.5c0.1,0,0.1-0.1,0.2-0.1c0.3-0.6,0-1.2,0.1-1.7c0-0.5-0.3-0.8-0.8-0.8
		c-0.7,0-1.5,0.1-2.2-0.2c-0.1-0.1-0.2-0.2-0.3-0.3c-0.1-0.2,0.1-0.4,0.3-0.5c0.1-0.1,0.3-0.1,0.4-0.2c0.8-0.3,1.9,0.3,2.3-0.5
		c0.3-0.7,0.1-1.6,0.1-2.4c0-0.5,0-1,0-1.6c-0.1-0.9-0.1-1-1.1-1c-1,0-1.9,0.2-2.9,0.2c-0.1,0-0.3-0.2-0.3-0.3
		c0-0.1,0.1-0.3,0.2-0.4c0.3-0.2,0.7-0.3,1.1-0.4c0.7-0.1,1.5-0.2,2.2-0.2c0.6,0,0.8-0.3,0.8-0.9c0-0.4-0.1-0.7-0.6-0.8
		c-0.3,0-0.6-0.1-0.9-0.2c-1.4-0.5-1.8-1.4-1.2-2.8c0.3-0.8,0.8-1.5,1.2-2.3c-0.6-0.1-1-0.1-1.4-0.2c-0.5-0.1-1-0.2-1.5-0.4
		c-1.3-0.5-1.7-1.6-1.2-2.9c0.4-0.8,0.9-1.4,1.5-1.9c0.8-0.7,1.7-1.3,2.6-1.8c0.4-0.2,0.5-0.4,0.3-0.9c-0.4-1.1-0.3-1.1-1.5-1.1
		c-1,0-2.1,0-3.1,0c-0.2,0-0.6-0.2-0.5-0.6c0-0.2,0.3-0.4,0.5-0.4c1.3-0.1,2.5-0.2,3.8-0.3c0.4,0,0.7-0.3,0.7-0.7c0-0.3,0-0.6,0-0.9
		c0-0.7,0.1-1.5-0.1-2.2c-0.2-0.6-1.1-0.1-1.6-0.5c-0.1-0.1-0.3-0.3-0.3-0.3c0.1-0.2,0.2-0.4,0.4-0.5c0.1-0.1,0.3-0.1,0.4-0.2
		c1.2-0.4,1.2-0.4,1.2-1.6c0-0.4,0-0.7,0-1.1c0-0.6-0.2-1-0.9-0.9c-0.2,0-0.4,0-0.6-0.1c-0.1,0-0.2-0.2-0.3-0.3
		c-0.1-0.3,0.1-0.5,0.2-0.6c0.6-0.4,1.7-0.2,1.6-1.4c-0.2-2,0.4-2.8-2.3-1.8c-1,0.4-1.9,0.2-2.8-0.3c-0.2-0.1-0.3-0.4-0.3-0.6
		c0-0.3,0.2-0.6,0.5-0.7c0.3-0.1,0.7-0.1,1.1-0.1C142,86.8,143.1,86.8,144.3,86.7z M75.1,114.7c-0.3,0.3-0.5,0.5-0.6,0.7
		c-1.2,2.2-2.1,4.6-2.8,7.1c-0.6,2-0.5,4,0.3,5.9c0.6,1.4,1.1,2.9,1.6,4.4c0.3,0.9,0.4,1.9,0.1,2.9c-0.7,2.7-2.7,4.2-5.2,5.1
		c-0.4,0.1-0.9,0.1-1.3,0c-0.4-0.1-0.6-0.4-0.6-0.8c0-0.5,0.2-1,0.6-1.1c1.5-0.3,1.9-1.5,2.6-2.5c0.4-0.6,0.3-1.1,0-1.7
		c-0.9-2-2.5-3.3-4.1-4.7c-0.6-0.5-1.2-0.8-1.7-1.5c-0.6-0.9-1.3-0.9-1.7,0.3c-0.2,0.7-0.3,1.3-0.3,2c0,0.7,0,1.5-0.1,2.2
		c-0.4,2.2-0.3,4.4-0.1,6.5c0.1,1.4,0.1,2.8,0.5,4.2c1.5,5,5.1,7.8,9.8,9.3c1.4,0.5,2.9,0.5,4.4,0.6c0.8,0,1.2-0.2,1.7-0.9
		c1.7-2.4,3.9-4.4,6.6-5.7c0.3-0.1,0.5-0.3,0.8-0.4c0.4-0.3,0.5-0.9,0-1.1c-0.8-0.4-1.6-0.7-2.5-1.1c-2.3-1-4.6-1.3-6.9-0.3
		c-1.7,0.7-3.5,0.9-5.3,0.9c-0.7,0-1.4-0.2-1.6-1c-0.2-0.7,0-1.3,0.6-1.8c0.5-0.4,0.9-0.8,1.5-1c1.8-1,3.7-1.6,5.8-1.6
		c1.1,0,1.3-0.6,1.1-1.2c-0.5-1.5-0.5-3-0.4-4.4c0-1-0.8-1.9-0.4-2.8c0.3-1,0.4-1.9,0.4-2.9c0-0.4,0-1,0.3-1.3
		c0.8-1,0.6-2.1,0.6-3.2c0-2-0.2-4,0.2-6c0.1-0.4,0.3-0.7-0.2-1c-0.2,0-0.4,0.1-0.6,0.1C75.8,117.3,75.8,117.1,75.1,114.7z
		 M87,157.3c0.2,0.2,0.4,0.3,0.4,0.4c0.3,2,1.3,3.4,3.2,4.3c0.3,0.1,0.5,0.3,0.7,0.6c1.1,1.3,2.5,1.8,4.1,2.1c1.1,0.2,2-0.5,1.8-1.6
		c-0.2-1.3-0.5-2.5-1.8-3.2c-0.4-0.2-0.7-0.6-1-0.9c-0.3-0.4-0.3-0.8-0.1-1.3c0.2-0.4,0.6-0.7,1.1-0.7c0.5,0,0.9,0.1,1.3,0.4
		c0.5,0.4,1,0.7,1.3,1.2c0.7,1.3,1.8,2.1,2.6,3.3c0.1,0.2,0.3,0.4,0.4,0.4c1.8,0.5,3.7,0.8,5.5,0.1c0.6-0.2,0.8-0.7,0.5-1.2
		c-0.3-0.7-0.7-1.3-1.3-1.8c-1.1-0.8-2.1-1.7-3.3-2.2c-0.5-0.2-1-0.4-1.4-0.7c-0.4-0.2-0.7-0.6-0.5-1.1c0.1-0.5,0.6-0.7,1.1-0.7
		c1.3,0,2.3,0.6,3.2,1.5c1.5,1.6,3.3,2.2,5.5,2.1c1.1-0.1,2.3,0,3.4,0c0.7,0,1.3-0.2,2-0.3c0.5-0.1,0.6-0.4,0.4-0.8
		c-0.2-0.4-0.5-0.8-0.8-1c-0.8-0.5-1.6-1.1-2.6-1.3c-2.2-0.5-4.3-1.4-6.1-2.7c-0.4-0.3-0.9-0.5-1.4-0.7c-1.9-0.8-3.7-1.7-5.4-2.8
		c-1.3-0.9-2.7-1.2-4.2-1.2c-1.3,0-2.7,0-4,0.2c-3.1,0.5-5.4,2.1-6.2,5.3c-0.3,1.1-0.9,2-1.6,3c-0.3,0.4-0.8,0.7-0.9,1.3
		C84.1,158.3,85.6,158.4,87,157.3z M101.5,68.9c-2.3,2.4-4.6,4.8-7.1,6.8c-2.5,2.1-5.1,4-7.8,6.1c0.6,0,1,0,1.3,0
		c3.2-0.4,6.4-0.4,9.6-0.3c1.2,0,2.4-0.1,3.4,0.9c0.1,0.1,0.4,0.2,0.6,0.2c1.1,0,2.2,0.2,3.3-0.2c0.7-0.3,1.6-0.4,2.4-0.5
		c1.5-0.2,3.1-0.4,4.6-0.5c0-1,0-1.9-0.6-2.6C108.1,75.3,105.7,71.3,101.5,68.9z M80.3,85.7c0.5,0.9,0.9,1.7,1.3,2.5
		c0.5,1.1,0.9,2.2,1.4,3.3c0.9,1.7,2.1,2.9,4,3.6c2.3,0.7,4.7,0.6,7.1,0.8c0.6,0,1-0.4,1.3-0.7c1.2-1.2,2.1-2.6,2.9-4
		c1-1.8,1-3.7,1-5.6c0-0.6-0.4-0.9-1-1.1c-0.3-0.1-0.6-0.1-0.9-0.2c-4.9-0.2-9.7-0.3-14.5,0.7C82.1,85.1,81.2,85.1,80.3,85.7z
		 M103.4,85.4c1.1,0.8,1.4,1.9,1.6,3.1c0.1,0.7,0.3,1.5,0.5,2.2c0.3,0.9,0.7,1.5,1.8,1.6c1.3,0.1,2.7,0.6,3.2,1.7
		c0.7,1.4,1.6,1.4,2.9,1.1c0.9-0.3,1.9-0.4,2.9-0.3c0.5,0.1,0.9-0.1,1.2-0.5c1.3-1.9,3.1-3.5,3.9-5.7c1.8-4.7,1.9-4.2-3-4.4
		C113.5,84,108.6,83.8,103.4,85.4z M118.9,127.8c-0.3,0.2-0.7,0.5-1,0.7c-0.4,0.3-0.7,0.5-1.1,0.7c-0.4,0.2-0.8,0.5-1.2,0.7
		c-0.4,0.2-0.8,0.4-1.2,0.6c-0.4,0.2-0.9-0.1-1.1,0.3c0.9,1,1.7,1.9,2.7,2.8c1.2,1.1,2.6,1.8,4.3,1.5c0.7-0.1,1.3,0,2,0
		c0.4,0,0.8,0.1,0.9,0.5c0.4,1.1,1.4,1.2,2.4,1.3c1.3,0,2.7,0.1,4,0.1c1.5,0,3,0.1,4.4-0.9c0.9-0.7,1.2-0.8,1.1-1.7
		c-0.1-0.7-0.7-0.8-1.1-0.9c-2.9-1.2-5-3.2-6.5-5.9c-0.4-0.7-0.6-1.6-1.1-2.2c-0.6-0.7-1.7-0.1-2.6-0.5c-0.6-0.3-1,0.1-1.2,0.6
		c-0.2,0.5-0.3,1-0.6,1.4c-0.5,0.9-0.9,1.9-1.8,2.6c-0.2,0.2-0.6,0.2-0.8,0.1c-0.3-0.2-0.4-0.4-0.3-0.7
		C119.2,128.5,119.4,128.2,118.9,127.8z M80.9,127.2c1.4-1.2,2.4-2.6,3.2-4.2c0.1-0.3,0.3-0.6,0.6-0.4c0.4,0.2,0.4,0.6,0.2,1
		c-0.3,0.5-0.6,1.1-0.9,1.6c-0.8,1.2-1.6,2.3-2.4,3.6c2.4,0.3,4.6-0.4,6.8-0.5c1.6-0.1,2.7-0.9,3.6-2.3c0.6-1.1,1.4-2.1,1.8-3.3
		c0.5-1.5,1.1-3,0.6-4.8c-0.7,0.4-1.2,0.7-1.9,0.7c-2.2,0-4.1-0.5-5.8-1.9c-0.9-0.7-1.9-0.9-2.9-0.8c-1,0.1-1.9,0.3-2.9,0.5
		c-0.3,0.1-0.5,0.2-0.6,0.6c-0.1,0.7-0.4,1.4-0.4,2.2c-0.1,1.2-0.2,2.4,0.1,3.6c0.4-0.9,0.6-1.8,0.8-2.8c0.1-0.2,0.2-0.5,0.5-0.4
		c0.2,0,0.4,0.2,0.5,0.4c0.3,0.3,0.1,0.7,0,1.1c-0.1,0.9-0.7,1.8-0.5,2.8c0.6-0.2,0.7-0.7,1-1c0.3-0.3,0.6-0.7,1-0.9
		c0.2-0.1,0.4-0.1,0.6,0.1c0.1,0.1,0.1,0.3,0,0.4c-0.2,0.3-0.4,0.5-0.6,0.7C82.2,124.1,81.3,125.5,80.9,127.2z M51.7,126.7
		c-1,1.9,0.7,3.6,0.1,5.5c0,0.1,0,0.2,0,0.2c0.1,0.2,0.3,0.3,0.4,0.5c0.3,0.5,0.7,1,1,1.5c1.5,2.7,4,3.9,6.9,4.6
		c0-0.7,0.1-1.3,0.1-1.9c0.1-1.4,0-2.9,0.2-4.3c0.2-1.4,0.1-2.8-0.3-4.2c-0.1-0.4-0.3-0.8-0.1-1.1c0.7-0.8,0.3-1.6,0.2-2.4
		c-0.2-1.6-0.6-3.1-0.7-4.7c-0.1-1.2-0.5-2.2-1.1-3.1c-1.2-1.9-1.9-4-2.5-6.2c-0.3-1.1-0.4-2.3-0.7-3.6c-0.2,0.3-0.3,0.5-0.4,0.7
		c-0.5,2.6-0.8,5.2,0.2,7.7c0.3,0.7,0.5,1.4,0.7,2.1c0.2,0.9,0.1,1.7-0.6,2.3c-0.8,0.6-0.8,1.4-0.5,2.2c0.7,2.5,1.6,5,2.8,7.3
		c0.4,0.7,0.7,1.3,0.8,2.1c0,0.3-0.1,0.7-0.3,0.8c-0.2,0.1-0.6,0.1-0.9,0c-0.6-0.2-0.9-0.7-1.3-1.2c-1-1.2-1.8-2.4-2.4-3.8
		C53,127,52.4,126.6,51.7,126.7z M97.3,61.4c-1.3-0.6-2.7-0.7-4-0.9c-1.4-0.2-2.6,0.1-3.8,0.9c-3.8,2.5-7.2,5.4-10.2,8.7
		c-1.8,2-3.2,4.3-4.2,6.9c-0.5,1.3-0.8,2.7-0.8,4.2c0,0.3,0,0.6,0.3,0.7c0.3,0.1,0.6-0.2,0.8-0.4c0.2-0.2,0.3-0.3,0.4-0.5
		c1.4-2.6,3.5-4.7,5.6-6.7c4.7-4.4,9.7-8.2,15-11.9C96.7,62.2,97.2,62.1,97.3,61.4z M45.3,127.6c0-1.3,0.2-1.8,1.2-2
		c0.9-0.2,1.8-0.2,2.7,0c0.9,0.2,1,0.2,1.1-0.6c0.3-1.7,0.7-3.3,1.2-5c0.2-0.7,0.4-1.4,0.5-2.2c0-0.2-0.1-0.4-0.4-0.5
		c-0.1,0-0.3,0.1-0.3,0.1c0,0.8-0.5,1.1-1.1,1.5c-0.9,0.5-1.7,1-2.6,1.4c-3,1.4-5.4,3.3-7.5,5.9c-2,2.5-2.1,2.5-1.4,5.6
		c0.1,0.4,0.2,0.7,0.3,1.1c0.2,0.7,0.6,1,1.3,1.1c2.6,0.5,4.5-0.9,6.7-2.6c-1.2,0-2,0-2.8-0.1c-1,0-1.9-0.3-2.8-0.8
		c-0.5-0.3-0.5-0.6,0.1-1c0.3-0.2,0.5-0.3,0.6-0.6c0.2-1.1,1-1.4,2-1.3C44.6,127.8,44.9,127.7,45.3,127.6z M60.5,105.4
		c0.8-0.5,1.1-1.4,1.6-2.1c0.8-1.2,1.4-2.6,2.4-3.5c2-1.8,3.7-3.9,6.2-5.1c0.3-0.1,0.5-0.3,0.8-0.4c0.6-0.3,0.7-0.8,0.5-1.3
		c-0.4-1.4-1.1-2.6-1.8-3.9c-0.3-0.5-0.6-0.6-1.1-0.4c-1.6,0.7-3.1,1.5-4.3,2.8c-1.9,1.9-3.2,4.1-4.1,6.6c-0.5,1.2-0.9,2.6-0.6,3.9
		C60.3,103.2,60.3,104.3,60.5,105.4z M65.9,122.4c0.6-0.1,0.6-0.4,0.7-0.7c0.4-1.1,0.7-2.3,1.1-3.4c2.3-5.3,4-10.8,6.4-16
		c0.4-0.8,0.7-1.7,0.6-2.6c0-0.5-0.2-0.8-0.5-1.2c-0.6-0.7-1-0.7-1.5,0.2c-0.3,0.5-0.6,1-0.8,1.6c-1.6,3.9-3.3,7.8-4.9,11.7
		c-0.3,0.7-0.5,1.4-0.7,2.1C65.6,116.8,65.4,119.5,65.9,122.4z M134.5,121.6c-0.3,0-0.5-0.1-0.7-0.1c-0.8,0-1.3-0.3-1.5-1.1
		c-0.2-0.8,0.2-1.3,0.9-1.7c0.6-0.4,1.3-0.8,1.8-1.3c1.2-0.9,1.5-2.6,0.5-3.7c-0.4-0.6-0.8-1.1-0.9-1.8c-0.1-0.4-0.2-0.8-0.7-0.7
		c-0.3,0.1-0.3,0.5-0.2,0.7c0.3,1.2-0.1,2.4-0.6,3.5c-0.3,0.5-0.5,1.1-0.7,1.6c-0.5,1.2-1.1,2.4-2.3,3.2c-1,0.6-1.1,1.3-0.6,2.3
		c1,2.3,1.9,4.5,3,6.7c0.5,1,1.2,1.7,2.5,1.6c0-0.2,0.1-0.5,0.1-0.7C134.9,127.4,134.7,124.5,134.5,121.6z M87.1,112.7
		c-2.8-2.2-4.5-5.1-6.3-8.2c-0.3,0.4-0.5,0.7-0.5,1c-0.2,1.6-1,3.1-1.5,4.7c-0.5,1.3-1,2.7-1.4,4c-0.1,0.3-0.4,0.7,0.2,1.2
		C80.6,114.3,83.9,114,87.1,112.7z M64.5,114c2.3-5.7,4.7-10.7,7.3-15.7c0.1-0.1,0-0.3,0-0.4c-1.8,0.2-3,0.8-3.8,2.2
		C65.4,104.2,64.2,108.6,64.5,114z M59,115.1c0.1-1.5,0.1-2.7,0.3-3.8c0.1-0.6,0.1-1.1-0.1-1.7c-0.7-2.7-1.2-5.4-1.1-8.2
		c0-1.2,0.4-2.3,0.5-3.8c-1.2,1.4-1.7,2.7-1.8,4c-0.2,3.6-0.1,7.2,0.9,10.7C58,113.1,58.2,114.1,59,115.1z M144.1,110
		c0.7-0.1,1.3-0.1,1.9-0.2c1.1-0.2,2.2-0.6,3.1-1.3c0.9-0.7,0.8-1.6-0.2-2.1c-0.7-0.3-1.4-0.5-2.2-0.5c-2.3-0.1-3.7,1.3-4.8,3.2
		c-0.2,0.3,0,0.7,0.5,0.8C143.1,109.9,143.7,109.9,144.1,110z M148.1,120.1c0,0.2,0,0.4,0,0.7c0,0.8,0.3,1,1.1,0.9
		c1.9-0.3,3.6-1,5.2-1.8c0.5-0.3,0.5-0.7,0.2-1.1c-0.5-0.6-1.1-1-1.9-1.1c-1.4-0.2-2.8,0.1-4.1,0.7c-0.4,0.2-0.5,0.5-0.5,0.9
		C148.1,119.5,148.1,119.8,148.1,120.1z M146,115.8c1.5,0.1,2.7-0.6,3.9-1.4c0.6-0.4,1.2-0.8,1.1-1.5c-0.1-0.8-0.9-1.1-1.6-1.4
		c-0.4-0.1-0.9-0.1-1.3,0c-1.8,0.3-3.2,1.7-3.6,3.6c-0.1,0.4,0.1,0.7,0.6,0.8C145.4,115.7,145.7,115.7,146,115.8z M109.4,107.4
		c-1.6,1.8-3.2,2.7-4.7,4.2c1.5,0,2.9-0.2,4.1,0.2C109.6,110.5,109.3,109.2,109.4,107.4z M143.4,81.8c-3,0.1-5.8,0.1-8.5,0.2
		c-0.3,0-0.5,0.2-0.5,0.6c0,0.3,0.1,0.6,0.5,0.6c0.1,0,0.1,0,0.2,0c2.3-0.2,4.6-0.4,6.9-0.6C142.4,82.6,142.9,82.6,143.4,81.8z
		 M74.7,73.8c-0.2,0-0.2,0.1-0.3,0.1c-0.2,0.2-0.3,0.3-0.4,0.5c-2,3.3-2.3,6.9-1.9,10.6c0,0.2,0.2,0.4,0.5,0.3
		c0.2-0.1,0.4-0.2,0.4-0.5c-0.1-0.7-0.3-1.5-0.3-2.2c-0.2-2.4,0.4-4.7,1.4-7C74.2,75.1,74.6,74.5,74.7,73.8z M53.8,123.1
		c-0.1-0.5-0.1-1-0.3-1.4c-0.1-0.2-0.5-0.3-0.8-0.3c-0.2,0-0.4,0.2-0.4,0.4c-0.1,0.6-0.3,1.3-0.4,1.9c0,0.3,0,0.7,0.2,0.8
		c0.2,0.2,0.5,0,0.7-0.2c0.2-0.2,0.4-0.4,0.6-0.6C53.7,123.5,53.9,123.3,53.8,123.1z M83.1,140.2c-1.7-1.2-1.9-3.1-2.9-5
		c-0.1,2.1,0.7,3.5,1.4,4.9C81.9,140.7,82.4,140.5,83.1,140.2z M46.2,128.1c0.9,0.6,1.5,0.8,1.9,0.6c0.6-0.3,1.1,0.2,1.6,0.1
		c0.2-0.6,0.2-1.2,0.1-1.9C48.9,127.6,47.8,128,46.2,128.1z M114.7,81.4c0.4,0,0.6,0.1,0.9,0.1c0.2,0,0.5,0,0.6-0.2
		c0.2-0.6,0.3-1.2,0-1.7c-0.1-0.2-0.6-0.3-1-0.4c0,0-0.2,0.3-0.3,0.5C114.8,80.2,114.7,80.7,114.7,81.4z M63.2,115.8
		c-0.4,1.7-0.1,3.1-0.1,5C64.1,118.9,64,117.4,63.2,115.8z M48,135.4c0.7,0.1,1.4,0.1,2.1-0.1c-0.2-1.4-0.3-1.5-1.3-0.8
		C48.5,134.7,48.1,134.9,48,135.4z M54.3,126c0.1-0.1,0.3-0.2,0.2-0.3c0-0.3-0.1-0.7-0.2-1c-0.1-0.2-0.3-0.2-0.5-0.3
		c-0.1,0.2-0.2,0.4-0.2,0.6C53.8,125.4,53.9,125.8,54.3,126z M85,138.9c-0.1-0.2-0.2-0.3-0.3-0.4c-0.2-0.1-0.4-0.2-0.6,0
		c-0.2,0.3,0.1,0.4,0.3,0.4C84.5,139.1,84.8,139,85,138.9z M85.8,62.6c0.2-0.1,0.5-0.3,0.8-0.5c0.1-0.1,0.1-0.2,0.1-0.3
		c-0.1,0-0.3-0.1-0.4-0.1c-0.3,0.1-0.5,0.3-0.7,0.5C85.4,62.3,85.5,62.5,85.8,62.6z M72.8,87.9c0.3-0.1,0.5-0.3,0.5-0.6
		c0-0.1-0.1-0.3-0.2-0.3c-0.3-0.1-0.7,0.2-0.6,0.6C72.6,87.8,72.8,87.8,72.8,87.9z M81.7,142c0.7,0.3,1.3,0.4,2.2-0.2
		C83,141.8,82.4,141.6,81.7,142z M79.9,133.9c-0.2,0.3-0.2,0.5-0.1,0.8c0,0.1,0.1,0.2,0.1,0.2c0.3-0.2,0.3-0.5,0.2-0.8
		C80.1,134.1,80,134,79.9,133.9z M104.4,65.5c-0.1-0.3-0.3-0.5-0.6-0.6c0,0-0.1,0.1-0.1,0.2c-0.1,0.3,0,0.6,0.4,0.6
		C104.2,65.7,104.3,65.6,104.4,65.5z M90,141.5c-0.2-0.1-0.4-0.2-0.6-0.2c-0.2,0-0.4,0.2-0.5,0.2c0.1,0.1,0.2,0.2,0.3,0.2
		C89.5,141.8,89.7,141.7,90,141.5z M94.8,141.3c-0.1,0.1-0.4,0.1-0.5,0.2c-0.1,0.2,0.1,0.3,0.4,0.3c0.2,0,0.5-0.1,0.6-0.2
		C95.3,141.4,95,141.3,94.8,141.3z M105.6,66.2c0.2-0.1,0.4-0.1,0.4-0.2c0-0.2-0.2-0.3-0.4-0.3c-0.2,0-0.5,0-0.5,0.3
		C105.2,66,105.5,66.1,105.6,66.2z M55,126.9c-0.1-0.1-0.1-0.3-0.2-0.3c-0.2-0.1-0.3,0.1-0.3,0.3c0,0.1,0.1,0.2,0.2,0.3
		C54.9,127.1,54.9,127,55,126.9z M75.6,114c0-0.1-0.1-0.2-0.1-0.3c0,0-0.1,0.1-0.1,0.1c0,0.1,0,0.2,0,0.3
		C75.4,114.2,75.5,114.2,75.6,114z M46.4,117.2c0,0-0.1-0.1-0.1-0.1c-0.1,0-0.1,0.1-0.2,0.1c0.1,0,0.1,0.1,0.2,0.1
		C46.3,117.3,46.3,117.2,46.4,117.2z M45,120.4l-0.2-0.1l0,0.1L45,120.4z M44.1,120.9c0,0-0.1-0.1-0.1-0.1c0,0-0.1,0.1-0.1,0.1
		c0,0,0.1,0.1,0.1,0.1C44,120.9,44.1,120.9,44.1,120.9z M43.1,121.4l0.1-0.1l-0.1,0L43.1,121.4z"/>
	<path class="st1" d="M169.9,120.9c0.9-0.2,1.9-0.5,2.9-0.3c0.8,0.2,1.1,0.8,0.7,1.5c-0.4,0.8-1.1,1.3-1.7,1.7
		c-1.7,1.3-3.5,2.6-5.2,3.9c-1.1,0.9-2.3,1.7-3.2,2.9c-0.4,0.5-0.8,1.1-0.9,1.8c-0.8,4.2-1.7,8.4-2.5,12.5c-0.1,0.6-0.1,1.2-0.2,1.6
		c0.6,0.4,1,0.2,1.4,0.2c0.5,0,1,0,1.5,0.4c1,0.8,2.3,1.1,3.6,0.9c2.1-0.3,4.1-0.5,6.2-0.3c1.1,0.1,2.2,0,3.3-0.3
		c1.8-0.4,3.6,0.2,5.3,0.6c0.4,0.1,0.7,0.5,0.6,1.1c-0.1,0.5-0.5,0.8-1,0.8c-1.9-0.1-3.9,0.3-5.6-1c-0.6-0.4-1.3-0.4-1.9-0.3
		c-2.9,0.3-5.8,0.5-8.7,0.8c-1.2,0.1-2.5,0.7-3.5-0.5c-0.2-0.3-0.9-0.1-1.2,0.3c-0.2,0.3-0.2,0.6-0.4,0.8c-0.3,0.4-0.8,0.7-1.1,0.2
		c-0.6-0.9-1.4-0.7-2.2-0.5c-0.8,0.2-1.6,0.4-2.4,0.6c-1.8,0.4-2.1,0.2-2.7-1.6c-1.4,0.4-2.7,0.7-4.1,1.1c-0.7,0.2-1.4,0.2-1.6-0.8
		c0-0.2-0.2-0.5-0.5-0.3c-1.1,0.5-2.4-0.5-3.4,0.5c-0.2,0.2-0.5-0.2-0.7-0.3c-1.3-0.3-2.6-0.7-3.5,0.8c-0.3,0.5-1.6,0.6-2,0.2
		c-0.1-0.1-0.2-0.4-0.2-0.6c0.1-0.5-0.1-0.6-0.6-0.6c-0.4,0-0.9,0.1-1.3,0.1c-0.4,0-0.9-0.1-1-0.4c-0.3-1.1-1-0.8-1.7-0.7
		c-0.5,0.1-1,0.2-1.6,0.2c-0.9,0-1.9,0.5-2.5-0.7c-0.2-0.4-0.8-0.1-1.3,0c-0.9,0.1-1.7,0.6-2.6,0.4c-0.1,0-0.3-0.2-0.3-0.3
		c0-0.1,0.1-0.3,0.2-0.3c0.9-0.5,1.8-0.6,2.8-0.7c2.1-0.3,4.2-0.4,6.3-0.6c0.2,0,0.5,0,0.6,0.2c0.3,0.9,1,0.7,1.7,0.6
		c0.8-0.1,1.6-0.4,2.2,0.5c0.2,0.3,0.7,0.2,1.1,0.2c1.4,0,2.8-0.1,4.3,0.1c1,0.1,1.9-0.3,2.8-0.6c0.3-0.1,0.6-0.4,0.8,0
		c0.4,1.1,1.2,0.8,2,0.6c1.2-0.2,2.4-0.4,3.5-0.7c1.2-0.2,2.3-0.4,3.5-0.2c1.1,0.1,2.2-0.2,3.3-0.3c0.3,0,0.5-0.3,0.6-0.6
		c0.2-0.6,0.4-1.3,0.6-1.9c0.7-3.1,1.3-6.3,2-9.4c0.2-0.9,0.5-1.9,0.4-2.9c0-0.3,0.1-0.6,0.2-0.9c1-2.3,1.1-4.8,1.5-7.2
		c0.2-1.4,0.3-2.8,0.4-4.2c0.2-1.7,0-3.2-1.6-4.1c-1-1.3-2.1-2.6-3.1-3.8c-0.8-1-1.7-1.9-2.8-2.5c-0.3-0.2-0.5-0.5-0.4-0.9
		c0.1-0.4,0.4-0.6,0.8-0.7c0.4-0.1,0.9-0.1,1.3,0.1c0.3,0.1,0.6,0.4,1.1,0.2c0.4-0.4,0.1-0.9-0.1-1.2c-0.8-1.2-1-2.6-1.5-4
		c-0.2-0.5-0.2-1.1,0.3-1.4c0.5-0.4,1-0.2,1.4,0.1c0.2,0.1,0.4,0.3,0.7,0.5c0.4-1.1,0.9-2.2,1.3-3.3c0.1-0.2,0.3-0.4,0.4-0.4
		c0.2,0,0.4,0.2,0.5,0.3c0.7,1.1,1.1,2.3,1.3,3.5c0.8,3.9,1.3,7.8,1.7,11.8c0,0.6,0,1.2,0.1,1.8c0.1,0.5-0.2,1,0.5,1.5
		c-0.2-1.3,0.7-2.3,0.4-3.6c0.2-2.7,0.4-5.4,0.6-8.1c0.1-1.7-0.1-3.2-1.5-4.5c-1-0.9-1.1-2.3-1-3.6c0-0.4,0.2-0.7,0.7-0.8
		c0.2,0,0.3,0,0.5,0c0.1,0.2,0.2,0.4,0.5,0.4c0.1,0.9,0.5,1.7,1.2,2.5c0.1-1.3,0.3-2.4-1.3-2.5c0-0.3-0.2-0.4-0.4-0.5
		c0-0.3-0.1-0.4-0.4-0.5c-1.7-1.6-3.3-3.1-5-4.7c-0.5-0.5-0.9-0.9-1.3-1.5c-0.3-0.6,0-1,0.7-1.1c0.8,0.4,1.4,1.2,2,1.8
		c0.5,0.4,0.9,1,1.6,1.1c0.1,0.1,0.3,0.3,0.3,0.3c0.3-0.2,0.1-0.3-0.1-0.4c-0.7-1.8-1.8-3.3-2.8-4.9c-0.1-0.4-0.2-0.7-0.3-1.1
		c-0.3-0.8-0.4-1.5,0.6-1.8c0.4-0.1,0.4-0.4,0.2-0.7c-0.5-0.9-1.1-1.8-1.7-2.7c-0.4-0.7-0.7-1.5-1-2.2c-0.2-0.4-0.1-0.9,0.4-1.2
		c0.4-0.2,0.7-0.1,1,0.1c0.6,0.3,1,0.9,1.5,1.5c0.4-0.6,0.2-1.1,0.1-1.5c-0.2-0.7-0.4-1.3-0.3-2c0.1-1.1,0.8-1.6,1.8-1.4
		c0.5,0.1,0.9,0.4,1.5,0.6c0.4-0.8,0.2-1.6,0.3-2.4c0.1-1.1,1-2.2,2-2.3c0.2,0,0.5,0.2,0.5,0.4c0.3,1.2,0.6,2.5,0.6,3.8
		c0,1.8,0.1,3.6,0.1,5.4c0,0.3,0,0.6,0.3,0.8c0.3,0.2,0.5-0.1,0.7-0.3c0.4-0.4,0.8-0.9,1.2-1.3c0.5-0.5,1.2-0.2,1.3,0.6
		c0.2,1.1,0.1,2.2-0.2,3.3c-0.4,1.5-0.9,3-1.5,4.5c-0.4,0.9-0.7,1.8-0.9,2.8c-0.1,0.3,0.1,0.6,0.4,0.7c0.3,0.1,0.4-0.1,0.5-0.3
		c0.5-0.5,0.9-1.1,1.4-1.5c0.4-0.4,1-0.7,1.5-1c1.2-0.5,1.9,0,2,1.2c0,0.2,0,0.5,0,0.7c-0.1,0.8-0.3,1.6,0.6,2.2
		c0.3,0.2,0.3,0.7,0.3,1c0,1,0,2.1-0.4,3.1c-1,3.1-2.4,6-4.5,8.4c-0.7,0.9-1,1.7-1,2.8c0,3.3-0.3,6.6-0.7,9.8
		c-0.1,0.4-0.2,0.9,0,1.3c0.7-0.1,0.8-0.6,0.8-1.1c-0.1-1.5,0.1-3,0.4-4.5c0.3-1.3,0.8-2.6,1.6-3.7c0.3-0.4,0.7-0.8,1.1-1.1
		c0.8-0.6,1.6-0.5,2.4,0.3c0.2,0.3,0.4,0.6,0.6,1c0.8-0.5,1.2-1.2,1.6-2c0.9-1.9,2.6-2.8,4.2-3.9c0.7-0.5,1.5,0,1.6,0.9
		c0.1,0.8-0.4,1.4-0.5,2.2c-0.1,0.3,0.1,0.7,0.4,0.5c1.5-0.6,3.3-0.4,4.7-1.3c0.2-0.2,0.6-0.2,0.9-0.2c0.3-0.1,0.6,0,0.8,0.3
		c0.2,0.3,0.2,0.6,0,0.9c-0.2,0.4-0.5,0.7-0.8,1c-0.7,0.7-1.4,1.3-2.2,2.1c1.1,0.5,2.1,0.1,3,0.1c0.2,0,0.5,0.1,0.5,0.3
		c0.1,0.2,0,0.5-0.2,0.6c-0.5,0.3-1.1,0.5-1.6,0.7c-3.3,1.3-6.4,2.9-9.5,4.5c-1.1,0.6-2,1.5-3.3,1.9c-0.6,0.2-0.7,0.9-1,1.4
		c-0.2,0.5-0.6,1-1.2,0.8c-1.4-0.5-1.9,0.3-2.4,1.3c-0.1,0.2-0.2,0.4-0.2,0.5C169.5,121.2,169.7,121,169.9,120.9z M166.1,125.6
		c0.1,0,0.2-0.1,0.3-0.1c-0.1-0.1-0.1-0.1-0.2-0.2C166.3,125.4,166.2,125.5,166.1,125.6c-0.2,0.1-0.5,0.1-0.2,0.3
		C166,125.8,166.1,125.7,166.1,125.6z M167.5,124.7c0.3,0,0.4-0.2,0.4-0.5c0.2-0.1,0.5,0,0.2-0.3c-0.1,0.1-0.2,0.2-0.2,0.3
		C167.6,124.2,167.5,124.3,167.5,124.7c-0.2,0-0.6,0-0.3,0.3C167.3,124.9,167.4,124.8,167.5,124.7z M161.2,112.5
		c0-0.1,0-0.1-0.1-0.2c0,0-0.1,0-0.1-0.1C161.1,112.4,161.1,112.4,161.2,112.5c0.4,0.6,0.8,1.3,1.7,1.6c0-1.4,0-1.4-1-1.5
		C161.6,112.5,161.4,112.5,161.2,112.5z M162.1,76.5c0-0.1,0-0.3,0-0.4c0-0.1-0.1-0.1-0.2-0.2c0,0.1-0.1,0.3,0,0.4
		C161.8,76.4,162,76.4,162.1,76.5c-0.1,1.7,0.6,3.1,1.9,4.8C163.6,79.3,163.2,77.8,162.1,76.5z M176,111.6c0.5,0,0.8-0.3,1-0.8
		c0.5-1,1-2,1.5-3c0.1-0.3,0.4-0.6-0.2-1c-0.7,1.2-1.5,2.4-2.2,3.7C176,110.8,176.1,111.2,176,111.6c-0.3,0-0.5,0.1-0.2,0.3
		C175.9,111.9,176,111.7,176,111.6z M168.5,102.1c2.1-2.3,3.3-4.9,4.2-7.7c0.3-0.8,0.4-1.7,0.1-2.5c-0.9,0.4-1.2,1.1-1.5,1.8
		c-0.8,1.5-1.4,3-2.2,4.4C168.4,99.3,168.2,100.6,168.5,102.1z M169.8,116.3c0.3-0.1,0.4-0.1,0.4-0.1c2.4-1.9,3-4.5,2.5-7.4
		c-0.1-0.4-0.4-0.4-0.7-0.2c-0.5,0.3-0.8,0.8-1.1,1.4C169.9,112,169.6,114,169.8,116.3z M167.9,96c0.1,0,0.2,0,0.4,0
		c1-1.9,2.1-3.8,3.1-5.7c0.3-0.5,0.6-1,0.6-1.7c0-0.3,0-0.6-0.3-0.7c-0.2,0-0.5,0-0.6,0.2c-1.9,1.7-3.4,3.6-3.2,6.3
		C168,94.9,167.9,95.5,167.9,96z M169.2,78.7c-1.1,1.8-1.6,3.4-2.1,5c0,0.1,0.1,0.3,0.2,0.3c0.1,0,0.3,0,0.4-0.1
		C168.5,82.4,169.2,80.8,169.2,78.7z M165.4,80.1c0.1,0,0.1,0,0.2,0c0-2.6,0-5.1,0-7.7c-0.1,0-0.1,0-0.2,0
		C165.4,75,165.4,77.6,165.4,80.1z M130.2,146.9c-0.8-0.2-1.6-0.3-2.7,0.1C128.6,147.2,129.4,147.2,130.2,146.9z M164.3,82
		c0-0.1-0.1-0.2-0.1-0.3c0,0-0.1,0.1-0.1,0.1c0,0.1,0,0.2,0,0.3C164.1,82.2,164.2,82.1,164.3,82z M169.1,123.5l-0.1-0.1l0,0.1
		L169.1,123.5z"/>
	<path class="st2" d="M162,91c-0.7-0.1-1.1-0.7-1.6-1.1c-0.7-0.6-1.2-1.3-2-1.8c0-0.9-0.1-1.8,1-2.2c1,1.6,2.1,3.2,2.8,4.9
		C162.1,90.9,162.1,90.9,162,91z"/>
	<path class="st2" d="M161.3,114.7c1.6,0.9,1.8,2.5,1.6,4.1c-1.1-0.3-1.6-1-1.6-2.1C161.3,116.1,161.3,115.4,161.3,114.7z"/>
	<path class="st2" d="M53,141.4c0,0.2,0,0.5,0,0.7c-1,0.2-2,0.4-3,0.5c-0.3,0.1-0.7,0.1-0.7-0.2c-0.1-0.3,0.2-0.6,0.5-0.6
		C50.9,141.7,51.9,141.2,53,141.4z"/>
	<path class="st1" d="M111.4,145c-0.3,0-0.6,0-0.9-0.1c-0.2-0.1-0.4-0.2-0.4-0.5c0-0.2,0.2-0.4,0.4-0.4c0.5,0,1,0,1.5,0.1
		c0.2,0,0.4,0.2,0.4,0.4c0,0.2-0.2,0.4-0.4,0.4C111.8,145,111.6,145,111.4,145z"/>
	<path class="st1" d="M107.6,143.3c-0.4,0-0.5,0-0.7-0.1c-0.8-0.1-1.2-0.3-0.9-0.6c0.3-0.4,0.8-0.4,1.2-0.3c0.3,0,0.5,0.2,0.8,0.4
		c0.1,0.1,0.2,0.3,0.1,0.3c-0.1,0.1-0.2,0.2-0.3,0.2C107.7,143.3,107.6,143.3,107.6,143.3z"/>
	<path class="st2" d="M165.2,112.7c0.2,1.2-0.6,2.2-0.4,3.6c-0.7-0.5-0.4-1.1-0.5-1.5c-0.1-0.6,0-1.2-0.1-1.8
		C164.7,113.3,164.9,112.9,165.2,112.7z"/>
	<path class="st2" d="M54.7,141.9c0.2-0.1,0.4-0.1,0.6-0.2c0.2,0,0.4,0,0.7,0.1c0.1,0.5-0.3,0.4-0.5,0.5c-0.3,0.1-0.5,0.2-0.8,0.3
		C54.7,142.4,54.7,142.1,54.7,141.9z"/>
	<path class="st2" d="M164.3,95.9c-0.2,0-0.3,0-0.5,0c0-0.2,0-0.3,0-0.5C164.2,95.4,164.4,95.6,164.3,95.9L164.3,95.9z"/>
	<path class="st2" d="M92.7,142.1L92.7,142.1c0,0.1,0.1,0.2,0.1,0.2c0,0.1-0.1,0.2-0.2,0.2C92.7,142.4,92.7,142.3,92.7,142.1z"/>
	<path class="st2" d="M75.1,114.7c0.7,2.4,0.7,2.6,3.2,2.1c0.2,0,0.4-0.1,0.6-0.1c0.5,0.3,0.2,0.6,0.2,1c-0.4,2-0.2,4-0.2,6
		c0,1.1,0.2,2.2-0.6,3.2c-0.2,0.3-0.2,0.9-0.3,1.3c-0.1,1-0.1,1.9-0.4,2.9c-0.3,0.9,0.5,1.8,0.4,2.8c-0.1,1.5-0.1,3,0.4,4.4
		c0.2,0.6,0,1.2-1.1,1.2c-2,0.1-4,0.6-5.8,1.6c-0.5,0.3-1,0.7-1.5,1c-0.6,0.5-0.8,1.1-0.6,1.8c0.2,0.8,0.9,0.9,1.6,1
		c1.8,0.1,3.6-0.2,5.3-0.9c2.4-1,4.7-0.7,6.9,0.3c0.8,0.4,1.7,0.7,2.5,1.1c0.4,0.2,0.4,0.9,0,1.1c-0.3,0.2-0.5,0.3-0.8,0.4
		c-2.7,1.3-4.9,3.2-6.6,5.7c-0.4,0.6-0.9,0.9-1.7,0.9c-1.5-0.1-3-0.1-4.4-0.6c-4.7-1.5-8.3-4.4-9.8-9.3c-0.4-1.4-0.4-2.8-0.5-4.2
		c-0.2-2.1-0.3-4.3,0.1-6.5c0.1-0.7,0.1-1.5,0.1-2.2c0-0.7,0.1-1.3,0.3-2c0.4-1.2,1.1-1.2,1.7-0.3c0.4,0.6,1.1,1,1.7,1.5
		c1.6,1.4,3.2,2.7,4.1,4.7c0.3,0.6,0.3,1.1,0,1.7c-0.7,1-1.1,2.3-2.6,2.5c-0.4,0.1-0.6,0.6-0.6,1.1c0,0.4,0.2,0.8,0.6,0.8
		c0.4,0.1,0.9,0.1,1.3,0c2.5-0.9,4.5-2.4,5.2-5.1c0.3-1,0.2-1.9-0.1-2.9c-0.5-1.5-1-3-1.6-4.4c-0.9-1.9-0.9-3.9-0.3-5.9
		c0.7-2.4,1.6-4.8,2.8-7.1C74.6,115.2,74.8,115.1,75.1,114.7z"/>
	<path class="st2" d="M94.4,125c0-1,0.5-1.9,0.7-2.8c0.6-1.9,1-3.7,0.3-5.8c1.2-0.2,2.1-0.8,3.1-1.2c1.4-0.6,2.9-1.1,4.5-1.3
		c0.7-0.1,1.3,0,2-0.3c0.5-0.2,1.1-0.1,1.5,0.2c1,0.9,2,0.1,3,0c0.4,0,0.6-0.4,0.7-0.8c0.6-2.2,0.9-4.4,1-6.6
		c-0.5-0.9,0-1.5,0.5-2.2c0.2-0.2,0.4-0.5,0.6-0.7c0.5-0.6,0.8-0.6,1.2,0c0.6,1,1,2,1.2,3.1c0.2,1,0.4,2.1,0.4,3.1
		c0,1.2,0.1,2.4,1.3,3.1c0.9,1.9,1.9,3.7,2.8,5.6c0.3,0.6,0.4,1.3-0.1,1.9c-0.1,0.2-0.3,0.5-0.2,0.6c0.6,1.3-0.4,1.9-1.1,2.6
		c-1.5,1.5-3.1,3.1-4.6,4.6c-0.3,0.3-0.5,0.7-0.8,1.1c-0.3,0.4-0.7,0.5-1.1,0.2c-0.6-0.5-1-1.1-1.1-1.9c-0.2-0.9-0.1-1.8-0.4-2.6
		c-0.4-1.3,0.2-2.3,1-3.3c0.8-1,1.6-2,2.4-3c0.3-0.4,0.5-0.8,0.6-1.2c0.1-0.2,0-0.4-0.1-0.6c-0.1-0.2-0.4-0.2-0.6-0.1
		c-1.5,0.9-3.1,1.6-3.9,3.2c-0.1,0.1-0.3,0.1-0.4,0.2c-0.2,0.1-0.4,0.2-0.2,0.5c0.1,0.1,0.3,0.1,0.3,0.1c0.2-0.1,0.3-0.2,0.5-0.4
		c0.3,0,0.8,0,0.6,0.2c-1.3,1.9-2.7,3.8-4.5,5.3c-0.1,0.1-0.3,0.1-0.4,0c-0.2-0.1-0.3-0.4-0.1-0.6c0.5-0.6,1-1.1,1.5-1.7
		c0.5-0.6,0.9-1.2,1.4-1.8c0.1-0.2,0.2-0.4,0-0.6c-0.2-0.2-0.4-0.1-0.6,0c-0.4,0.2-0.9,0.4-1.1,0.7c-0.9,1.2-2.2,2-3.2,3.1
		c-1.2,1.2-2.6,1.9-4.3,2.2c-0.7,0.1-1.3,0.2-2,0.4c-0.5,0.1-1.2,0.4-1.5,0c-0.5-0.6,0.4-1,0.6-1.5c0.1-0.3,0.2-0.5,0.3-0.8
		c-0.5-0.5-1-0.3-1.5-0.2C94.6,125.1,94.5,125,94.4,125z"/>
	<path class="st2" d="M118.9,127.8c0.5,0.4,0.3,0.7,0.1,1c-0.1,0.3,0,0.6,0.3,0.7c0.3,0.1,0.6,0.1,0.8-0.1c0.8-0.7,1.2-1.7,1.8-2.6
		c0.3-0.4,0.4-1,0.6-1.4c0.2-0.5,0.6-0.9,1.2-0.6c0.8,0.4,1.9-0.2,2.6,0.5c0.5,0.6,0.7,1.5,1.1,2.2c1.5,2.7,3.7,4.7,6.5,5.9
		c0.4,0.2,1,0.2,1.1,0.9c0.1,0.9-0.2,1-1.1,1.7c-1.4,1-2.9,0.9-4.4,0.9c-1.3,0-2.7,0-4-0.1c-1,0-1.9-0.2-2.4-1.3
		c-0.1-0.4-0.6-0.5-0.9-0.5c-0.7,0-1.4-0.1-2,0c-1.7,0.3-3.1-0.4-4.3-1.5c-0.9-0.9-1.7-1.8-2.7-2.8c0.2-0.5,0.7-0.1,1.1-0.3
		c0.4-0.2,0.8-0.3,1.2-0.6c0.4-0.2,0.8-0.4,1.2-0.7c0.4-0.2,0.7-0.5,1.1-0.7C118.2,128.3,118.6,128,118.9,127.8z"/>
	<path class="st2" d="M80.9,127.2c0.4-1.7,1.2-3,2.2-4.3c0.2-0.2,0.4-0.5,0.6-0.7c0.1-0.1,0.1-0.3,0-0.4c-0.1-0.2-0.4-0.3-0.6-0.1
		c-0.3,0.3-0.7,0.6-1,0.9c-0.3,0.3-0.4,0.8-1,1c-0.2-1,0.4-1.8,0.5-2.8c0-0.4,0.2-0.7,0-1.1c-0.1-0.2-0.3-0.3-0.5-0.4
		c-0.2-0.1-0.4,0.2-0.5,0.4c-0.2,0.9-0.4,1.9-0.8,2.8c-0.3-1.2-0.3-2.4-0.1-3.6c0.1-0.7,0.3-1.5,0.4-2.2c0.1-0.3,0.3-0.5,0.6-0.6
		c1-0.2,1.9-0.3,2.9-0.5c1.1-0.2,2.1,0.1,2.9,0.8c1.7,1.3,3.7,1.9,5.8,1.9c0.7,0,1.3-0.2,1.9-0.7c0.5,1.7-0.1,3.2-0.6,4.8
		c-0.4,1.2-1.2,2.2-1.8,3.3c-0.8,1.4-1.9,2.2-3.6,2.3c-2.2,0.1-4.4,0.8-6.8,0.5c0.9-1.3,1.7-2.4,2.4-3.6c0.3-0.5,0.6-1,0.9-1.6
		c0.2-0.3,0.2-0.8-0.2-1c-0.4-0.2-0.5,0.2-0.6,0.4C83.4,124.5,82.3,126,80.9,127.2z"/>
	<path class="st2" d="M60.5,105.4c-0.2-1.1-0.2-2.3-0.4-3.3c-0.3-1.3,0.2-2.7,0.6-3.9c0.9-2.5,2.3-4.7,4.1-6.6
		c1.2-1.3,2.8-2,4.3-2.8c0.5-0.2,0.8-0.1,1.1,0.4c0.7,1.2,1.3,2.5,1.8,3.9c0.2,0.6,0.1,1-0.5,1.3c-0.3,0.1-0.5,0.3-0.8,0.4
		c-2.5,1.2-4.2,3.3-6.2,5.1c-1,0.9-1.6,2.3-2.4,3.5C61.6,104,61.3,104.9,60.5,105.4z"/>
	<path class="st2" d="M87.1,112.7c-3.2,1.3-6.5,1.5-9.5,2.5c-0.6-0.5-0.4-0.9-0.2-1.2c0.5-1.3,0.9-2.7,1.4-4c0.6-1.5,1.3-3,1.5-4.7
		c0-0.3,0.3-0.5,0.5-1C82.6,107.6,84.4,110.6,87.1,112.7z"/>
	<path class="st2" d="M59,115.1c-0.8-1-1-2-1.2-2.9c-1-3.5-1-7.1-0.9-10.7c0.1-1.4,0.6-2.7,1.8-4c-0.2,1.5-0.5,2.7-0.5,3.8
		c-0.1,2.8,0.4,5.5,1.1,8.2c0.2,0.6,0.2,1.1,0.1,1.7C59,112.5,59.1,113.7,59,115.1z"/>
	<path class="st2" d="M109.4,107.4c-0.1,1.8,0.2,3.1-0.6,4.4c-1.2-0.5-2.5-0.2-4.1-0.2C106.2,110.1,107.8,109.2,109.4,107.4z"/>
	<path class="st2" d="M122.1,122.4c-0.2,0.4-0.4,0.8-0.7,1.1c-1.2,1.2-2.5,2.3-3.8,3.4c-0.3,0.2-0.6,0.3-1,0.5l-0.1-0.2
		c0-0.4,0.2-0.7,0.5-1c1-1,2-2,2.9-3C120.5,122.7,121.2,122.3,122.1,122.4L122.1,122.4z"/>
	<path class="st2" d="M130.6,129.6c-1.4-0.9-2.2-2.4-3-3.8c-0.2-0.4,0-0.7,0.4-0.9c0.2-0.1,0.5-0.2,0.6,0.1
		C129.3,126.5,130.4,127.9,130.6,129.6L130.6,129.6z"/>
	<path class="st2" d="M63.2,115.8c0.7,1.6,0.9,3.1-0.1,5C63.1,118.9,62.9,117.4,63.2,115.8z"/>
	<path class="st2" d="M59.9,94.5c0.2,1.1-0.6,1.7-1.1,2.5C58.7,96,59.1,95.1,59.9,94.5L59.9,94.5z"/>
	<path class="st2" d="M54.3,126c-0.4-0.2-0.6-0.6-0.6-1c0-0.2,0.1-0.4,0.2-0.6c0.2,0.1,0.4,0.2,0.5,0.3c0.1,0.3,0.2,0.7,0.2,1
		C54.6,125.8,54.4,125.9,54.3,126z"/>
	<path class="st2" d="M87,141.1c-0.1-0.2-0.1-0.4,0.1-0.6c0.6-0.4,1.1-0.1,1.9-0.2C88.3,141.1,87.6,140.9,87,141.1z"/>
	<path class="st2" d="M68.6,128c0.3,0,0.6,0,0.8,0c0.1,0.2,0.2,0.4,0.3,0.5c0,0.1,0,0.3-0.1,0.4c-0.2,0.2-0.4,0.1-0.6-0.1
		C68.9,128.6,68.7,128.3,68.6,128z"/>
	<path class="st2" d="M82.2,134.2l0.1,0c0.1,0.2,0.2,0.4,0.4,0.6c0.1,0.2,0.3,0.4,0,0.6c0,0-0.1,0.1-0.2,0c-0.2-0.1-0.4-0.3-0.4-0.5
		C82.1,134.6,82.1,134.4,82.2,134.2z"/>
	<path class="st2" d="M72.8,87.9c-0.1-0.1-0.2-0.2-0.2-0.3c-0.1-0.4,0.3-0.8,0.6-0.6c0.1,0,0.2,0.2,0.2,0.3
		C73.3,87.7,73.1,87.9,72.8,87.9z"/>
	<path class="st2" d="M81.7,142c0.7-0.4,1.3-0.2,2.2-0.2C83,142.4,82.4,142.4,81.7,142z"/>
	<path class="st2" d="M79.9,133.9c0.1,0.1,0.2,0.1,0.2,0.2c0.1,0.3,0.1,0.6-0.2,0.8c0,0-0.1-0.1-0.1-0.2
		C79.7,134.5,79.7,134.2,79.9,133.9z"/>
	<path class="st2" d="M104.4,65.5c-0.1,0.1-0.2,0.2-0.4,0.2c-0.4,0-0.5-0.2-0.4-0.6c0-0.1,0.1-0.2,0.1-0.2
		C104.1,65.1,104.3,65.2,104.4,65.5z"/>
	<path class="st2" d="M90,141.5c-0.2,0.2-0.5,0.3-0.8,0.3c-0.1,0-0.2-0.1-0.3-0.2c0.2-0.1,0.4-0.2,0.5-0.2
		C89.6,141.3,89.8,141.4,90,141.5z"/>
	<path class="st2" d="M94.8,141.3c0.3,0,0.5,0.1,0.4,0.3c-0.1,0.1-0.4,0.2-0.6,0.2c-0.2,0-0.4-0.1-0.4-0.3
		C94.4,141.4,94.6,141.3,94.8,141.3z"/>
	<path class="st2" d="M105.6,66.2c-0.1-0.1-0.5-0.2-0.5-0.3c0-0.2,0.3-0.3,0.5-0.3c0.2,0,0.4,0.1,0.4,0.3
		C106,66.1,105.8,66.1,105.6,66.2z"/>
	<path class="st2" d="M115.7,127.8c0.1-0.4,0.4-0.5,0.8-0.6l0.1,0.2C116.5,127.8,116.1,127.9,115.7,127.8L115.7,127.8z"/>
	<path class="st2" d="M55,126.9c-0.1,0.1-0.1,0.2-0.2,0.3c-0.1-0.1-0.2-0.2-0.2-0.3c-0.1-0.2,0-0.4,0.3-0.3
		C54.9,126.6,55,126.8,55,126.9z"/>
	<path class="st2" d="M94.2,125.6c-0.1,0.2-0.1,0.4-0.2,0.6c-0.1-0.1-0.2-0.1-0.2-0.2C93.8,125.8,93.9,125.6,94.2,125.6L94.2,125.6z
		"/>
	<path class="st2" d="M92.7,142.1c0.2-0.1,0.3-0.3,0.5-0.3c0.2-0.1,0.4,0,0.4,0.2c0,0.1-0.2,0.2-0.3,0.2c-0.1,0.1-0.3,0.1-0.4,0.1
		C92.8,142.2,92.8,142.2,92.7,142.1z"/>
	<path class="st2" d="M111.5,70.8L111.5,70.8c-0.1-0.1-0.2-0.2-0.4-0.3c0,0,0.1-0.1,0.1-0.1C111.5,70.4,111.6,70.6,111.5,70.8z"/>
	<path class="st2" d="M115.7,73.6c0.1,0.3,0.2,0.5-0.2,0.6c0,0-0.1-0.2-0.2-0.3C115.3,73.7,115.5,73.6,115.7,73.6z"/>
	<path class="st2" d="M46.4,119.7c0.1-0.5,0.5-0.4,0.9-0.5l0.1,0.1C47.2,119.7,46.8,119.7,46.4,119.7L46.4,119.7z"/>
	<path class="st2" d="M47.3,119.2c0.1-0.5,0.5-0.4,0.9-0.4l0,0C48.1,119.2,47.8,119.3,47.3,119.2L47.3,119.2z"/>
	<path class="st2" d="M45.1,117.9c-0.1,0.3-0.3,0.4-0.6,0.2c0,0,0-0.1,0-0.1C44.7,118,44.9,117.9,45.1,117.9L45.1,117.9z"/>
	<path class="st2" d="M47.3,116.5c0.2-0.4,0.5-0.4,0.9-0.5c0.1,0.1,0.1,0.1,0.2,0.2c-0.2,0.4-0.6,0.4-0.9,0.4L47.3,116.5z"/>
	<path class="st2" d="M48.9,116.1c-0.2,0.1-0.4,0.1-0.6,0.2c0-0.1-0.1-0.2-0.2-0.2c0.1-0.2,0.2-0.4,0.5-0.4
		C49,115.7,49,115.8,48.9,116.1z"/>
	<path class="st2" d="M75.6,114c-0.1,0.2-0.2,0.2-0.2,0.1c0-0.1,0-0.2,0-0.3c0,0,0.1-0.1,0.1-0.1C75.5,113.8,75.6,113.9,75.6,114z"
		/>
	<path class="st2" d="M47.4,116.6c-0.1,0.2-0.3,0.4-0.4,0.2c-0.2-0.2,0.1-0.3,0.3-0.4L47.4,116.6z"/>
	<path class="st2" d="M46.4,117.2c0,0-0.1,0.1-0.1,0.1c-0.1,0-0.2-0.1-0.2-0.1c0.1,0,0.1-0.1,0.2-0.1
		C46.3,117.1,46.3,117.2,46.4,117.2z"/>
	<path class="st2" d="M45,117.9c0.1-0.1,0.2-0.2,0.2-0.3c0.1,0.1,0.1,0.1,0.2,0.2C45.4,117.8,45.2,117.9,45,117.9L45,117.9z"/>
	<path class="st2" d="M60,94.5c0.1-0.1,0.2-0.1,0.2-0.2c0,0,0,0.1-0.1,0.1C60.1,94.5,60,94.5,60,94.5L60,94.5z"/>
	<path class="st2" d="M48.2,118.8c0.1-0.1,0.1-0.2,0.2-0.3C48.7,118.8,48.4,118.7,48.2,118.8L48.2,118.8z"/>
	<path class="st2" d="M46.5,119.7c-0.1,0.1-0.2,0.1-0.2,0.2C46.3,119.9,46.4,119.8,46.5,119.7L46.5,119.7z"/>
	<polygon class="st2" points="45,120.4 44.8,120.5 44.8,120.3 	"/>
	<path class="st2" d="M44.1,120.9c0,0-0.1,0.1-0.1,0.1c0,0-0.1-0.1-0.1-0.1c0,0,0.1-0.1,0.1-0.1C44,120.7,44.1,120.8,44.1,120.9z"/>
	<polygon class="st2" points="85.4,148.5 85.6,148.6 85.4,148.7 	"/>
	<path class="st2" d="M114.5,68.3l0.2,0c-0.1,0.1-0.2,0.2-0.2,0.3c-0.1,0-0.1-0.1-0.1-0.2L114.5,68.3z"/>
	<path class="st2" d="M114.3,68.5c-0.1-0.1-0.3-0.3-0.3-0.3c0.2-0.3,0.3,0,0.4,0.1L114.3,68.5z"/>
	<polygon class="st2" points="43.1,121.4 43,121.2 43.2,121.3 	"/>
	<path class="st2" d="M94.7,125.2c-0.1,0.2-0.2,0.4-0.5,0.4l0,0c0.1-0.2,0.2-0.4,0.3-0.6C94.5,125,94.6,125.1,94.7,125.2z"/>
	<path class="st2" d="M115.7,127.8c0,0.1-0.1,0.2-0.1,0.3C115.2,127.8,115.6,127.9,115.7,127.8L115.7,127.8z"/>
	<path class="st2" d="M130.6,129.6c0.1,0.1,0.2,0.1,0.2,0.2c0,0-0.1,0-0.1,0C130.6,129.7,130.6,129.7,130.6,129.6L130.6,129.6z"/>
	<path class="st2" d="M168.5,102.1c-0.3-1.6-0.1-2.8,0.5-4c0.8-1.4,1.5-3,2.2-4.4c0.3-0.6,0.6-1.4,1.5-1.8c0.3,0.9,0.2,1.7-0.1,2.5
		C171.8,97.2,170.6,99.8,168.5,102.1z"/>
	<path class="st2" d="M169.8,116.3c-0.2-2.3,0.2-4.4,1.2-6.3c0.3-0.5,0.6-1,1.1-1.4c0.3-0.2,0.6-0.2,0.7,0.2
		c0.5,2.9-0.2,5.4-2.5,7.4C170.2,116.3,170.1,116.3,169.8,116.3z"/>
	<path class="st2" d="M167.9,96c0-0.5,0-1,0-1.6c-0.2-2.8,1.2-4.7,3.2-6.3c0.1-0.1,0.4-0.2,0.6-0.2c0.4,0.1,0.3,0.4,0.3,0.7
		c0,0.6-0.3,1.2-0.6,1.7c-1,1.9-2.1,3.8-3.1,5.7C168.2,96,168.1,96,167.9,96z"/>
	<path class="st2" d="M176,111.6c0.1-0.4,0-0.8,0.2-1.1c0.7-1.2,1.4-2.4,2.2-3.7c0.6,0.4,0.3,0.7,0.2,1c-0.5,1-1,2-1.5,3
		C176.8,111.3,176.6,111.6,176,111.6L176,111.6z"/>
	<path class="st2" d="M169.2,78.7c0,2.1-0.7,3.7-1.5,5.2c0,0.1-0.3,0.2-0.4,0.1c-0.1,0-0.2-0.2-0.2-0.3
		C167.6,82.1,168.1,80.5,169.2,78.7z"/>
	<path class="st2" d="M165.4,80.1c0-2.6,0-5.1,0-7.7c0.1,0,0.1,0,0.2,0c0,2.6,0,5.1,0,7.7C165.5,80.1,165.4,80.1,165.4,80.1z"/>
	<path class="st2" d="M162.1,76.5c1.1,1.2,1.5,2.7,1.9,4.8C162.6,79.6,162,78.2,162.1,76.5L162.1,76.5z"/>
	<path class="st2" d="M164.8,96.3c1.5,0.2,1.3,1.3,1.3,2.5C165.3,98,164.9,97.2,164.8,96.3L164.8,96.3z"/>
	<path class="st2" d="M161.2,112.5c0.2,0,0.4,0,0.7,0c1,0.1,1,0.1,1,1.5C162,113.8,161.6,113.2,161.2,112.5L161.2,112.5z"/>
	<path class="st2" d="M130.2,146.9c-0.8,0.3-1.6,0.3-2.7,0.1C128.6,146.6,129.4,146.8,130.2,146.9z"/>
	<path class="st2" d="M162.1,76.5c-0.1-0.1-0.3-0.1-0.3-0.2c0-0.1,0-0.2,0-0.4c0.1,0.1,0.2,0.1,0.2,0.2
		C162.1,76.2,162.1,76.4,162.1,76.5L162.1,76.5z"/>
	<path class="st2" d="M164.3,82c-0.1,0.2-0.2,0.2-0.2,0.1c0-0.1,0-0.2,0-0.3c0,0,0.1-0.1,0.1-0.1C164.2,81.7,164.2,81.9,164.3,82z"
		/>
	<path class="st2" d="M161.2,112.5c-0.1-0.1-0.1-0.1-0.2-0.2c0,0,0.1,0,0.1,0.1C161.1,112.4,161.2,112.5,161.2,112.5L161.2,112.5z"
		/>
	<path class="st2" d="M176,111.6c-0.1,0.1-0.2,0.2-0.2,0.3C175.6,111.7,175.8,111.6,176,111.6L176,111.6z"/>
	<path class="st2" d="M164.3,95.9c0.3,0,0.4,0.2,0.4,0.5l0,0C164.6,96.2,164.4,96.1,164.3,95.9L164.3,95.9z"/>
	<path class="st2" d="M162.2,90.8c0.2,0.1,0.4,0.2,0.1,0.4c0,0-0.2-0.2-0.3-0.3C162.1,90.9,162.1,90.9,162.2,90.8z"/>
	<polygon class="st2" points="169.1,123.5 169,123.6 169,123.5 	"/>
	<path class="st2" d="M167.9,124.2c0.1-0.1,0.2-0.2,0.2-0.3C168.5,124.2,168.1,124.2,167.9,124.2
		C167.9,124.2,167.9,124.2,167.9,124.2z"/>
	<path class="st2" d="M167.4,124.6c0-0.3,0.2-0.4,0.5-0.4c0,0,0,0,0,0C167.9,124.5,167.8,124.6,167.4,124.6L167.4,124.6z"/>
	<path class="st2" d="M167.5,124.7c-0.1,0.1-0.2,0.2-0.3,0.3C166.9,124.7,167.3,124.7,167.5,124.7L167.5,124.7z"/>
	<path class="st2" d="M166.1,125.6c0.1-0.1,0.1-0.2,0.2-0.3c0.1,0.1,0.1,0.1,0.2,0.2C166.4,125.5,166.3,125.5,166.1,125.6
		L166.1,125.6z"/>
	<path class="st2" d="M166.1,125.6c-0.1,0.1-0.1,0.2-0.2,0.3C165.6,125.6,166,125.6,166.1,125.6L166.1,125.6z"/>
	<path class="st1" d="M91.7,104.6c-0.7,0.3-1.3,0.6-1.8,0.8c-0.4,0.1-0.8,0-1-0.4c-0.3-0.4-0.2-0.9,0.1-1.2c0.5-0.5,1-0.9,1.6-1.3
		c0.6-0.5,1.2-0.9,1.8-1.3c0.7-0.6,1.3-0.6,1.8-0.2c0.5,0.5,0.4,1.1,0,1.6c-0.1,0.2-0.2,0.4-0.2,0.6c0.9,0.7,2,0.9,3.1,1.1
		c0.4,0.1,0.9,0.2,1.3,0.4c0.6,0.4,0.9,1.2,0.6,1.8c-0.2,0.6-0.9,1.1-1.6,1c-0.4,0-0.7-0.1-1.1-0.3
		C94.8,106.5,93.1,105.9,91.7,104.6z"/>
	<path class="st1" d="M79,97.5c-0.1-0.2-0.2-0.3-0.4-0.5c-0.1-0.4-0.3-0.9-0.3-1.3c0-1.4-0.5-2.6-1.3-3.7c-0.2-0.2-0.3-0.5-0.5-0.8
		c-0.1-0.2-0.2-0.4,0-0.6c0.3-0.3,0.5-0.1,0.8,0c0.1,0,0.1,0.1,0.2,0.1c1.8,1.6,2.3,3.8,2.7,6c0.1,0.3-0.1,0.6-0.4,0.7
		C79.6,97.5,79.3,97.4,79,97.5z"/>
	<path class="st1" d="M109.6,120.3c-0.2,0.1-0.3,0.3-0.5,0.4c-0.1,0-0.3,0-0.3-0.1c-0.2-0.2,0-0.4,0.2-0.5c0.1-0.1,0.2-0.1,0.4-0.2
		C109.4,120.1,109.5,120.2,109.6,120.3z"/>
	<path class="st1" d="M97.7,89.2c0,1.1-0.8,2-1.9,2c-1,0-2.1-0.9-2.1-1.9c0-1.2,0.9-2.2,2.1-2.2C97,87.2,97.8,88,97.7,89.2z"/>
	<path class="st1" d="M116.5,91.5c-0.2,0-0.6-0.1-0.9-0.2c-0.5-0.2-0.8-0.6-0.9-1.2c-0.1-1,0.7-1.9,1.9-2c1-0.1,1.9,0.5,2.1,1.6
		C118.9,90.6,117.9,91.6,116.5,91.5z"/>
</g>
</svg>
