<?xml version="1.0" encoding="utf-8"?>
<!-- Generator: Adobe Illustrator 25.3.1, SVG Export Plug-In . SVG Version: 6.00 Build 0)  -->
<svg version="1.1" id="Layer_1" xmlns="http://www.w3.org/2000/svg" xmlns:xlink="http://www.w3.org/1999/xlink" x="0px" y="0px"
	 viewBox="0 0 225 225" style="enable-background:new 0 0 225 225;" xml:space="preserve">
<style type="text/css">
	.st0{fill:none;}
	.st1{fill:#333333;}
	.st2{fill:#00A196;}
</style>
<path class="st0" d="M0,0h225v225H0V0z"/>
<g>
	<path class="st1" d="M143.1,151.2c0.5,1.1,0.5,1.2-0.2,1.5c-0.6,0.2-1.2,0.4-1.3,1.2c-0.1,0.4-0.6,0.5-1.1,0.6
		c-1.6,0.1-3.3,0.4-4.9,0.4c-11.8,0-23.6,0-35.4,0c-5.1,0-10.1,0.3-15.2,0.8c-1.3,0.1-2.6,0.1-3.9,0.1c-0.9,0-1.7,0-2.1-1.1
		c-0.1-0.1-0.3-0.2-0.5-0.3c-0.7-0.2-1.1-0.7-1-1.5c0.1-0.7-0.3-0.6-0.8-0.5c-1.7,0.4-3-0.2-3.6-1.7c-0.2-0.5-0.3-1-0.4-1.4
		c-0.4-1.6,0-3,1.4-4c0.7-0.5,1.3-1.1,2-1.6c-0.1-0.6-0.7-0.5-1-0.6c-0.5-0.3-1-0.6-1.2-1.2c-0.2-0.5-0.6-1-0.9-1.4
		c-1.2-1.5-1.2-3.2,0-4.7c0.6-0.8,1.4-1.4,2.1-2c0-0.8-0.6-0.7-0.9-1c-1-0.7-1.5-1.8-1.4-3c0.1-0.9,0-1.7-0.1-2.5
		c-0.2-1.4,0-2.7,1.2-3.7c0.1-0.1,0.2-0.4,0.3-0.5c-0.8-0.8-1.7-1.6-2.4-2.4c-0.3-0.3-0.6-0.7-0.6-1.1c-0.3-2-0.3-4,1.5-5.5
		c0.2-0.1,0.3-0.3,0.5-0.4c0.2-0.1,0.3-0.3,0.5-0.5c-1-1.4-1.6-2.8-1.1-4.6c0.1-0.3,0.1-0.6,0-0.8c-0.3-1.1,0-2,0.6-2.8
		c0.4-0.5,0.3-0.8-0.2-1.2c-0.7-0.5-0.8-1.3-0.8-2.1c0.1-1.8-0.1-3.7,1.3-5.3c0.2-0.2,0.2-0.5,0-0.8c-0.6-0.7-0.5-1.6-0.7-2.5
		c-0.4-1.9-0.4-3.7,0.8-5.3c0.3-0.4,0.3-0.7-0.1-1.1c-1.1-1-1-2.3-0.6-3.6c0.3-1.1,1-2.1,1.6-3c-0.7-0.6-1.5-0.9-1.8-1.8
		c-1.3-3.4-0.4-5.2,2.1-6.8c0.3-0.2,0.6-0.4,0.9-0.5c0.5-0.3,1.2-0.3,1.3-1c0-0.7-0.2-1.4-0.9-1.8c-0.2-0.1-0.4-0.2-0.5-0.4
		c-0.4-0.4-0.2-1,0.3-1.2c0.2-0.1,0.4-0.1,0.6-0.1c3.2,0.3,6.4-0.1,9.6-0.4c5.3-0.4,10.7-0.6,16-1c10.5-0.7,21-0.8,31.5-0.6
		c2,0,4,0,6,0.3c2.2,0.4,4.4,0.3,6.6,0.8c0.5,0.1,1.1,0,1.7,0c1,0,1.3,0.1,1.4,1.2c0.2,1.8,0.3,3.6,0.4,5.3
		c0.1,4.6,0.2,9.3,0.6,13.9c0.3,3.9,0.4,7.9,0.7,11.8c0.8,11.2,0.8,22.4,0.9,33.7c0,4.8-0.1,9.6-0.1,14.4c0,0.8,0.1,1.6,0.1,2.4
		c0,0.5-0.5,1-0.9,1c-0.5,0.1-0.8-0.8-1.2-0.5c-0.4,0.2-0.4,0.9-0.9,1.1c-0.9,0.4-1.8,0.4-2.7,0.4c-0.3,0-0.7,0-0.8,0.4
		c-0.3,1.1-1,0.4-1.6,0.3c-0.1-0.3-0.2-0.5-0.6-0.5c-0.3,0-0.4,0.2-0.4,0.4C142.6,151.1,142.8,151.2,143.1,151.2z M75.2,128.7
		c0.2,0,0.3-0.1,0.5-0.1c0.2,0.8-0.5,0.9-0.9,1.2c-0.5,0.3-0.4,0.7-0.3,1.1c0.2,0.4,0.4,0.7,0.9,0.8c0.6,0.1,1.1,0.1,1.7,0.2
		c0.2-1.5,0-3-0.1-4.4c0-0.4-0.3-0.3-0.6-0.2c-0.4,0.2-0.5,0.4-0.5,0.8c0,0.3,0,0.6-0.4,0.6c-0.1-0.1-0.2-0.2-0.3-0.3
		C75.3,128.5,75.3,128.6,75.2,128.7c0,0.1-0.1,0.1-0.2,0.1C75.1,128.7,75.2,128.7,75.2,128.7z M74.8,82.4c0.2-0.1,0.4-0.2,0.4-0.5
		c1.9-1.1,3.8-2.3,6-2.9c-2.7-0.4-4.7,0.6-6.2,2.7C74.7,81.9,74.6,82.1,74.8,82.4c-0.1-0.1-0.2-0.1-0.3,0.1c0,0,0,0.1,0.1,0.1
		C74.6,82.5,74.7,82.4,74.8,82.4z M74.5,97.3c-0.2,0.1-0.3,0.2-0.2,0.4c-0.1,0.1-0.2,0.2-0.2,0.2c0.2,0.3,0.3,0,0.4-0.1
		c0.3,0,0.6,0,0.7-0.4c0.1-0.1,0.2-0.2,0.3-0.3c1.1-0.6,2.3-1.2,3.4-1.8c1.1-0.6,2.4-0.4,3.8-1.6c-3.1,0.3-5.6,1-7.5,3.1
		C74.9,97,74.7,97.2,74.5,97.3z M77.6,139.5c-0.2-0.5,0-1-0.5-1.5c-0.8,0.4-1.3,1-1.8,1.7c-0.1,0.1,0,0.3,0,0.4
		c0.1,0.1,0.3,0.1,0.4,0.1c0.3-0.1,0.5-0.2,0.8-0.3c0,0.2,0.1,0.5,0.1,0.7c-0.3,0.3-0.7,0.4-1.1,0.5c-0.1,0-0.2,0.2-0.2,0.3
		c0,0.1,0.1,0.3,0.2,0.3c1.5,0.6,2,0.2,2-1.4c0-0.1,0-0.1,0-0.2C77.8,139.9,77.8,139.7,77.6,139.5z M81.5,154.1c0.1,0,0.1,0.1,0.2,0
		c0.3-0.1,0.1,0.2,0.1,0C81.8,153.9,81.6,154,81.5,154.1c0.1-0.1,0.3-0.4,0.1-0.5c-0.9-0.3-1-1.3-1.6-1.8c-0.4-0.4-0.5-0.8-0.5-1.3
		c0-1,0-2,0-3c0-0.3,0.2-0.8-0.4-1.1c-0.1,2.2-0.2,4.2,0.3,6.2c0.2,0.7,0.3,1.2,1.1,1.2C80.9,153.8,81.2,154,81.5,154.1z M80.9,71.5
		c0.1,0,0.3,0.1,0.4,0.1c0.3,0,0.6-0.1,0.6-0.4c0-0.4-0.3-0.4-0.6-0.4c-0.1,0-0.3,0.1-0.4,0.1c-1.5,0.3-3.1,0.5-4.5,1.2
		c-1.1,0.5-2.2,1.1-2.8,2.2c-0.2,0.3-0.7,0.6-0.1,1.1C75.6,73.4,77.9,71.7,80.9,71.5z M108.2,153.3c0.8,0.3,1.5,0.1,2.2-0.1
		C109.7,153.2,109,152.9,108.2,153.3c-7.4-0.5-14.7,0.1-22,0.9c0.9,0,1.8,0.1,2.8,0c1.8-0.1,3.5-0.3,5.3-0.4
		c1.8-0.1,3.6-0.3,5.3-0.4C102.5,153.4,105.4,153.4,108.2,153.3z M80.4,101.1c1.2,0.2,2.2-0.1,3.3,0.2c1.5,0.4,2.2,1.1,2.2,2.6
		c0,1.2-0.6,1.8-1.8,2c-0.6,0.1-1.3,0.1-1.9,0.2c-1.6,0.1-1.7,0.3-1.6,1.8c0.1,0.7-0.1,1.4,0.3,2.1c0.5,0.2,1-0.1,1.4-0.3
		c1.1-0.4,1.6-0.1,2,0.9c0.4,1,0.4,1.9-0.1,2.9c-1,2.1-1,2.1-3.4,1.7c-0.2,1.6-0.2,3.2,0.1,4.8c0.8,0.3,1.5-0.2,2.2-0.3
		c0.6-0.1,1.1,0,1.6,0.5c0.8,1,1,2.5,0.4,3.6c-0.4,0.8-1.2,1.2-1.9,1.7c-0.4,0.3-1,0.2-1.4,0c-0.4-0.2-0.8,0-0.8,0.4
		c0,1.5-0.2,3,0.2,4.4c0.7,0,1.1-0.5,1.7-0.6c0.8-0.2,1.7-0.3,2.4,0.5c0.6,0.7,0.8,1.5,0.4,2.4c-0.3,0.7-0.6,1.3-0.7,2
		c-0.1,0.5-0.5,0.8-0.9,1.2c-0.9,0.7-1.8,0.6-2.8,0c0,1.9,0,3.6,0,5.4c0.4,0,0.7,0,1.1,0c0.9,0.1,1.5,0.6,2.1,1.3
		c1.2,1.4,0,3.8-1.8,3.8c-0.4,0-0.8-0.3-1.3,0.1c-0.1,1.1,0,2.2,0.3,3.4c1-0.8,2.1-0.7,3.1-0.8c8.9-0.3,17.9-0.7,26.8-1
		c7.9-0.2,15.7-0.6,23.6-0.5c3.4,0,6.9,0,10.3-0.1c1.3,0,2.7,0,4,0.6c0.2-0.9,0.1-1.6,0.1-2.4c-0.2-2.6-0.4-5.3-0.6-7.9
		c-0.2-4.4-0.3-8.9-0.6-13.3c-0.4-8.7-0.6-17.4-0.6-26.2c0.1-8.7,0.3-17.5-0.1-26.2c0-0.4-0.1-0.9,0-1.3c0.3-1.3,0-2.5-0.1-3.9
		c-1.1-0.2-2.2-0.3-3.2-0.1c-0.8,0.1-1.4,0.6-2.2,0c-0.1-0.1-0.4-0.1-0.6,0.1c-0.7,0.9-1.8,0.8-2.8,0.8c-6.1,0-12.2,0.1-18.2,0
		c-10.7-0.1-21.3-0.2-32-0.1c-3.1,0.1-6.1,0.3-9.2,0.4c-0.5,0-0.7,0.4-0.5,0.9c0.1,0.3,0.3,0.4,0.6,0.4c1.3-0.1,2.6-0.2,3.8-0.2
		c0.9,0,1.3,0.3,1.7,1.3c0.3,0.9,0.2,1.8-0.4,2.1c-1.1,0.6-2.2,0.9-3.4,1.4c-0.1,0.1-0.4-0.2-0.6-0.2c-1.3-0.6-1.4-0.5-1.4,0.9
		c0,0.8,0,1.5,0,2.5c1.4-0.1,2.6,0,3.7-0.3c0.6-0.1,1.1,0.1,1.4,0.7c0.2,0.5,0.4,1.1,1,1.4c0.4,0.2,0.7,0.5,0.5,1
		c-0.2,0.5-0.1,1.2-0.8,1.4c-0.5,0.2-0.9,0.4-1.3,0.7c-0.4,0.2-0.8,0.2-1.2-0.1c-0.3-0.2-0.6-0.4-0.8-0.7c-0.5-0.7-1.2-0.4-1.8-0.2
		c-0.6,0.2-0.7,0.7-0.6,1.2c0,0.2,0,0.4,0,0.6c0,1.2,0.1,1.2,1.4,1.2c0.6,0,1.3-0.1,1.9-0.1c1.2-0.1,1.7,0.3,2,1.4
		c0.2,1-0.2,1.9-0.7,2.8c-0.1,0.3-0.4,0.4-0.7,0.3c-0.4-0.1-0.7-0.2-1-0.2c-2.1-0.1-2.6,0.5-2.5,2.6c0,0.3,0,0.7,0.3,1.1
		c0.9,0.1,1.7-0.3,2.6-0.4c1.4-0.2,1.8,0,2.3,1.2c0.3,0.7,0.4,1.4,0.3,2.1c-0.2,1.5-1.2,2.2-2.7,1.9c-0.4-0.1-0.8-0.4-1.2-0.4
		c-0.8-0.2-1.4,0.3-1.4,1.2C80.2,98.8,80.3,99.9,80.4,101.1z M83.4,153.1c2.3,0.1,4.7-0.1,7-0.3c6.1-0.5,12.2-1,18.4-1.3
		c7.9-0.3,15.9-0.4,23.8-0.2c2.4,0.1,4.7,0.1,7.1,0.2c0.7,0,1.3-0.5,1.2-0.9c-0.2-0.6-0.7-0.3-1.1-0.3c-0.3,0-0.6,0-0.9,0
		c-5.1,0.3-10.1,0.4-15.2,0.4c-13.1,0-26.1,0-39.2,0c-0.9,0-1.8,0-2.6-0.5c-0.5,2-0.5,2,1.3,2C84.2,152.2,83.1,152.7,83.4,153.1z
		 M81.6,133.2c-0.9-0.7-0.9-0.7-1.3-0.6c-2.4,0.8-4.6,2-6.3,3.8c-0.8,0.9-1,1.8-0.4,3C75.6,136.3,78.6,134.7,81.6,133.2z
		 M74.6,106.9c1.9-1.2,4-2.2,6.2-2.7c0.3-0.1,0.5-0.2,0.5-0.6c-0.1-0.4-0.1-0.7-0.6-0.8c-2.4-0.2-4.5,0.5-6.2,2.3
		C73.8,105.8,73.8,105.9,74.6,106.9z M73.5,91c0.3-0.2,0.5-0.3,0.6-0.4c2.2-1.9,4.5-3.6,7.5-4.1c0.2,0,0.4-0.2,0.4-0.4
		c0-0.3-0.2-0.4-0.4-0.4c-1.9-0.1-3.7-0.1-5.1,1.4c-0.1,0.1-0.3,0.2-0.5,0.3C74.3,87.9,73.7,89.3,73.5,91z M73.9,126.8
		c2.2-1.9,4.5-3.1,7.1-3.7c0.3-0.1,0.5-0.2,0.4-0.5c-0.1-0.3-0.3-0.5-0.6-0.5c-0.2,0-0.4,0.1-0.6,0.1c-1.8,0.3-3.4,1-4.9,2
		C74.5,124.6,73.7,125.2,73.9,126.8z M77.8,147.1c-0.9,0.2-1.4,0.6-1.9,1c-0.3,0.2-0.6,0.4-0.8,0.7c-0.7,0.8-0.6,1.5,0.2,2.2
		c0.7,0.5,1.3,0.4,2,0.1c0.6-0.3,0.5-0.8,0.5-1.3C77.8,149,77.8,148.2,77.8,147.1z M76.9,120.4c0-0.8,0-1.3,0-1.9
		c0-0.6,0.1-1.2-0.2-1.9c-1.3,0.4-1.9,1.5-2.6,2.3c-0.7,0.7,0,1.7,1,1.7C75.6,120.5,76.1,120.4,76.9,120.4z M76.7,107.8
		c-1.4,0.7-1.8,1-2.1,1.4c-0.4,0.6-0.4,1.2-0.2,1.8c0.2,0.5,0.7,0.3,1.1,0.3c0.1,0,0.3,0.1,0.4,0.1c0.6,0.1,0.8-0.2,0.8-0.7
		C76.7,109.9,76.7,109,76.7,107.8z M73.3,115.2c0.4,0.1,0.5,0.2,0.7,0.2c0.2,0,0.4,0,0.6-0.1c1.9-1.2,3.8-2.2,6-2.6
		c0.2,0,0.3-0.3,0.2-0.5c-0.1-0.2-0.3-0.3-0.5-0.3c-1.4,0.3-2.9,0.8-4.2,1.5C75.1,113.8,74.2,114.3,73.3,115.2z M73.9,77.3
		c0.2,0.3,0.5,0.3,0.8,0.3c0.4,0.1,0.3,0.3,0.2,0.6c-0.2,0.3-0.1,0.5,0.3,0.6c0.8,0.1,1.2-0.2,1.3-1c0-0.8,0-1.7,0-2.7
		C75.1,75.5,74.3,76.3,73.9,77.3z M76.4,98.7c-0.9,0.2-1.3,0.7-1.6,1.5c-0.2,0.7,0.1,1.1,0.4,1.6c0.2,0.4,0.6,0.4,0.9,0.3
		c0.3-0.1,0.4-0.3,0.5-0.6C76.5,100.6,76.6,99.6,76.4,98.7z M76.5,90.9c-1,0.7-1.6,1.3-2,2c-0.1,0.2-0.2,0.6,0,0.8
		c0.4,0.2,0.8,0.5,1.2,0.5c0.4,0,0.8-0.3,0.8-0.8C76.5,92.6,76.5,91.9,76.5,90.9z M78.4,83.2c0-0.2,0-0.6-0.1-0.9
		c0-0.1-0.2-0.2-0.3-0.2c-0.1,0-0.3,0.1-0.3,0.2c-0.4,0.7-0.2,1.5-0.1,2.2c0,0.1,0.2,0.2,0.3,0.2c0.1,0,0.3-0.1,0.3-0.2
		C78.5,84.2,78.4,83.7,78.4,83.2z M78.2,75.5c0-0.2-0.1-0.6-0.1-1.1c0-0.2-0.1-0.3-0.3-0.2c-0.1,0.1-0.3,0.1-0.3,0.2
		c-0.4,0.8-0.1,1.7-0.1,2.5c0,0.3-0.1,0.8,0.5,0.7c0.3,0,0.4-0.4,0.4-0.7C78.2,76.5,78.2,76.2,78.2,75.5z M78,93.1
		c0.7-1.1,0.5-2,0.3-2.9c0-0.1-0.3-0.1-0.3-0.1c-0.5,0.6-0.2,1.3-0.2,2C77.8,92.3,77.9,92.6,78,93.1z M79.3,137.1
		c-0.3,1.5-0.4,3.1-0.1,5c0.1-0.6,0.2-0.8,0.2-1C79.4,139.8,79.4,138.4,79.3,137.1z M78.8,131c0.4-1.6,0.3-3.1,0-4.7
		C78.5,127.9,78.6,129.4,78.8,131z M76.5,83.2c-0.9,0.4-1.2,0.8-1.3,1.3c-0.1,0.5,0.1,0.9,0.5,0.9c0.4,0,0.8,0,0.8-0.6
		C76.5,84.3,76.5,83.8,76.5,83.2z M78.4,97.7c-0.3,1.1-0.2,2.2,0,3.2C78.6,99.9,78.5,98.8,78.4,97.7z M83.4,131.7
		c0.2,0.1-0.3,0.5,0.2,0.5c0.1,0,0.3-0.3,0.4-0.4c0.1-0.1,0.1-0.3,0.1-0.4c0-0.2-0.2-0.4-0.4-0.4c-0.1,0-0.2,0.1-0.3,0.2
		C83.4,131.4,83.4,131.5,83.4,131.7z M82.7,154.7c0.7,0,1.4,0.5,2.1-0.2C84,154.3,83.4,154.3,82.7,154.7z M84.3,103.3
		c-0.1-0.1-0.2-0.2-0.3-0.2c-0.1,0.2-0.3,0.5-0.3,0.7c0,0.1,0.2,0.2,0.2,0.2C84.3,104,84.3,103.6,84.3,103.3z M72.2,118.4
		c0-0.3,0.1-0.6-0.3-0.6c0,0-0.2,0.2-0.2,0.3c0,0.3-0.2,0.7,0.3,0.8C72,118.9,72.2,118.5,72.2,118.4z M79.5,143.7
		c-0.1,0.1-0.1,0.1-0.2,0.2c0.1,0,0.2,0.1,0.3,0.1c0.1,0,0.1-0.1,0.2-0.2C79.7,143.8,79.6,143.8,79.5,143.7z M74.1,107.3
		c0-0.1-0.1-0.2-0.1-0.1c-0.1,0-0.2,0.1-0.3,0.1c0,0,0.1,0.1,0.1,0.1C73.9,107.4,74,107.4,74.1,107.3z M72.8,115.8
		c0,0-0.1,0.1-0.1,0.1c0,0,0.1,0.1,0.1,0.1c0,0,0.1-0.1,0.1-0.1C72.9,115.9,72.9,115.9,72.8,115.8z M80.5,143.6
		c0.1,0,0.1-0.1,0.2-0.1c0,0-0.1-0.1-0.1-0.1c0,0-0.1,0.1-0.2,0.1C80.4,143.5,80.5,143.5,80.5,143.6z M77.1,145.1l-0.1,0.1l0.1,0
		L77.1,145.1z M76.3,145.6l-0.1-0.1l0,0.1L76.3,145.6z"/>
	<path class="st1" d="M144.7,179.1c0,0.9,0,1.7-0.9,2.2c-0.7,0.3-1.5-0.1-2.2-1.2c-0.3-0.4-0.5-0.9-0.7-1.3
		c-1.4-3.1-2.6-6.3-3.6-9.6c-0.2-0.7-0.4-1.4-0.5-2.1c-0.1-0.4,0.2-0.8,0.6-1c0.5-0.2,0.9,0,1.1,0.4c1.7,2.8,3.8,5.5,5.2,8.6
		C144.3,176.3,144.8,177.7,144.7,179.1z M141.7,175.8c0-0.2,0-0.5-0.3-0.6c0,0-0.1,0.1-0.1,0.2C141.3,175.6,141.3,176,141.7,175.8
		c0,0.1,0,0.4,0,0.6c0,0.2,0.1,0.3,0.2,0.2c0.2,0,0.2-0.1,0.1-0.3C142,176.1,141.8,176,141.7,175.8z M142.4,177.8
		c0-0.1,0.1-0.2,0.1-0.4c0-0.1-0.1-0.1-0.2-0.2c0,0.1-0.1,0.2-0.1,0.3C142.2,177.7,142.3,177.7,142.4,177.8z"/>
	<path class="st1" d="M72,161.4c-0.1,0.6-0.4,1.2-0.7,1.7c-1,1.8-2.3,3.3-3.6,4.7c-0.7,0.8-1.5,1.5-2.3,2.2
		c-0.4,0.4-0.9,0.6-1.5,0.7c-1.1,0.1-1.7-0.8-1.3-1.8c0.2-0.4,0.4-0.8,0.6-1.1c1.5-2.1,2.9-4.2,4.4-6.3c0.5-0.6,1-1.2,1.6-1.7
		c0.7-0.6,1.1-0.5,1.8,0.1C71.5,160.4,72,160.8,72,161.4z"/>
	<path class="st1" d="M164.4,135.9c0.6-0.1,1.5,0.1,2.4,0.5c3.3,1.5,6.2,3.4,8.7,6.1c0.3,0.3,0.6,0.6,0.8,1c0.2,0.3,0.2,0.7-0.1,1
		c-0.3,0.3-0.6,0.4-1,0.3c-0.7-0.3-1.4-0.6-2.1-1c-2.1-1.3-4.1-2.6-6.1-3.9c-0.7-0.5-1.5-0.9-2.2-1.3c-0.4-0.2-0.8-0.3-1.4-0.1
		c-0.9,0.3-1.5-0.3-1.6-1.2c-0.1-0.7,0.3-1.3,1-1.3C163.2,135.9,163.7,135.9,164.4,135.9z"/>
	<path class="st1" d="M51.6,74.6c0,0,0.4,0,0.8,0.1c2.8,0.6,5.4,1.6,7.9,3.2c0.7,0.5,1.4,1,1.9,1.7c0.3,0.4,0.4,0.9,0,1.4
		c-0.3,0.4-0.8,0.5-1.1,0.4c-1.2-0.5-2.5-0.2-3.8-0.4c-2.9-0.3-5.5-1.4-7.7-3.3c-0.6-0.5-1.2-1.1-1-2c0.3-0.9,1.2-0.9,1.9-1.1
		C50.7,74.6,51,74.6,51.6,74.6z M50.7,76.4c0,0.4,0.3,0.5,0.5,0.7c1.9,1.4,4,2.1,6.2,2.6c0.2,0,0.4,0,0.6,0c0.1,0,0.3-0.1,0.3-0.2
		c0.1-0.2,0.1-0.5,0-0.6c-0.2-0.2-0.4-0.4-0.6-0.5c-1.6-0.8-3.2-1.4-4.9-1.9C52.1,76.3,51.4,76.2,50.7,76.4z"/>
	<path class="st1" d="M166.9,97.1c2.2-0.1,4.4,0.2,6.5,1c0.5,0.2,1.1,0.4,1.5,0.8c0.4,0.4,0.3,1.1-0.2,1.5c-0.5,0.4-1.1,0.4-1.6,0.4
		c-1.7,0.1-3.4,0-5.1-0.2c-1.4-0.2-2.8-0.5-4.2-0.5c-0.8,0-1.6-0.5-2.4-0.8c-0.5-0.2-0.5-0.9-0.1-1.3c0.6-0.4,1.3-0.7,2-0.7
		C164.5,97.3,165.7,97.2,166.9,97.1z M171,99.4c0.5,0.2,0.9,0.2,1.4,0c-0.4-0.4-0.8-0.7-1.4-0.6c-1.3-0.1-2.7-0.2-3.8-0.3
		c0.5,0.5,1.3,0.6,2.1,0.6C169.9,99.1,170.4,99.3,171,99.4z"/>
	<path class="st1" d="M96.7,181.8c0.3-3.1,0.5-6.3,0.8-9.5c0-0.4,0.1-0.7,0.2-1.1c0.3-1.1,1.4-1.6,2.5-1.1c0.5,0.3,0.7,0.8,0.6,1.3
		c-0.3,2.1-0.5,4.2-0.9,6.3c-0.3,1.4-0.7,2.8-1.1,4.1c-0.1,0.5-0.3,0.9-0.8,1.3c-0.2,0.2-0.5,0.3-0.8,0.2c-0.3-0.1-0.5-0.3-0.5-0.6
		C96.6,182.5,96.7,182.2,96.7,181.8z M98.6,172.3c-0.3,1.1-0.4,2.2,0,3.3C98.8,174.5,98.9,173.4,98.6,172.3z"/>
	<path class="st1" d="M81.2,53.7c0,1.2-1.1,1.8-2.1,1c-0.6-0.5-1.2-0.9-2-1.1c-0.4-0.1-0.7-0.4-1-0.8c-1.1-1.5-2-3.1-2.5-4.9
		c-0.2-0.6-0.2-1.1,0.3-1.6c0.4-0.4,1.1-0.4,1.8,0.1c1.2,0.9,2,2.1,2.8,3.2c0.5,0.8,0.9,1.7,2,2.1C81.2,52.1,81.2,53,81.2,53.7z"/>
	<path class="st1" d="M156.9,55.5c-0.1,1.1-1,1.5-1.7,2c-0.1,0.1-0.4,0-0.6-0.1c-0.1-0.1-0.2-0.4-0.2-0.6c0.1-0.4,0.2-0.8,0.4-1.2
		c1.6-2.8,3.7-5,6.3-6.8c0.6-0.4,1.2-0.8,1.9-0.9c0.4-0.1,0.9-0.1,1.2,0.3c0.3,0.4,0.2,0.8,0,1.2c-0.1,0.3-0.3,0.5-0.5,0.7
		c-1.4,1.7-3,3.2-4.7,4.7c-0.6,0.5-1.1,0.5-1.7,0.1c-0.2-0.1-0.5-0.2-0.7,0.1C156.6,55.1,156.8,55.3,156.9,55.5z M161.9,50.1
		c-0.5-0.4-0.7,0-0.9,0.4c-0.8,0.2-1.2,0.9-1.7,1.4c1.1-0.1,1.1-0.1,2-1.1C161.5,50.6,161.8,50.5,161.9,50.1
		c0.1-0.1,0.3-0.1,0.3-0.3c0,0-0.1-0.1-0.2-0.1C161.8,49.8,161.8,50,161.9,50.1z M158,53.5c0.2-0.1,0.4-0.2,0.4-0.4
		c0-0.2-0.2-0.3-0.2-0.2C158.1,53.1,158,53.3,158,53.5c-0.2,0-0.5,0-0.2,0.3C157.9,53.8,157.9,53.7,158,53.5z"/>
	<path class="st1" d="M104.8,41.6c0.5,0,0.8,0.3,1,0.6c0.4,0.8,0.6,1.6,0.7,2.4c0.2,1.4,0.2,2.8,0.6,4.2c0.2,0.5-0.1,0.9-0.5,1.1
		c-0.8,0.3-0.8,0.7-0.5,1.3c0.2,0.4,0.1,0.9,0.6,1.1c0.9,0.4,0.6,1.2,0.8,1.8c0,0.1-0.2,0.4-0.3,0.5c-0.2,0.2-0.4,0-0.6-0.1
		c-0.5-0.4-0.8-1-1-1.6c-1.2-2.9-1.9-5.8-2-8.9c0-0.6,0-1.3,0.3-1.9C104.1,41.8,104.4,41.6,104.8,41.6z M105,44.8
		c-0.1,0.1-0.2,0.2-0.2,0.3c0,0.3,0.1,0.5,0.1,0.8c0,0,0.1-0.1,0.1-0.1c0-0.3,0-0.5,0-0.8C105.1,44.9,105.1,44.9,105,44.8z"/>
	<path class="st1" d="M57.3,133.2c0.5,0,1-0.1,1.3,0.4c0.2,0.3-0.2,1.3-0.6,1.7c-0.3,0.2-0.6,0.4-0.9,0.5c-1.7,0.3-3.2,1.1-4.7,1.8
		c-0.5,0.2-0.9,0.4-1.4,0.5c-0.5,0.2-1.1,0.3-1.5-0.3c-0.3-0.4-0.1-0.9,0.6-1.4c1.2-0.8,2.4-1.5,3.6-2.2c0.5-0.3,1-0.5,1.6-0.7
		C55.9,133.3,56.6,133.2,57.3,133.2z"/>
	<path class="st2" d="M78.8,131c-0.3-1.6-0.3-3.1,0-4.7C79.1,127.9,79.2,129.4,78.8,131z"/>
	<path class="st2" d="M83.4,131.7c0-0.2,0-0.4,0.1-0.5c0-0.1,0.2-0.2,0.3-0.2c0.2,0,0.4,0.2,0.4,0.4c0,0.1,0,0.3-0.1,0.4
		c-0.1,0.2-0.3,0.4-0.4,0.4C83.2,132.3,83.6,131.8,83.4,131.7z"/>
	<path class="st2" d="M80.9,71.5c0-0.2,0-0.5,0-0.7c0.1,0,0.3-0.1,0.4-0.1c0.3,0,0.6,0,0.6,0.4c0,0.4-0.3,0.4-0.6,0.4
		C81.2,71.6,81.1,71.5,80.9,71.5z"/>
	<path class="st2" d="M82.7,154.7c0.7-0.4,1.3-0.3,2.1-0.2C84.1,155.1,83.4,154.6,82.7,154.7z"/>
	<path class="st2" d="M108.2,153.3L108.2,153.3c0.7-0.4,1.5-0.1,2.2-0.1C109.7,153.5,109,153.6,108.2,153.3z"/>
	<path class="st2" d="M76.5,139.9c0.3-0.4,0.6-0.6,1-0.4c0.2,0.2,0.2,0.4,0,0.7c-0.3,0.1-0.7,0.3-1,0.4
		C76.6,140.4,76.6,140.1,76.5,139.9z"/>
	<path class="st2" d="M72.2,118.4c-0.1,0.1-0.2,0.5-0.2,0.5c-0.4-0.1-0.3-0.5-0.3-0.8c0-0.1,0.1-0.3,0.2-0.3
		C72.3,117.8,72.2,118.1,72.2,118.4z"/>
	<path class="st2" d="M79.5,143.7c0.1,0,0.2,0.1,0.3,0.1c-0.1,0.1-0.1,0.2-0.2,0.2c-0.1,0-0.2-0.1-0.3-0.1
		C79.3,143.9,79.4,143.8,79.5,143.7z"/>
	<path class="st2" d="M75.1,97.5c-0.1,0.3-0.4,0.4-0.7,0.4l-0.1-0.1c0-0.2,0.1-0.3,0.2-0.4C74.7,97.4,74.9,97.4,75.1,97.5z"/>
	<path class="st2" d="M74.4,97.8c-0.1,0.1-0.1,0.4-0.4,0.1c0,0,0.2-0.2,0.2-0.2L74.4,97.8z"/>
	<path class="st2" d="M72.8,115.8c0,0,0.1,0.1,0.1,0.1c0,0-0.1,0.1-0.1,0.1c0-0.1-0.1-0.1-0.1-0.1C72.7,115.9,72.8,115.9,72.8,115.8
		z"/>
	<path class="st2" d="M80.5,143.6c0,0-0.1-0.1-0.1-0.1c0.1,0,0.1-0.1,0.2-0.1c0,0,0.1,0.1,0.1,0.1C80.6,143.5,80.6,143.6,80.5,143.6
		z"/>
	<polygon class="st2" points="77.1,145.1 77.2,145.2 77,145.2 	"/>
	<polygon class="st2" points="76.3,145.6 76.2,145.7 76.2,145.5 	"/>
	<path class="st2" d="M171,99.4c0-0.2,0-0.4,0-0.6c0.6,0,1,0.2,1.4,0.6C171.9,99.5,171.4,99.5,171,99.4z"/>
	<path class="st2" d="M98.6,172.3c0.3,1.1,0.2,2.2,0,3.3C98.2,174.5,98.3,173.4,98.6,172.3z"/>
	<path class="st2" d="M158,53.5c0.1-0.2,0.1-0.4,0.2-0.6c0.1-0.1,0.2,0,0.2,0.2C158.4,53.3,158.2,53.5,158,53.5
		C158,53.5,158,53.5,158,53.5z"/>
	<path class="st2" d="M158,53.5c-0.1,0.1-0.1,0.2-0.2,0.3C157.5,53.6,157.8,53.6,158,53.5L158,53.5z"/>
	<path class="st2" d="M105,44.8c0,0.1,0.1,0.1,0.1,0.2c0,0.3,0,0.5,0,0.8c0,0-0.1,0.1-0.1,0.1c0-0.3-0.1-0.5-0.1-0.8
		C104.9,45,105,44.9,105,44.8z"/>
	<path class="st1" d="M119.4,111.1c-0.2,0-0.4-0.1-0.6-0.1c-1.7-0.2-2.1-1.8-1.3-3.1c0.2-0.2,0.3-0.5,0.5-0.7
		c1.2-1.4,2.2-2.8,2.4-4.7c0.1-1,0.9-1.8,1.2-2.8c0.6-2.2,0.5-4.4,0.8-6.6c0-0.3,0-0.6,0-0.9c0.1-0.6,0.1-1.2,0.7-1.5
		c0.3-0.2,0.7,0.4,0.8,1.5c0.1,1.3,0.2,2.6,0.8,3.7c-0.2,2.3,0.6,4.3,1.1,6.5c0.7,3.2,1.8,6.2,3.4,9c0.7,1.2,1.2,2.4,1.8,3.6
		c0.2,0.4,0.4,0.8,0.4,1.2c0.2,1.1-0.1,1.8-1.1,2.3c-0.3,0.1-0.6,0.2-1.1,0.3c0.3,0.4,0.6,0.7,0.9,1.1c0.5,0.6,0.6,1.2,0.2,1.8
		c-0.3,0.5-0.9,0.6-1.5,0.6c-1.3-0.1-2.7-0.2-4-0.2c-0.2,0.6,0.5,0.7,0.4,1.1c0,0.4-0.1,0.8-0.1,1.3c0.4,0.4,0.9,0.3,1.4,0.3
		c2-0.3,4.1-0.2,6.1-0.4c0.5,0,0.8-0.2,0.8-0.8c0-6.4,0.3-12.9-0.3-19.3c-0.1-0.7-0.1-1.4-0.1-2.2c-0.7-0.3-1.2,0.1-1.8,0.3
		c-0.6,0.2-1.2,0.4-1.9,0.2c-0.5-0.2-0.8-0.5-0.9-1.1c-0.1-0.5,0.2-0.8,0.5-1.1c0.3-0.2,0.6-0.3,1-0.5c0.5-0.2,0.8-0.6,1.1-1
		c0.3-0.4,0.6-1,0.4-1.4c-0.3-0.6-0.9-0.2-1.3-0.2c-0.7,0.1-1.4,0.3-2.1,0.4c-0.9,0.2-2,0.4-2.5-0.6c-0.5-1,0.3-1.7,0.9-2.4
		c0.7-0.7,1.4-1.4,2.2-2.2c-0.5,0-1,0-1.4-0.1c-1.1-0.2-1.5-1.2-0.9-2.1c0.2-0.4,0.6-0.6,0.9-0.9c1-1,2-2,3-3
		c0.3-0.3,0.6-0.6,0.7-1.1c-0.8-0.2-1.5-0.1-2.3,0.2c-0.3,0.1-0.6,0.3-1,0.4c-0.5,0.2-0.8-0.1-1.1-0.4c-0.3-0.3-0.4-0.7-0.2-1.2
		c0.2-0.5,0.6-0.9,1.1-1.2c2-1.3,3.3-3.1,4.3-5.3c0.8-1.8,1.7-3.6,2.1-5.6c0.1-0.6,0.2-1.5,0.9-1.5c1-0.1,0.9,1,1.1,1.5
		c0.4,1,0.7,2,0.9,3.1c0.5,1.9,1.2,3.7,1.9,5.4c0.6,1.5,1.7,2.8,2.9,4c0.6,0.5,1.2,1.1,1.6,1.7c0.7,1,0.3,2-0.9,2.3
		c-0.5,0.1-1,0.1-1.5,0.1c-0.5,0-1.1-0.1-1.7,0c1.3,0.8,2.4,2,3.6,3c1.2,1.1,2.2,2.5,2.6,4.1c0.3,1.5-0.6,2.6-2.1,2.4
		c-0.7-0.1-1.4-0.4-2.1-0.6c-0.7-0.1-1.3-0.7-2.2-0.4c1.1,1.2,2.3,2.4,3.4,3.6c0.4,0.4,0.8,0.9,1.1,1.3c0.4,0.6,0,1.4-0.7,1.4
		c-0.5,0-1,0-1.5-0.1c-0.8-0.1-1.5-0.3-2.3-0.2c-0.5,0-0.8,0.3-0.7,0.8c0.1,1.1,0.2,2.3,0.2,3.4c0.1,1.4,0.1,2.7,0.2,4.1
		c0.2,2.9,0.3,5.9,0.6,8.8c0.1,1.4,0.5,2.8,0.8,4.2c0.9,0.1,1.8,0,2.5,0.5c0.7,0.4,1,1.6,0.5,2.2c-0.1,0.1-0.4,0.3-0.5,0.3
		c-1.2-0.2-2.4-0.1-3.6,0c-0.3,0-0.6,0-0.8-0.2c-1.1-0.8-2.3-0.6-3.5-0.6c-3.9,0-7.7,0-11.6,0c-0.5,0-1,0-1.5,0
		c-0.5,0-0.9-0.1-1-0.6c-0.1-0.5-0.4-0.5-0.8-0.5c-0.4,0-0.9-0.1-1.1,0.4c-0.6,1.3-1.8,1.3-2.9,1.2c-0.8-0.1-1.5-0.3-2.3-0.5
		c-0.9-0.2-1.8-0.3-2.8-0.1c-2.6,0.4-5.1,0.1-7.7,0.2c-1.4-0.7-2.7,0-4.1,0.2c-2.1,0.4-4.2,0.6-6.2,1.5c-0.1,0.1-0.3,0-0.4,0
		c-0.4,0-0.8-0.5-0.7-0.9c0.2-0.6,0.9-1,0.8-1.7c0.2,0.1,0.3,0,0.3-0.2c0,0-0.1-0.1-0.2-0.1c-0.2,0-0.2,0.1-0.1,0.3
		c-0.5-0.3-1,0-1.5,0c-0.4,0-0.9,0-1.3,0c-0.7-0.1-1.1-0.9-0.6-1.5c0.8-1.1,1.2-2.4,2.6-3c0.8-0.4,1.2-1.4,1.6-2.2
		c1-1.9,1.2-3.9,1.6-6c0.1-0.5,0-1,0.3-1.4c0.1-0.2,0.3-0.3,0.5-0.3c0.2,0,0.5,0.2,0.5,0.3c0.2,1,1,1.7,1.1,2.8
		c0.3,2.6,1.5,4.7,3.5,6.4c0.7,0.6,1.2,1.2,0.6,2.2c-0.1,0.1-0.1,0.3-0.1,0.4c-0.1,0.3-0.1,0.6,0.2,0.8c0.1,0.1,0.4,0,0.6-0.1
		c0.9-0.4,1.6-1.2,2.2-1.9c0.4-0.5,0.6-0.9,0.1-1.5c-0.3-0.3-0.1-0.8,0.2-1.2c0.6-0.6,1.2-1.2,1.3-2.1c-0.5-0.3-1-0.2-1.5-0.2
		c-0.6-0.1-1.1-0.3-1.3-0.9c-0.2-0.5,0.1-1,0.5-1.3c2.6-2.4,3.8-5.6,4.8-8.9c0.4-1.3,0.3-2.7,0.3-4c0-0.7,0-1.4,0.4-2.1
		c0.1-0.1,0.2-0.2,0.3-0.2c0.2-0.1,0.5,0.1,0.5,0.3c0.6,1.6,1.5,3.1,1.3,5c-0.3,2.6,0.5,5.1,0.9,7.6c0.2,0.8,0.6,1.6,1.2,2.3
		c0.5,0.5,1,1,1.5,1.5c1.6,1.4,1.6,1.7,0,3.2c0.3,0.5,0.8,0.8,1.3,1.1c1.1,0.7,2,1.6,2.1,3.1c0,0.6,0.4,0.9,1,0.9c1.1,0,2.3,0,3.1,0
		c0.6-0.3,0.6-0.5,0.5-0.7c-0.1-2.4,0-2.1-2.3-2.2c-0.5,0-1-0.1-1.5-0.1c-0.5,0-1-0.3-1.2-0.8c-0.2-0.5,0.1-0.8,0.4-1.1
		c0.4-0.5,0.9-0.9,1.4-1.3c0.4-0.4,0.4-0.8,0-1.1c-2.2-1.4-1.8-1.8-0.8-4.3C119,112.5,119.8,111.9,119.4,111.1
		c0.1,0.1,0.2,0.1,0.3-0.1c0,0,0-0.2,0-0.2C119.4,110.8,119.4,110.9,119.4,111.1z M109,117c-0.6,0.3-1,0.8-1.3,1.3
		c-0.3,0.4-0.5,0.8-0.3,1.2c0.5,1,0.2,1.5-0.6,2.2c-0.6,0.5-0.9,1.2-1.4,1.9c-0.2,0.3,0,0.7,0.4,0.8c0.5,0,1,0,1.5,0
		c1.3,0,2.6,0,3.8-0.4c1.3-0.4,2.5,0.6,4,0.2c-0.6-0.8-1.3-1.4-2.1-1.9c-1-0.7-2.1-1.5-3.1-2.2c-0.7-0.4-0.9-1-0.9-1.8
		c0-0.4,0.1-0.7,0.1-1.1c0.8-0.3,1.7,0,2.6-0.5c-1.4-2.2-1.9-4.7-2.3-7.2c-1,2-1.9,3.8-2.7,5.6c0.6,0.4,1.2,0.1,1.7,0.2
		c0.5,0.1,0.8,0.3,0.8,0.8C109.1,116.4,109.1,116.7,109,117z M133.2,99.5c0.9-0.1,1.5,0.1,1.7,1.1c0.1,0.6,0.3,1.2,0.4,1.8
		c0.1,3.2,0.5,6.4,0.4,9.6c0,3.2,0.1,6.4,0.1,9.6c0,0.7,0.1,1.4,0.2,2.1c0.1,0.7,0.7,0.5,1.2,0.5c0.5,0,0.5-0.3,0.5-0.7
		c-0.4-2.8-0.6-5.5-0.7-8.3c-0.1-3.5-0.3-7-0.4-10.5c0-0.8-0.2-1.5-0.7-2.2c0.1-0.3,0.2-0.7,0.3-1c0.3-0.8,0.6-1,1.4-0.4
		c0.7,0.5,1.4,0.5,2.2,0.4c0-0.5-0.3-0.7-0.5-0.9c-1.1-1-2.3-1.9-3.4-2.9c-0.9-0.8-0.6-2,0.5-2.4c0.9-0.3,1.9-0.7,2.9-0.4
		c1,0.3,2,0.4,3.3,0.6c-1-1.4-2-2.3-3.1-3c-1.1-0.8-2.2-1.5-3.3-2.3c-0.8-0.6-1.3-1.3-1.6-2.2c-0.2-0.7,0-1.3,0.5-1.7
		c0.5-0.4,1.1-0.6,1.8-0.4c1.1,0.3,2.2,0.4,3.6,0.7c-0.5-0.6-0.7-0.9-1-1.2c-0.3-0.4-0.6-0.8-0.9-1.2c-0.3-0.3-0.5-0.7-0.8-1
		c-0.3-0.4-0.5-0.9-0.7-1.3c-0.2-0.4-0.4-0.8-0.5-1.2c-0.2-0.5-0.3-0.9-0.5-1.4c-0.1-0.4-0.3-0.8-0.4-1.2c-0.1-0.5-0.3-1-0.4-1.4
		c-0.1-0.3,0.1-0.9-0.6-1c-0.5,1.2-1,2.3-1.6,3.5c-0.6,1.1-1.2,2.2-1.9,3.4c0.6,0.2,1,0.3,1.5,0.5c1.1,0.5,1.4,1.4,0.9,2.5
		c-0.4,0.9-1.1,1.5-1.7,2.2c-0.7,0.7-1.5,1.3-2.1,2.4c0.6,0,1,0,1.5,0c0.8,0,1.4,0.3,1.7,1.1c0.2,0.5-0.2,1.3-0.9,1.8
		c-0.3,0.2-0.6,0.4-0.9,0.6c-0.8,0.5-1.6,1-2.3,1.5c-0.3,0.2-0.7,0.4-0.6,1c0.3,0,0.5-0.1,0.8-0.1c1.3-0.2,2.5-0.6,3.8-0.7
		c1-0.1,1.4,0.3,1.1,1.2C133.7,97.4,133.4,98.4,133.2,99.5c-0.2,0-0.5,0-0.2,0.2C132.9,99.8,133.1,99.6,133.2,99.5z M123,101.6
		c-0.8,2-1.5,3.7-2.2,5.5c0.4,0.1,0.7,0.1,1,0.1c1.5,0.5,1.9,1.6,1.1,3c-0.1,0.2-0.3,0.3-0.4,0.5c-0.7,1.2-1.4,2.3-1,3.8
		c0.1,0.4,0,0.8-0.2,1.2c-0.3,0.5,0.1,0.8,0.5,1c0.4,0.3,1,0.6,1.3,0c0.6-1,1.4-1,2.4-1c0.9,0,1.8,0.2,2.7-0.1
		c-0.2-1.3-0.7-2.3-1.3-3.2c-0.8-1.3-1.4-2.8-1.9-4.3C124.2,106.1,123.6,104,123,101.6z M92.8,123.4c0.9,0.1,1.6,0.1,2.3,0.2
		c0.4,0.1,0.8,0.4,0.8,0.9c0,0.3-0.1,0.5-0.4,0.7c-0.4,0.3-1.4,0.4-1.2,1c0.3,0.8,1.1,0,1.6,0c0.5,0,1,0,1.5-0.1
		c0.4-0.1,0.8-0.2,1.2-0.3c0.5-0.1,0.7-0.5,0.6-1c0-0.3-0.2-0.5-0.2-0.8c-0.3-1.4-1.4-2.4-2-3.7c-0.3-0.7-0.5-1.4-1.3-2.1
		C95,120.1,94.1,121.8,92.8,123.4z M124.8,120.4c-0.9-1.2-2.1-0.8-3.2-0.8c-0.5,0-1,0.1-1.1,0.8
		C121.9,120.5,123.3,120.6,124.8,120.4z M125.3,125.8c0,0.1,0,0.1,0,0.2c1,0,2.1,0.1,3.1,0.1c0.2,0,0.4-0.1,0.7-0.2
		c-0.3-0.1-0.5-0.2-0.7-0.2C127.4,125.7,126.4,125.7,125.3,125.8z"/>
	<path class="st1" d="M88.7,84.3c0-0.4,0-0.7,0.1-1.1C89.2,82,89,80.9,88,80c-0.2-0.2-0.3-0.5-0.4-0.7c-0.4-0.7-0.2-1.3,0.5-1.6
		c1.9-0.7,3.2-2.3,5-3.2c0.1-0.1,0.2-0.2,0.3-0.3c0.3-0.4,0.4-1,1-1c0.8,0,1.2,0.5,1.4,1.1c0.4,0.7,0.9,0.8,1.6,0.6
		c1.6-0.5,3.3-0.8,5.1-0.8c0.9,0,1.8,0.1,2.7,0.4c0.6,0.2,1.1,0,1.5-0.4c1.9-1.8,4.2-3.2,6-5.1c0.5-0.5,1-0.5,1.5,0
		c0.6,0.5,0.9,1.3,1.2,2c0.3,0.9,0.7,1.6,1.6,2.1c0.8,0.4,0.9,2.3,0.4,3.1c-0.4,0.6-1.1,0.9-1.9,0.5c-0.8-0.4-1.5-0.2-2.1,0.3
		c-0.9,0.7-1.8,1.3-2.8,2c-0.6,0.4-0.7,0.8-0.5,1.4c0.4,1.6,0.3,3.1-0.1,4.7c-0.8,3.7-4.1,6.9-7.9,7.4c-0.8,0.1-1.7,0.1-2.5,0.4
		c-0.2,0.1-0.6,0.1-0.8,0c-1.4-0.4-2.9-0.8-4.3-1.2c-1.6-0.5-3-1.4-4.1-2.7C89.2,87.7,88.6,86.1,88.7,84.3z M113.9,73.7
		c-0.1-0.3-0.1-0.7-0.3-1c-0.4-1.2-0.8-1.4-1.8-0.7c-0.4,0.2-0.7,0.5-1,0.7c-3.2,2.2-5.9,4.9-8.6,7.7c-0.9,1-1.9,1.8-1.8,3.4
		c0.1,0.8-1,1.3-1.8,1c-0.6-0.3-1.1-0.7-1.2-1.4c-0.1-0.5-0.2-1-0.5-1.4c-0.6-0.9-1-1.9-1.4-2.9c-0.3-0.9-0.7-1.7-1.1-2.6
		c-0.3-0.8-0.6-0.9-1.3-0.5c-0.6,0.3-1.2,0.7-1.8,1.1c-1.5,1-1.5,1.2-0.3,2.4c2.1,2.1,4,4.4,5.9,6.8c1.4,1.7,1.4,1.7,2.9,0.2
		c3-3,6-6.1,9.5-8.6c1.3-1,2.6-2,3.9-3C113.6,74.6,114,74.3,113.9,73.7z M107.4,81.5c-2.5,2-4.6,3.9-6.7,6c-0.4,0.5-0.8,1-1.1,1.6
		c-0.2,0.4,0,0.9,0.4,1c0.3,0.1,0.6,0.1,0.8,0.1C104.5,89.8,108.2,86.7,107.4,81.5z M97.3,77.3c0.4,1.7,1.1,3,2.3,4.2
		c1.1-1.3,2.3-2.4,3.2-3.8C101,76,99.2,77,97.3,77.3z M90.7,83.3c-0.1,3.7,1.9,6.1,5,6.2C94.3,87.3,92.7,85.3,90.7,83.3z"/>
	<path class="st1" d="M117,135.9c-5.4,0-10.9,0-16.3,0c-1.1,0-2.1,0-3.2,0c-0.1,0-0.1,0-0.2,0c-0.4-0.1-0.7-0.5-0.7-0.9
		c0.1-0.4,0.6-0.8,0.9-0.6c0.9,0.6,1.8,0.4,2.7,0.4c10.3-0.2,20.6-0.3,30.9-0.5c1.6,0,3.3,0,4.9,0.1c1.1,0,1.9,0.6,1.7,1.2
		c-0.4,0.9-1.1,0.7-1.8,0.6c-5.7-0.3-11.4-0.3-17.1-0.3c-0.6,0-1.1,0-1.7,0C117,135.8,117,135.9,117,135.9z"/>
	<path class="st1" d="M95.8,138.3c0-0.3,0.7-0.8,1-0.6c1.5,1,3.2,0.4,4.8,0.4c7.1,0,14.1-0.1,21.2-0.2c4.5-0.1,9-0.2,13.5-0.3
		c0.6,0,1.1,0,1.7,0.1c0.5,0.1,0.9,0.5,0.9,1c0,0.5-0.3,0.9-0.8,1.1c-0.6,0.2-1.3,0.4-1.9,0.1c-1-0.5-2.1-0.5-3.1-0.5
		c-7.3-0.1-14.6-0.1-21.9-0.2c-3.3,0-6.6-0.1-9.9,0c-1.6,0-3.1-0.3-4.7,0C96.3,139.4,95.8,138.7,95.8,138.3z"/>
	<path class="st2" d="M135.3,102.5c-0.1-0.6-0.3-1.2-0.4-1.8c-0.2-1-0.8-1.2-1.7-1.1l-0.1-0.1c0.3-1,0.7-2,0.9-3
		c0.2-1-0.2-1.4-1.1-1.2c-1.3,0.2-2.5,0.5-3.8,0.7c-0.3,0.1-0.5,0.1-0.8,0.1c-0.1-0.6,0.3-0.8,0.6-1c0.7-0.6,1.5-1,2.3-1.5
		c0.3-0.2,0.6-0.3,0.9-0.6c0.7-0.5,1.1-1.3,0.9-1.8c-0.3-0.7-0.9-1.1-1.7-1.1c-0.4,0-0.8,0-1.5,0c0.7-1,1.5-1.6,2.1-2.4
		c0.6-0.7,1.3-1.3,1.7-2.2c0.5-1.1,0.2-1.9-0.9-2.5c-0.4-0.2-0.9-0.3-1.5-0.5c0.7-1.2,1.3-2.3,1.9-3.4c0.6-1.1,1.1-2.3,1.6-3.5
		c0.7,0.2,0.4,0.7,0.6,1c0.2,0.5,0.3,1,0.4,1.4c0.1,0.4,0.3,0.8,0.4,1.2c0.2,0.5,0.3,0.9,0.5,1.4c0.2,0.4,0.4,0.8,0.5,1.2
		c0.2,0.4,0.4,0.9,0.7,1.3c0.2,0.4,0.5,0.7,0.8,1c0.3,0.4,0.6,0.8,0.9,1.2c0.3,0.3,0.5,0.6,1,1.2c-1.4-0.3-2.5-0.4-3.6-0.7
		c-0.7-0.2-1.3-0.1-1.8,0.4c-0.5,0.4-0.7,1-0.5,1.7c0.3,1,0.8,1.7,1.6,2.2c1.1,0.8,2.2,1.6,3.3,2.3c1.1,0.8,2.1,1.7,3.1,3
		c-1.3-0.2-2.3-0.3-3.3-0.6c-1.1-0.3-2,0.1-2.9,0.4c-1.2,0.4-1.4,1.5-0.5,2.4c1.1,1,2.2,2,3.4,2.9c0.3,0.2,0.6,0.4,0.5,0.9
		c-0.8,0.1-1.5,0.1-2.2-0.4c-0.8-0.6-1.1-0.4-1.4,0.4c-0.1,0.3-0.2,0.7-0.3,1C135.7,102.5,135.5,102.5,135.3,102.5z"/>
	<path class="st2" d="M123,101.6c0.6,2.4,1.1,4.5,1.9,6.5c0.5,1.5,1.1,2.9,1.9,4.3c0.6,1,1.2,2,1.3,3.2c-0.9,0.3-1.8,0.1-2.7,0.1
		c-1,0-1.8,0.1-2.4,1c-0.3,0.6-0.9,0.3-1.3,0c-0.4-0.2-0.8-0.4-0.5-1c0.2-0.4,0.3-0.8,0.2-1.2c-0.4-1.5,0.3-2.6,1-3.8
		c0.1-0.2,0.3-0.3,0.4-0.5c0.8-1.4,0.4-2.5-1.1-3c-0.3-0.1-0.6-0.1-1-0.1C121.5,105.3,122.2,103.6,123,101.6z"/>
	<path class="st2" d="M109.2,117.2c0,0.4-0.1,0.7-0.1,1.1c-0.1,0.8,0.2,1.4,0.9,1.8c1.1,0.7,2.1,1.5,3.1,2.2
		c0.8,0.5,1.4,1.1,2.1,1.9c-1.5,0.4-2.7-0.6-4-0.2c-1.3,0.4-2.5,0.4-3.8,0.4c-0.5,0-1,0-1.5,0c-0.4,0-0.6-0.4-0.4-0.8
		c0.4-0.6,0.8-1.4,1.4-1.9c0.7-0.6,1.1-1.2,0.6-2.2c-0.2-0.4,0-0.8,0.3-1.2c0.4-0.5,0.7-1.1,1.3-1.3L109.2,117.2z"/>
	<path class="st2" d="M92.8,123.4c1.3-1.6,2.2-3.3,2.9-5.2c0.8,0.6,1,1.4,1.3,2.1c0.6,1.3,1.7,2.3,2,3.7c0.1,0.3,0.2,0.5,0.2,0.8
		c0.1,0.5-0.1,0.8-0.6,1c-0.4,0.1-0.8,0.2-1.2,0.3c-0.5,0.1-1,0.1-1.5,0.1c-0.6,0-1.3,0.8-1.6,0c-0.2-0.6,0.8-0.7,1.2-1
		c0.3-0.2,0.4-0.4,0.4-0.7c0-0.5-0.3-0.8-0.8-0.9C94.4,123.5,93.7,123.5,92.8,123.4z"/>
	<path class="st2" d="M109,117c0-0.3,0.1-0.6,0.1-0.8c0-0.5-0.3-0.8-0.8-0.8c-0.5-0.1-1.1,0.2-1.7-0.2c0.9-1.8,1.8-3.7,2.7-5.6
		c0.5,2.5,0.9,5,2.3,7.2c-0.9,0.5-1.8,0.2-2.6,0.5L109,117z"/>
	<path class="st2" d="M124.8,120.4c-1.5,0.1-2.9,0.1-4.3,0c0.1-0.7,0.6-0.8,1.1-0.8C122.7,119.6,123.9,119.2,124.8,120.4z"/>
	<path class="st2" d="M125.3,125.8c1.1,0,2.1-0.1,3.2-0.1c0.2,0,0.4,0.1,0.7,0.2c-0.3,0.1-0.5,0.2-0.7,0.2c-1,0-2.1,0-3.1-0.1
		C125.3,125.9,125.3,125.8,125.3,125.8z"/>
	<path class="st2" d="M133.2,99.5c-0.1,0.1-0.2,0.3-0.2,0.2C132.6,99.5,132.9,99.5,133.2,99.5C133.1,99.4,133.2,99.5,133.2,99.5z"/>
	<path class="st2" d="M113.9,73.7c0.1,0.6-0.3,0.9-0.7,1.2c-1.3,1-2.6,2.1-3.9,3c-3.5,2.5-6.5,5.6-9.5,8.6C98.3,88,98.4,88,97,86.3
		c-1.9-2.3-3.8-4.6-5.9-6.8c-1.2-1.2-1.2-1.4,0.3-2.4c0.6-0.4,1.2-0.8,1.8-1.1c0.7-0.4,1-0.3,1.3,0.5c0.4,0.8,0.8,1.7,1.1,2.6
		c0.3,1,0.8,2,1.4,2.9c0.3,0.4,0.4,0.9,0.5,1.4c0.1,0.7,0.5,1.2,1.2,1.4c0.8,0.3,1.8-0.2,1.8-1c-0.2-1.6,0.8-2.5,1.8-3.4
		c2.7-2.8,5.4-5.5,8.6-7.7c0.4-0.2,0.7-0.5,1-0.7c1.1-0.7,1.4-0.5,1.8,0.7C113.8,73,113.8,73.3,113.9,73.7z"/>
</g>
</svg>
