<svg id="Layer_1" data-name="Layer 1" xmlns="http://www.w3.org/2000/svg" viewBox="0 0 125 125"><defs><style>.cls-1{fill:#2d4762;}.cls-2{fill:none;}.cls-3,.cls-4{fill:#fff;}.cls-4,.cls-6{opacity:0.75;}.cls-5{opacity:0.5;}</style></defs><circle class="cls-1" cx="62.5" cy="62.5" r="62.5"/><rect class="cls-2" x="22.5" y="22.5" width="80" height="80"/><path class="cls-3" d="M432.67,624l10,11.35a2.34,2.34,0,0,1,.5,3,2.65,2.65,0,0,1-2.62,1.62H423.44v10a1.76,1.76,0,0,1-2,2h-4a1.77,1.77,0,0,1-2-2V640H398.37a2.64,2.64,0,0,1-2.61-1.62,2.33,2.33,0,0,1,.49-3l10-11.35h-3.86a2.82,2.82,0,0,1-2.25-4.61L410,608h-3.61a2.51,2.51,0,0,1-2.62-1.75,2.56,2.56,0,0,1,.5-3L418,588.7a2.09,2.09,0,0,1,3,0l13.72,14.59a2.58,2.58,0,0,1,.5,3,2.51,2.51,0,0,1-2.62,1.75h-3.62l9.73,11.35a2.58,2.58,0,0,1,.5,3,2.65,2.65,0,0,1-2.62,1.62Z" transform="translate(-372.92 -557.5)"/><path class="cls-4" d="M474.58,635.34a2.34,2.34,0,0,1,.5,3,2.65,2.65,0,0,1-2.62,1.62H455.37v10a1.76,1.76,0,0,1-2,2h-4a1.77,1.77,0,0,1-2-2V636a5.65,5.65,0,0,0-1.75-3.37l-5.11-5.86a6.1,6.1,0,0,0,2.25-2.62,6.34,6.34,0,0,0-1-7.36l-5.24-6a7.64,7.64,0,0,0,2.37-2.87,6.65,6.65,0,0,0-.87-6.61l11.84-12.59a2.12,2.12,0,0,1,1.56-.63,1.73,1.73,0,0,1,1.44.63l13.72,14.59a2.59,2.59,0,0,1,.5,3,2.51,2.51,0,0,1-2.62,1.75h-3.62l9.85,11.35a2.82,2.82,0,0,1-2.24,4.61H464.6Z" transform="translate(-372.92 -557.5)"/><g class="cls-5"><path d="M432.55,608h-3.62l2.57,3h1.05a2.51,2.51,0,0,0,2.62-1.75,2.46,2.46,0,0,0-.21-2.6A2.51,2.51,0,0,1,432.55,608Z" transform="translate(-372.92 -557.5)"/><path d="M402.37,624a2.64,2.64,0,0,1-2.44-1.33,2.61,2.61,0,0,0-.18,2.71,2.65,2.65,0,0,0,2.62,1.62h1.22l2.64-3Z" transform="translate(-372.92 -557.5)"/><path d="M440.53,640H423.44v3h17.09a2.65,2.65,0,0,0,2.62-1.62,2.27,2.27,0,0,0-.21-2.67A2.64,2.64,0,0,1,440.53,640Z" transform="translate(-372.92 -557.5)"/><path d="M436.54,624h-3.87l2.64,3h1.23a2.65,2.65,0,0,0,2.62-1.62,2.46,2.46,0,0,0-.23-2.63A2.63,2.63,0,0,1,436.54,624Z" transform="translate(-372.92 -557.5)"/><path d="M398.37,640a2.64,2.64,0,0,1-2.41-1.29,2.25,2.25,0,0,0-.2,2.67,2.64,2.64,0,0,0,2.61,1.62h17.09v-3Z" transform="translate(-372.92 -557.5)"/><path d="M406.36,608a2.5,2.5,0,0,1-2.41-1.35,2.42,2.42,0,0,0-.21,2.6,2.51,2.51,0,0,0,2.62,1.75h1l2.6-3Z" transform="translate(-372.92 -557.5)"/><path d="M421.45,651.93h-4a1.77,1.77,0,0,1-2-2v3a1.77,1.77,0,0,0,2,2h4a1.76,1.76,0,0,0,2-2v-3A1.76,1.76,0,0,1,421.45,651.93Z" transform="translate(-372.92 -557.5)"/><path class="cls-6" d="M468.47,624H464.6l2.64,3h1.23a2.66,2.66,0,0,0,2.62-1.62,2.61,2.61,0,0,0-.19-2.71A2.62,2.62,0,0,1,468.47,624Z" transform="translate(-372.92 -557.5)"/><path class="cls-6" d="M464.48,608h-3.62l2.6,3h1a2.51,2.51,0,0,0,2.62-1.75,2.46,2.46,0,0,0-.21-2.6A2.51,2.51,0,0,1,464.48,608Z" transform="translate(-372.92 -557.5)"/><path class="cls-6" d="M441.78,616.76,438,612.4a8.42,8.42,0,0,1-1.42,1.37l5.24,6a6.89,6.89,0,0,1,1.53,2.77A6.16,6.16,0,0,0,441.78,616.76Z" transform="translate(-372.92 -557.5)"/><path class="cls-6" d="M453.38,651.93h-4a1.77,1.77,0,0,1-2-2v3a1.77,1.77,0,0,0,2,2h4a1.76,1.76,0,0,0,2-2v-3A1.76,1.76,0,0,1,453.38,651.93Z" transform="translate(-372.92 -557.5)"/><path class="cls-6" d="M445.64,632.6,442,628.41a7.28,7.28,0,0,1-1.46,1.33l5.11,5.86a5.65,5.65,0,0,1,1.75,3.37v-3A5.65,5.65,0,0,0,445.64,632.6Z" transform="translate(-372.92 -557.5)"/><path class="cls-6" d="M472.46,640H455.37v3h17.09a2.65,2.65,0,0,0,2.62-1.62,2.27,2.27,0,0,0-.21-2.67A2.64,2.64,0,0,1,472.46,640Z" transform="translate(-372.92 -557.5)"/><path class="cls-6" d="M439,603.23l-1,1.06a8,8,0,0,1,1.2,2.58A6.28,6.28,0,0,0,439,603.23Z" transform="translate(-372.92 -557.5)"/></g></svg>