<svg id="Layer_1" data-name="Layer 1" xmlns="http://www.w3.org/2000/svg" viewBox="0 0 1800 581.27"><defs><style>.cls-1{fill:#2d4762;}.cls-2{fill:#ff5a5f;}.cls-3{fill:#333;}.cls-4,.cls-5{fill:none;stroke:#e2dddb;stroke-linecap:round;stroke-miterlimit:10;stroke-width:5px;}.cls-5{stroke-dasharray:0 10.95;}</style></defs><polygon class="cls-1" points="47.37 548.41 331.58 547.51 615.79 544.25 900 527.62 1184.21 483.32 1468.42 381.34 1752.63 90.94 1800 39.61 1800 550.95 0 550.95 47.37 548.41"/><circle class="cls-2" cx="47.35" cy="548.43" r="7.5"/><path class="cls-3" d="M1196.63-92.26h-11.18v-1.55l5.91-6.57a14.14,14.14,0,0,0,1.81-2.42,4,4,0,0,0,.5-1.92,3.06,3.06,0,0,0-.81-2.2,2.83,2.83,0,0,0-2.16-.85,3.35,3.35,0,0,0-2.51.92,3.51,3.51,0,0,0-.9,2.56h-2.17a5,5,0,0,1,1.52-3.81,5.62,5.62,0,0,1,4.06-1.45,5.35,5.35,0,0,1,3.76,1.25,4.22,4.22,0,0,1,1.39,3.32q0,2.52-3.21,6l-4.57,5h8.56Z" transform="translate(-1163.64 673.29)"/><path class="cls-3" d="M1209.63-99.53a10,10,0,0,1-1.3,5.66,4.64,4.64,0,0,1-4.07,1.85,4.64,4.64,0,0,1-4-1.81,9.37,9.37,0,0,1-1.36-5.41v-2.89c0-2.51.43-4.38,1.3-5.59a4.67,4.67,0,0,1,4.08-1.83,4.71,4.71,0,0,1,4,1.76,9.31,9.31,0,0,1,1.34,5.44Zm-2.17-3a8,8,0,0,0-.77-4,2.67,2.67,0,0,0-2.45-1.26,2.64,2.64,0,0,0-2.43,1.25,7.69,7.69,0,0,0-.78,3.86v3.47a8,8,0,0,0,.8,4.08,2.65,2.65,0,0,0,2.43,1.32,2.62,2.62,0,0,0,2.39-1.24,7.78,7.78,0,0,0,.81-3.92Z" transform="translate(-1163.64 673.29)"/><path class="cls-3" d="M1219.53-92.26h-2.18V-106.7l-4.37,1.6v-2l6.21-2.33h.34Z" transform="translate(-1163.64 673.29)"/><path class="cls-3" d="M1226.88-100.81l.87-8.51h8.74v2h-6.9l-.52,4.65a5.55,5.55,0,0,1,2.85-.74,4.69,4.69,0,0,1,3.7,1.54,6.07,6.07,0,0,1,1.37,4.17,5.82,5.82,0,0,1-1.42,4.15,5.21,5.21,0,0,1-4,1.52,5.36,5.36,0,0,1-3.69-1.26,5,5,0,0,1-1.63-3.46h2a3.47,3.47,0,0,0,1,2.21,3.3,3.3,0,0,0,2.23.74,2.9,2.9,0,0,0,2.37-1,4.29,4.29,0,0,0,.86-2.85,4,4,0,0,0-.93-2.75,3.17,3.17,0,0,0-2.48-1,3.53,3.53,0,0,0-2.22.62l-.58.46Z" transform="translate(-1163.64 673.29)"/><path class="cls-3" d="M1185-202.31l1.26-13h12.4v4.25h-8.32l-.46,5.49a5.28,5.28,0,0,1,3-1,5.76,5.76,0,0,1,4.87,2.25,10.26,10.26,0,0,1,1.72,6.36,9.15,9.15,0,0,1-2,6.21,6.85,6.85,0,0,1-5.45,2.35,7.58,7.58,0,0,1-3.75-1,7,7,0,0,1-2.71-2.66,7.67,7.67,0,0,1-1-3.87h4.92a4.64,4.64,0,0,0,.79,2.48,2.07,2.07,0,0,0,1.72.88,2.07,2.07,0,0,0,1.9-1.19,7.33,7.33,0,0,0,.67-3.54,5.8,5.8,0,0,0-.8-3.34,2.58,2.58,0,0,0-2.24-1.12,2.63,2.63,0,0,0-2.18,1l-.32.44Z" transform="translate(-1163.64 673.29)"/><path class="cls-3" d="M1217.52-200.3c0,3.54-.64,6.24-1.92,8.12a6.29,6.29,0,0,1-5.5,2.81,6.3,6.3,0,0,1-5.46-2.73q-1.92-2.73-2-7.83v-4.84q0-5.28,1.92-8.09a6.24,6.24,0,0,1,5.5-2.8,6.28,6.28,0,0,1,5.5,2.77c1.28,1.85,1.93,4.5,2,7.93Zm-5-5.19a13,13,0,0,0-.6-4.53,2,2,0,0,0-1.86-1.51q-2.38,0-2.46,5.53v6.38a13.26,13.26,0,0,0,.6,4.61,2,2,0,0,0,1.89,1.51,1.92,1.92,0,0,0,1.8-1.41,12.35,12.35,0,0,0,.63-4.34Z" transform="translate(-1163.64 673.29)"/><path class="cls-3" d="M1228.45-199.6l-2,2.57v7.31h-5.16v-25.59h5.16v11.16l1.64-2.76,4.76-8.4h6.33l-7.33,11.25,7.45,14.34h-6.13Z" transform="translate(-1163.64 673.29)"/><circle class="cls-2" cx="331.59" cy="547.55" r="7.5"/><path class="cls-3" d="M1480.87-92.26h-11.18v-1.55l5.91-6.57a14.7,14.7,0,0,0,1.81-2.42,4,4,0,0,0,.49-1.92,3.06,3.06,0,0,0-.8-2.2,2.83,2.83,0,0,0-2.16-.85,3.34,3.34,0,0,0-2.51.92,3.51,3.51,0,0,0-.9,2.56h-2.17a5,5,0,0,1,1.52-3.81,5.61,5.61,0,0,1,4.06-1.45,5.35,5.35,0,0,1,3.76,1.25,4.24,4.24,0,0,1,1.38,3.32q0,2.52-3.21,6l-4.57,5h8.57Z" transform="translate(-1163.64 673.29)"/><path class="cls-3" d="M1493.87-99.53a10,10,0,0,1-1.3,5.66A4.65,4.65,0,0,1,1488.5-92a4.64,4.64,0,0,1-4-1.81,9.37,9.37,0,0,1-1.36-5.41v-2.89c0-2.51.43-4.38,1.3-5.59a4.65,4.65,0,0,1,4.08-1.83,4.72,4.72,0,0,1,4,1.76,9.39,9.39,0,0,1,1.34,5.44Zm-2.17-3a7.89,7.89,0,0,0-.78-4,2.65,2.65,0,0,0-2.44-1.26,2.64,2.64,0,0,0-2.43,1.25,7.79,7.79,0,0,0-.79,3.86v3.47a8,8,0,0,0,.81,4.08,2.64,2.64,0,0,0,2.43,1.32,2.61,2.61,0,0,0,2.38-1.24,7.87,7.87,0,0,0,.82-3.92Z" transform="translate(-1163.64 673.29)"/><path class="cls-3" d="M1503.77-92.26h-2.18V-106.7l-4.37,1.6v-2l6.21-2.33h.34Z" transform="translate(-1163.64 673.29)"/><path class="cls-3" d="M1518.63-109.33v1.84h-.4a5.69,5.69,0,0,0-4,1.5,6.26,6.26,0,0,0-1.74,4.09,4.64,4.64,0,0,1,3.68-1.55,4.45,4.45,0,0,1,3.56,1.57,6.05,6.05,0,0,1,1.33,4.06,6,6,0,0,1-1.44,4.22,5,5,0,0,1-3.85,1.58,4.89,4.89,0,0,1-4-1.88,7.5,7.5,0,0,1-1.52-4.85v-.83q0-4.71,2-7.2a7.38,7.38,0,0,1,6-2.55Zm-2.85,7.69a3.42,3.42,0,0,0-2,.67,3.41,3.41,0,0,0-1.3,1.67v.8a5.57,5.57,0,0,0,1,3.4,2.84,2.84,0,0,0,2.36,1.29,2.77,2.77,0,0,0,2.31-1.08,4.47,4.47,0,0,0,.84-2.83,4.51,4.51,0,0,0-.85-2.84A2.74,2.74,0,0,0,1515.78-101.64Z" transform="translate(-1163.64 673.29)"/><path class="cls-3" d="M1470.52-190.37h-5v-19.54l-4.87,1.88v-4.15L1470-216h.53Z" transform="translate(-1163.64 673.29)"/><path class="cls-3" d="M1492.65-200.95q0,5.31-1.92,8.12a6.27,6.27,0,0,1-5.5,2.81,6.27,6.27,0,0,1-5.45-2.73c-1.29-1.82-2-4.43-2-7.83v-4.83q0-5.29,1.92-8.1a6.24,6.24,0,0,1,5.5-2.8,6.26,6.26,0,0,1,5.5,2.78q1.92,2.78,2,7.92Zm-5-5.18a13,13,0,0,0-.6-4.54,2,2,0,0,0-1.86-1.51c-1.58,0-2.4,1.84-2.46,5.54v6.38a13.23,13.23,0,0,0,.6,4.6,2,2,0,0,0,1.89,1.51,1.92,1.92,0,0,0,1.8-1.41,12.06,12.06,0,0,0,.63-4.33Z" transform="translate(-1163.64 673.29)"/><path class="cls-3" d="M1510.86-200.95q0,5.31-1.92,8.12a6.27,6.27,0,0,1-5.5,2.81,6.27,6.27,0,0,1-5.45-2.73c-1.29-1.82-2-4.43-2-7.83v-4.83q0-5.29,1.92-8.1a6.24,6.24,0,0,1,5.5-2.8,6.26,6.26,0,0,1,5.5,2.78q1.92,2.78,1.95,7.92Zm-5-5.18a13,13,0,0,0-.6-4.54,2,2,0,0,0-1.86-1.51c-1.58,0-2.4,1.84-2.46,5.54v6.38a13.23,13.23,0,0,0,.6,4.6,2,2,0,0,0,1.89,1.51,1.94,1.94,0,0,0,1.81-1.41,12.33,12.33,0,0,0,.62-4.33Z" transform="translate(-1163.64 673.29)"/><path class="cls-3" d="M1521.8-200.25l-2,2.57v7.31h-5.17V-216h5.17v11.16l1.63-2.76,4.76-8.4h6.33l-7.33,11.25,7.46,14.34h-6.14Z" transform="translate(-1163.64 673.29)"/><circle class="cls-2" cx="615.83" cy="543.95" r="7.5"/><path class="cls-3" d="M1765.11-92.26h-11.18v-1.55l5.9-6.57a13.62,13.62,0,0,0,1.81-2.42,3.93,3.93,0,0,0,.5-1.92,3.06,3.06,0,0,0-.81-2.2,2.82,2.82,0,0,0-2.15-.85,3.38,3.38,0,0,0-2.52.92,3.54,3.54,0,0,0-.89,2.56h-2.17a5,5,0,0,1,1.52-3.81,5.61,5.61,0,0,1,4.06-1.45,5.37,5.37,0,0,1,3.76,1.25,4.24,4.24,0,0,1,1.38,3.32q0,2.52-3.21,6l-4.57,5h8.57Z" transform="translate(-1163.64 673.29)"/><path class="cls-3" d="M1778.1-99.53a9.9,9.9,0,0,1-1.3,5.66,4.64,4.64,0,0,1-4.07,1.85,4.65,4.65,0,0,1-4-1.81,9.45,9.45,0,0,1-1.36-5.41v-2.89a9.73,9.73,0,0,1,1.3-5.59,4.67,4.67,0,0,1,4.08-1.83,4.73,4.73,0,0,1,4.06,1.76,9.39,9.39,0,0,1,1.33,5.44Zm-2.17-3a7.9,7.9,0,0,0-.77-4,2.65,2.65,0,0,0-2.45-1.26,2.62,2.62,0,0,0-2.42,1.25,7.79,7.79,0,0,0-.79,3.86v3.47a8.13,8.13,0,0,0,.8,4.08,2.67,2.67,0,0,0,2.43,1.32,2.61,2.61,0,0,0,2.39-1.24,7.78,7.78,0,0,0,.81-3.92Z" transform="translate(-1163.64 673.29)"/><path class="cls-3" d="M1788-92.26h-2.18V-106.7l-4.37,1.6v-2l6.21-2.33h.34Z" transform="translate(-1163.64 673.29)"/><path class="cls-3" d="M1805.37-108.1l-7.06,15.84H1796l7-15.28h-9.23v-1.78h11.53Z" transform="translate(-1163.64 673.29)"/><path class="cls-3" d="M1748.23-209.41h2.41a2.27,2.27,0,0,0,2-1,4.62,4.62,0,0,0,.64-2.56,3.79,3.79,0,0,0-.66-2.38,2.13,2.13,0,0,0-1.77-.86,2.07,2.07,0,0,0-1.69.81,3.12,3.12,0,0,0-.66,2h-5a7.08,7.08,0,0,1,.92-3.59,6.54,6.54,0,0,1,2.59-2.49,7.59,7.59,0,0,1,3.68-.9,7.61,7.61,0,0,1,5.54,1.95,7.17,7.17,0,0,1,2,5.35,6.09,6.09,0,0,1-.9,3.22,6.22,6.22,0,0,1-2.39,2.28,5.49,5.49,0,0,1,2.7,2.32,7.14,7.14,0,0,1,.89,3.66,7.16,7.16,0,0,1-2.17,5.46,8,8,0,0,1-5.7,2.06,7.27,7.27,0,0,1-5.34-2,7.2,7.2,0,0,1-2-5.34h5A3.66,3.66,0,0,0,1749-199a2.22,2.22,0,0,0,1.83.93,2.46,2.46,0,0,0,2-.95,4,4,0,0,0,.74-2.53c0-2.52-1-3.79-2.93-3.8h-2.45Z" transform="translate(-1163.64 673.29)"/><path class="cls-3" d="M1776.89-204.92c0,3.54-.64,6.24-1.93,8.12a6.26,6.26,0,0,1-5.49,2.81,6.28,6.28,0,0,1-5.46-2.73c-1.28-1.83-2-4.44-2-7.83v-4.84c0-3.53.63-6.22,1.91-8.09a6.26,6.26,0,0,1,5.5-2.81,6.3,6.3,0,0,1,5.51,2.78q1.9,2.77,2,7.93Zm-5-5.19a12.94,12.94,0,0,0-.6-4.53,2,2,0,0,0-1.87-1.52q-2.37,0-2.46,5.54v6.38a13.25,13.25,0,0,0,.61,4.61,2,2,0,0,0,1.89,1.51,1.92,1.92,0,0,0,1.8-1.42,12.48,12.48,0,0,0,.63-4.33Z" transform="translate(-1163.64 673.29)"/><path class="cls-3" d="M1795.1-204.92c0,3.54-.64,6.24-1.93,8.12a6.26,6.26,0,0,1-5.49,2.81,6.29,6.29,0,0,1-5.46-2.73c-1.28-1.83-2-4.44-2-7.83v-4.84c0-3.53.64-6.22,1.91-8.09a6.27,6.27,0,0,1,5.51-2.81,6.28,6.28,0,0,1,5.5,2.78q1.9,2.77,1.95,7.93Zm-5-5.19a12.94,12.94,0,0,0-.6-4.53,2,2,0,0,0-1.86-1.52q-2.39,0-2.47,5.54v6.38a13.25,13.25,0,0,0,.61,4.61,2,2,0,0,0,1.89,1.51,1.92,1.92,0,0,0,1.8-1.42,12.48,12.48,0,0,0,.63-4.33Z" transform="translate(-1163.64 673.29)"/><path class="cls-3" d="M1806-204.22l-2,2.57v7.31h-5.17v-25.6H1804v11.17l1.64-2.76,4.76-8.41h6.33l-7.33,11.25,7.45,14.35h-6.13Z" transform="translate(-1163.64 673.29)"/><circle class="cls-2" cx="900.06" cy="527.86" r="7.5"/><path class="cls-3" d="M2049.34-92.26h-11.18v-1.55l5.91-6.57a14.14,14.14,0,0,0,1.81-2.42,4,4,0,0,0,.5-1.92,3.06,3.06,0,0,0-.81-2.2,2.83,2.83,0,0,0-2.16-.85,3.37,3.37,0,0,0-2.51.92,3.51,3.51,0,0,0-.9,2.56h-2.16a5,5,0,0,1,1.51-3.81,5.62,5.62,0,0,1,4.06-1.45,5.4,5.4,0,0,1,3.77,1.25,4.24,4.24,0,0,1,1.38,3.32q0,2.52-3.21,6l-4.57,5h8.56Z" transform="translate(-1163.64 673.29)"/><path class="cls-3" d="M2062.34-99.53a9.9,9.9,0,0,1-1.3,5.66A4.64,4.64,0,0,1,2057-92a4.64,4.64,0,0,1-4-1.81,9.37,9.37,0,0,1-1.36-5.41v-2.89c0-2.51.43-4.38,1.3-5.59a4.67,4.67,0,0,1,4.08-1.83,4.71,4.71,0,0,1,4.05,1.76,9.31,9.31,0,0,1,1.34,5.44Zm-2.17-3a8,8,0,0,0-.77-4,2.67,2.67,0,0,0-2.45-1.26,2.64,2.64,0,0,0-2.43,1.25,7.8,7.8,0,0,0-.78,3.86v3.47a8.13,8.13,0,0,0,.8,4.08,2.67,2.67,0,0,0,2.43,1.32,2.62,2.62,0,0,0,2.39-1.24,7.78,7.78,0,0,0,.81-3.92Z" transform="translate(-1163.64 673.29)"/><path class="cls-3" d="M2072.24-92.26h-2.18V-106.7l-4.37,1.6v-2l6.21-2.33h.34Z" transform="translate(-1163.64 673.29)"/><path class="cls-3" d="M2088.94-104.87a4,4,0,0,1-.67,2.28,4.66,4.66,0,0,1-1.83,1.56,4.85,4.85,0,0,1,2.12,1.67,4.24,4.24,0,0,1,.78,2.5,4.48,4.48,0,0,1-1.49,3.53,5.78,5.78,0,0,1-3.94,1.31,5.71,5.71,0,0,1-3.94-1.32,4.47,4.47,0,0,1-1.48-3.52,4.38,4.38,0,0,1,.75-2.5,4.69,4.69,0,0,1,2.1-1.68,4.57,4.57,0,0,1-1.8-1.56,4.1,4.1,0,0,1-.65-2.27,4.43,4.43,0,0,1,1.38-3.42,5.2,5.2,0,0,1,3.64-1.26,5.2,5.2,0,0,1,3.64,1.26A4.4,4.4,0,0,1,2088.94-104.87Zm-1.77,8a3.13,3.13,0,0,0-.91-2.33,3.2,3.2,0,0,0-2.37-.9,3.14,3.14,0,0,0-2.35.89,3.16,3.16,0,0,0-.88,2.34,3,3,0,0,0,.86,2.29,3.31,3.31,0,0,0,2.39.83,3.27,3.27,0,0,0,2.39-.84A3,3,0,0,0,2087.17-96.91Zm-3.26-10.86a2.76,2.76,0,0,0-2.06.79,2.9,2.9,0,0,0-.8,2.15,2.87,2.87,0,0,0,.78,2.1,2.76,2.76,0,0,0,2.08.81,2.75,2.75,0,0,0,2.08-.81,2.87,2.87,0,0,0,.78-2.1,2.89,2.89,0,0,0-.81-2.12A2.73,2.73,0,0,0,2083.91-107.77Z" transform="translate(-1163.64 673.29)"/><path class="cls-3" d="M2039.22-210.42h-5V-230l-4.87,1.88v-4.15l9.33-3.81h.53Z" transform="translate(-1163.64 673.29)"/><path class="cls-3" d="M2047-213a2.58,2.58,0,0,1,.8-2,2.84,2.84,0,0,1,2.08-.78,2.93,2.93,0,0,1,2.07.77,2.57,2.57,0,0,1,.83,2,2.53,2.53,0,0,1-.84,2,3,3,0,0,1-2.06.75,2.92,2.92,0,0,1-2.07-.76A2.56,2.56,0,0,1,2047-213Z" transform="translate(-1163.64 673.29)"/><path class="cls-3" d="M2061.39-225.49h2.41a2.25,2.25,0,0,0,2-1,4.5,4.5,0,0,0,.64-2.55,3.84,3.84,0,0,0-.66-2.39,2.14,2.14,0,0,0-1.77-.85,2.08,2.08,0,0,0-1.69.81,3.12,3.12,0,0,0-.66,2h-5a7,7,0,0,1,.93-3.6,6.36,6.36,0,0,1,2.58-2.48,7.62,7.62,0,0,1,3.68-.9,7.61,7.61,0,0,1,5.54,2,7.1,7.1,0,0,1,2,5.35,6.09,6.09,0,0,1-.9,3.22,6.2,6.2,0,0,1-2.38,2.28,5.52,5.52,0,0,1,2.7,2.32,7.23,7.23,0,0,1,.88,3.65,7.16,7.16,0,0,1-2.17,5.47,8,8,0,0,1-5.7,2.06,7.29,7.29,0,0,1-5.34-2,7.22,7.22,0,0,1-2-5.34h5a3.63,3.63,0,0,0,.72,2.3,2.2,2.2,0,0,0,1.83.94,2.46,2.46,0,0,0,2-1,4,4,0,0,0,.75-2.53q0-3.78-2.94-3.8h-2.44Z" transform="translate(-1163.64 673.29)"/><path class="cls-3" d="M2082.31-236l4.83,18.51L2092-236h6.75v25.6h-5.19v-6.93L2094-228l-5.11,17.6h-3.52l-5.11-17.6.47,10.67v6.93h-5.16V-236Z" transform="translate(-1163.64 673.29)"/><circle class="cls-2" cx="1184.3" cy="483.36" r="7.5"/><path class="cls-3" d="M2333.58-92.26H2322.4v-1.55l5.91-6.57a14.7,14.7,0,0,0,1.81-2.42,4,4,0,0,0,.49-1.92,3.06,3.06,0,0,0-.8-2.2,2.83,2.83,0,0,0-2.16-.85,3.34,3.34,0,0,0-2.51.92,3.51,3.51,0,0,0-.9,2.56h-2.17a5,5,0,0,1,1.52-3.81,5.61,5.61,0,0,1,4.06-1.45,5.35,5.35,0,0,1,3.76,1.25,4.24,4.24,0,0,1,1.38,3.32q0,2.52-3.21,6L2325-94h8.57Z" transform="translate(-1163.64 673.29)"/><path class="cls-3" d="M2346.58-99.53a10,10,0,0,1-1.3,5.66,4.65,4.65,0,0,1-4.07,1.85,4.64,4.64,0,0,1-4-1.81,9.37,9.37,0,0,1-1.36-5.41v-2.89c0-2.51.43-4.38,1.3-5.59a4.65,4.65,0,0,1,4.08-1.83,4.72,4.72,0,0,1,4,1.76,9.39,9.39,0,0,1,1.34,5.44Zm-2.17-3a7.89,7.89,0,0,0-.78-4,2.65,2.65,0,0,0-2.44-1.26,2.64,2.64,0,0,0-2.43,1.25,7.79,7.79,0,0,0-.79,3.86v3.47a8,8,0,0,0,.81,4.08,2.64,2.64,0,0,0,2.43,1.32,2.61,2.61,0,0,0,2.38-1.24,7.87,7.87,0,0,0,.82-3.92Z" transform="translate(-1163.64 673.29)"/><path class="cls-3" d="M2356.48-92.26h-2.18V-106.7l-4.37,1.6v-2l6.21-2.33h.34Z" transform="translate(-1163.64 673.29)"/><path class="cls-3" d="M2371.14-99.76a5.41,5.41,0,0,1-1.62,1.31,4.51,4.51,0,0,1-2.07.49,4.54,4.54,0,0,1-2.58-.73,4.74,4.74,0,0,1-1.69-2,7,7,0,0,1-.6-2.92,7.17,7.17,0,0,1,.65-3.08,4.87,4.87,0,0,1,1.85-2.1,5.32,5.32,0,0,1,2.79-.72,4.76,4.76,0,0,1,4,1.89,8.26,8.26,0,0,1,1.46,5.16v.63c0,3.33-.66,5.75-2,7.28s-3.29,2.31-5.94,2.35H2365v-1.84h.45a6,6,0,0,0,4.13-1.4A6,6,0,0,0,2371.14-99.76Zm-3.34,0a3.38,3.38,0,0,0,2-.66,4,4,0,0,0,1.34-1.66v-.86a5.93,5.93,0,0,0-.93-3.47,2.75,2.75,0,0,0-2.34-1.34,2.8,2.8,0,0,0-2.3,1.1,4.56,4.56,0,0,0-.86,2.89,4.74,4.74,0,0,0,.83,2.87A2.65,2.65,0,0,0,2367.8-99.76Z" transform="translate(-1163.64 673.29)"/><path class="cls-3" d="M2340-264.74h2.18v4.13H2340v5.54h-5v-5.54h-8.47l-.23-3.21,8.68-16.84h5Zm-8.84,0H2335v-8.56l-.11.19Z" transform="translate(-1163.64 673.29)"/><path class="cls-3" d="M2352.2-280.66l4.83,18.5,4.82-18.5h6.75v25.59h-5.19V-262l.48-10.67-5.12,17.6h-3.51l-5.12-17.6.48,10.67v6.93h-5.17v-25.59Z" transform="translate(-1163.64 673.29)"/><circle class="cls-2" cx="1468.54" cy="381.16" r="7.5"/><path class="cls-3" d="M2617.82-92.26h-11.18v-1.55l5.9-6.57a13.62,13.62,0,0,0,1.81-2.42,3.93,3.93,0,0,0,.5-1.92,3.06,3.06,0,0,0-.81-2.2,2.81,2.81,0,0,0-2.15-.85,3.38,3.38,0,0,0-2.52.92,3.54,3.54,0,0,0-.89,2.56h-2.17a5,5,0,0,1,1.52-3.81,5.61,5.61,0,0,1,4.06-1.45,5.37,5.37,0,0,1,3.76,1.25A4.24,4.24,0,0,1,2617-105q0,2.52-3.21,6l-4.57,5h8.57Z" transform="translate(-1163.64 673.29)"/><path class="cls-3" d="M2630.81-99.53a9.9,9.9,0,0,1-1.3,5.66,4.62,4.62,0,0,1-4.06,1.85,4.67,4.67,0,0,1-4-1.81,9.45,9.45,0,0,1-1.36-5.41v-2.89a9.73,9.73,0,0,1,1.3-5.59,4.67,4.67,0,0,1,4.08-1.83,4.73,4.73,0,0,1,4.06,1.76,9.39,9.39,0,0,1,1.33,5.44Zm-2.16-3a7.89,7.89,0,0,0-.78-4,2.65,2.65,0,0,0-2.45-1.26,2.62,2.62,0,0,0-2.42,1.25,7.79,7.79,0,0,0-.79,3.86v3.47a8.13,8.13,0,0,0,.8,4.08,2.67,2.67,0,0,0,2.44,1.32,2.61,2.61,0,0,0,2.38-1.24,7.87,7.87,0,0,0,.82-3.92Z" transform="translate(-1163.64 673.29)"/><path class="cls-3" d="M2644.77-92.26h-11.18v-1.55l5.91-6.57a14.14,14.14,0,0,0,1.81-2.42,4,4,0,0,0,.5-1.92,3.06,3.06,0,0,0-.81-2.2,2.83,2.83,0,0,0-2.16-.85,3.34,3.34,0,0,0-2.51.92,3.51,3.51,0,0,0-.9,2.56h-2.17a5,5,0,0,1,1.52-3.81,5.62,5.62,0,0,1,4.06-1.45,5.35,5.35,0,0,1,3.76,1.25A4.24,4.24,0,0,1,2644-105q0,2.52-3.21,6l-4.57,5h8.57Z" transform="translate(-1163.64 673.29)"/><path class="cls-3" d="M2657.77-99.53a10,10,0,0,1-1.3,5.66A4.65,4.65,0,0,1,2652.4-92a4.64,4.64,0,0,1-4-1.81,9.37,9.37,0,0,1-1.36-5.41v-2.89c0-2.51.43-4.38,1.3-5.59a4.65,4.65,0,0,1,4.08-1.83,4.72,4.72,0,0,1,4,1.76,9.39,9.39,0,0,1,1.34,5.44Zm-2.17-3a7.89,7.89,0,0,0-.78-4,2.65,2.65,0,0,0-2.44-1.26,2.64,2.64,0,0,0-2.43,1.25,7.79,7.79,0,0,0-.79,3.86v3.47a8,8,0,0,0,.81,4.08,2.64,2.64,0,0,0,2.43,1.32,2.61,2.61,0,0,0,2.38-1.24,7.87,7.87,0,0,0,.82-3.92Z" transform="translate(-1163.64 673.29)"/><path class="cls-3" d="M2612.93-357.13h-5v-19.55l-4.87,1.88v-4.15l9.34-3.81h.52Z" transform="translate(-1163.64 673.29)"/><path class="cls-3" d="M2635.06-367.71q0,5.29-1.92,8.12a6.26,6.26,0,0,1-5.49,2.81,6.28,6.28,0,0,1-5.46-2.73c-1.29-1.83-2-4.44-2-7.84v-4.83q0-5.29,1.92-8.09a6.26,6.26,0,0,1,5.5-2.81,6.27,6.27,0,0,1,5.5,2.78q1.92,2.78,1.95,7.93Zm-5-5.19a13,13,0,0,0-.6-4.54,2,2,0,0,0-1.86-1.51q-2.37,0-2.46,5.54V-367a13,13,0,0,0,.61,4.61,2,2,0,0,0,1.89,1.51,1.94,1.94,0,0,0,1.8-1.42,12.29,12.29,0,0,0,.62-4.33Z" transform="translate(-1163.64 673.29)"/><path class="cls-3" d="M2645.54-382.73l4.83,18.51,4.82-18.51h6.75v25.6h-5.18v-6.93l.47-10.67-5.12,17.6h-3.51l-5.12-17.6.48,10.67v6.93h-5.17v-25.6Z" transform="translate(-1163.64 673.29)"/><circle class="cls-2" cx="1752.77" cy="90.95" r="7.5"/><path class="cls-3" d="M2902.05-92.26h-11.18v-1.55l5.91-6.57a13.62,13.62,0,0,0,1.81-2.42,4,4,0,0,0,.5-1.92,3.06,3.06,0,0,0-.81-2.2,2.83,2.83,0,0,0-2.16-.85,3.37,3.37,0,0,0-2.51.92,3.51,3.51,0,0,0-.9,2.56h-2.16a5,5,0,0,1,1.51-3.81,5.64,5.64,0,0,1,4.06-1.45,5.4,5.4,0,0,1,3.77,1.25,4.24,4.24,0,0,1,1.38,3.32q0,2.52-3.21,6l-4.57,5h8.56Z" transform="translate(-1163.64 673.29)"/><path class="cls-3" d="M2915.05-99.53a9.9,9.9,0,0,1-1.3,5.66,4.64,4.64,0,0,1-4.07,1.85,4.65,4.65,0,0,1-4-1.81,9.45,9.45,0,0,1-1.36-5.41v-2.89c0-2.51.43-4.38,1.3-5.59a4.67,4.67,0,0,1,4.08-1.83,4.69,4.69,0,0,1,4.05,1.76,9.31,9.31,0,0,1,1.34,5.44Zm-2.17-3a8,8,0,0,0-.77-4,2.67,2.67,0,0,0-2.45-1.26,2.64,2.64,0,0,0-2.43,1.25,7.8,7.8,0,0,0-.78,3.86v3.47a8.13,8.13,0,0,0,.8,4.08,2.67,2.67,0,0,0,2.43,1.32,2.62,2.62,0,0,0,2.39-1.24,7.78,7.78,0,0,0,.81-3.92Z" transform="translate(-1163.64 673.29)"/><path class="cls-3" d="M2929-92.26h-11.18v-1.55l5.9-6.57a13.62,13.62,0,0,0,1.81-2.42,3.93,3.93,0,0,0,.5-1.92,3.06,3.06,0,0,0-.81-2.2,2.81,2.81,0,0,0-2.15-.85,3.38,3.38,0,0,0-2.52.92,3.54,3.54,0,0,0-.89,2.56h-2.17a5,5,0,0,1,1.52-3.81,5.61,5.61,0,0,1,4.06-1.45,5.37,5.37,0,0,1,3.76,1.25,4.24,4.24,0,0,1,1.38,3.32q0,2.52-3.21,6l-4.57,5H2929Z" transform="translate(-1163.64 673.29)"/><path class="cls-3" d="M2938.43-92.26h-2.18V-106.7l-4.37,1.6v-2l6.21-2.33h.34Z" transform="translate(-1163.64 673.29)"/><path class="cls-3" d="M2887-647.34h-15.09v-3.52l6.93-8.81a18.42,18.42,0,0,0,1.94-3.2,6.4,6.4,0,0,0,.63-2.65,5.13,5.13,0,0,0-.59-2.67,1.87,1.87,0,0,0-1.7-1,2.17,2.17,0,0,0-1.92,1.13,5.84,5.84,0,0,0-.72,3.16h-5a9.54,9.54,0,0,1,1-4.31,7.26,7.26,0,0,1,2.74-3,7.52,7.52,0,0,1,4-1.08,7.2,7.2,0,0,1,5.32,1.89,7.26,7.26,0,0,1,1.89,5.37,10.26,10.26,0,0,1-1.05,4.39,27.14,27.14,0,0,1-3.79,5.47l-3.28,4.7h8.7Z" transform="translate(-1163.64 673.29)"/><path class="cls-3" d="M2894.52-662.41h2.4a2.26,2.26,0,0,0,2-1,4.56,4.56,0,0,0,.64-2.55,3.84,3.84,0,0,0-.66-2.39,2.14,2.14,0,0,0-1.77-.85,2.08,2.08,0,0,0-1.69.81,3.12,3.12,0,0,0-.66,2h-5a7.12,7.12,0,0,1,.92-3.6,6.51,6.51,0,0,1,2.59-2.48,7.59,7.59,0,0,1,3.68-.9,7.61,7.61,0,0,1,5.54,1.95,7.13,7.13,0,0,1,2,5.35,6.09,6.09,0,0,1-.9,3.22,6.27,6.27,0,0,1-2.38,2.28,5.45,5.45,0,0,1,2.69,2.32,7.13,7.13,0,0,1,.89,3.65,7.16,7.16,0,0,1-2.17,5.47A8,8,0,0,1,2897-647a7.27,7.27,0,0,1-5.34-2,7.21,7.21,0,0,1-2-5.34h5a3.68,3.68,0,0,0,.72,2.31,2.22,2.22,0,0,0,1.83.93,2.46,2.46,0,0,0,2-1,4,4,0,0,0,.74-2.53c0-2.52-1-3.79-2.93-3.8h-2.44Z" transform="translate(-1163.64 673.29)"/><path class="cls-3" d="M2908.84-649.87a2.62,2.62,0,0,1,.8-2,2.85,2.85,0,0,1,2.08-.78,2.94,2.94,0,0,1,2.08.77,2.57,2.57,0,0,1,.82,2,2.5,2.5,0,0,1-.83,2,3,3,0,0,1-2.07.75,2.88,2.88,0,0,1-2.06-.76A2.53,2.53,0,0,1,2908.84-649.87Z" transform="translate(-1163.64 673.29)"/><path class="cls-3" d="M2919.28-659.93l1.27-13h12.39v4.26h-8.31l-.46,5.48a5.3,5.3,0,0,1,3-1,5.77,5.77,0,0,1,4.88,2.25,10.36,10.36,0,0,1,1.71,6.37,9.14,9.14,0,0,1-2,6.2,6.84,6.84,0,0,1-5.45,2.36,7.57,7.57,0,0,1-3.74-1,7.16,7.16,0,0,1-2.72-2.66,7.69,7.69,0,0,1-1-3.87h4.92a4.67,4.67,0,0,0,.8,2.48,2.08,2.08,0,0,0,1.72.88,2.1,2.1,0,0,0,1.9-1.19,7.45,7.45,0,0,0,.67-3.54,5.77,5.77,0,0,0-.8-3.34,2.62,2.62,0,0,0-2.25-1.13,2.66,2.66,0,0,0-2.18,1l-.31.44Z" transform="translate(-1163.64 673.29)"/><path class="cls-3" d="M2944.12-672.94l4.83,18.51,4.82-18.51h6.75v25.6h-5.18v-6.93l.47-10.67-5.12,17.6h-3.51l-5.12-17.6.48,10.67v6.93h-5.17v-25.6Z" transform="translate(-1163.64 673.29)"/><line class="cls-4" x1="47.35" y1="493.66" x2="47.35" y2="493.66"/><line class="cls-5" x1="47.35" y1="504.61" x2="47.35" y2="542.95"/><line class="cls-4" x1="47.35" y1="548.43" x2="47.35" y2="548.43"/><line class="cls-4" x1="331.59" y1="492.79" x2="331.59" y2="492.79"/><line class="cls-5" x1="331.59" y1="503.74" x2="331.59" y2="542.08"/><line class="cls-4" x1="331.59" y1="547.55" x2="331.59" y2="547.55"/><line class="cls-4" x1="615.83" y1="489.17" x2="615.83" y2="489.17"/><line class="cls-5" x1="615.83" y1="500.12" x2="615.83" y2="538.46"/><line class="cls-4" x1="615.83" y1="543.94" x2="615.83" y2="543.94"/><line class="cls-4" x1="900" y1="473.1" x2="900" y2="473.1"/><line class="cls-5" x1="900" y1="484.05" x2="900" y2="522.39"/><line class="cls-4" x1="900" y1="527.86" x2="900" y2="527.86"/><line class="cls-4" x1="1184.3" y1="428.6" x2="1184.3" y2="428.6"/><line class="cls-5" x1="1184.3" y1="439.55" x2="1184.3" y2="477.89"/><line class="cls-4" x1="1184.3" y1="483.36" x2="1184.3" y2="483.36"/><line class="cls-4" x1="1468.54" y1="326.39" x2="1468.54" y2="326.39"/><line class="cls-5" x1="1468.54" y1="337.34" x2="1468.54" y2="375.68"/><line class="cls-4" x1="1468.54" y1="381.16" x2="1468.54" y2="381.16"/><line class="cls-4" x1="1752.77" y1="36.18" x2="1752.77" y2="36.18"/><line class="cls-5" x1="1752.77" y1="47.13" x2="1752.77" y2="85.47"/><line class="cls-4" x1="1752.77" y1="90.95" x2="1752.77" y2="90.95"/></svg>