<?xml version="1.0" encoding="utf-8"?>
<!-- Generator: Adobe Illustrator 25.2.3, SVG Export Plug-In . SVG Version: 6.00 Build 0)  -->
<svg version="1.1" id="Layer_1" xmlns="http://www.w3.org/2000/svg" xmlns:xlink="http://www.w3.org/1999/xlink" x="0px" y="0px"
	 viewBox="0 0 301.2 157.3" style="enable-background:new 0 0 301.2 157.3;" xml:space="preserve">
<style type="text/css">
	.st0{fill:#26BDE2;}
	.st1{fill:#DDA63A;}
	.st2{fill:#56C02B;}
	.st3{fill:#E5243B;}
	.st4{fill:#FFFFFF;}
</style>
<g id="Group_1" transform="translate(-37.53 -37.7)">
	<path id="Path_1" class="st0" d="M135.5,115.9c-1.4-2.2-2.9-4.4-4.5-6.4c-0.7-0.8-1.3-1.6-2.1-2.4s-1.8-2.1-3.1-1.4l-1.3,0.7
		c-5.8,3-11,6.9-15.6,11.6c-3.6,3.7-6.3,9.2-10.2,12.6c-4.8,4.6-12.4,4.6-17.2,0c-2.7-2.4-5-6.5-7.3-9.3c-3.9-4.8-8.5-8.9-13.7-12.2
		c-1.9-1.2-3.8-2.3-5.8-3.3c-0.6-0.3-1.4-0.2-1.9,0.3c-1.1,1.1-2.2,2.3-3.2,3.5c-1.6,2-3.2,4.2-4.6,6.4c-0.5,0.9-0.3,2,0.6,2.5
		c0.1,0.1,0.3,0.1,0.4,0.2c6.8,2.2,12.2,6.7,16.7,12.3c2,2.6,4.2,5.2,6.5,7.6c9.2,10.1,23.8,13.3,35.8,5.3l0,0
		c3.7-2.6,7.1-5.8,9.9-9.4c2.7-3.3,5.2-6.7,8.5-9.4c2.5-2.2,5.3-3.9,8.3-5.3c0.9-0.4,1.9-0.8,2.9-1.1c0.7-0.2,1.2-0.9,1.3-1.7
		C135.8,116.6,135.7,116.2,135.5,115.9"/>
	<path id="Path_2" class="st1" d="M130.2,170.1c-0.8-0.1-1.5-0.2-2.3-0.1c-5.9,0.1-11,4.4-16.4,6.6c-6.6,2.7-13.7,4.1-20.9,3.9
		c-7.4,0.2-14.9-1.1-21.8-3.9c-3.7-1.5-6.9-3.8-10.6-5.3c-2.8-1.3-6-1.7-9.1-0.9c-0.8,0.1-1.5,0.6-2,1.2c-0.3,0.4-0.3,1,0.1,1.4
		c6.6,9.2,16,16.1,26.8,19.5c21.4,7.2,47.2-1.7,59.2-19.6C134.3,171.2,131.5,170.4,130.2,170.1"/>
	<path id="Path_3" class="st2" d="M142.4,134.9c-0.2-0.9-0.9-1.5-1.8-1.5c-0.9,0-1.8,0.1-2.7,0.2c-13,1.6-20,8.1-25.8,13.4
		s-10.6,9.7-22,9.7c-11.2,0-15.8-4.3-21.7-9.7S54,134.7,39.9,133.4c-0.9-0.1-1.7,0.6-1.8,1.5c-0.3,2.5-0.5,5-0.5,7.4
		c0,1.6,0.1,3.2,0.2,4.7c0.1,0.8,0.7,1.5,1.5,1.6c8.6,1,13.9,4.9,19.1,9.7s11.7,10.8,23,12.8h0.1c5.1,0.9,10.3,1,15.4,0.3
		c4.1-0.5,8.1-1.7,11.8-3.4c3-1.5,5.9-3.3,8.5-5.5c1.7-1.3,3.2-2.8,4.8-4.2c5.2-4.8,10.5-8.7,19.2-9.7c0.8-0.1,1.5-0.7,1.6-1.6
		c0.1-1.6,0.2-3.1,0.2-4.7C142.9,139.8,142.8,137.4,142.4,134.9"/>
	<path id="Path_4" class="st3" d="M105,90.1c-0.2-1.1-0.7-1.9-1.6-2.1h-0.1c-0.3,0-0.5,0-0.8,0c-2.6,0.3-4.9,2.5-6.6,4.3
		c-1.8,2.1-3.4,4.3-4.7,6.8c-1.5-4.2-4.7-9.9-9.8-8.8c-4.8,1.1-7.9,5.8-6.8,10.7c0,0,0,0,0,0c0,0.2,0.1,0.3,0.1,0.5
		c1.1,3.9,2.9,7.6,5.2,10.8c1.7,2.6,3.5,5.1,5.5,7.5c0.5,0.7,1.1,1.3,1.7,1.9c0.9,0.9,1.9,1.5,3.1,1.8c2.4,0.4,4.1-1.7,5.3-3.5
		c4.2-6.5,6.8-14,8.6-21.5c0.2-1.1,0.5-2.3,0.7-3.6C105.2,93.3,105.2,91.7,105,90.1"/>
	<path id="Path_5" class="st4" d="M302.8,111c1.6,0.2,3.1-1,3.3-2.7c0-0.1,0-0.3,0-0.4v-4.4c-0.1-1.8-1.7-3.2-3.6-3
		c-1.6,0.1-2.9,1.4-3,3v4.4c-0.1,1.7,1.2,3,2.9,3.1c0,0,0,0,0,0C302.5,111,302.7,111,302.8,111 M301.3,103.5c0-0.8,0.7-1.5,1.5-1.5
		s1.5,0.7,1.5,1.5v4.3c0,0.8-0.7,1.5-1.5,1.5s-1.5-0.7-1.5-1.5V103.5z"/>
	<path id="Path_6" class="st4" d="M309.2,104.7l-0.1-0.7h0.1l2.5,6.9h2.1v-10.2h-1.8v6.2l0.1,0.7h-0.1l-2.5-6.8h-2.1v10.2h1.8V104.7
		z"/>
	<path id="Path_7" class="st4" d="M234.6,143.2c-4.8,0-8,2.9-8,7.4v10.6c0,4.5,3.2,7.4,8,7.4s7.9-2.9,7.9-7.4v-10.6
		C242.5,146.2,239.4,143.2,234.6,143.2 M238.2,161.2c0,2-1.6,3.6-3.6,3.6s-3.6-1.6-3.6-3.6v-10.4c0-2,1.6-3.6,3.6-3.6
		s3.6,1.6,3.6,3.6V161.2z"/>
	<path id="Path_8" class="st4" d="M261,151.5c0-4.9-2.8-7.8-7.8-7.8h-7.6v24.6h4.4v-8.9h2.9l3.5,8.9h5.1l-4.4-9.7
		C259.6,157.5,261,155.1,261,151.5 M252.8,155.5H250v-7.8h2.8c2.4,0,3.8,1.4,3.8,3.9S255.2,155.5,252.8,155.5"/>
	<rect id="Rectangle_1" x="296.7" y="143.7" class="st4" width="4.3" height="24.6"/>
	<path id="Path_9" class="st4" d="M312.1,143.2c-4.8,0-8,2.9-8,7.4v10.6c0,4.5,3.1,7.4,8,7.4s7.9-2.9,7.9-7.4v-10.6
		C320,146.2,316.9,143.2,312.1,143.2 M315.6,161.2c-0.1,2-1.8,3.5-3.8,3.4c-1.8-0.1-3.3-1.6-3.4-3.4v-10.4c0.1-2,1.8-3.5,3.8-3.4
		c1.8,0.1,3.3,1.6,3.4,3.4V161.2z"/>
	<path id="Path_10" class="st4" d="M334.4,143.7v14.8l0.2,1.7h-0.3l-6.1-16.5h-5.1v24.6h4.3v-14.8l-0.2-1.7h0.3l6,16.5h5.1v-24.6
		H334.4z"/>
	<path id="Path_11" class="st4" d="M210.7,147.7h5.3v20.6h4.3v-20.6h3.6c0.8-0.1,1.5-0.8,1.6-1.6v-2.4h-14.8V147.7z"/>
	<path id="Path_12" class="st4" d="M279.5,147.7h5.2v20.6h4.3v-20.6h3.5c0.8-0.1,1.5-0.8,1.6-1.6v-2.4h-14.7V147.7z"/>
	<path id="Path_13" class="st4" d="M260.8,107.7v-4.1c0-1.7-1.3-3-2.9-3.1c0,0,0,0,0,0c-0.1,0-0.2,0-0.3,0h-3.1v10.2h3.1
		c1.7,0.1,3.1-1.1,3.2-2.8C260.8,107.9,260.8,107.8,260.8,107.7 M256.2,109.1v-6.9h1.3c0.8-0.1,1.4,0.5,1.5,1.2c0,0.1,0,0.2,0,0.2v4
		c0.1,0.7-0.5,1.4-1.2,1.5c0,0,0,0,0,0c-0.1,0-0.2,0-0.2,0L256.2,109.1z"/>
	<path id="Path_14" class="st4" d="M289.8,107.7v-4.1c0-1.7-1.3-3-2.9-3.1c0,0,0,0,0,0c-0.1,0-0.2,0-0.3,0h-3.1v10.2h3.1
		c1.7,0.1,3.1-1.1,3.2-2.7C289.8,108,289.8,107.8,289.8,107.7 M285.3,109.1v-6.9h1.2c0.8-0.1,1.4,0.5,1.5,1.2c0,0,0,0,0,0
		c0,0.1,0,0.1,0,0.2v4c0.1,0.8-0.5,1.4-1.3,1.5c-0.1,0-0.2,0-0.2,0L285.3,109.1z"/>
	<path id="Path_15" class="st4" d="M267.3,109.1h-3.5v-2.7h3v-1.6h-3v-2.6h2.7c0.4,0,0.8-0.3,0.8-0.8v-0.9H262v10.2h5.3L267.3,109.1
		z"/>
	<path id="Path_16" class="st4" d="M296.4,109.1h-3.5v-2.7h3v-1.6h-3v-2.6h2.7c0.4,0,0.7-0.3,0.8-0.7v-0.9h-5.3v10.2h5.3
		L296.4,109.1z"/>
	<path id="Path_17" class="st4" d="M271.6,111c1.6,0.2,3.1-1,3.2-2.6c0-0.1,0-0.2,0-0.4v-0.8h-1.1c-0.4,0-0.7,0.4-0.7,0.8l0,0
		c0,0.8-0.6,1.4-1.4,1.4c-0.8,0-1.4-0.6-1.4-1.4v-4.5c0-0.8,0.6-1.4,1.4-1.4c0.8,0,1.4,0.6,1.4,1.4l0,0c0,0.4,0.3,0.8,0.8,0.8
		c0,0,0,0,0,0h1v-0.8c-0.1-1.8-1.7-3.1-3.5-3c-1.6,0.1-2.9,1.4-3,3v4.6c0,1.7,1.3,3,3,3c0,0,0,0,0,0C271.4,111,271.5,111,271.6,111"
		/>
	<path id="Path_18" class="st4" d="M277.3,110l0.3-1.4h2.5l0.4,2.2h2l-2.4-10.2h-2.5l-2.4,10.2h1.1
		C276.8,110.8,277.2,110.5,277.3,110 M278.8,102.4h0.1l0.9,4.6h-1.9L278.8,102.4z"/>
	<path id="Path_19" class="st4" d="M268.1,143.7l-5.8,24.6h2.7c1.2,0,2.2-0.8,2.4-2l0.7-3.4h6.1l0.7,3.4c0.2,1.2,1.2,2,2.4,1.9h2.7
		l-5.8-24.6L268.1,143.7z M268.8,159l2.2-11h0.3l2.2,11L268.8,159z"/>
	<path id="Path_20" class="st4" d="M190.4,147.7c1,0,1.9-0.8,1.9-1.9v-2.1h-12.7v24.6h12.7v-4h-8.4v-6.5h7.2v-3.9h-7.2v-6.2
		L190.4,147.7z"/>
	<path id="Path_21" class="st4" d="M209.4,161.4c0-8.9-10.4-6.5-10.4-11.5c-0.1-1.4,1-2.6,2.5-2.7c0,0,0,0,0,0c0.1,0,0.3,0,0.4,0
		c1.5-0.2,2.8,0.9,3,2.3l0,0c0,0.6,0.5,1.1,1.1,1.2h3.1v-1c0-3.9-2.8-6.5-7.2-6.5s-7.2,2.5-7.2,7c0,8.6,10.4,6.5,10.4,11.5
		c0.1,1.6-1.1,2.9-2.6,3c0,0,0,0,0,0c-1.7,0.1-3.2-1-3.7-2.6c0-0.1,0-0.2,0-0.2l0,0c0-0.6-0.5-1.2-1.2-1.2h-3.2v1c0,4.2,3,7,7.6,7
		S209.4,166,209.4,161.4"/>
	<path id="Path_22" class="st4" d="M165.9,159.4h2.9l3.4,8.9h5.1l-4.4-9.6c2.6-1.1,4-3.6,4-7.1c0-4.9-2.8-7.8-7.7-7.8h-7.6v24.6h4.3
		L165.9,159.4z M165.9,147.7h2.8c2.4,0,3.8,1.4,3.8,3.9s-1.4,3.9-3.8,3.9h-2.8V147.7z"/>
	<path id="Path_23" class="st4" d="M202.6,114.5c-4.8,0-8,2.9-8,7.4v10.7c0,4.5,3.1,7.4,8,7.4s7.9-2.9,7.9-7.4v-10.7
		C210.5,117.4,207.4,114.5,202.6,114.5 M206.1,132.5c-0.1,2-1.8,3.5-3.8,3.4c-1.8-0.1-3.3-1.6-3.4-3.4V122c0.1-2,1.8-3.5,3.8-3.4
		c1.8,0.1,3.3,1.6,3.4,3.4V132.5z"/>
	<path id="Path_24" class="st4" d="M241.7,114.9h-1.9l-0.3,0.8l-3.2,9.1h-0.2l-3-8.4c0.1,0.1,0.1,0.3,0.1,0.4l-0.7-2h-5l6.4,14.7
		v9.9h4.4v-9.9l6.4-14.7L241.7,114.9"/>
	<path id="Path_25" class="st4" d="M309.4,121.7h0.4l-0.2,1.7v16.1h4.3v-24.6H308l-3.8,13.3H304l-3.9-13.3h-6v24.6h4.3v-16.1
		l-0.2-1.7h0.3l3.8,12.5h3.2L309.4,121.7z"/>
	<path id="Path_26" class="st4" d="M174.2,135.5h-8.4V129h7.2v-3.9h-7.2v-6.2h6.5c1,0,1.9-0.8,1.9-1.9v-2.1h-12.7v24.6h12.7
		L174.2,135.5z"/>
	<path id="Path_27" class="st4" d="M184.6,139.9c4.7,0,7.7-2.9,7.7-7.2v-2h-2.5c-1,0-1.8,0.9-1.8,1.9l0,0c0,1.9-1.5,3.4-3.4,3.4
		c-1.9,0-3.4-1.5-3.4-3.4v-10.8c0-1.9,1.5-3.4,3.4-3.4c1.9,0,3.4,1.5,3.4,3.4l0,0l0,0c0,1,0.8,1.9,1.9,1.9h2.4v-2
		c0-4.4-3.1-7.2-7.7-7.2s-7.8,2.9-7.8,7.2v11C176.7,137,179.8,139.9,184.6,139.9"/>
	<path id="Path_28" class="st4" d="M217.1,121.1c-0.1-1.4,1-2.6,2.5-2.7c0,0,0,0,0,0c0.1,0,0.3,0,0.4,0c1.5-0.2,2.8,0.9,3,2.3l0,0
		c0,0.6,0.4,1.1,1,1.2h3.1v-1c0-3.9-2.8-6.5-7.2-6.5s-7.2,2.5-7.2,7c0,8.6,10.4,6.5,10.4,11.5c0.1,1.6-1.1,2.9-2.6,3c0,0,0,0,0,0
		c-0.2,0-0.3,0-0.5,0c-1.6,0.2-3-1-3.2-2.6c0-0.1,0-0.2,0-0.2l0,0c0-0.6-0.5-1.2-1.1-1.2h-3.1v1c0,4.2,3,7,7.6,7s7.4-2.6,7.4-7.3
		C227.5,123.8,217.1,126.2,217.1,121.1"/>
	<path id="Path_29" class="st4" d="M252.6,139.9c4.5,0,7.4-2.6,7.4-7.3c0-8.9-10.4-6.5-10.4-11.5c-0.1-1.4,1-2.6,2.5-2.7
		c0.1,0,0.3,0,0.4,0c1.5-0.2,2.8,0.9,3,2.3l0,0c0,0.6,0.5,1.1,1.1,1.2h3.1v-1c0-3.9-2.8-6.5-7.2-6.5s-7.2,2.5-7.2,7
		c0,8.6,10.4,6.5,10.4,11.5c0.1,1.6-1.1,2.9-2.6,3c-0.2,0-0.3,0-0.5,0c-1.6,0.2-3-1-3.2-2.6c0-0.1,0-0.2,0-0.2l0,0
		c0-0.6-0.5-1.2-1.1-1.2H245v1C245,137.2,248,140,252.6,139.9"/>
	<path id="Path_30" class="st4" d="M266.2,139.5h4.3v-20.6h3.5c0.8-0.1,1.5-0.8,1.6-1.6v-2.4H261v4h5.2L266.2,139.5z"/>
	<path id="Path_31" class="st4" d="M289.1,118.9c1,0,1.8-0.7,1.9-1.7v-2.3h-12.7v24.6h12.7v-4h-8.4V129h7.2v-3.9h-7.2v-6.2
		L289.1,118.9z"/>
	<path id="Path_32" class="st4" d="M164.7,111c1.6,0.2,3-1,3.1-2.6c0-0.1,0-0.2,0-0.4v-7.5h-1.8v7.4c0,0.8-0.6,1.4-1.4,1.4
		s-1.4-0.6-1.4-1.4l0,0l0,0v-7.4h-1.8v7.5c0,1.6,1.2,2.9,2.8,2.9c0,0,0,0,0,0C164.5,111,164.6,111,164.7,111"/>
	<path id="Path_33" class="st4" d="M171.1,104.7l-0.1-0.7h0.1l2.5,6.8h2.1v-10.2H174v6.1l0.1,0.7H174l-2.5-6.8h-2.1v10.2h1.8
		L171.1,104.7z"/>
	<rect id="Rectangle_2" x="177.2" y="100.6" class="st4" width="1.8" height="10.2"/>
	<path id="Path_34" class="st4" d="M182.2,110.8h1.8v-8.5h2.1v-1.7h-6.1v1.7h2.2V110.8z"/>
	<path id="Path_35" class="st4" d="M192.5,109.1H189v-2.7h3v-1.6h-3v-2.6h2.7c0.4,0,0.8-0.3,0.8-0.8v-0.9h-5.3v10.2h5.3V109.1z"/>
	<path id="Path_36" class="st4" d="M200.1,107.7v-4.1c0-1.7-1.3-3-2.9-3.1c-0.1,0-0.2,0-0.3,0h-3.1v10.2h3.1
		c1.7,0.1,3.1-1.1,3.2-2.8C200.1,107.9,200.2,107.8,200.1,107.7 M195.6,109.1v-6.9h1.2c0.7-0.1,1.4,0.5,1.5,1.2c0,0.1,0,0.2,0,0.2v4
		c0.1,0.7-0.5,1.4-1.2,1.5c0,0,0,0,0,0c-0.1,0-0.2,0-0.2,0L195.6,109.1z"/>
	<path id="Path_37" class="st4" d="M208.8,106.7l0.1,0.7h-0.1l-2.5-6.8h-2.1v10.2h1.8v-6.1l-0.1-0.7h0.1l2.5,6.8h2.1v-10.2h-1.8
		L208.8,106.7z"/>
	<path id="Path_38" class="st4" d="M220.7,110.8h1.8v-8.5h2.1v-1.7h-6.1v1.7h2.2L220.7,110.8z"/>
	<rect id="Rectangle_3" x="225.7" y="100.6" class="st4" width="1.8" height="10.2"/>
	<path id="Path_39" class="st4" d="M232.1,111c1.6,0.1,3.1-1.1,3.3-2.7c0-0.1,0-0.2,0-0.4v-4.4c-0.1-1.8-1.7-3.2-3.5-3
		c-1.6,0.1-2.9,1.4-3,3v4.4c-0.1,1.7,1.2,3,2.9,3.1c0,0,0,0,0,0C231.8,111,231.9,111,232.1,111 M230.6,103.6c0-0.8,0.7-1.5,1.5-1.5
		s1.5,0.7,1.5,1.5v4.3c0,0.8-0.7,1.5-1.5,1.5s-1.5-0.7-1.5-1.5V103.6z"/>
	<path id="Path_40" class="st4" d="M238.4,104.7l-0.1-0.7h0.1l2.5,6.8h2.1v-10.2h-1.8v6.1l0.1,0.7h-0.1l-2.5-6.8h-2.1v10.2h1.8
		L238.4,104.7z"/>
	<path id="Path_41" class="st4" d="M213.6,110l0.3-1.4h2.6l0.3,1.4c0.1,0.5,0.5,0.8,1,0.8h1.2l-2.4-10.2H214l-2.4,10.2h1.1
		C213.1,110.8,213.5,110.5,213.6,110 M215.1,102.4h0.1l0.9,4.6h-2L215.1,102.4z"/>
	<path id="Path_42" class="st4" d="M247.3,111c1.5,0.1,2.9-1,3.1-2.5c0-0.2,0-0.3,0-0.5c0-3.7-4.3-2.7-4.3-4.8c0-0.6,0.4-1.1,1-1.1
		c0,0,0,0,0,0c0.1,0,0.1,0,0.2,0c0.6-0.1,1.2,0.4,1.2,1c0,0,0,0,0,0v0l0,0c0,0.3,0.2,0.5,0.5,0.5h1.3v-0.4c0-1.7-1.4-3-3.1-2.9
		c-1.7,0-3,1.4-2.9,3.1c0,3.6,4.3,2.7,4.3,4.8c0,0.6-0.5,1.2-1.1,1.2c-0.1,0-0.1,0-0.2,0c-0.7,0.1-1.3-0.4-1.3-1.1c0,0,0-0.1,0-0.1
		l0,0c0-0.3-0.2-0.5-0.5-0.5h-1.3v0.4c0,1.6,1.2,2.9,2.8,2.9C247.1,111,247.2,111,247.3,111"/>
	<path id="Path_43" class="st4" d="M166.8,179.1c0.8-1,1.3-2.2,1.3-3.5c-0.1-1.8-1.6-3.3-3.4-3.2c-1.7,0.1-3.1,1.4-3.2,3.1v1h1.2
		c0.5,0,0.9-0.4,0.9-0.9l0,0l0,0c0-0.7,0.5-1.3,1.1-1.3c0.7,0,1.3,0.5,1.3,1.1c0,0,0,0,0,0c0,0.1,0,0.1,0,0.2c-0.1,1-0.6,2-1.3,2.8
		l-3.2,4.5v1.5h6.6v-1.9h-3.8v-0.1L166.8,179.1z"/>
	<path id="Path_44" class="st4" d="M172.8,172.5c-2.1,0-3.6,1.3-3.6,3.2v5.8c0,1.9,1.4,3.2,3.6,3.2s3.5-1.3,3.5-3.2v-5.8
		C176.3,173.8,174.9,172.5,172.8,172.5 M174.2,181.5c-0.1,0.8-0.8,1.4-1.6,1.3c-0.7-0.1-1.3-0.6-1.3-1.3v-5.7
		c0.1-0.8,0.8-1.4,1.6-1.3c0.7,0.1,1.3,0.6,1.3,1.3V181.5z"/>
	<path id="Path_45" class="st4" d="M182.6,179.1c0.8-1,1.3-2.2,1.3-3.5c-0.1-1.8-1.7-3.2-3.5-3.1c-1.6,0.1-3,1.4-3.1,3v1h1.2
		c0.5,0,0.9-0.4,0.9-0.9c0-0.7,0.5-1.3,1.1-1.3c0.7,0,1.3,0.5,1.3,1.1c0,0,0,0,0,0c0,0.1,0,0.1,0,0.2c-0.1,1-0.6,2-1.3,2.8l-3.2,4.5
		v1.5h6.6v-1.9h-3.8v-0.1L182.6,179.1z"/>
	<path id="Path_46" class="st4" d="M184.9,173.9v2l1.7-1h0.2v9.6h2.1v-11.8h-1.6L184.9,173.9z"/>
	<rect id="Rectangle_4" x="190.1" y="177.8" class="st4" width="4" height="1.9"/>
	<path id="Path_47" class="st4" d="M200,179.1c0.8-1,1.3-2.2,1.3-3.5c-0.1-1.8-1.6-3.3-3.4-3.2c-1.7,0.1-3.1,1.4-3.2,3.1v1h1.2
		c0.5,0,0.9-0.4,0.9-0.9l0,0l0,0c0-0.7,0.5-1.3,1.1-1.3c0.7,0,1.3,0.5,1.3,1.1c0,0,0,0,0,0c0,0.1,0,0.1,0,0.2c-0.1,1-0.6,2-1.2,2.7
		l-3.2,4.5v1.5h6.6v-1.9h-3.8v-0.1L200,179.1z"/>
	<path id="Path_48" class="st4" d="M205.9,172.5c-2.1,0-3.6,1.3-3.6,3.2v5.8c0,1.9,1.4,3.2,3.6,3.2s3.5-1.3,3.5-3.2v-5.8
		C209.4,173.8,208.1,172.5,205.9,172.5 M207.4,181.5c-0.1,0.8-0.8,1.4-1.6,1.3c-0.7-0.1-1.3-0.6-1.3-1.3v-5.7
		c0.1-0.8,0.8-1.4,1.6-1.3c0.7,0.1,1.3,0.6,1.3,1.3V181.5z"/>
	<path id="Path_49" class="st4" d="M215.7,178.5v-0.1c1-0.5,1.6-1.6,1.5-2.8c-0.1-1.8-1.7-3.2-3.6-3.1c-1.6,0.1-2.9,1.4-3.1,3.1v0.6
		h1.4c0.4,0,0.6-0.3,0.7-0.6l0,0c0-0.6,0.5-1.1,1.1-1.1c0,0,0,0,0,0h0.1c0.7,0,1.2,0.5,1.2,1.5s-0.5,1.8-1.4,1.8h-1.3v1.7h1.5
		c0.9,0,1.4,0.7,1.4,1.8s-0.6,1.7-1.4,1.7c-0.7,0-1.3-0.5-1.4-1.2c0-0.1,0-0.1,0-0.2V181h-2.1v0.6c0,1.7,1.4,3.2,3.1,3.2
		c1.8,0,3.4-1.2,3.8-2.9c0-0.1,0-0.2,0-0.4C217.5,180.2,216.8,179.1,215.7,178.5"/>
	<path id="Path_50" class="st4" d="M222,172.5c-2.1,0-3.6,1.3-3.6,3.2v5.8c0,1.9,1.4,3.2,3.6,3.2s3.5-1.3,3.5-3.2v-5.8
		C225.5,173.8,224.1,172.5,222,172.5 M223.4,181.5c0,0.8-0.7,1.4-1.5,1.4c-0.8,0-1.4-0.6-1.4-1.4v-5.7c0-0.8,0.7-1.4,1.5-1.4
		c0.8,0,1.4,0.6,1.4,1.4V181.5z"/>
</g>
<g>
	<path class="st4" d="M18.3,16c0,3.1-0.7,5.5-2,7.2c-1.3,1.7-3.2,2.5-5.6,2.5c-2.3,0-4.2-0.8-5.6-2.4c-1.4-1.6-2.1-3.9-2.1-6.9V12
		c0-3,0.7-5.4,2-7.1c1.3-1.7,3.2-2.6,5.6-2.6c2.4,0,4.3,0.8,5.6,2.5c1.3,1.7,2,4,2.1,7.1V16z M15.4,12c0-2.4-0.4-4.2-1.2-5.4
		c-0.8-1.2-2-1.8-3.6-1.8c-1.6,0-2.8,0.6-3.6,1.8c-0.8,1.2-1.2,2.9-1.2,5.2V16c0,2.3,0.4,4.1,1.2,5.3c0.8,1.2,2,1.8,3.6,1.8
		c1.6,0,2.8-0.6,3.6-1.7c0.8-1.1,1.2-2.8,1.2-5.2V12z"/>
	<path class="st4" d="M23.5,25.3V10.7h-2.2V8.4h2.2v-2c0-1.7,0.5-3.1,1.3-4c0.8-1,2-1.4,3.6-1.4c0.6,0,1.1,0.1,1.7,0.3l-0.1,2.3
		c-0.4-0.1-0.8-0.1-1.3-0.1c-1.6,0-2.4,1.1-2.4,3.4v1.6h2.9v2.2h-2.9v14.7H23.5z"/>
	<path class="st4" d="M33.7,25.3V10.7h-2.2V8.4h2.2v-2c0-1.7,0.5-3.1,1.3-4c0.8-1,2-1.4,3.6-1.4c0.6,0,1.1,0.1,1.7,0.3l-0.1,2.3
		c-0.4-0.1-0.8-0.1-1.3-0.1c-1.6,0-2.4,1.1-2.4,3.4v1.6h2.9v2.2h-2.9v14.7H33.7z"/>
	<path class="st4" d="M45.8,3.9c0,0.5-0.1,0.9-0.4,1.2c-0.3,0.3-0.7,0.5-1.2,0.5c-0.5,0-0.9-0.2-1.2-0.5c-0.3-0.3-0.4-0.7-0.4-1.2
		s0.1-0.9,0.4-1.2c0.3-0.3,0.7-0.5,1.2-0.5c0.5,0,0.9,0.2,1.2,0.5S45.8,3.5,45.8,3.9z M45.6,25.3h-2.8V8.4h2.8V25.3z"/>
	<path class="st4" d="M55.8,23.3c0.9,0,1.7-0.3,2.2-0.9c0.6-0.6,0.9-1.4,0.9-2.4h2.6c-0.1,1.6-0.6,3-1.7,4c-1.1,1.1-2.4,1.6-4,1.6
		c-2.1,0-3.7-0.7-4.8-2c-1.1-1.3-1.6-3.3-1.6-5.9v-1.9c0-2.6,0.5-4.5,1.6-5.8s2.7-2,4.8-2c1.7,0,3.1,0.5,4.1,1.6s1.6,2.6,1.6,4.5
		h-2.6C58.8,13,58.5,12,58,11.4c-0.5-0.6-1.3-0.9-2.2-0.9c-1.2,0-2.1,0.4-2.7,1.2c-0.6,0.8-0.9,2.1-0.9,4v2.2c0,2,0.3,3.4,0.9,4.2
		C53.6,22.9,54.5,23.3,55.8,23.3z"/>
	<path class="st4" d="M67.9,3.9c0,0.5-0.1,0.9-0.4,1.2c-0.3,0.3-0.7,0.5-1.2,0.5c-0.5,0-0.9-0.2-1.2-0.5c-0.3-0.3-0.4-0.7-0.4-1.2
		s0.1-0.9,0.4-1.2c0.3-0.3,0.7-0.5,1.2-0.5c0.5,0,0.9,0.2,1.2,0.5S67.9,3.5,67.9,3.9z M67.7,25.3h-2.8V8.4h2.8V25.3z"/>
	<path class="st4" d="M80.7,25.3c-0.2-0.4-0.3-1-0.4-1.8c-1,1.4-2.2,2.2-3.8,2.2c-1.5,0-2.7-0.4-3.6-1.3s-1.3-2.1-1.3-3.6
		c0-1.7,0.6-3.1,1.8-4.1c1.2-1,2.8-1.5,4.8-1.5h2v-1.8c0-1-0.2-1.7-0.7-2.2c-0.4-0.4-1.1-0.6-2-0.6c-0.8,0-1.5,0.2-2,0.7
		c-0.5,0.5-0.8,1.1-0.8,1.9H72c0-0.9,0.3-1.7,0.8-2.5c0.5-0.8,1.2-1.4,2.1-1.9c0.9-0.4,1.8-0.7,2.9-0.7c1.7,0,3,0.4,3.9,1.3
		c0.9,0.9,1.4,2.1,1.4,3.8v8.5c0,1.3,0.2,2.4,0.5,3.4v0.2H80.7z M77,23.1c0.7,0,1.3-0.2,1.9-0.6c0.6-0.4,1.1-0.8,1.3-1.4v-4h-1.6
		c-1.3,0-2.3,0.3-3.1,0.9c-0.8,0.6-1.1,1.4-1.1,2.4c0,1,0.2,1.7,0.6,2.1C75.5,22.9,76.1,23.1,77,23.1z"/>
	<path class="st4" d="M90.3,25.3h-2.8v-24h2.8V25.3z"/>
	<path class="st4" d="M114.2,17.7c0,2.7-0.5,4.7-1.4,6c-1,1.3-2.3,2-4.1,2c-1.7,0-3-0.6-3.9-1.9v8.1H102V8.4h2.5l0.1,1.9
		c0.9-1.5,2.3-2.2,4-2.2c1.9,0,3.2,0.6,4.2,1.9c0.9,1.3,1.4,3.2,1.4,5.8V17.7z M111.5,16.1c0-1.9-0.3-3.3-0.9-4.2
		c-0.6-0.9-1.5-1.4-2.8-1.4c-1.3,0-2.3,0.7-3,2v8.8c0.7,1.3,1.7,1.9,3,1.9c1.2,0,2.2-0.5,2.8-1.4c0.6-0.9,0.9-2.3,0.9-4.1V16.1z"/>
	<path class="st4" d="M126.5,25.3c-0.2-0.4-0.3-1-0.4-1.8c-1,1.4-2.2,2.2-3.8,2.2c-1.5,0-2.7-0.4-3.6-1.3s-1.3-2.1-1.3-3.6
		c0-1.7,0.6-3.1,1.8-4.1c1.2-1,2.8-1.5,4.8-1.5h2v-1.8c0-1-0.2-1.7-0.7-2.2c-0.4-0.4-1.1-0.6-2-0.6c-0.8,0-1.5,0.2-2,0.7
		c-0.5,0.5-0.8,1.1-0.8,1.9h-2.8c0-0.9,0.3-1.7,0.8-2.5c0.5-0.8,1.2-1.4,2.1-1.9c0.9-0.4,1.8-0.7,2.9-0.7c1.7,0,3,0.4,3.9,1.3
		c0.9,0.9,1.4,2.1,1.4,3.8v8.5c0,1.3,0.2,2.4,0.5,3.4v0.2H126.5z M122.8,23.1c0.7,0,1.3-0.2,1.9-0.6c0.6-0.4,1.1-0.8,1.3-1.4v-4
		h-1.6c-1.3,0-2.3,0.3-3.1,0.9c-0.8,0.6-1.1,1.4-1.1,2.4c0,1,0.2,1.7,0.6,2.1C121.2,22.9,121.9,23.1,122.8,23.1z"/>
	<path class="st4" d="M140.1,11c-0.4-0.1-0.8-0.1-1.2-0.1c-1.4,0-2.4,0.8-3,2.3v12.1h-2.8V8.4h2.7l0,1.7c0.7-1.4,1.8-2,3.1-2
		c0.4,0,0.8,0.1,1.1,0.2L140.1,11z"/>
	<path class="st4" d="M147.2,4.3v4.1h2.5v2.2h-2.5v10.5c0,0.7,0.1,1.2,0.3,1.5s0.6,0.5,1.1,0.5c0.4,0,0.7-0.1,1.1-0.2l0,2.3
		c-0.6,0.2-1.3,0.3-1.9,0.3c-1.1,0-1.9-0.4-2.5-1.2c-0.6-0.8-0.9-1.9-0.9-3.3V10.7h-2.6V8.4h2.6V4.3H147.2z"/>
	<path class="st4" d="M155.7,8.4l0.1,1.8c1.1-1.4,2.4-2.1,4.1-2.1c3,0,4.5,2,4.5,6v11.2h-2.8V14.2c0-1.3-0.2-2.3-0.7-2.8
		c-0.4-0.6-1.1-0.8-2-0.8c-0.7,0-1.3,0.2-1.9,0.7c-0.5,0.5-1,1.1-1.3,1.8v12.3h-2.8V8.4H155.7z"/>
	<path class="st4" d="M174.6,25.6c-2.1,0-3.7-0.6-4.8-1.9c-1.1-1.3-1.7-3.1-1.7-5.5v-2c0-2.5,0.5-4.5,1.6-5.9
		c1.1-1.4,2.6-2.1,4.6-2.1c2,0,3.5,0.6,4.4,1.9c1,1.3,1.5,3.2,1.5,5.9v1.8h-9.4v0.4c0,1.8,0.3,3.1,1,4c0.7,0.8,1.7,1.2,2.9,1.2
		c0.8,0,1.5-0.2,2.1-0.5c0.6-0.3,1.2-0.8,1.7-1.5l1.4,1.8C178.9,24.8,177.1,25.6,174.6,25.6z M174.3,10.5c-1.1,0-2,0.4-2.5,1.2
		c-0.6,0.8-0.9,2-0.9,3.7h6.7V15c-0.1-1.6-0.4-2.8-0.9-3.4C176.1,10.8,175.3,10.5,174.3,10.5z"/>
	<path class="st4" d="M190.5,11c-0.4-0.1-0.8-0.1-1.2-0.1c-1.4,0-2.4,0.8-3,2.3v12.1h-2.8V8.4h2.7l0,1.7c0.7-1.4,1.8-2,3.1-2
		c0.4,0,0.8,0.1,1.1,0.2L190.5,11z"/>
	<path class="st4" d="M200,16.1c0-2.5,0.6-4.4,1.8-5.8c1.2-1.4,2.8-2.1,4.7-2.1c2,0,3.5,0.7,4.7,2.1c1.2,1.4,1.8,3.3,1.8,5.7v1.8
		c0,2.4-0.6,4.4-1.8,5.8c-1.2,1.4-2.8,2.1-4.8,2.1c-2,0-3.5-0.7-4.7-2.1c-1.2-1.4-1.8-3.3-1.8-5.6V16.1z M202.8,17.7
		c0,1.7,0.3,3.1,1,4.1c0.7,1,1.6,1.5,2.8,1.5c2.4,0,3.7-1.8,3.8-5.3v-1.9c0-1.7-0.3-3.1-1-4.1c-0.7-1-1.6-1.5-2.8-1.5
		c-1.1,0-2,0.5-2.7,1.5c-0.7,1-1,2.4-1,4.1V17.7z"/>
	<path class="st4" d="M217.9,25.3V10.7h-2.2V8.4h2.2v-2c0-1.7,0.5-3.1,1.3-4c0.8-1,2-1.4,3.6-1.4c0.6,0,1.1,0.1,1.7,0.3l-0.1,2.3
		c-0.4-0.1-0.8-0.1-1.3-0.1c-1.6,0-2.4,1.1-2.4,3.4v1.6h2.9v2.2h-2.9v14.7H217.9z"/>
</g>
</svg>
